<svg width="700" height="400" viewbox = "0 0 700 400"  xmlns="http://www.w3.org/2000/svg">
<!--<json>{
  "glyph": "0332,0330,0332,0332,0335,0321,0220,0220,0335,0333,0222,0335,0335,0223,0330,0234,0333,0335,0236,0334,0334,0330,0330,0236,0335,0335,0330,0330,0330,0330,0335,0335,0336,0336,0330,0337,0337,0236,0335,0335,0220,0220,0236,0334,0332,0234,0335,0335,0222,0335,0335,0223,0330,0236,0332,0332,0332,0332,0336,0336,0333,0337,0337,0236,0333,0330,0332,0332,0332,0336,0331,0335,0334,0333,0324,0331,0332,0332,0337,0224,0325,0333,0333,0333,0333,0333,0333,0333,0333,0333,0225,0330,0332,0332,0332,0332,0332,0332,0322,0336,0332,0330,0337,0226,0333,0333,0333,0333,0336,0332,0337,0336,0336,0333,0330,0330,0337,0337,0326,0227,0330,0332,0332,0327,0331,0336,0331,0333,0331,0332,0336,0331,0331,0331,0331,0336,0333,0331,0331,0331,0331,0331,0331,0330,0330,0330,0330,0330,0330,0330,0330,0330,0330,0330,0330,0330,0330,0330,0330,0330,0330,0330,0337,0337,0337,0337,0336,0336,0341,0340,0330,0330,",
  "x0": 350,
  "y0": 250,
  "unit": 66.55000000000003,
  "width": 700,
  "height": 400,
  "style": {
    "color0": "black",
    "fill0": "black",
    "line0": 1,
    "color1": "black",
    "fill1": "black",
    "line1": 5,
    "color2": "red",
    "fill2": "red",
    "line2": 10,
    "color3": "#9f8767",
    "fill3": "#9f8767",
    "line3": 10,
    "color4": "yellow",
    "fill4": "yellow",
    "line4": 10,
    "color5": "green",
    "fill5": "green",
    "line5": 10,
    "color6": "blue",
    "fill6": "blue",
    "line6": 10,
    "color7": "purple",
    "fill7": "purple",
    "line7": 10
  },
  "shapes": [
    "0220:0336,0336,0336,0336,0336,0201,0337,0362,0203,0306,0334,0337,0203,0335,0335,0203,0203,0334,0334,0203,0203,0335,0335,0203,0203,0334,0334,0203,0203,0335,0335,0203,0203,0334,0334,0203,0335,0203,0336,0336,0203,0364,0304,0337,0337,0337,0337,0337,",
    "0221:0336,0314,0336,0313,0337,0237,0237,0237,0237,0337,0314,0337,0313,0336,",
    "0222:0336,0336,0362,0203,0336,0203,0334,0364,0337,0342,0335,0335,0342,0332,0342,0335,0335,0342,0335,0336,0362,0203,0337,0203,0335,0364,0335,0337,0337,0335,0335,",
    "0223:0336,0331,0342,0337,0304,0336,0336,0335,0310,0362,0203,0335,0350,0335,0337,0203,0335,0335,0203,0335,0335,0335,0336,0203,0354,0304,0334,0313,0337,0337,0304,0336,0330,0337,",
    "0224:0312,0336,0306,0330,0335,0335,0350,0335,0337,0362,0203,0335,0335,0335,0335,0203,0335,0335,0335,0335,0203,0354,0334,0336,0331,0304,0337,0313,0336,0335,0331,0337,0342,0336,0334,0333,0337,",
    "0225:0335,0335,0224,0335,0335,",
    "0226:0312,0336,0306,0330,0335,0335,0350,0335,0337,0362,0203,0335,0335,0335,0335,0203,0335,0335,0335,0335,0203,0354,0334,0336,0331,0304,0337,0313,",
    "0227:0335,0335,0226,0335,0335,",
    "0230:0335,0201,0336,0331,0335,0337,0234,0220,0234,0334,0336,0331,0337,0342,0334,0333,0330,",
    "0231:0335,0330,0334,0334,0221,0335,0331,0335,0201,0332,0334,",
    "0232:0335,0342,0336,0330,0335,0337,0234,0221,0335,0234,0335,0335,0336,0331,0337,0342,0334,0330,0333,",
    "0233:0335,0236,0333,0236,0334,0330,",
    "0234:0336,0336,0336,0336,0347,0337,0337,0337,0337,",
    "0235:0336,0366,0330,0333,0333,0336,0331,0337,0367,0335,0335,0366,0331,0333,0333,0367,0335,0335,0337,",
    "0236:0336,0201,0336,0336,0330,0341,0331,0337,0337,0331,0337,",
    "0237:0336,0366,0330,0333,0333,0336,0331,0337,0367,0335,0335,0366,0331,0333,0333,0367,0335,0335,0337,",
    "01220:0333,0200,0336,0332,0337,0220,0336,0333,0337,0331,",
    "01221:0333,0200,0336,0332,0337,0336,0336,0336,0332,0337,0337,0337,0221,0331,0336,0333,0336,0336,0333,0337,0337,0337,",
    "01222:0333,0200,0336,0332,0337,0222,0336,0333,0337,0331,",
    "01223:0333,0200,0336,0332,0337,0330,0223,0331,0336,0333,0337,",
    "01224:0333,0200,0336,0330,0332,0336,0337,0224,0331,0333,0337,",
    "01225:0333,0200,0336,0330,0332,0225,0331,0333,0337,",
    "01226:0333,0200,0336,0330,0332,0226,0331,0333,0337,",
    "01227:0333,0200,0336,0330,0332,0227,0331,0333,0337,",
    "01230:0333,0200,0336,0330,0332,0336,0330,0332,0337,0230,0336,0333,0330,0337,0337,0331,",
    "01231:0333,0200,0336,0330,0332,0336,0330,0332,0337,0231,0331,0336,0331,0333,0337,0337,",
    "01232:0333,0200,0336,0330,0332,0336,0330,0332,0337,0232,0336,0333,0330,0337,0337,0331,",
    "01233:0333,0200,0336,0330,0332,0336,0330,0332,0337,0233,0333,0336,0333,0330,0337,0337,0331,",
    "01234:0333,0200,0336,0330,0332,0234,0342,0335,0342,0335,0342,0335,0342,0335,0331,0333,0337,",
    "01235:0333,0200,0336,0330,0332,0336,0332,0330,0337,0235,0331,0336,0333,0331,0337,0337,",
    "01236:0333,0200,0336,0330,0332,0236,0331,0333,0337,",
    "01237:0333,0200,0336,0330,0332,0336,0331,0332,0332,0337,0337,0237,0331,0333,",
    "0240:0220,0336,0331,0333,0336,0321,0335,0342,0335,0335,0342,0335,0330,0330,0332,0332,0337,0337,",
    "01240:0333,0200,0336,0330,0332,0210,0240,0211,0333,0331,0337,",
    "0241:0220,0336,0321,0343,0332,0350,0335,0336,0342,0334,0334,0342,0335,0304,0337,0333,0337,",
    "01241:0333,0200,0336,0332,0330,0210,0241,0211,0333,0331,0337,",
    "0242:0220,0321,0336,0343,0333,0336,0350,0335,0342,0334,0334,0342,0335,0337,0304,0332,0337,",
    "01242:0333,0200,0336,0330,0332,0210,0242,0211,0333,0331,0337,",
    "0243:0220,0336,0331,0332,0336,0321,0343,0332,0350,0334,0336,0342,0335,0335,0342,0337,0334,0334,0335,0304,0332,0330,0330,0337,0337,0333,",
    "01243:0333,0200,0336,0330,0332,0210,0243,0211,0333,0331,0337,",
    "0244:0220,0336,0331,0333,0336,0321,0343,0333,0350,0336,0335,0342,0334,0334,0342,0335,0337,0304,0333,0330,0330,0337,0337,0332,",
    "01244:0333,0200,0336,0330,0332,0210,0244,0211,0333,0331,0337,",
    "0245:0210,0332,0332,0362,0335,0203,0203,0203,0203,0334,0203,0363,0332,0332,0331,0211,",
    "01245:0333,0200,0336,0330,0332,0336,0245,0337,0333,0331,0337,",
    "0246:0210,0332,0332,0335,0306,0336,0330,0335,0335,0335,0321,0362,0203,0335,0335,0203,0364,0331,0350,0335,0337,0366,0333,0333,0333,0333,0334,0334,0334,0334,0367,0335,0336,0342,0334,0334,0342,0330,0330,0330,0330,0335,0335,0335,0304,0337,0211,",
    "01246:0333,0200,0336,0330,0332,0336,0246,",
    "0247:0330,0332,0336,0332,0336,0221,0333,0333,0333,0222,0333,0333,0333,0223,0333,0333,0333,0225,0333,0331,0331,0331,0332,0332,0332,0332,0332,0332,0332,0332,0332,0332,0332,0332,0333,0333,0226,0331,0331,0331,0333,0333,0333,0333,0333,0333,0333,0333,0333,0333,0333,0333,0333,0330,0333,0330,0330,0333,0330,0331,0332,0332,0332,0332,0332,0332,0332,0332,0332,0332,0332,0332,0227,0333,0333,0333,0230,0333,0331,0331,0331,0331,0332,0332,0332,0330,0332,0332,0332,0332,0332,0332,0333,0333,0231,0333,0333,0333,0232,0331,0333,0330,0333,0333,0233,0333,0333,0333,0234,0330,0330,0332,0330,0332,0332,0337,0337,",
    "01247:0333,0200,0336,0330,0332,0220,0336,0247,0337,0331,0333,0337,"
  ]
}</json>-->    <line x1="150" y1="183" x2="152" y2="183" style="stroke:#000000;stroke-width:5" />
	<path d = "M152 183 L157 183 L161 176 L165 183 L169 191 L173 183 L177 176 L182 183 L186 191 L190 183 L194 176 L198 183 L202 191 L207 183 L215 183 L217 183 " stroke = "#000000" stroke-width = "5" fill = "none" />    <line x1="217" y1="183" x2="219" y2="183" style="stroke:#000000;stroke-width:5" />
	<path d = "M219 183 L223 183 L227 176 L231 183 L236 191 L240 183 L244 176 L248 183 L252 191 L256 183 L261 176 L265 183 L269 191 L273 183 L281 183 L283 183 " stroke = "#000000" stroke-width = "5" fill = "none" />	<path d = "M217 183 L217 200 L217 208 " stroke = "#000000" stroke-width = "5" fill = "none" />    <line x1="217" y1="208" x2="234" y2="208" style="stroke:#000000;stroke-width:5" />
    <line x1="217" y1="208" x2="200" y2="208" style="stroke:#000000;stroke-width:5" />
    <line x1="217" y1="225" x2="200" y2="225" style="stroke:#000000;stroke-width:5" />
    <line x1="217" y1="225" x2="234" y2="225" style="stroke:#000000;stroke-width:5" />
	<path d = "M217 225 L217 233 L217 250 " stroke = "#000000" stroke-width = "5" fill = "none" />    <line x1="217" y1="283" x2="217" y2="250" style="stroke:#000000;stroke-width:5" />
	<path d = "M217 283 L234 283 L217 300 L200 283 L217 283 Z" stroke = "#000000" stroke-width = "5" fill = "none" />    <circle cx="217" cy = "183" r = "4.159375000000002" stroke = "#000000" stroke-width = "5" fill = "#000000" />
    <line x1="283" y1="183" x2="317" y2="183" style="stroke:#000000;stroke-width:5" />
<circle cx="325" cy = "183" r = "8.318750000000003" stroke = "#000000" stroke-width = "5" fill = "none" />
    <line x1="150" y1="183" x2="117" y2="183" style="stroke:#000000;stroke-width:5" />
<circle cx="109" cy = "183" r = "8.318750000000003" stroke = "#000000" stroke-width = "5" fill = "none" />
    <line x1="400" y1="183" x2="367" y2="183" style="stroke:#000000;stroke-width:5" />
<circle cx="358" cy = "183" r = "8.318750000000003" stroke = "#000000" stroke-width = "5" fill = "none" />
    <line x1="400" y1="183" x2="402" y2="183" style="stroke:#000000;stroke-width:5" />
	<path d = "M402 183 L406 183 L410 176 L414 183 L419 191 L423 183 L427 176 L431 183 L435 191 L439 183 L444 176 L448 183 L452 191 L456 183 L464 183 L466 183 " stroke = "#000000" stroke-width = "5" fill = "none" />    <line x1="466" y1="183" x2="469" y2="183" style="stroke:#000000;stroke-width:5" />
	<path d = "M469 183 L473 183 L477 176 L481 183 L485 191 L489 183 L493 176 L498 183 L502 191 L506 183 L510 176 L514 183 L518 191 L523 183 L531 183 L533 183 " stroke = "#000000" stroke-width = "5" fill = "none" />    <line x1="533" y1="183" x2="566" y2="183" style="stroke:#000000;stroke-width:5" />
<circle cx="575" cy = "183" r = "8.318750000000003" stroke = "#000000" stroke-width = "5" fill = "none" />
    <circle cx="466" cy = "183" r = "4.159375000000002" stroke = "#000000" stroke-width = "5" fill = "#000000" />
	<path d = "M466 183 L466 200 L466 208 " stroke = "#000000" stroke-width = "5" fill = "none" />    <line x1="466" y1="208" x2="483" y2="208" style="stroke:#000000;stroke-width:5" />
    <line x1="466" y1="208" x2="450" y2="208" style="stroke:#000000;stroke-width:5" />
    <line x1="466" y1="225" x2="450" y2="225" style="stroke:#000000;stroke-width:5" />
    <line x1="466" y1="225" x2="483" y2="225" style="stroke:#000000;stroke-width:5" />
	<path d = "M466 225 L466 233 L466 250 " stroke = "#000000" stroke-width = "5" fill = "none" />    <line x1="466" y1="283" x2="466" y2="250" style="stroke:#000000;stroke-width:5" />
	<path d = "M466 283 L483 283 L466 300 L450 283 L466 283 Z" stroke = "#000000" stroke-width = "5" fill = "none" />    <line x1="466" y1="183" x2="466" y2="150" style="stroke:#000000;stroke-width:5" />
<circle cx="466" cy = "142" r = "8.318750000000003" stroke = "#000000" stroke-width = "5" fill = "none" />
    <line x1="217" y1="183" x2="217" y2="150" style="stroke:#000000;stroke-width:5" />
<circle cx="217" cy = "142" r = "8.318750000000003" stroke = "#000000" stroke-width = "5" fill = "none" />
	<path d = "M51 145 L84 203 L17 203 L51 145 Z" stroke = "#ffff00" stroke-width = "10" fill = "none" />    <line x1="17" y1="183" x2="84" y2="183" style="stroke:#ffff00;stroke-width:10" />
	<path d = "M649 222 L616 164 L683 164 L649 222 Z" stroke = "#008000" stroke-width = "10" fill = "none" />    <line x1="683" y1="183" x2="616" y2="183" style="stroke:#008000;stroke-width:10" />
	<path d = "M217 45 L250 103 L184 103 L217 45 Z" stroke = "#ff0000" stroke-width = "10" fill = "none" />	<path d = "M466 89 L433 31 L500 31 L466 89 Z" stroke = "#0000ff" stroke-width = "10" fill = "none" /><circle cx="342" cy = "75" r = "33.27500000000001" stroke = "#800080" stroke-width = "10" fill = "none" />
<circle cx="342" cy = "75" r = "10" stroke = "#800080" stroke-width = "10" fill = "#800080" />
</svg>