<svg width="800" height="800" viewbox = "0 0 800 800"  xmlns="http://www.w3.org/2000/svg">
 <path d = "M0 800 L1 502.5882352941177 L2 539.2941176470588 L3 564.7058823529412 L4 522.3529411764706 L5 451.7647058823529 L6 434.8235294117647 L7 460.2352941176471 L8 437.6470588235294 L9 392.47058823529414 L10 403.7647058823529 L11 494.11764705882354 L12 547.7647058823529 L13 564.7058823529412 L14 601.4117647058823 L15 578.8235294117646 L16 536.4705882352941 L17 513.8823529411765 L18 496.94117647058823 L19 533.6470588235294 L20 556.2352941176471 L21 533.6470588235294 L22 542.1176470588235 L23 578.8235294117646 L24 536.4705882352941 L25 516.7058823529412 L26 446.11764705882354 L27 420.70588235294116 L28 406.5882352941176 L29 451.7647058823529 L30 496.94117647058823 L31 485.6470588235294 L32 485.6470588235294 L33 511.0588235294117 L34 576 L35 530.8235294117646 L36 519.5294117647059 L37 553.4117647058823 L38 556.2352941176471 L39 581.6470588235294 L40 584.4705882352941 L41 581.6470588235294 L42 567.5294117647059 L43 561.8823529411765 L44 542.1176470588235 L45 496.94117647058823 L46 491.29411764705884 L47 542.1176470588235 L48 567.5294117647059 L49 584.4705882352941 L50 578.8235294117646 L51 618.3529411764706 L52 618.3529411764706 L53 564.7058823529412 L54 525.1764705882354 L55 488.4705882352941 L56 485.6470588235294 L57 496.94117647058823 L58 533.6470588235294 L59 533.6470588235294 L60 513.8823529411765 L61 496.94117647058823 L62 499.7647058823529 L63 528 L64 516.7058823529412 L65 508.2352941176471 L66 536.4705882352941 L67 544.9411764705883 L68 539.2941176470588 L69 564.7058823529412 L70 561.8823529411765 L71 539.2941176470588 L72 530.8235294117646 L73 578.8235294117646 L74 581.6470588235294 L75 604.2352941176471 L76 635.2941176470588 L77 640.9411764705883 L78 618.3529411764706 L79 607.0588235294117 L80 598.5882352941177 L81 601.4117647058823 L82 624 L83 629.6470588235294 L84 612.7058823529412 L85 584.4705882352941 L86 601.4117647058823 L87 624 L88 592.9411764705883 L89 561.8823529411765 L90 544.9411764705883 L91 547.7647058823529 L92 547.7647058823529 L93 536.4705882352941 L94 581.6470588235294 L95 598.5882352941177 L96 604.2352941176471 L97 640.9411764705883 L98 646.5882352941177 L99 626.8235294117646 L100 601.4117647058823 L101 595.7647058823529 L102 578.8235294117646 L103 590.1176470588235 L104 618.3529411764706 L105 677.6470588235294 L106 666.3529411764706 L107 646.5882352941177 L108 652.2352941176471 L109 697.4117647058823 L110 672 L111 643.7647058823529 L112 632.4705882352941 L113 660.7058823529412 L114 703.0588235294117 L115 694.5882352941177 L116 720 L117 720 L118 720 L119 700.2352941176471 L120 672 L121 677.6470588235294 L122 652.2352941176471 L123 691.7647058823529 L124 657.8823529411765 L125 604.2352941176471 L126 581.6470588235294 L127 564.7058823529412 L128 553.4117647058823 L129 539.2941176470588 L130 530.8235294117646 L131 553.4117647058823 L132 576 L133 578.8235294117646 L134 578.8235294117646 L135 590.1176470588235 L136 626.8235294117646 L137 669.1764705882352 L138 669.1764705882352 L139 657.8823529411765 L140 655.0588235294117 L141 660.7058823529412 L142 686.1176470588235 L143 720 L144 720 L145 720 L146 697.4117647058823 L147 686.1176470588235 L148 660.7058823529412 L149 635.2941176470588 L150 640.9411764705883 L151 655.0588235294117 L152 652.2352941176471 L153 655.0588235294117 L154 697.4117647058823 L155 720 L156 680.4705882352941 L157 649.4117647058823 L158 632.4705882352941 L159 629.6470588235294 L160 643.7647058823529 L161 657.8823529411765 L162 688.9411764705883 L163 666.3529411764706 L164 655.0588235294117 L165 601.4117647058823 L166 570.3529411764706 L167 576 L168 609.8823529411765 L169 663.5294117647059 L170 604.2352941176471 L171 533.6470588235294 L172 508.2352941176471 L173 528 L174 564.7058823529412 L175 542.1176470588235 L176 516.7058823529412 L177 516.7058823529412 L178 511.0588235294117 L179 496.94117647058823 L180 482.8235294117647 L181 468.7058823529412 L182 485.6470588235294 L183 539.2941176470588 L184 598.5882352941177 L185 576 L186 528 L187 477.17647058823525 L188 463.05882352941177 L189 474.3529411764706 L190 502.5882352941177 L191 578.8235294117646 L192 533.6470588235294 L193 516.7058823529412 L194 485.6470588235294 L195 488.4705882352941 L196 547.7647058823529 L197 511.0588235294117 L198 482.8235294117647 L199 480 L200 505.4117647058823 L201 502.5882352941177 L202 505.4117647058823 L203 544.9411764705883 L204 505.4117647058823 L205 511.0588235294117 L206 488.4705882352941 L207 482.8235294117647 L208 508.2352941176471 L209 544.9411764705883 L210 570.3529411764706 L211 564.7058823529412 L212 581.6470588235294 L213 609.8823529411765 L214 573.1764705882354 L215 550.5882352941177 L216 573.1764705882354 L217 576 L218 584.4705882352941 L219 561.8823529411765 L220 519.5294117647059 L221 522.3529411764706 L222 553.4117647058823 L223 590.1176470588235 L224 584.4705882352941 L225 601.4117647058823 L226 621.1764705882352 L227 663.5294117647059 L228 646.5882352941177 L229 640.9411764705883 L230 587.2941176470588 L231 581.6470588235294 L232 573.1764705882354 L233 542.1176470588235 L234 567.5294117647059 L235 624 L236 590.1176470588235 L237 570.3529411764706 L238 590.1176470588235 L239 595.7647058823529 L240 561.8823529411765 L241 581.6470588235294 L242 612.7058823529412 L243 663.5294117647059 L244 624 L245 595.7647058823529 L246 615.5294117647059 L247 604.2352941176471 L248 564.7058823529412 L249 573.1764705882354 L250 618.3529411764706 L251 629.6470588235294 L252 578.8235294117646 L253 533.6470588235294 L254 511.0588235294117 L255 519.5294117647059 L256 544.9411764705883 L257 550.5882352941177 L258 564.7058823529412 L259 592.9411764705883 L260 576 L261 576 L262 590.1176470588235 L263 564.7058823529412 L264 564.7058823529412 L265 601.4117647058823 L266 624 L267 640.9411764705883 L268 604.2352941176471 L269 598.5882352941177 L270 550.5882352941177 L271 525.1764705882354 L272 522.3529411764706 L273 499.7647058823529 L274 494.11764705882354 L275 536.4705882352941 L276 542.1176470588235 L277 525.1764705882354 L278 502.5882352941177 L279 530.8235294117646 L280 570.3529411764706 L281 564.7058823529412 L282 601.4117647058823 L283 559.0588235294117 L284 556.2352941176471 L285 595.7647058823529 L286 556.2352941176471 L287 559.0588235294117 L288 559.0588235294117 L289 505.4117647058823 L290 508.2352941176471 L291 556.2352941176471 L292 595.7647058823529 L293 556.2352941176471 L294 559.0588235294117 L295 607.0588235294117 L296 635.2941176470588 L297 629.6470588235294 L298 581.6470588235294 L299 567.5294117647059 L300 581.6470588235294 L301 632.4705882352941 L302 635.2941176470588 L303 592.9411764705883 L304 590.1176470588235 L305 544.9411764705883 L306 539.2941176470588 L307 564.7058823529412 L308 570.3529411764706 L309 536.4705882352941 L310 550.5882352941177 L311 559.0588235294117 L312 542.1176470588235 L313 550.5882352941177 L314 570.3529411764706 L315 576 L316 576 L317 561.8823529411765 L318 573.1764705882354 L319 590.1176470588235 L320 559.0588235294117 L321 508.2352941176471 L322 516.7058823529412 L323 561.8823529411765 L324 561.8823529411765 L325 584.4705882352941 L326 556.2352941176471 L327 559.0588235294117 L328 598.5882352941177 L329 581.6470588235294 L330 607.0588235294117 L331 624 L332 576 L333 536.4705882352941 L334 513.8823529411765 L335 519.5294117647059 L336 542.1176470588235 L337 587.2941176470588 L338 643.7647058823529 L339 638.1176470588235 L340 609.8823529411765 L341 598.5882352941177 L342 640.9411764705883 L343 609.8823529411765 L344 578.8235294117646 L345 567.5294117647059 L346 536.4705882352941 L347 513.8823529411765 L348 480 L349 474.3529411764706 L350 499.7647058823529 L351 544.9411764705883 L352 595.7647058823529 L353 640.9411764705883 L354 657.8823529411765 L355 609.8823529411765 L356 559.0588235294117 L357 567.5294117647059 L358 609.8823529411765 L359 550.5882352941177 L360 553.4117647058823 L361 601.4117647058823 L362 652.2352941176471 L363 601.4117647058823 L364 553.4117647058823 L365 576 L366 626.8235294117646 L367 592.9411764705883 L368 539.2941176470588 L369 522.3529411764706 L370 519.5294117647059 L371 516.7058823529412 L372 536.4705882352941 L373 573.1764705882354 L374 496.94117647058823 L375 451.7647058823529 L376 460.2352941176471 L377 496.94117647058823 L378 522.3529411764706 L379 567.5294117647059 L380 530.8235294117646 L381 539.2941176470588 L382 604.2352941176471 L383 590.1176470588235 L384 604.2352941176471 L385 590.1176470588235 L386 607.0588235294117 L387 516.7058823529412 L388 482.8235294117647 L389 482.8235294117647 L390 508.2352941176471 L391 570.3529411764706 L392 559.0588235294117 L393 584.4705882352941 L394 567.5294117647059 L395 567.5294117647059 L396 561.8823529411765 L397 578.8235294117646 L398 578.8235294117646 L399 536.4705882352941 L400 505.4117647058823 L401 528 L402 536.4705882352941 L403 567.5294117647059 L404 539.2941176470588 L405 542.1176470588235 L406 592.9411764705883 L407 609.8823529411765 L408 590.1176470588235 L409 607.0588235294117 L410 561.8823529411765 L411 550.5882352941177 L412 607.0588235294117 L413 624 L414 581.6470588235294 L415 564.7058823529412 L416 544.9411764705883 L417 561.8823529411765 L418 626.8235294117646 L419 629.6470588235294 L420 584.4705882352941 L421 604.2352941176471 L422 607.0588235294117 L423 590.1176470588235 L424 615.5294117647059 L425 626.8235294117646 L426 632.4705882352941 L427 646.5882352941177 L428 570.3529411764706 L429 547.7647058823529 L430 581.6470588235294 L431 595.7647058823529 L432 564.7058823529412 L433 595.7647058823529 L434 592.9411764705883 L435 564.7058823529412 L436 578.8235294117646 L437 567.5294117647059 L438 564.7058823529412 L439 604.2352941176471 L440 655.0588235294117 L441 612.7058823529412 L442 598.5882352941177 L443 607.0588235294117 L444 632.4705882352941 L445 683.2941176470588 L446 691.7647058823529 L447 649.4117647058823 L448 646.5882352941177 L449 660.7058823529412 L450 635.2941176470588 L451 646.5882352941177 L452 660.7058823529412 L453 609.8823529411765 L454 598.5882352941177 L455 629.6470588235294 L456 607.0588235294117 L457 643.7647058823529 L458 666.3529411764706 L459 669.1764705882352 L460 643.7647058823529 L461 638.1176470588235 L462 655.0588235294117 L463 657.8823529411765 L464 632.4705882352941 L465 640.9411764705883 L466 683.2941176470588 L467 649.4117647058823 L468 640.9411764705883 L469 663.5294117647059 L470 640.9411764705883 L471 663.5294117647059 L472 601.4117647058823 L473 573.1764705882354 L474 584.4705882352941 L475 626.8235294117646 L476 638.1176470588235 L477 629.6470588235294 L478 677.6470588235294 L479 720 L480 655.0588235294117 L481 643.7647058823529 L482 672 L483 663.5294117647059 L484 674.8235294117648 L485 635.2941176470588 L486 635.2941176470588 L487 615.5294117647059 L488 607.0588235294117 L489 626.8235294117646 L490 612.7058823529412 L491 576 L492 570.3529411764706 L493 559.0588235294117 L494 542.1176470588235 L495 542.1176470588235 L496 559.0588235294117 L497 590.1176470588235 L498 612.7058823529412 L499 638.1176470588235 L500 635.2941176470588 L501 626.8235294117646 L502 629.6470588235294 L503 646.5882352941177 L504 615.5294117647059 L505 601.4117647058823 L506 612.7058823529412 L507 576 L508 528 L509 513.8823529411765 L510 533.6470588235294 L511 539.2941176470588 L512 559.0588235294117 L513 598.5882352941177 L514 595.7647058823529 L515 607.0588235294117 L516 573.1764705882354 L517 564.7058823529412 L518 578.8235294117646 L519 601.4117647058823 L520 609.8823529411765 L521 618.3529411764706 L522 564.7058823529412 L523 525.1764705882354 L524 519.5294117647059 L525 544.9411764705883 L526 587.2941176470588 L527 635.2941176470588 L528 655.0588235294117 L529 657.8823529411765 L530 683.2941176470588 L531 697.4117647058823 L532 677.6470588235294 L533 652.2352941176471 L534 657.8823529411765 L535 700.2352941176471 L536 720 L537 720 L538 691.7647058823529 L539 694.5882352941177 L540 672 L541 672 L542 720 L543 720 L544 700.2352941176471 L545 652.2352941176471 L546 640.9411764705883 L547 655.0588235294117 L548 657.8823529411765 L549 703.0588235294117 L550 720 L551 708.7058823529412 L552 694.5882352941177 L553 720 L554 720 L555 720 L556 720 L557 720 L558 720 L559 720 L560 720 L561 720 L562 720 L563 720 L564 720 L565 720 L566 720 L567 720 L568 720 L569 720 L570 720 L571 720 L572 720 L573 708.7058823529412 L574 720 L575 720 L576 717.1764705882352 L577 700.2352941176471 L578 720 L579 708.7058823529412 L580 672 L581 703.0588235294117 L582 705.8823529411765 L583 655.0588235294117 L584 640.9411764705883 L585 655.0588235294117 L586 677.6470588235294 L587 714.3529411764706 L588 705.8823529411765 L589 660.7058823529412 L590 660.7058823529412 L591 703.0588235294117 L592 703.0588235294117 L593 720 L594 720 L595 697.4117647058823 L596 703.0588235294117 L597 672 L598 655.0588235294117 L599 669.1764705882352 L600 711.5294117647059 L601 657.8823529411765 L602 672 L603 717.1764705882352 L604 677.6470588235294 L605 694.5882352941177 L606 720 L607 720 L608 720 L609 700.2352941176471 L610 720 L611 720 L612 720 L613 720 L614 694.5882352941177 L615 677.6470588235294 L616 649.4117647058823 L617 649.4117647058823 L618 652.2352941176471 L619 674.8235294117648 L620 703.0588235294117 L621 717.1764705882352 L622 714.3529411764706 L623 691.7647058823529 L624 657.8823529411765 L625 657.8823529411765 L626 711.5294117647059 L627 720 L628 720 L629 720 L630 711.5294117647059 L631 708.7058823529412 L632 720 L633 720 L634 720 L635 720 L636 711.5294117647059 L637 720 L638 720 L639 720 L640 720 L641 720 L642 720 L643 720 L644 720 L645 720 L646 720 L647 720 L648 720 L649 720 L650 720 L651 720 L652 720 L653 720 L654 720 L655 720 L656 720 L657 720 L658 720 L659 720 L660 720 L661 720 L662 720 L663 720 L664 720 L665 720 L666 720 L667 720 L668 720 L669 720 L670 720 L671 720 L672 720 L673 720 L674 720 L675 720 L676 720 L677 720 L678 720 L679 720 L680 720 L681 720 L682 720 L683 720 L684 720 L685 720 L686 720 L687 720 L688 720 L689 720 L690 720 L691 720 L692 720 L693 720 L694 720 L695 720 L696 720 L697 720 L698 720 L699 720 L700 800  Z" stroke = "#000000" stroke-width = "1" fill = "#9f876780" />
</svg>