<svg width="800" height="800" viewbox = "0 0 800 800"  xmlns="http://www.w3.org/2000/svg">
 <path d = "M0 800 L1 488.4705882352941 L2 533.6470588235294 L3 570.3529411764706 L4 530.8235294117646 L5 465.88235294117646 L6 440.4705882352941 L7 460.2352941176471 L8 426.3529411764706 L9 381.1764705882353 L10 403.7647058823529 L11 499.7647058823529 L12 559.0588235294117 L13 587.2941176470588 L14 621.1764705882352 L15 587.2941176470588 L16 544.9411764705883 L17 488.4705882352941 L18 468.7058823529412 L19 519.5294117647059 L20 553.4117647058823 L21 533.6470588235294 L22 544.9411764705883 L23 598.5882352941177 L24 553.4117647058823 L25 522.3529411764706 L26 437.6470588235294 L27 412.2352941176471 L28 412.2352941176471 L29 437.6470588235294 L30 488.4705882352941 L31 494.11764705882354 L32 499.7647058823529 L33 528 L34 570.3529411764706 L35 536.4705882352941 L36 519.5294117647059 L37 547.7647058823529 L38 576 L39 604.2352941176471 L40 609.8823529411765 L41 601.4117647058823 L42 581.6470588235294 L43 564.7058823529412 L44 556.2352941176471 L45 511.0588235294117 L46 505.4117647058823 L47 553.4117647058823 L48 567.5294117647059 L49 570.3529411764706 L50 581.6470588235294 L51 626.8235294117646 L52 632.4705882352941 L53 595.7647058823529 L54 550.5882352941177 L55 516.7058823529412 L56 513.8823529411765 L57 516.7058823529412 L58 542.1176470588235 L59 553.4117647058823 L60 528 L61 499.7647058823529 L62 494.11764705882354 L63 525.1764705882354 L64 533.6470588235294 L65 522.3529411764706 L66 553.4117647058823 L67 576 L68 550.5882352941177 L69 564.7058823529412 L70 576 L71 559.0588235294117 L72 550.5882352941177 L73 590.1176470588235 L74 595.7647058823529 L75 615.5294117647059 L76 663.5294117647059 L77 669.1764705882352 L78 640.9411764705883 L79 624 L80 615.5294117647059 L81 624 L82 640.9411764705883 L83 640.9411764705883 L84 618.3529411764706 L85 601.4117647058823 L86 624 L87 643.7647058823529 L88 621.1764705882352 L89 595.7647058823529 L90 581.6470588235294 L91 578.8235294117646 L92 576 L93 559.0588235294117 L94 598.5882352941177 L95 621.1764705882352 L96 621.1764705882352 L97 655.0588235294117 L98 663.5294117647059 L99 643.7647058823529 L100 621.1764705882352 L101 618.3529411764706 L102 607.0588235294117 L103 615.5294117647059 L104 635.2941176470588 L105 663.5294117647059 L106 657.8823529411765 L107 663.5294117647059 L108 680.4705882352941 L109 720 L110 697.4117647058823 L111 674.8235294117648 L112 666.3529411764706 L113 688.9411764705883 L114 714.3529411764706 L115 705.8823529411765 L116 720 L117 720 L118 720 L119 720 L120 700.2352941176471 L121 703.0588235294117 L122 669.1764705882352 L123 683.2941176470588 L124 643.7647058823529 L125 624 L126 612.7058823529412 L127 590.1176470588235 L128 576 L129 564.7058823529412 L130 559.0588235294117 L131 576 L132 592.9411764705883 L133 595.7647058823529 L134 609.8823529411765 L135 621.1764705882352 L136 655.0588235294117 L137 694.5882352941177 L138 694.5882352941177 L139 683.2941176470588 L140 669.1764705882352 L141 669.1764705882352 L142 700.2352941176471 L143 720 L144 720 L145 720 L146 720 L147 708.7058823529412 L148 683.2941176470588 L149 666.3529411764706 L150 677.6470588235294 L151 688.9411764705883 L152 680.4705882352941 L153 686.1176470588235 L154 720 L155 720 L156 711.5294117647059 L157 677.6470588235294 L158 660.7058823529412 L159 663.5294117647059 L160 680.4705882352941 L161 694.5882352941177 L162 711.5294117647059 L163 688.9411764705883 L164 680.4705882352941 L165 629.6470588235294 L166 604.2352941176471 L167 612.7058823529412 L168 643.7647058823529 L169 691.7647058823529 L170 638.1176470588235 L171 570.3529411764706 L172 542.1176470588235 L173 561.8823529411765 L174 598.5882352941177 L175 573.1764705882354 L176 550.5882352941177 L177 553.4117647058823 L178 547.7647058823529 L179 536.4705882352941 L180 516.7058823529412 L181 502.5882352941177 L182 522.3529411764706 L183 576 L184 632.4705882352941 L185 609.8823529411765 L186 561.8823529411765 L187 511.0588235294117 L188 499.7647058823529 L189 508.2352941176471 L190 536.4705882352941 L191 609.8823529411765 L192 570.3529411764706 L193 553.4117647058823 L194 516.7058823529412 L195 516.7058823529412 L196 573.1764705882354 L197 544.9411764705883 L198 519.5294117647059 L199 511.0588235294117 L200 533.6470588235294 L201 533.6470588235294 L202 542.1176470588235 L203 578.8235294117646 L204 539.2941176470588 L205 542.1176470588235 L206 522.3529411764706 L207 516.7058823529412 L208 542.1176470588235 L209 581.6470588235294 L210 604.2352941176471 L211 601.4117647058823 L212 615.5294117647059 L213 643.7647058823529 L214 607.0588235294117 L215 590.1176470588235 L216 607.0588235294117 L217 607.0588235294117 L218 621.1764705882352 L219 598.5882352941177 L220 556.2352941176471 L221 559.0588235294117 L222 590.1176470588235 L223 624 L224 618.3529411764706 L225 632.4705882352941 L226 655.0588235294117 L227 694.5882352941177 L228 680.4705882352941 L229 669.1764705882352 L230 618.3529411764706 L231 609.8823529411765 L232 604.2352941176471 L233 576 L234 604.2352941176471 L235 657.8823529411765 L236 626.8235294117646 L237 604.2352941176471 L238 621.1764705882352 L239 624 L240 595.7647058823529 L241 612.7058823529412 L242 643.7647058823529 L243 688.9411764705883 L244 652.2352941176471 L245 629.6470588235294 L246 640.9411764705883 L247 626.8235294117646 L248 590.1176470588235 L249 604.2352941176471 L250 652.2352941176471 L251 660.7058823529412 L252 612.7058823529412 L253 567.5294117647059 L254 547.7647058823529 L255 553.4117647058823 L256 581.6470588235294 L257 584.4705882352941 L258 598.5882352941177 L259 626.8235294117646 L260 615.5294117647059 L261 612.7058823529412 L262 621.1764705882352 L263 598.5882352941177 L264 598.5882352941177 L265 635.2941176470588 L266 663.5294117647059 L267 677.6470588235294 L268 640.9411764705883 L269 629.6470588235294 L270 581.6470588235294 L271 553.4117647058823 L272 556.2352941176471 L273 536.4705882352941 L274 528 L275 570.3529411764706 L276 573.1764705882354 L277 559.0588235294117 L278 542.1176470588235 L279 567.5294117647059 L280 604.2352941176471 L281 601.4117647058823 L282 635.2941176470588 L283 592.9411764705883 L284 592.9411764705883 L285 626.8235294117646 L286 595.7647058823529 L287 595.7647058823529 L288 595.7647058823529 L289 542.1176470588235 L290 544.9411764705883 L291 590.1176470588235 L292 629.6470588235294 L293 592.9411764705883 L294 595.7647058823529 L295 640.9411764705883 L296 669.1764705882352 L297 669.1764705882352 L298 615.5294117647059 L299 598.5882352941177 L300 615.5294117647059 L301 666.3529411764706 L302 672 L303 629.6470588235294 L304 626.8235294117646 L305 581.6470588235294 L306 578.8235294117646 L307 604.2352941176471 L308 604.2352941176471 L309 576 L310 587.2941176470588 L311 590.1176470588235 L312 578.8235294117646 L313 587.2941176470588 L314 607.0588235294117 L315 612.7058823529412 L316 615.5294117647059 L317 598.5882352941177 L318 607.0588235294117 L319 624 L320 592.9411764705883 L321 544.9411764705883 L322 553.4117647058823 L323 595.7647058823529 L324 595.7647058823529 L325 615.5294117647059 L326 590.1176470588235 L327 595.7647058823529 L328 635.2941176470588 L329 618.3529411764706 L330 643.7647058823529 L331 649.4117647058823 L332 604.2352941176471 L333 570.3529411764706 L334 547.7647058823529 L335 550.5882352941177 L336 576 L337 618.3529411764706 L338 674.8235294117648 L339 672 L340 643.7647058823529 L341 632.4705882352941 L342 672 L343 643.7647058823529 L344 612.7058823529412 L345 601.4117647058823 L346 570.3529411764706 L347 550.5882352941177 L348 513.8823529411765 L349 511.0588235294117 L350 536.4705882352941 L351 578.8235294117646 L352 626.8235294117646 L353 674.8235294117648 L354 691.7647058823529 L355 643.7647058823529 L356 592.9411764705883 L357 601.4117647058823 L358 635.2941176470588 L359 584.4705882352941 L360 590.1176470588235 L361 635.2941176470588 L362 680.4705882352941 L363 632.4705882352941 L364 584.4705882352941 L365 601.4117647058823 L366 660.7058823529412 L367 618.3529411764706 L368 573.1764705882354 L369 559.0588235294117 L370 553.4117647058823 L371 553.4117647058823 L372 576 L373 609.8823529411765 L374 533.6470588235294 L375 491.29411764705884 L376 496.94117647058823 L377 530.8235294117646 L378 559.0588235294117 L379 604.2352941176471 L380 567.5294117647059 L381 573.1764705882354 L382 632.4705882352941 L383 621.1764705882352 L384 638.1176470588235 L385 626.8235294117646 L386 640.9411764705883 L387 553.4117647058823 L388 516.7058823529412 L389 522.3529411764706 L390 544.9411764705883 L391 604.2352941176471 L392 592.9411764705883 L393 615.5294117647059 L394 601.4117647058823 L395 604.2352941176471 L396 592.9411764705883 L397 607.0588235294117 L398 609.8823529411765 L399 570.3529411764706 L400 544.9411764705883 L401 567.5294117647059 L402 576 L403 604.2352941176471 L404 576 L405 578.8235294117646 L406 629.6470588235294 L407 643.7647058823529 L408 626.8235294117646 L409 643.7647058823529 L410 598.5882352941177 L411 590.1176470588235 L412 643.7647058823529 L413 660.7058823529412 L414 618.3529411764706 L415 598.5882352941177 L416 581.6470588235294 L417 598.5882352941177 L418 663.5294117647059 L419 663.5294117647059 L420 621.1764705882352 L421 635.2941176470588 L422 640.9411764705883 L423 624 L424 649.4117647058823 L425 660.7058823529412 L426 663.5294117647059 L427 680.4705882352941 L428 607.0588235294117 L429 584.4705882352941 L430 618.3529411764706 L431 632.4705882352941 L432 601.4117647058823 L433 632.4705882352941 L434 629.6470588235294 L435 598.5882352941177 L436 612.7058823529412 L437 601.4117647058823 L438 598.5882352941177 L439 638.1176470588235 L440 691.7647058823529 L441 646.5882352941177 L442 629.6470588235294 L443 640.9411764705883 L444 666.3529411764706 L445 717.1764705882352 L446 720 L447 680.4705882352941 L448 677.6470588235294 L449 691.7647058823529 L450 660.7058823529412 L451 663.5294117647059 L452 677.6470588235294 L453 640.9411764705883 L454 629.6470588235294 L455 660.7058823529412 L456 638.1176470588235 L457 674.8235294117648 L458 691.7647058823529 L459 694.5882352941177 L460 674.8235294117648 L461 672 L462 686.1176470588235 L463 691.7647058823529 L464 666.3529411764706 L465 674.8235294117648 L466 717.1764705882352 L467 680.4705882352941 L468 672 L469 697.4117647058823 L470 674.8235294117648 L471 694.5882352941177 L472 638.1176470588235 L473 609.8823529411765 L474 618.3529411764706 L475 660.7058823529412 L476 672 L477 663.5294117647059 L478 711.5294117647059 L479 720 L480 686.1176470588235 L481 677.6470588235294 L482 703.0588235294117 L483 697.4117647058823 L484 711.5294117647059 L485 669.1764705882352 L486 672 L487 652.2352941176471 L488 640.9411764705883 L489 660.7058823529412 L490 646.5882352941177 L491 609.8823529411765 L492 607.0588235294117 L493 595.7647058823529 L494 576 L495 578.8235294117646 L496 595.7647058823529 L497 624 L498 649.4117647058823 L499 672 L500 666.3529411764706 L501 660.7058823529412 L502 660.7058823529412 L503 677.6470588235294 L504 652.2352941176471 L505 638.1176470588235 L506 649.4117647058823 L507 609.8823529411765 L508 564.7058823529412 L509 550.5882352941177 L510 570.3529411764706 L511 576 L512 592.9411764705883 L513 632.4705882352941 L514 632.4705882352941 L515 643.7647058823529 L516 609.8823529411765 L517 601.4117647058823 L518 615.5294117647059 L519 635.2941176470588 L520 640.9411764705883 L521 652.2352941176471 L522 601.4117647058823 L523 561.8823529411765 L524 553.4117647058823 L525 581.6470588235294 L526 621.1764705882352 L527 669.1764705882352 L528 688.9411764705883 L529 691.7647058823529 L530 717.1764705882352 L531 720 L532 708.7058823529412 L533 686.1176470588235 L534 694.5882352941177 L535 720 L536 720 L537 720 L538 720 L539 720 L540 705.8823529411765 L541 705.8823529411765 L542 720 L543 720 L544 720 L545 686.1176470588235 L546 677.6470588235294 L547 688.9411764705883 L548 694.5882352941177 L549 720 L550 720 L551 720 L552 720 L553 720 L554 720 L555 720 L556 720 L557 720 L558 720 L559 720 L560 720 L561 720 L562 720 L563 720 L564 720 L565 720 L566 720 L567 720 L568 720 L569 720 L570 720 L571 720 L572 720 L573 720 L574 720 L575 720 L576 720 L577 720 L578 720 L579 720 L580 700.2352941176471 L581 720 L582 720 L583 686.1176470588235 L584 672 L585 686.1176470588235 L586 711.5294117647059 L587 720 L588 720 L589 694.5882352941177 L590 694.5882352941177 L591 720 L592 720 L593 720 L594 720 L595 720 L596 720 L597 703.0588235294117 L598 688.9411764705883 L599 703.0588235294117 L600 720 L601 694.5882352941177 L602 708.7058823529412 L603 720 L604 711.5294117647059 L605 720 L606 720 L607 720 L608 720 L609 720 L610 720 L611 720 L612 720 L613 720 L614 720 L615 711.5294117647059 L616 683.2941176470588 L617 683.2941176470588 L618 686.1176470588235 L619 708.7058823529412 L620 720 L621 720 L622 720 L623 720 L624 697.4117647058823 L625 694.5882352941177 L626 720 L627 720 L628 720 L629 720 L630 720 L631 720 L632 720 L633 720 L634 720 L635 720 L636 720 L637 720 L638 720 L639 720 L640 720 L641 720 L642 720 L643 720 L644 720 L645 720 L646 720 L647 720 L648 720 L649 720 L650 720 L651 720 L652 720 L653 720 L654 720 L655 720 L656 720 L657 720 L658 720 L659 720 L660 720 L661 720 L662 720 L663 720 L664 720 L665 720 L666 720 L667 720 L668 720 L669 720 L670 720 L671 720 L672 720 L673 720 L674 720 L675 720 L676 720 L677 720 L678 720 L679 720 L680 720 L681 720 L682 720 L683 720 L684 720 L685 720 L686 720 L687 720 L688 720 L689 720 L690 720 L691 720 L692 720 L693 720 L694 720 L695 720 L696 720 L697 720 L698 720 L699 720 L700 800  Z" stroke = "#000000" stroke-width = "1" fill = "#9f876780" />
</svg>