<svg width="800" height="800" viewbox = "0 0 800 800"  xmlns="http://www.w3.org/2000/svg">
 <path d = "M0 800 L1 485.6470588235294 L2 496.94117647058823 L3 539.2941176470588 L4 477.17647058823525 L5 381.1764705882353 L6 324.70588235294116 L7 313.4117647058824 L8 245.6470588235294 L9 163.76470588235293 L10 152.47058823529414 L11 217.41176470588238 L12 310.5882352941177 L13 347.2941176470588 L14 352.9411764705883 L15 341.6470588235294 L16 316.2352941176471 L17 296.4705882352941 L18 296.4705882352941 L19 285.1764705882353 L20 296.4705882352941 L21 361.4117647058823 L22 389.64705882352945 L23 369.88235294117646 L24 350.11764705882354 L25 333.1764705882353 L26 338.8235294117647 L27 347.2941176470588 L28 378.3529411764706 L29 426.3529411764706 L30 451.7647058823529 L31 496.94117647058823 L32 544.9411764705883 L33 536.4705882352941 L34 511.0588235294117 L35 513.8823529411765 L36 550.5882352941177 L37 561.8823529411765 L38 547.7647058823529 L39 530.8235294117646 L40 505.4117647058823 L41 511.0588235294117 L42 519.5294117647059 L43 522.3529411764706 L44 505.4117647058823 L45 508.2352941176471 L46 505.4117647058823 L47 528 L48 542.1176470588235 L49 508.2352941176471 L50 536.4705882352941 L51 550.5882352941177 L52 547.7647058823529 L53 542.1176470588235 L54 542.1176470588235 L55 556.2352941176471 L56 533.6470588235294 L57 511.0588235294117 L58 508.2352941176471 L59 488.4705882352941 L60 448.94117647058823 L61 426.3529411764706 L62 420.70588235294116 L63 446.11764705882354 L64 454.5882352941176 L65 434.8235294117647 L66 434.8235294117647 L67 443.2941176470588 L68 465.88235294117646 L69 440.4705882352941 L70 448.94117647058823 L71 496.94117647058823 L72 491.29411764705884 L73 513.8823529411765 L74 511.0588235294117 L75 533.6470588235294 L76 601.4117647058823 L77 652.2352941176471 L78 663.5294117647059 L79 595.7647058823529 L80 539.2941176470588 L81 513.8823529411765 L82 460.2352941176471 L83 477.17647058823525 L84 488.4705882352941 L85 471.52941176470586 L86 502.5882352941177 L87 544.9411764705883 L88 516.7058823529412 L89 460.2352941176471 L90 420.70588235294116 L91 457.4117647058824 L92 457.4117647058824 L93 477.17647058823525 L94 494.11764705882354 L95 519.5294117647059 L96 539.2941176470588 L97 533.6470588235294 L98 528 L99 522.3529411764706 L100 519.5294117647059 L101 547.7647058823529 L102 561.8823529411765 L103 629.6470588235294 L104 646.5882352941177 L105 618.3529411764706 L106 561.8823529411765 L107 530.8235294117646 L108 482.8235294117647 L109 446.11764705882354 L110 499.7647058823529 L111 592.9411764705883 L112 587.2941176470588 L113 615.5294117647059 L114 592.9411764705883 L115 561.8823529411765 L116 539.2941176470588 L117 550.5882352941177 L118 587.2941176470588 L119 590.1176470588235 L120 604.2352941176471 L121 621.1764705882352 L122 584.4705882352941 L123 553.4117647058823 L124 539.2941176470588 L125 553.4117647058823 L126 559.0588235294117 L127 561.8823529411765 L128 561.8823529411765 L129 573.1764705882354 L130 539.2941176470588 L131 561.8823529411765 L132 615.5294117647059 L133 635.2941176470588 L134 615.5294117647059 L135 615.5294117647059 L136 612.7058823529412 L137 626.8235294117646 L138 618.3529411764706 L139 587.2941176470588 L140 595.7647058823529 L141 618.3529411764706 L142 609.8823529411765 L143 584.4705882352941 L144 609.8823529411765 L145 672 L146 717.1764705882352 L147 720 L148 646.5882352941177 L149 595.7647058823529 L150 590.1176470588235 L151 609.8823529411765 L152 669.1764705882352 L153 694.5882352941177 L154 708.7058823529412 L155 711.5294117647059 L156 720 L157 717.1764705882352 L158 720 L159 720 L160 720 L161 720 L162 720 L163 720 L164 720 L165 720 L166 717.1764705882352 L167 717.1764705882352 L168 711.5294117647059 L169 711.5294117647059 L170 720 L171 683.2941176470588 L172 674.8235294117648 L173 720 L174 711.5294117647059 L175 652.2352941176471 L176 624 L177 615.5294117647059 L178 604.2352941176471 L179 607.0588235294117 L180 601.4117647058823 L181 601.4117647058823 L182 640.9411764705883 L183 652.2352941176471 L184 643.7647058823529 L185 663.5294117647059 L186 643.7647058823529 L187 649.4117647058823 L188 649.4117647058823 L189 663.5294117647059 L190 705.8823529411765 L191 720 L192 720 L193 720 L194 720 L195 720 L196 720 L197 720 L198 720 L199 720 L200 720 L201 720 L202 720 L203 720 L204 720 L205 720 L206 720 L207 720 L208 720 L209 720 L210 720 L211 720 L212 720 L213 720 L214 720 L215 720 L216 720 L217 720 L218 720 L219 711.5294117647059 L220 694.5882352941177 L221 720 L222 720 L223 720 L224 720 L225 720 L226 720 L227 720 L228 720 L229 720 L230 720 L231 720 L232 720 L233 720 L234 720 L235 720 L236 720 L237 720 L238 720 L239 720 L240 720 L241 697.4117647058823 L242 660.7058823529412 L243 638.1176470588235 L244 626.8235294117646 L245 643.7647058823529 L246 686.1176470588235 L247 720 L248 720 L249 720 L250 720 L251 720 L252 720 L253 714.3529411764706 L254 680.4705882352941 L255 703.0588235294117 L256 720 L257 720 L258 720 L259 720 L260 720 L261 720 L262 720 L263 720 L264 720 L265 720 L266 720 L267 720 L268 720 L269 720 L270 720 L271 720 L272 720 L273 720 L274 720 L275 720 L276 720 L277 720 L278 691.7647058823529 L279 720 L280 720 L281 717.1764705882352 L282 720 L283 720 L284 720 L285 720 L286 720 L287 720 L288 720 L289 720 L290 720 L291 720 L292 694.5882352941177 L293 652.2352941176471 L294 652.2352941176471 L295 643.7647058823529 L296 607.0588235294117 L297 607.0588235294117 L298 615.5294117647059 L299 615.5294117647059 L300 624 L301 646.5882352941177 L302 683.2941176470588 L303 720 L304 720 L305 717.1764705882352 L306 711.5294117647059 L307 720 L308 720 L309 720 L310 720 L311 720 L312 720 L313 720 L314 720 L315 720 L316 720 L317 720 L318 720 L319 720 L320 720 L321 720 L322 720 L323 720 L324 720 L325 720 L326 720 L327 720 L328 688.9411764705883 L329 646.5882352941177 L330 657.8823529411765 L331 672 L332 680.4705882352941 L333 683.2941176470588 L334 697.4117647058823 L335 720 L336 720 L337 683.2941176470588 L338 674.8235294117648 L339 691.7647058823529 L340 720 L341 720 L342 720 L343 720 L344 677.6470588235294 L345 672 L346 688.9411764705883 L347 643.7647058823529 L348 621.1764705882352 L349 657.8823529411765 L350 680.4705882352941 L351 657.8823529411765 L352 666.3529411764706 L353 666.3529411764706 L354 672 L355 720 L356 708.7058823529412 L357 640.9411764705883 L358 621.1764705882352 L359 666.3529411764706 L360 694.5882352941177 L361 686.1176470588235 L362 652.2352941176471 L363 652.2352941176471 L364 624 L365 632.4705882352941 L366 677.6470588235294 L367 717.1764705882352 L368 691.7647058823529 L369 686.1176470588235 L370 705.8823529411765 L371 674.8235294117648 L372 683.2941176470588 L373 705.8823529411765 L374 657.8823529411765 L375 663.5294117647059 L376 697.4117647058823 L377 663.5294117647059 L378 655.0588235294117 L379 669.1764705882352 L380 655.0588235294117 L381 660.7058823529412 L382 646.5882352941177 L383 635.2941176470588 L384 657.8823529411765 L385 688.9411764705883 L386 691.7647058823529 L387 703.0588235294117 L388 720 L389 720 L390 720 L391 720 L392 720 L393 720 L394 694.5882352941177 L395 705.8823529411765 L396 720 L397 720 L398 720 L399 703.0588235294117 L400 669.1764705882352 L401 646.5882352941177 L402 660.7058823529412 L403 683.2941176470588 L404 697.4117647058823 L405 700.2352941176471 L406 686.1176470588235 L407 680.4705882352941 L408 683.2941176470588 L409 657.8823529411765 L410 643.7647058823529 L411 646.5882352941177 L412 666.3529411764706 L413 672 L414 708.7058823529412 L415 694.5882352941177 L416 649.4117647058823 L417 646.5882352941177 L418 683.2941176470588 L419 720 L420 697.4117647058823 L421 649.4117647058823 L422 632.4705882352941 L423 632.4705882352941 L424 669.1764705882352 L425 674.8235294117648 L426 660.7058823529412 L427 663.5294117647059 L428 674.8235294117648 L429 674.8235294117648 L430 655.0588235294117 L431 657.8823529411765 L432 646.5882352941177 L433 677.6470588235294 L434 677.6470588235294 L435 672 L436 691.7647058823529 L437 669.1764705882352 L438 646.5882352941177 L439 629.6470588235294 L440 635.2941176470588 L441 657.8823529411765 L442 649.4117647058823 L443 672 L444 680.4705882352941 L445 720 L446 720 L447 720 L448 720 L449 691.7647058823529 L450 688.9411764705883 L451 720 L452 703.0588235294117 L453 694.5882352941177 L454 720 L455 694.5882352941177 L456 680.4705882352941 L457 705.8823529411765 L458 720 L459 717.1764705882352 L460 711.5294117647059 L461 720 L462 720 L463 720 L464 720 L465 720 L466 720 L467 720 L468 720 L469 720 L470 711.5294117647059 L471 720 L472 720 L473 720 L474 717.1764705882352 L475 720 L476 720 L477 720 L478 720 L479 720 L480 720 L481 720 L482 720 L483 720 L484 720 L485 720 L486 720 L487 720 L488 720 L489 720 L490 720 L491 720 L492 720 L493 720 L494 720 L495 720 L496 720 L497 720 L498 720 L499 720 L500 720 L501 720 L502 720 L503 720 L504 720 L505 720 L506 720 L507 720 L508 720 L509 720 L510 720 L511 720 L512 720 L513 720 L514 720 L515 720 L516 708.7058823529412 L517 705.8823529411765 L518 720 L519 686.1176470588235 L520 677.6470588235294 L521 680.4705882352941 L522 674.8235294117648 L523 708.7058823529412 L524 720 L525 720 L526 720 L527 720 L528 720 L529 720 L530 720 L531 720 L532 720 L533 720 L534 720 L535 720 L536 720 L537 720 L538 720 L539 720 L540 720 L541 720 L542 720 L543 720 L544 720 L545 720 L546 720 L547 720 L548 720 L549 720 L550 720 L551 720 L552 720 L553 720 L554 720 L555 720 L556 720 L557 720 L558 720 L559 720 L560 720 L561 720 L562 720 L563 720 L564 720 L565 720 L566 720 L567 720 L568 720 L569 720 L570 720 L571 720 L572 720 L573 720 L574 720 L575 720 L576 720 L577 720 L578 720 L579 720 L580 720 L581 720 L582 720 L583 720 L584 720 L585 720 L586 720 L587 720 L588 720 L589 720 L590 720 L591 720 L592 720 L593 720 L594 720 L595 720 L596 720 L597 720 L598 720 L599 720 L600 720 L601 720 L602 720 L603 720 L604 714.3529411764706 L605 705.8823529411765 L606 714.3529411764706 L607 720 L608 720 L609 720 L610 720 L611 720 L612 720 L613 720 L614 720 L615 720 L616 720 L617 720 L618 720 L619 720 L620 720 L621 720 L622 720 L623 714.3529411764706 L624 720 L625 720 L626 720 L627 720 L628 720 L629 720 L630 720 L631 720 L632 720 L633 720 L634 720 L635 720 L636 720 L637 720 L638 720 L639 720 L640 720 L641 720 L642 720 L643 720 L644 720 L645 720 L646 720 L647 720 L648 720 L649 720 L650 720 L651 720 L652 720 L653 720 L654 720 L655 720 L656 720 L657 720 L658 720 L659 720 L660 720 L661 720 L662 720 L663 720 L664 720 L665 720 L666 720 L667 720 L668 720 L669 720 L670 720 L671 720 L672 720 L673 720 L674 720 L675 720 L676 720 L677 720 L678 720 L679 720 L680 720 L681 720 L682 720 L683 720 L684 720 L685 720 L686 720 L687 720 L688 720 L689 720 L690 720 L691 720 L692 720 L693 720 L694 720 L695 720 L696 720 L697 720 L698 720 L699 720 L700 800  Z" stroke = "#000000" stroke-width = "1" fill = "#9f876780" />
</svg>