<svg width="800" height="800" viewbox = "0 0 800 800"  xmlns="http://www.w3.org/2000/svg">
 <path d = "M0 800 L1 488.4705882352941 L2 502.5882352941177 L3 536.4705882352941 L4 434.8235294117647 L5 319.05882352941177 L6 282.3529411764706 L7 316.2352941176471 L8 271.05882352941177 L9 186.3529411764706 L10 169.41176470588243 L11 206.11764705882354 L12 245.6470588235294 L13 302.1176470588235 L14 361.4117647058823 L15 364.2352941176471 L16 327.5294117647059 L17 299.2941176470588 L18 302.1176470588235 L19 293.6470588235294 L20 302.1176470588235 L21 347.2941176470588 L22 369.88235294117646 L23 361.4117647058823 L24 344.4705882352941 L25 324.70588235294116 L26 330.3529411764706 L27 341.6470588235294 L28 350.11764705882354 L29 381.1764705882353 L30 412.2352941176471 L31 463.05882352941177 L32 533.6470588235294 L33 530.8235294117646 L34 513.8823529411765 L35 516.7058823529412 L36 550.5882352941177 L37 556.2352941176471 L38 536.4705882352941 L39 494.11764705882354 L40 463.05882352941177 L41 480 L42 502.5882352941177 L43 494.11764705882354 L44 496.94117647058823 L45 511.0588235294117 L46 511.0588235294117 L47 533.6470588235294 L48 561.8823529411765 L49 533.6470588235294 L50 564.7058823529412 L51 584.4705882352941 L52 578.8235294117646 L53 567.5294117647059 L54 570.3529411764706 L55 573.1764705882354 L56 539.2941176470588 L57 522.3529411764706 L58 525.1764705882354 L59 513.8823529411765 L60 477.17647058823525 L61 454.5882352941176 L62 454.5882352941176 L63 477.17647058823525 L64 480 L65 463.05882352941177 L66 468.7058823529412 L67 477.17647058823525 L68 499.7647058823529 L69 474.3529411764706 L70 477.17647058823525 L71 516.7058823529412 L72 522.3529411764706 L73 544.9411764705883 L74 542.1176470588235 L75 559.0588235294117 L76 607.0588235294117 L77 652.2352941176471 L78 663.5294117647059 L79 618.3529411764706 L80 553.4117647058823 L81 502.5882352941177 L82 468.7058823529412 L83 471.52941176470586 L84 465.88235294117646 L85 460.2352941176471 L86 457.4117647058824 L87 465.88235294117646 L88 443.2941176470588 L89 386.8235294117647 L90 358.5882352941177 L91 400.94117647058823 L92 395.29411764705884 L93 415.05882352941177 L94 423.5294117647059 L95 403.7647058823529 L96 392.47058823529414 L97 409.4117647058823 L98 426.3529411764706 L99 440.4705882352941 L100 440.4705882352941 L101 417.88235294117646 L102 417.88235294117646 L103 440.4705882352941 L104 482.8235294117647 L105 556.2352941176471 L106 494.11764705882354 L107 460.2352941176471 L108 409.4117647058823 L109 384 L110 440.4705882352941 L111 496.94117647058823 L112 465.88235294117646 L113 471.52941176470586 L114 446.11764705882354 L115 423.5294117647059 L116 457.4117647058824 L117 522.3529411764706 L118 525.1764705882354 L119 505.4117647058823 L120 482.8235294117647 L121 465.88235294117646 L122 494.11764705882354 L123 528 L124 508.2352941176471 L125 513.8823529411765 L126 491.29411764705884 L127 485.6470588235294 L128 516.7058823529412 L129 533.6470588235294 L130 511.0588235294117 L131 525.1764705882354 L132 508.2352941176471 L133 505.4117647058823 L134 491.29411764705884 L135 511.0588235294117 L136 530.8235294117646 L137 550.5882352941177 L138 519.5294117647059 L139 480 L140 474.3529411764706 L141 519.5294117647059 L142 550.5882352941177 L143 533.6470588235294 L144 573.1764705882354 L145 559.0588235294117 L146 584.4705882352941 L147 576 L148 525.1764705882354 L149 525.1764705882354 L150 553.4117647058823 L151 477.17647058823525 L152 460.2352941176471 L153 491.29411764705884 L154 539.2941176470588 L155 581.6470588235294 L156 652.2352941176471 L157 711.5294117647059 L158 711.5294117647059 L159 720 L160 720 L161 720 L162 720 L163 720 L164 720 L165 711.5294117647059 L166 700.2352941176471 L167 705.8823529411765 L168 714.3529411764706 L169 688.9411764705883 L170 674.8235294117648 L171 666.3529411764706 L172 680.4705882352941 L173 720 L174 700.2352941176471 L175 649.4117647058823 L176 640.9411764705883 L177 643.7647058823529 L178 632.4705882352941 L179 632.4705882352941 L180 626.8235294117646 L181 629.6470588235294 L182 666.3529411764706 L183 680.4705882352941 L184 677.6470588235294 L185 683.2941176470588 L186 657.8823529411765 L187 652.2352941176471 L188 660.7058823529412 L189 691.7647058823529 L190 720 L191 720 L192 720 L193 720 L194 720 L195 720 L196 720 L197 720 L198 720 L199 720 L200 720 L201 720 L202 720 L203 720 L204 720 L205 720 L206 720 L207 720 L208 720 L209 720 L210 720 L211 720 L212 720 L213 720 L214 720 L215 720 L216 720 L217 720 L218 720 L219 720 L220 720 L221 720 L222 720 L223 720 L224 720 L225 720 L226 720 L227 720 L228 720 L229 720 L230 720 L231 720 L232 720 L233 720 L234 720 L235 720 L236 720 L237 720 L238 720 L239 720 L240 720 L241 720 L242 688.9411764705883 L243 666.3529411764706 L244 657.8823529411765 L245 677.6470588235294 L246 711.5294117647059 L247 720 L248 720 L249 720 L250 720 L251 720 L252 720 L253 720 L254 697.4117647058823 L255 714.3529411764706 L256 720 L257 720 L258 720 L259 720 L260 720 L261 720 L262 720 L263 720 L264 720 L265 720 L266 720 L267 720 L268 720 L269 720 L270 720 L271 720 L272 720 L273 720 L274 720 L275 720 L276 720 L277 720 L278 720 L279 720 L280 720 L281 720 L282 720 L283 720 L284 720 L285 720 L286 720 L287 720 L288 720 L289 720 L290 720 L291 720 L292 717.1764705882352 L293 680.4705882352941 L294 683.2941176470588 L295 674.8235294117648 L296 643.7647058823529 L297 643.7647058823529 L298 649.4117647058823 L299 649.4117647058823 L300 660.7058823529412 L301 683.2941176470588 L302 717.1764705882352 L303 720 L304 720 L305 720 L306 717.1764705882352 L307 720 L308 720 L309 720 L310 720 L311 720 L312 720 L313 720 L314 720 L315 720 L316 720 L317 720 L318 720 L319 720 L320 720 L321 720 L322 720 L323 720 L324 720 L325 720 L326 720 L327 720 L328 714.3529411764706 L329 660.7058823529412 L330 663.5294117647059 L331 680.4705882352941 L332 691.7647058823529 L333 691.7647058823529 L334 705.8823529411765 L335 714.3529411764706 L336 711.5294117647059 L337 686.1176470588235 L338 686.1176470588235 L339 688.9411764705883 L340 720 L341 720 L342 720 L343 703.0588235294117 L344 672 L345 677.6470588235294 L346 703.0588235294117 L347 669.1764705882352 L348 643.7647058823529 L349 660.7058823529412 L350 663.5294117647059 L351 657.8823529411765 L352 677.6470588235294 L353 672 L354 674.8235294117648 L355 666.3529411764706 L356 643.7647058823529 L357 629.6470588235294 L358 629.6470588235294 L359 666.3529411764706 L360 691.7647058823529 L361 652.2352941176471 L362 598.5882352941177 L363 598.5882352941177 L364 598.5882352941177 L365 609.8823529411765 L366 660.7058823529412 L367 705.8823529411765 L368 674.8235294117648 L369 683.2941176470588 L370 705.8823529411765 L371 663.5294117647059 L372 649.4117647058823 L373 643.7647058823529 L374 635.2941176470588 L375 643.7647058823529 L376 660.7058823529412 L377 640.9411764705883 L378 632.4705882352941 L379 626.8235294117646 L380 632.4705882352941 L381 640.9411764705883 L382 632.4705882352941 L383 632.4705882352941 L384 652.2352941176471 L385 666.3529411764706 L386 686.1176470588235 L387 717.1764705882352 L388 720 L389 720 L390 717.1764705882352 L391 714.3529411764706 L392 720 L393 694.5882352941177 L394 666.3529411764706 L395 655.0588235294117 L396 672 L397 672 L398 700.2352941176471 L399 691.7647058823529 L400 677.6470588235294 L401 640.9411764705883 L402 609.8823529411765 L403 612.7058823529412 L404 655.0588235294117 L405 666.3529411764706 L406 663.5294117647059 L407 646.5882352941177 L408 660.7058823529412 L409 638.1176470588235 L410 646.5882352941177 L411 657.8823529411765 L412 660.7058823529412 L413 666.3529411764706 L414 688.9411764705883 L415 674.8235294117648 L416 640.9411764705883 L417 643.7647058823529 L418 632.4705882352941 L419 632.4705882352941 L420 646.5882352941177 L421 643.7647058823529 L422 612.7058823529412 L423 621.1764705882352 L424 655.0588235294117 L425 629.6470588235294 L426 643.7647058823529 L427 666.3529411764706 L428 652.2352941176471 L429 649.4117647058823 L430 646.5882352941177 L431 632.4705882352941 L432 635.2941176470588 L433 672 L434 649.4117647058823 L435 612.7058823529412 L436 629.6470588235294 L437 635.2941176470588 L438 626.8235294117646 L439 632.4705882352941 L440 632.4705882352941 L441 629.6470588235294 L442 635.2941176470588 L443 669.1764705882352 L444 652.2352941176471 L445 683.2941176470588 L446 700.2352941176471 L447 714.3529411764706 L448 720 L449 720 L450 714.3529411764706 L451 720 L452 720 L453 717.1764705882352 L454 720 L455 717.1764705882352 L456 708.7058823529412 L457 720 L458 720 L459 720 L460 720 L461 720 L462 720 L463 720 L464 720 L465 720 L466 720 L467 720 L468 720 L469 720 L470 720 L471 720 L472 720 L473 720 L474 720 L475 720 L476 720 L477 720 L478 720 L479 720 L480 720 L481 720 L482 720 L483 720 L484 720 L485 720 L486 720 L487 720 L488 720 L489 720 L490 720 L491 720 L492 720 L493 720 L494 720 L495 720 L496 720 L497 720 L498 720 L499 720 L500 720 L501 720 L502 720 L503 720 L504 720 L505 720 L506 720 L507 720 L508 720 L509 720 L510 720 L511 720 L512 720 L513 720 L514 720 L515 720 L516 700.2352941176471 L517 694.5882352941177 L518 714.3529411764706 L519 697.4117647058823 L520 703.0588235294117 L521 694.5882352941177 L522 680.4705882352941 L523 705.8823529411765 L524 720 L525 720 L526 720 L527 720 L528 708.7058823529412 L529 720 L530 720 L531 720 L532 720 L533 720 L534 720 L535 720 L536 720 L537 720 L538 720 L539 720 L540 720 L541 720 L542 720 L543 720 L544 720 L545 720 L546 720 L547 720 L548 720 L549 720 L550 720 L551 720 L552 720 L553 720 L554 720 L555 711.5294117647059 L556 720 L557 720 L558 720 L559 720 L560 720 L561 720 L562 720 L563 720 L564 720 L565 720 L566 720 L567 720 L568 720 L569 720 L570 720 L571 720 L572 720 L573 720 L574 720 L575 720 L576 720 L577 720 L578 720 L579 720 L580 720 L581 720 L582 720 L583 720 L584 720 L585 720 L586 720 L587 720 L588 720 L589 720 L590 720 L591 720 L592 720 L593 720 L594 720 L595 720 L596 720 L597 720 L598 720 L599 720 L600 720 L601 720 L602 720 L603 720 L604 720 L605 720 L606 720 L607 720 L608 720 L609 720 L610 720 L611 720 L612 720 L613 720 L614 720 L615 720 L616 720 L617 720 L618 720 L619 720 L620 720 L621 720 L622 720 L623 720 L624 720 L625 720 L626 720 L627 720 L628 720 L629 720 L630 720 L631 720 L632 720 L633 720 L634 720 L635 720 L636 720 L637 720 L638 720 L639 720 L640 720 L641 720 L642 720 L643 720 L644 720 L645 720 L646 720 L647 720 L648 720 L649 720 L650 720 L651 720 L652 720 L653 720 L654 720 L655 720 L656 720 L657 720 L658 720 L659 720 L660 720 L661 720 L662 720 L663 720 L664 720 L665 720 L666 720 L667 720 L668 720 L669 720 L670 720 L671 720 L672 720 L673 720 L674 720 L675 720 L676 720 L677 720 L678 720 L679 720 L680 720 L681 720 L682 720 L683 720 L684 720 L685 720 L686 720 L687 720 L688 720 L689 720 L690 720 L691 720 L692 720 L693 720 L694 720 L695 720 L696 720 L697 720 L698 720 L699 720 L700 800  Z" stroke = "#000000" stroke-width = "1" fill = "#9f876780" />
</svg>