<svg width="824" height="824" viewbox = "0 0 824 824"  xmlns="http://www.w3.org/2000/svg">
 <path d = "M0 106 L1 116 L2 111 L3 90 L4 59 L5 43 L6 38 L7 13 L8 0 L9 6 L10 8 L11 4 L12 1 L13 16 L14 22 L15 25 L16 15 L17 5 L18 1 L19 0 L20 0 L21 0 L22 0 L23 0 L24 0 L25 0 L26 0 L27 0 L28 0 L29 0 L30 0 L31 0 L32 0 L33 0 L34 0 L35 0 L36 0 L37 0 L38 0 L39 0 L40 0 L41 0 L42 0 L43 4 L44 10 L45 17 L46 15 L47 25 L48 36 L49 31 L50 26 L51 53 L52 126 L53 167 L54 174 L55 147 L56 75 L57 74 L58 73 L59 63 L60 64 L61 63 L62 60 L63 54 L64 49 L65 46 L66 48 L67 48 L68 40 L69 33 L70 32 L71 36 L72 39 L73 32 L74 24 L75 12 L76 15 L77 13 L78 13 L79 16 L80 19 L81 18 L82 16 L83 15 L84 19 L85 23 L86 14 L87 15 L88 19 L89 13 L90 10 L91 10 L92 9 L93 11 L94 12 L95 14 L96 11 L97 8 L98 13 L99 23 L100 19 L101 14 L102 11 L103 12 L104 17 L105 16 L106 45 L107 71 L108 66 L109 35 L110 16 L111 10 L112 7 L113 0 L114 0 L115 0 L116 0 L117 0 L118 0 L119 0 L120 0 L121 0 L122 0 L123 0 L124 0 L125 0 L126 0 L127 0 L128 0 L129 0 L130 0 L131 0 L132 0 L133 0 L134 0 L135 0 L136 0 L137 0 L138 0 L139 0 L140 0 L141 0 L142 0 L143 0 L144 0 L145 0 L146 0 L147 0 L148 0 L149 0 L150 0 L151 0 L152 0 L153 0 L154 0 L155 0 L156 0 L157 0 L158 0 L159 0 L160 0 L161 0 L162 0 L163 0 L164 0 L165 0 L166 0 L167 0 L168 0 L169 0 L170 0 L171 0 L172 0 L173 0 L174 0 L175 0 L176 0 L177 0 L178 0 L179 0 L180 0 L181 0 L182 0 L183 0 L184 0 L185 0 L186 0 L187 0 L188 0 L189 0 L190 0 L191 0 L192 0 L193 0 L194 0 L195 0 L196 0 L197 0 L198 0 L199 0 L200 0 L201 0 L202 0 L203 0 L204 0 L205 0 L206 0 L207 0 L208 0 L209 0 L210 0 L211 0 L212 0 L213 0 L214 0 L215 0 L216 0 L217 0 L218 0 L219 0 L220 0 L221 0 L222 0 L223 0 L224 0 L225 0 L226 0 L227 0 L228 0 L229 0 L230 0 L231 0 L232 0 L233 0 L234 0 L235 0 L236 0 L237 0 L238 0 L239 0 L240 0 L241 0 L242 0 L243 0 L244 0 L245 0 L246 0 L247 0 L248 0 L249 0 L250 0 L251 0 L252 0 L253 0 L254 0 L255 0 L256 0 L257 0 L258 0 L259 0 L260 0 L261 0 L262 0 L263 0 L264 0 L265 0 L266 0 L267 0 L268 0 L269 0 L270 0 L271 0 L272 0 L273 0 L274 0 L275 0 L276 0 L277 0 L278 0 L279 0 L280 0 L281 0 L282 0 L283 0 L284 0 L285 0 L286 0 L287 0 L288 0 L289 0 L290 0 L291 0 L292 0 L293 0 L294 0 L295 0 L296 0 L297 0 L298 0 L299 0 L300 0 L301 0 L302 0 L303 0 L304 0 L305 0 L306 0 L307 0 L308 0 L309 0 L310 0 L311 0 L312 0 L313 0 L314 0 L315 0 L316 0 L317 0 L318 0 L319 0 L320 0 L321 0 L322 0 L323 0 L324 0 L325 0 L326 0 L327 0 L328 0 L329 0 L330 0 L331 0 L332 0 L333 0 L334 0 L335 0 L336 0 L337 0 L338 0 L339 0 L340 0 L341 0 L342 0 L343 0 L344 0 L345 0 L346 0 L347 0 L348 0 L349 0 L350 0 L351 0 L352 0 L353 0 L354 0 L355 0 L356 0 L357 0 L358 0 L359 0 L360 0 L361 0 L362 0 L363 0 L364 0 L365 0 L366 0 L367 0 L368 0 L369 0 L370 0 L371 0 L372 0 L373 0 L374 0 L375 0 L376 0 L377 0 L378 0 L379 0 L380 0 L381 0 L382 0 L383 0 L384 0 L385 0 L386 0 L387 0 L388 0 L389 0 L390 0 L391 0 L392 0 L393 0 L394 0 L395 0 L396 0 L397 0 L398 0 L399 0 L400 0 L401 0 L402 0 L403 0 L404 0 L405 0 L406 0 L407 0 L408 0 L409 0 L410 0 L411 0 L412 0 L413 0 L414 0 L415 0 L416 0 L417 0 L418 0 L419 0 L420 0 L421 0 L422 0 L423 0 L424 0 L425 0 L426 0 L427 0 L428 0 L429 0 L430 0 L431 0 L432 0 L433 0 L434 0 L435 0 L436 0 L437 0 L438 0 L439 0 L440 0 L441 0 L442 0 L443 0 L444 0 L445 0 L446 0 L447 0 L448 0 L449 0 L450 0 L451 0 L452 0 L453 0 L454 0 L455 0 L456 0 L457 0 L458 0 L459 0 L460 0 L461 0 L462 0 L463 0 L464 0 L465 0 L466 0 L467 0 L468 0 L469 0 L470 0 L471 0 L472 0 L473 0 L474 0 L475 0 L476 0 L477 0 L478 0 L479 0 L480 0 L481 0 L482 0 L483 0 L484 0 L485 0 L486 0 L487 0 L488 0 L489 0 L490 0 L491 0 L492 0 L493 0 L494 0 L495 0 L496 0 L497 0 L498 0 L499 0 L500 0 L501 0 L502 0 L503 0 L504 0 L505 0 L506 0 L507 0 L508 0 L509 0 L510 0 L511 0 L512 0 L513 0 L514 0 L515 0 L516 0 L517 0 L518 0 L519 0 L520 0 L521 0 L522 0 L523 0 L524 0 L525 0 L526 0 L527 0 L528 0 L529 0 L530 0 L531 0 L532 0 L533 0 L534 0 L535 0 L536 0 L537 0 L538 0 L539 0 L540 0 L541 0 L542 0 L543 0 L544 0 L545 0 L546 0 L547 0 L548 0 L549 0 L550 0 L551 0 L552 0 L553 0 L554 0 L555 0 L556 0 L557 0 L558 0 L559 0 L560 0 L561 0 L562 0 L563 0 L564 0 L565 0 L566 0 L567 0 L568 0 L569 0 L570 0 L571 0 L572 0 L573 0 L574 0 L575 0 L576 0 L577 0 L578 0 L579 0 L580 0 L581 0 L582 0 L583 0 L584 0 L585 0 L586 0 L587 0 L588 0 L589 0 L590 0 L591 0 L592 0 L593 0 L594 0 L595 0 L596 0 L597 0 L598 0 L599 0 L600 0 L601 0 L602 0 L603 0 L604 0 L605 0 L606 0 L607 0 L608 0 L609 0 L610 0 L611 0 L612 0 L613 0 L614 0 L615 0 L616 0 L617 0 L618 0 L619 0 L620 0 L621 0 L622 0 L623 0 L624 0 L625 0 L626 0 L627 0 L628 0 L629 0 L630 0 L631 0 L632 0 L633 0 L634 0 L635 0 L636 0 L637 0 L638 0 L639 0 L640 0 L641 0 L642 0 L643 0 L644 0 L645 0 L646 0 L647 0 L648 0 L649 0 L650 0 L651 0 L652 0 L653 0 L654 0 L655 0 L656 0 L657 0 L658 0 L659 0 L660 0 L661 0 L662 0 L663 0 L664 0 L665 0 L666 0 L667 0 L668 0 L669 0 L670 0 L671 0 L672 0 L673 0 L674 0 L675 0 L676 0 L677 0 L678 0 L679 0 L680 0 L681 0 L682 0 L683 0 L684 0 L685 0 L686 0 L687 0 L688 0 L689 0 L690 0 L691 0 L692 0 L693 0 L694 0 L695 0 L696 0 L697 0 L698 0 L699 0 L700 0 L701 0 L702 0 L703 0 L704 0 L705 0 L706 0 L707 0 L708 0 L709 0 L710 0 L711 0 L712 0 L713 0 L714 0 L715 0 L716 0 L717 0 L718 0 L719 0 L720 0 L721 0 L722 0 L723 0 L724 0 L725 0 L726 0 L727 0 L728 0 L729 0 L730 0 L731 0 L732 0 L733 0 L734 0 L735 0 L736 0 L737 0 L738 0 L739 0 L740 0 L741 0 L742 0 L743 0 L744 0 L745 0 L746 0 L747 0 L748 0 L749 0 L750 0 L751 0 L752 0 L753 0 L754 0 L755 0 L756 0 L757 0 L758 0 L759 0 L760 0 L761 0 L762 0 L763 0 L764 0 L765 0 L766 0 L767 0 L768 0 L769 0 L770 0 L771 0 L772 0 L773 0 L774 0 L775 0 L776 0 L777 0 L778 0 L779 0 L780 0 L781 0 L782 0 L783 0 L784 0 L785 0 L786 0 L787 0 L788 0 L789 0 L790 0 L791 0 L792 0 L793 0 L794 0 L795 0 L796 0 L797 0 L798 0 L799 0 L800 0 L801 0 L802 0 L803 0 L804 0 L805 0 L806 0 L807 0 L808 0 L809 0 L810 0 L811 0 L812 0 L813 0 L814 0 L815 0 L816 0 L817 0 L818 0 L819 0 L820 0 L821 0 L822 0 L823 0 L824 0 L825 0 L826 0 L827 0 L828 0 L829 0 L830 0 L831 0 L832 0 L833 0 L834 0 L835 0 L836 0 L837 0 L838 0 L839 0 L840 0 L841 0 L842 0 L843 0 L844 0 L845 0 L846 0 L847 0 L848 0 L849 0 L850 0 L851 0 L852 0 L853 0 L854 0 L855 0 L856 0 L857 0 L858 0 L859 0 L860 0 L861 0 L862 0 L863 0 L864 0 L865 0 L866 0 L867 0 L868 0 L869 0 L870 0 L871 0 L872 0 L873 0 L874 0 L875 0 L876 0 L877 0 L878 0 L879 0 L880 0 L881 0 L882 0 L883 0 L884 0 L885 0 L886 0 L887 0 L888 0 L889 0 L890 0 L891 0 L892 0 L893 0 L894 0 L895 0 L896 0 L897 0 L898 0 L899 0 L900 0 L901 0 L902 0 L903 0 L904 0 L905 0 L906 0 L907 0 L908 0 L909 0 L910 0 L911 0 L912 0 L913 0 L914 0 L915 0 L916 0 L917 0 L918 0 L919 0 L920 0 L921 0 L922 0 L923 0 L924 0 L925 0 L926 0 L927 0 L928 0 L929 0 L930 0 L931 0 L932 0 L933 0 L934 0 L935 0 L936 0 L937 0 L938 0 L939 0 L940 0 L941 0 L942 0 L943 0 L944 0 L945 0 L946 0 L947 0 L948 0 L949 0 L950 0 L951 0 L952 0 L953 0 L954 0 L955 0 L956 0 L957 0 L958 0 L959 0 L960 0 L961 0 L962 0 L963 0 L964 0 L965 0 L966 0 L967 0 L968 0 L969 0 L970 0 L971 0 L972 0 L973 0 L974 0 L975 0 L976 0 L977 0 L978 0 L979 0 L980 0 L981 0 L982 0 L983 0 L984 0 L985 0 L986 0 L987 0 L988 0 L989 0 L990 0 L991 0 L992 0 L993 0 L994 0 L995 0 L996 0 L997 0 L998 0 L999 0 L1000 0 L1001 0 L1002 0 L1003 0 L1004 0 L1005 0 L1006 0 L1007 0 L1008 0 L1009 0 L1010 0 L1011 0 L1012 0 L1013 0 L1014 0 L1015 0 L1016 0 L1017 0 L1018 0 L1019 0 L1020 0 L1021 0 L1022 0 L1023 0 L824 824  Z" stroke = "#000000" stroke-width = "1" fill = "#000000" />
</svg>