<svg width="800" height="800" viewbox = "0 0 800 800"  xmlns="http://www.w3.org/2000/svg">
 <path d = "M0 800 L1 621.1764705882352 L2 612.7058823529412 L3 638.1176470588235 L4 652.2352941176471 L5 626.8235294117646 L6 640.9411764705883 L7 598.5882352941177 L8 499.7647058823529 L9 480 L10 474.3529411764706 L11 525.1764705882354 L12 550.5882352941177 L13 553.4117647058823 L14 612.7058823529412 L15 612.7058823529412 L16 578.8235294117646 L17 621.1764705882352 L18 598.5882352941177 L19 547.7647058823529 L20 590.1176470588235 L21 632.4705882352941 L22 595.7647058823529 L23 626.8235294117646 L24 576 L25 511.0588235294117 L26 525.1764705882354 L27 573.1764705882354 L28 480 L29 465.88235294117646 L30 502.5882352941177 L31 544.9411764705883 L32 567.5294117647059 L33 592.9411764705883 L34 635.2941176470588 L35 587.2941176470588 L36 567.5294117647059 L37 601.4117647058823 L38 660.7058823529412 L39 626.8235294117646 L40 584.4705882352941 L41 567.5294117647059 L42 544.9411764705883 L43 547.7647058823529 L44 590.1176470588235 L45 536.4705882352941 L46 516.7058823529412 L47 550.5882352941177 L48 584.4705882352941 L49 576 L50 570.3529411764706 L51 604.2352941176471 L52 595.7647058823529 L53 536.4705882352941 L54 502.5882352941177 L55 482.8235294117647 L56 488.4705882352941 L57 502.5882352941177 L58 519.5294117647059 L59 513.8823529411765 L60 505.4117647058823 L61 505.4117647058823 L62 511.0588235294117 L63 539.2941176470588 L64 539.2941176470588 L65 528 L66 559.0588235294117 L67 612.7058823529412 L68 626.8235294117646 L69 615.5294117647059 L70 635.2941176470588 L71 612.7058823529412 L72 615.5294117647059 L73 629.6470588235294 L74 595.7647058823529 L75 584.4705882352941 L76 615.5294117647059 L77 621.1764705882352 L78 609.8823529411765 L79 601.4117647058823 L80 590.1176470588235 L81 609.8823529411765 L82 643.7647058823529 L83 624 L84 640.9411764705883 L85 638.1176470588235 L86 612.7058823529412 L87 615.5294117647059 L88 576 L89 530.8235294117646 L90 528 L91 530.8235294117646 L92 553.4117647058823 L93 544.9411764705883 L94 584.4705882352941 L95 632.4705882352941 L96 612.7058823529412 L97 635.2941176470588 L98 705.8823529411765 L99 680.4705882352941 L100 626.8235294117646 L101 598.5882352941177 L102 590.1176470588235 L103 595.7647058823529 L104 629.6470588235294 L105 683.2941176470588 L106 674.8235294117648 L107 666.3529411764706 L108 643.7647058823529 L109 666.3529411764706 L110 672 L111 677.6470588235294 L112 677.6470588235294 L113 686.1176470588235 L114 720 L115 720 L116 720 L117 720 L118 720 L119 720 L120 720 L121 720 L122 720 L123 720 L124 720 L125 720 L126 714.3529411764706 L127 711.5294117647059 L128 720 L129 720 L130 720 L131 720 L132 720 L133 720 L134 720 L135 720 L136 720 L137 720 L138 720 L139 720 L140 720 L141 720 L142 720 L143 720 L144 720 L145 720 L146 720 L147 720 L148 720 L149 717.1764705882352 L150 711.5294117647059 L151 720 L152 720 L153 720 L154 720 L155 720 L156 720 L157 720 L158 720 L159 720 L160 720 L161 720 L162 720 L163 720 L164 720 L165 720 L166 720 L167 720 L168 720 L169 720 L170 720 L171 720 L172 720 L173 720 L174 720 L175 720 L176 720 L177 720 L178 720 L179 720 L180 720 L181 711.5294117647059 L182 711.5294117647059 L183 705.8823529411765 L184 714.3529411764706 L185 680.4705882352941 L186 691.7647058823529 L187 694.5882352941177 L188 663.5294117647059 L189 657.8823529411765 L190 672 L191 703.0588235294117 L192 646.5882352941177 L193 688.9411764705883 L194 720 L195 697.4117647058823 L196 688.9411764705883 L197 655.0588235294117 L198 609.8823529411765 L199 618.3529411764706 L200 680.4705882352941 L201 717.1764705882352 L202 711.5294117647059 L203 643.7647058823529 L204 618.3529411764706 L205 720 L206 629.6470588235294 L207 635.2941176470588 L208 669.1764705882352 L209 708.7058823529412 L210 674.8235294117648 L211 640.9411764705883 L212 669.1764705882352 L213 683.2941176470588 L214 646.5882352941177 L215 720 L216 720 L217 694.5882352941177 L218 669.1764705882352 L219 720 L220 663.5294117647059 L221 621.1764705882352 L222 604.2352941176471 L223 607.0588235294117 L224 624 L225 640.9411764705883 L226 672 L227 717.1764705882352 L228 720 L229 720 L230 720 L231 680.4705882352941 L232 688.9411764705883 L233 652.2352941176471 L234 643.7647058823529 L235 705.8823529411765 L236 720 L237 720 L238 720 L239 708.7058823529412 L240 660.7058823529412 L241 657.8823529411765 L242 705.8823529411765 L243 720 L244 720 L245 720 L246 720 L247 720 L248 720 L249 720 L250 708.7058823529412 L251 703.0588235294117 L252 677.6470588235294 L253 683.2941176470588 L254 705.8823529411765 L255 649.4117647058823 L256 657.8823529411765 L257 632.4705882352941 L258 632.4705882352941 L259 674.8235294117648 L260 669.1764705882352 L261 640.9411764705883 L262 629.6470588235294 L263 621.1764705882352 L264 621.1764705882352 L265 626.8235294117646 L266 640.9411764705883 L267 640.9411764705883 L268 632.4705882352941 L269 624 L270 680.4705882352941 L271 660.7058823529412 L272 615.5294117647059 L273 590.1176470588235 L274 601.4117647058823 L275 694.5882352941177 L276 720 L277 686.1176470588235 L278 621.1764705882352 L279 629.6470588235294 L280 592.9411764705883 L281 601.4117647058823 L282 688.9411764705883 L283 607.0588235294117 L284 618.3529411764706 L285 700.2352941176471 L286 621.1764705882352 L287 624 L288 629.6470588235294 L289 615.5294117647059 L290 629.6470588235294 L291 649.4117647058823 L292 663.5294117647059 L293 674.8235294117648 L294 680.4705882352941 L295 677.6470588235294 L296 674.8235294117648 L297 666.3529411764706 L298 672 L299 708.7058823529412 L300 714.3529411764706 L301 714.3529411764706 L302 666.3529411764706 L303 655.0588235294117 L304 694.5882352941177 L305 720 L306 663.5294117647059 L307 643.7647058823529 L308 621.1764705882352 L309 609.8823529411765 L310 643.7647058823529 L311 666.3529411764706 L312 638.1176470588235 L313 615.5294117647059 L314 643.7647058823529 L315 677.6470588235294 L316 663.5294117647059 L317 626.8235294117646 L318 629.6470588235294 L319 657.8823529411765 L320 697.4117647058823 L321 652.2352941176471 L322 635.2941176470588 L323 660.7058823529412 L324 655.0588235294117 L325 703.0588235294117 L326 720 L327 720 L328 680.4705882352941 L329 655.0588235294117 L330 720 L331 720 L332 705.8823529411765 L333 686.1176470588235 L334 703.0588235294117 L335 720 L336 720 L337 720 L338 720 L339 691.7647058823529 L340 652.2352941176471 L341 655.0588235294117 L342 694.5882352941177 L343 720 L344 720 L345 720 L346 720 L347 714.3529411764706 L348 720 L349 720 L350 720 L351 720 L352 720 L353 720 L354 720 L355 714.3529411764706 L356 714.3529411764706 L357 720 L358 720 L359 720 L360 720 L361 677.6470588235294 L362 697.4117647058823 L363 720 L364 677.6470588235294 L365 700.2352941176471 L366 720 L367 720 L368 680.4705882352941 L369 672 L370 666.3529411764706 L371 649.4117647058823 L372 657.8823529411765 L373 720 L374 720 L375 720 L376 720 L377 663.5294117647059 L378 663.5294117647059 L379 720 L380 708.7058823529412 L381 720 L382 714.3529411764706 L383 720 L384 711.5294117647059 L385 720 L386 720 L387 640.9411764705883 L388 624 L389 652.2352941176471 L390 624 L391 624 L392 640.9411764705883 L393 686.1176470588235 L394 691.7647058823529 L395 635.2941176470588 L396 643.7647058823529 L397 626.8235294117646 L398 615.5294117647059 L399 652.2352941176471 L400 652.2352941176471 L401 700.2352941176471 L402 638.1176470588235 L403 640.9411764705883 L404 663.5294117647059 L405 672 L406 705.8823529411765 L407 657.8823529411765 L408 694.5882352941177 L409 672 L410 632.4705882352941 L411 598.5882352941177 L412 612.7058823529412 L413 635.2941176470588 L414 652.2352941176471 L415 660.7058823529412 L416 666.3529411764706 L417 680.4705882352941 L418 720 L419 720 L420 708.7058823529412 L421 720 L422 720 L423 674.8235294117648 L424 680.4705882352941 L425 720 L426 720 L427 720 L428 703.0588235294117 L429 677.6470588235294 L430 694.5882352941177 L431 717.1764705882352 L432 688.9411764705883 L433 703.0588235294117 L434 683.2941176470588 L435 643.7647058823529 L436 677.6470588235294 L437 720 L438 691.7647058823529 L439 672 L440 686.1176470588235 L441 711.5294117647059 L442 720 L443 697.4117647058823 L444 720 L445 708.7058823529412 L446 720 L447 720 L448 694.5882352941177 L449 683.2941176470588 L450 683.2941176470588 L451 686.1176470588235 L452 691.7647058823529 L453 711.5294117647059 L454 714.3529411764706 L455 714.3529411764706 L456 720 L457 711.5294117647059 L458 677.6470588235294 L459 680.4705882352941 L460 720 L461 720 L462 720 L463 720 L464 720 L465 720 L466 720 L467 720 L468 720 L469 720 L470 720 L471 720 L472 688.9411764705883 L473 663.5294117647059 L474 663.5294117647059 L475 677.6470588235294 L476 700.2352941176471 L477 720 L478 720 L479 720 L480 720 L481 720 L482 720 L483 720 L484 720 L485 720 L486 720 L487 720 L488 720 L489 720 L490 720 L491 680.4705882352941 L492 694.5882352941177 L493 703.0588235294117 L494 720 L495 720 L496 688.9411764705883 L497 720 L498 720 L499 705.8823529411765 L500 677.6470588235294 L501 683.2941176470588 L502 720 L503 720 L504 720 L505 700.2352941176471 L506 720 L507 720 L508 677.6470588235294 L509 674.8235294117648 L510 720 L511 705.8823529411765 L512 680.4705882352941 L513 714.3529411764706 L514 711.5294117647059 L515 677.6470588235294 L516 720 L517 720 L518 686.1176470588235 L519 655.0588235294117 L520 655.0588235294117 L521 666.3529411764706 L522 660.7058823529412 L523 691.7647058823529 L524 720 L525 720 L526 720 L527 720 L528 720 L529 720 L530 720 L531 720 L532 720 L533 720 L534 720 L535 720 L536 720 L537 720 L538 720 L539 720 L540 720 L541 720 L542 720 L543 720 L544 720 L545 720 L546 720 L547 720 L548 720 L549 720 L550 720 L551 720 L552 720 L553 720 L554 720 L555 720 L556 720 L557 720 L558 720 L559 720 L560 720 L561 720 L562 720 L563 720 L564 720 L565 720 L566 720 L567 720 L568 720 L569 720 L570 720 L571 720 L572 720 L573 720 L574 720 L575 720 L576 720 L577 720 L578 720 L579 720 L580 720 L581 720 L582 720 L583 720 L584 720 L585 720 L586 720 L587 720 L588 720 L589 720 L590 720 L591 720 L592 720 L593 720 L594 720 L595 720 L596 720 L597 720 L598 720 L599 720 L600 720 L601 720 L602 720 L603 720 L604 720 L605 720 L606 720 L607 720 L608 720 L609 720 L610 720 L611 720 L612 720 L613 720 L614 720 L615 720 L616 720 L617 720 L618 720 L619 720 L620 720 L621 720 L622 720 L623 720 L624 720 L625 720 L626 720 L627 720 L628 720 L629 720 L630 720 L631 720 L632 720 L633 720 L634 720 L635 720 L636 720 L637 720 L638 720 L639 720 L640 720 L641 720 L642 720 L643 720 L644 720 L645 720 L646 720 L647 720 L648 720 L649 720 L650 720 L651 720 L652 720 L653 720 L654 720 L655 720 L656 720 L657 720 L658 720 L659 720 L660 720 L661 720 L662 720 L663 720 L664 720 L665 720 L666 720 L667 720 L668 720 L669 720 L670 720 L671 720 L672 720 L673 720 L674 720 L675 720 L676 720 L677 720 L678 720 L679 720 L680 720 L681 720 L682 720 L683 720 L684 720 L685 720 L686 720 L687 720 L688 720 L689 720 L690 720 L691 720 L692 720 L693 720 L694 720 L695 720 L696 720 L697 720 L698 720 L699 720 L700 800  Z" stroke = "#000000" stroke-width = "1" fill = "#9f876780" />
</svg>