<svg width="824" height="824" viewbox = "0 0 824 824"  xmlns="http://www.w3.org/2000/svg">
 <path d = "M0 824 L0 824 L1 817.5372549019608 L2 801.3803921568627 L3 801.3803921568627 L4 804.6117647058824 L5 733.521568627451 L6 694.7450980392157 L7 727.0588235294117 L8 775.5294117647059 L9 723.8274509803922 L10 659.2 L11 646.2745098039215 L12 681.8196078431372 L13 704.4392156862745 L14 723.8274509803922 L15 529.9450980392157 L16 384.53333333333336 L17 316.6745098039215 L18 300.5176470588235 L19 342.5254901960784 L20 433.00392156862745 L21 539.6392156862745 L22 559.0274509803921 L23 588.1098039215686 L24 604.2666666666667 L25 604.2666666666667 L26 591.3411764705883 L27 555.7960784313725 L28 555.7960784313725 L29 604.2666666666667 L30 639.8117647058823 L31 455.6235294117647 L32 313.44313725490196 L33 271.4352941176471 L34 313.44313725490196 L35 381.30196078431374 L36 410.3843137254902 L37 426.54117647058825 L38 462.0862745098039 L39 513.7882352941176 L40 588.1098039215686 L41 581.6470588235294 L42 523.4823529411765 L43 491.1686274509804 L44 484.7058823529412 L45 539.6392156862745 L46 568.721568627451 L47 533.1764705882352 L48 387.7647058823529 L49 313.44313725490196 L50 323.13725490196083 L51 374.83921568627454 L52 368.3764705882353 L53 371.60784313725486 L54 387.7647058823529 L55 397.45882352941175 L56 436.2352941176471 L57 494.4 L58 542.8705882352941 L59 581.6470588235294 L60 626.8862745098039 L61 691.5137254901961 L62 685.0509803921568 L63 620.4235294117647 L64 507.3254901960784 L65 390.99607843137255 L66 352.2196078431373 L67 378.07058823529417 L68 400.6901960784314 L69 374.83921568627454 L70 336.0627450980392 L71 326.3686274509804 L72 355.4509803921569 L73 420.07843137254906 L74 442.69803921568626 L75 449.1607843137255 L76 487.9372549019608 L77 526.7137254901961 L78 494.4 L79 436.2352941176471 L80 361.9137254901961 L81 255.278431372549 L82 206.80784313725485 L83 239.12156862745098 L84 294.05490196078426 L85 271.4352941176471 L86 255.278431372549 L87 235.89019607843136 L88 232.65882352941173 L89 258.5098039215686 L90 284.3607843137255 L91 329.6 L92 345.756862745098 L93 316.6745098039215 L94 319.90588235294115 L95 348.9882352941177 L96 371.60784313725486 L97 313.44313725490196 L98 258.5098039215686 L99 261.74117647058824 L100 310.2117647058824 L101 342.5254901960784 L102 319.90588235294115 L103 297.286274509804 L104 277.89803921568625 L105 274.66666666666674 L106 284.3607843137255 L107 316.6745098039215 L108 352.2196078431373 L109 361.9137254901961 L110 381.30196078431374 L111 403.921568627451 L112 400.6901960784314 L113 410.3843137254902 L114 423.30980392156863 L115 416.8470588235294 L116 462.0862745098039 L117 533.1764705882352 L118 536.407843137255 L119 520.2509803921569 L120 539.6392156862745 L121 578.4156862745098 L122 601.035294117647 L123 591.3411764705883 L124 565.4901960784314 L125 578.4156862745098 L126 604.2666666666667 L127 571.9529411764706 L128 575.1843137254903 L129 559.0274509803921 L130 497.6313725490196 L131 471.7803921568628 L132 491.1686274509804 L133 559.0274509803921 L134 601.035294117647 L135 601.035294117647 L136 588.1098039215686 L137 597.8039215686274 L138 607.4980392156863 L139 591.3411764705883 L140 559.0274509803921 L141 529.9450980392157 L142 497.6313725490196 L143 491.1686274509804 L144 504.0941176470588 L145 497.6313725490196 L146 504.0941176470588 L147 465.3176470588235 L148 452.3921568627451 L149 494.4 L150 510.55686274509804 L151 539.6392156862745 L152 559.0274509803921 L153 571.9529411764706 L154 607.4980392156863 L155 620.4235294117647 L156 636.5803921568628 L157 646.2745098039215 L158 636.5803921568628 L159 668.8941176470588 L160 697.9764705882353 L161 765.8352941176471 L162 788.4549019607844 L163 772.2980392156862 L164 749.678431372549 L165 769.0666666666667 L166 824 L167 824 L168 824 L169 824 L170 824 L171 824 L172 824 L173 824 L174 824 L175 807.843137254902 L176 772.2980392156862 L177 781.9921568627451 L178 824 L179 781.9921568627451 L180 727.0588235294117 L181 701.2078431372549 L182 710.9019607843137 L183 723.8274509803922 L184 710.9019607843137 L185 701.2078431372549 L186 697.9764705882353 L187 688.2823529411764 L188 697.9764705882353 L189 752.9098039215686 L190 811.0745098039216 L191 817.5372549019608 L192 781.9921568627451 L193 746.4470588235295 L194 730.2901960784313 L195 694.7450980392157 L196 685.0509803921568 L197 652.7372549019608 L198 639.8117647058823 L199 668.8941176470588 L200 704.4392156862745 L201 694.7450980392157 L202 659.2 L203 655.9686274509804 L204 672.1254901960784 L205 655.9686274509804 L206 675.356862745098 L207 717.364705882353 L208 765.8352941176471 L209 752.9098039215686 L210 733.521568627451 L211 739.9843137254902 L212 727.0588235294117 L213 723.8274509803922 L214 730.2901960784313 L215 717.364705882353 L216 727.0588235294117 L217 759.3725490196078 L218 814.3058823529411 L219 804.6117647058824 L220 807.843137254902 L221 824 L222 824 L223 824 L224 824 L225 824 L226 824 L227 824 L228 824 L229 824 L230 824 L231 824 L232 814.3058823529411 L233 811.0745098039216 L234 811.0745098039216 L235 824 L236 824 L237 824 L238 824 L239 824 L240 824 L241 824 L242 824 L243 824 L244 824 L245 824 L246 824 L247 824 L248 824 L249 814.3058823529411 L250 801.3803921568627 L251 820.7686274509804 L252 791.686274509804 L253 772.2980392156862 L254 807.843137254902 L255 824 L256 824 L257 824 L258 824 L259 824 L260 824 L261 801.3803921568627 L262 772.2980392156862 L263 785.2235294117647 L264 801.3803921568627 L265 762.6039215686275 L266 730.2901960784313 L267 707.6705882352941 L268 736.7529411764706 L269 720.5960784313726 L270 697.9764705882353 L271 688.2823529411764 L272 646.2745098039215 L273 613.9607843137255 L274 613.9607843137255 L275 633.3490196078432 L276 623.6549019607843 L277 617.1921568627452 L278 613.9607843137255 L279 578.4156862745098 L280 565.4901960784314 L281 581.6470588235294 L282 591.3411764705883 L283 607.4980392156863 L284 607.4980392156863 L285 633.3490196078432 L286 617.1921568627452 L287 617.1921568627452 L288 636.5803921568628 L289 652.7372549019608 L290 655.9686274509804 L291 646.2745098039215 L292 665.6627450980392 L293 704.4392156862745 L294 704.4392156862745 L295 697.9764705882353 L296 665.6627450980392 L297 665.6627450980392 L298 681.8196078431372 L299 675.356862745098 L300 659.2 L301 672.1254901960784 L302 681.8196078431372 L303 675.356862745098 L304 717.364705882353 L305 655.9686274509804 L306 639.8117647058823 L307 675.356862745098 L308 694.7450980392157 L309 733.521568627451 L310 749.678431372549 L311 749.678431372549 L312 762.6039215686275 L313 785.2235294117647 L314 817.5372549019608 L315 791.686274509804 L316 778.7607843137255 L317 739.9843137254902 L318 717.364705882353 L319 714.1333333333333 L320 714.1333333333333 L321 710.9019607843137 L322 730.2901960784313 L323 723.8274509803922 L324 733.521568627451 L325 694.7450980392157 L326 697.9764705882353 L327 759.3725490196078 L328 759.3725490196078 L329 704.4392156862745 L330 649.5058823529412 L331 649.5058823529412 L332 662.4313725490197 L333 626.8862745098039 L334 630.1176470588235 L335 633.3490196078432 L336 607.4980392156863 L337 559.0274509803921 L338 562.2588235294118 L339 601.035294117647 L340 626.8862745098039 L341 591.3411764705883 L342 578.4156862745098 L343 597.8039215686274 L344 620.4235294117647 L345 613.9607843137255 L346 610.7294117647059 L347 601.035294117647 L348 591.3411764705883 L349 620.4235294117647 L350 636.5803921568628 L351 617.1921568627452 L352 620.4235294117647 L353 649.5058823529412 L354 646.2745098039215 L355 639.8117647058823 L356 646.2745098039215 L357 681.8196078431372 L358 688.2823529411764 L359 681.8196078431372 L360 672.1254901960784 L361 672.1254901960784 L362 678.5882352941176 L363 659.2 L364 636.5803921568628 L365 630.1176470588235 L366 636.5803921568628 L367 633.3490196078432 L368 633.3490196078432 L369 636.5803921568628 L370 620.4235294117647 L371 626.8862745098039 L372 623.6549019607843 L373 591.3411764705883 L374 588.1098039215686 L375 584.878431372549 L376 584.878431372549 L377 594.5725490196078 L378 626.8862745098039 L379 659.2 L380 646.2745098039215 L381 639.8117647058823 L382 662.4313725490197 L383 694.7450980392157 L384 707.6705882352941 L385 704.4392156862745 L386 701.2078431372549 L387 710.9019607843137 L388 720.5960784313726 L389 678.5882352941176 L390 665.6627450980392 L391 659.2 L392 630.1176470588235 L393 633.3490196078432 L394 636.5803921568628 L395 604.2666666666667 L396 562.2588235294118 L397 549.3333333333334 L398 578.4156862745098 L399 639.8117647058823 L400 623.6549019607843 L401 633.3490196078432 L402 685.0509803921568 L403 681.8196078431372 L404 697.9764705882353 L405 746.4470588235295 L406 807.843137254902 L407 820.7686274509804 L408 746.4470588235295 L409 720.5960784313726 L410 727.0588235294117 L411 733.521568627451 L412 730.2901960784313 L413 714.1333333333333 L414 720.5960784313726 L415 743.2156862745098 L416 824 L417 824 L418 824 L419 824 L420 824 L421 824 L422 824 L423 824 L424 824 L425 824 L426 824 L427 824 L428 824 L429 824 L430 824 L431 824 L432 824 L433 824 L434 824 L435 824 L436 824 L437 824 L438 824 L439 824 L440 824 L441 824 L442 824 L443 820.7686274509804 L444 785.2235294117647 L445 756.1411764705882 L446 746.4470588235295 L447 736.7529411764706 L448 749.678431372549 L449 746.4470588235295 L450 746.4470588235295 L451 772.2980392156862 L452 765.8352941176471 L453 769.0666666666667 L454 765.8352941176471 L455 765.8352941176471 L456 798.1490196078431 L457 791.686274509804 L458 759.3725490196078 L459 707.6705882352941 L460 672.1254901960784 L461 662.4313725490197 L462 685.0509803921568 L463 694.7450980392157 L464 688.2823529411764 L465 688.2823529411764 L466 672.1254901960784 L467 659.2 L468 649.5058823529412 L469 685.0509803921568 L470 733.521568627451 L471 746.4470588235295 L472 801.3803921568627 L473 775.5294117647059 L474 769.0666666666667 L475 756.1411764705882 L476 717.364705882353 L477 668.8941176470588 L478 630.1176470588235 L479 613.9607843137255 L480 617.1921568627452 L481 652.7372549019608 L482 694.7450980392157 L483 710.9019607843137 L484 704.4392156862745 L485 688.2823529411764 L486 714.1333333333333 L487 723.8274509803922 L488 704.4392156862745 L489 691.5137254901961 L490 739.9843137254902 L491 788.4549019607844 L492 752.9098039215686 L493 704.4392156862745 L494 691.5137254901961 L495 710.9019607843137 L496 727.0588235294117 L497 727.0588235294117 L498 756.1411764705882 L499 756.1411764705882 L500 723.8274509803922 L501 707.6705882352941 L502 720.5960784313726 L503 710.9019607843137 L504 717.364705882353 L505 717.364705882353 L506 727.0588235294117 L507 762.6039215686275 L508 824 L509 804.6117647058824 L510 785.2235294117647 L511 801.3803921568627 L512 801.3803921568627 L513 769.0666666666667 L514 801.3803921568627 L515 820.7686274509804 L516 788.4549019607844 L517 756.1411764705882 L518 765.8352941176471 L519 749.678431372549 L520 727.0588235294117 L521 739.9843137254902 L522 704.4392156862745 L523 694.7450980392157 L524 688.2823529411764 L525 704.4392156862745 L526 762.6039215686275 L527 788.4549019607844 L528 798.1490196078431 L529 778.7607843137255 L530 775.5294117647059 L531 759.3725490196078 L532 769.0666666666667 L533 775.5294117647059 L534 785.2235294117647 L535 824 L536 824 L537 824 L538 824 L539 824 L540 824 L541 824 L542 824 L543 775.5294117647059 L544 762.6039215686275 L545 781.9921568627451 L546 772.2980392156862 L547 781.9921568627451 L548 778.7607843137255 L549 781.9921568627451 L550 824 L551 804.6117647058824 L552 759.3725490196078 L553 762.6039215686275 L554 769.0666666666667 L555 739.9843137254902 L556 727.0588235294117 L557 707.6705882352941 L558 723.8274509803922 L559 704.4392156862745 L560 678.5882352941176 L561 697.9764705882353 L562 707.6705882352941 L563 710.9019607843137 L564 727.0588235294117 L565 752.9098039215686 L566 752.9098039215686 L567 759.3725490196078 L568 759.3725490196078 L569 759.3725490196078 L570 772.2980392156862 L571 765.8352941176471 L572 775.5294117647059 L573 736.7529411764706 L574 710.9019607843137 L575 688.2823529411764 L576 675.356862745098 L577 678.5882352941176 L578 668.8941176470588 L579 681.8196078431372 L580 701.2078431372549 L581 743.2156862745098 L582 762.6039215686275 L583 736.7529411764706 L584 723.8274509803922 L585 743.2156862745098 L586 756.1411764705882 L587 756.1411764705882 L588 785.2235294117647 L589 785.2235294117647 L590 756.1411764705882 L591 733.521568627451 L592 723.8274509803922 L593 743.2156862745098 L594 778.7607843137255 L595 785.2235294117647 L596 824 L597 824 L598 824 L599 824 L600 824 L601 824 L602 824 L603 824 L604 824 L605 824 L606 824 L607 824 L608 824 L609 824 L610 814.3058823529411 L611 778.7607843137255 L612 756.1411764705882 L613 739.9843137254902 L614 743.2156862745098 L615 752.9098039215686 L616 775.5294117647059 L617 772.2980392156862 L618 752.9098039215686 L619 746.4470588235295 L620 701.2078431372549 L621 701.2078431372549 L622 714.1333333333333 L623 739.9843137254902 L624 781.9921568627451 L625 762.6039215686275 L626 752.9098039215686 L627 772.2980392156862 L628 801.3803921568627 L629 817.5372549019608 L630 785.2235294117647 L631 807.843137254902 L632 824 L633 814.3058823529411 L634 791.686274509804 L635 769.0666666666667 L636 791.686274509804 L637 785.2235294117647 L638 756.1411764705882 L639 749.678431372549 L640 749.678431372549 L641 772.2980392156862 L642 749.678431372549 L643 701.2078431372549 L644 678.5882352941176 L645 681.8196078431372 L646 707.6705882352941 L647 697.9764705882353 L648 697.9764705882353 L649 727.0588235294117 L650 723.8274509803922 L651 752.9098039215686 L652 733.521568627451 L653 775.5294117647059 L654 765.8352941176471 L655 739.9843137254902 L656 739.9843137254902 L657 749.678431372549 L658 752.9098039215686 L659 752.9098039215686 L660 739.9843137254902 L661 752.9098039215686 L662 794.9176470588235 L663 752.9098039215686 L664 781.9921568627451 L665 781.9921568627451 L666 752.9098039215686 L667 733.521568627451 L668 756.1411764705882 L669 743.2156862745098 L670 752.9098039215686 L671 801.3803921568627 L672 772.2980392156862 L673 759.3725490196078 L674 785.2235294117647 L675 824 L676 824 L677 798.1490196078431 L678 807.843137254902 L679 798.1490196078431 L680 794.9176470588235 L681 794.9176470588235 L682 804.6117647058824 L683 814.3058823529411 L684 807.843137254902 L685 791.686274509804 L686 804.6117647058824 L687 820.7686274509804 L688 769.0666666666667 L689 756.1411764705882 L690 759.3725490196078 L691 772.2980392156862 L692 791.686274509804 L693 801.3803921568627 L694 817.5372549019608 L695 824 L696 798.1490196078431 L697 801.3803921568627 L698 820.7686274509804 L699 814.3058823529411 L700 801.3803921568627 L701 807.843137254902 L702 791.686274509804 L703 814.3058823529411 L704 824 L705 824 L706 824 L707 824 L708 824 L709 824 L710 824 L711 824 L712 824 L713 824 L714 824 L715 824 L716 824 L717 824 L718 824 L719 824 L720 824 L721 791.686274509804 L722 769.0666666666667 L723 794.9176470588235 L724 804.6117647058824 L725 824 L726 824 L727 824 L728 824 L729 824 L730 824 L731 824 L732 824 L733 824 L734 824 L735 824 L736 824 L737 824 L738 824 L739 824 L740 824 L741 824 L742 824 L743 824 L744 811.0745098039216 L745 824 L746 824 L747 817.5372549019608 L748 824 L749 824 L750 824 L751 824 L752 824 L753 824 L754 824 L755 824 L756 824 L757 824 L758 824 L759 824 L760 824 L761 824 L762 824 L763 824 L764 824 L765 824 L766 824 L767 824 L768 824 L769 824 L770 824 L771 824 L772 824 L773 824 L774 824 L775 824 L776 824 L777 824 L778 824 L779 824 L780 824 L781 824 L782 824 L783 824 L784 824 L785 824 L786 824 L787 824 L788 824 L789 824 L790 824 L791 824 L792 824 L793 824 L794 824 L795 824 L796 824 L797 824 L798 824 L799 824 L800 824 L801 824 L802 824 L803 824 L804 824 L805 824 L806 824 L807 824 L808 824 L809 824 L810 824 L811 824 L812 824 L813 824 L814 824 L815 824 L816 824 L817 824 L818 824 L819 824 L820 824 L821 824 L822 824 L823 824 L824 824 L825 824 L826 824 L827 824 L828 824 L829 824 L830 824 L831 824 L832 824 L833 824 L834 824 L835 824 L836 824 L837 824 L838 824 L839 824 L840 824 L841 824 L842 824 L843 824 L844 824 L845 824 L846 824 L847 824 L848 824 L849 824 L850 824 L851 824 L852 824 L853 824 L854 824 L855 824 L856 824 L857 824 L858 824 L859 824 L860 824 L861 824 L862 824 L863 824 L864 824 L865 824 L866 824 L867 824 L868 824 L869 824 L870 824 L871 824 L872 824 L873 824 L874 824 L875 824 L876 824 L877 824 L878 824 L879 824 L880 824 L881 824 L882 824 L883 824 L884 824 L885 824 L886 824 L887 824 L888 824 L889 824 L890 824 L891 824 L892 824 L893 824 L894 824 L895 824 L896 824 L897 824 L898 824 L899 824 L900 824 L901 824 L902 824 L903 824 L904 824 L905 824 L906 824 L907 824 L908 824 L909 824 L910 824 L911 824 L912 824 L913 824 L914 824 L915 824 L916 824 L917 824 L918 824 L919 824 L920 824 L921 824 L922 824 L923 824 L924 824 L925 824 L926 824 L927 824 L928 824 L929 824 L930 824 L931 824 L932 824 L933 824 L934 824 L935 824 L936 824 L937 824 L938 824 L939 824 L940 824 L941 824 L942 824 L943 824 L944 824 L945 824 L946 824 L947 824 L948 824 L949 824 L950 824 L951 824 L952 824 L953 824 L954 824 L955 824 L956 824 L957 824 L958 824 L959 824 L960 824 L961 824 L962 824 L963 824 L964 824 L965 824 L966 824 L967 824 L968 824 L969 824 L970 824 L971 824 L972 824 L973 824 L974 824 L975 824 L976 824 L977 824 L978 824 L979 824 L980 824 L981 824 L982 824 L983 824 L984 824 L985 824 L986 824 L987 824 L988 824 L989 824 L990 824 L991 824 L992 824 L993 824 L994 824 L995 824 L996 824 L997 824 L998 824 L999 824 L1000 824 L1001 824 L1002 824 L1003 824 L1004 824 L1005 824 L1006 824 L1007 824 L1008 824 L1009 824 L1010 824 L1011 824 L1012 824 L1013 824 L1014 824 L1015 824 L1016 824 L1017 824 L1018 824 L1019 824 L1020 824 L1021 824 L1022 824 L1023 824 L824 824  Z" stroke = "#000000" stroke-width = "3" fill = "#808080" />
</svg>