<svg width="800" height="800" viewbox = "0 0 800 800"  xmlns="http://www.w3.org/2000/svg">
 <path d = "M0 800 L1 482.8235294117647 L2 530.8235294117646 L3 573.1764705882354 L4 544.9411764705883 L5 477.17647058823525 L6 446.11764705882354 L7 460.2352941176471 L8 423.5294117647059 L9 375.52941176470586 L10 409.4117647058823 L11 502.5882352941177 L12 573.1764705882354 L13 601.4117647058823 L14 624 L15 587.2941176470588 L16 556.2352941176471 L17 494.11764705882354 L18 468.7058823529412 L19 516.7058823529412 L20 567.5294117647059 L21 544.9411764705883 L22 559.0588235294117 L23 609.8823529411765 L24 556.2352941176471 L25 519.5294117647059 L26 434.8235294117647 L27 412.2352941176471 L28 420.70588235294116 L29 454.5882352941176 L30 505.4117647058823 L31 511.0588235294117 L32 513.8823529411765 L33 539.2941176470588 L34 578.8235294117646 L35 547.7647058823529 L36 533.6470588235294 L37 561.8823529411765 L38 587.2941176470588 L39 618.3529411764706 L40 626.8235294117646 L41 609.8823529411765 L42 584.4705882352941 L43 570.3529411764706 L44 556.2352941176471 L45 513.8823529411765 L46 511.0588235294117 L47 564.7058823529412 L48 584.4705882352941 L49 584.4705882352941 L50 590.1176470588235 L51 629.6470588235294 L52 646.5882352941177 L53 609.8823529411765 L54 570.3529411764706 L55 536.4705882352941 L56 528 L57 530.8235294117646 L58 556.2352941176471 L59 567.5294117647059 L60 536.4705882352941 L61 494.11764705882354 L62 480 L63 516.7058823529412 L64 536.4705882352941 L65 533.6470588235294 L66 564.7058823529412 L67 587.2941176470588 L68 564.7058823529412 L69 578.8235294117646 L70 573.1764705882354 L71 544.9411764705883 L72 539.2941176470588 L73 587.2941176470588 L74 609.8823529411765 L75 626.8235294117646 L76 677.6470588235294 L77 686.1176470588235 L78 657.8823529411765 L79 638.1176470588235 L80 629.6470588235294 L81 640.9411764705883 L82 657.8823529411765 L83 657.8823529411765 L84 626.8235294117646 L85 609.8823529411765 L86 635.2941176470588 L87 655.0588235294117 L88 629.6470588235294 L89 609.8823529411765 L90 598.5882352941177 L91 592.9411764705883 L92 587.2941176470588 L93 576 L94 615.5294117647059 L95 638.1176470588235 L96 638.1176470588235 L97 666.3529411764706 L98 674.8235294117648 L99 660.7058823529412 L100 638.1176470588235 L101 635.2941176470588 L102 624 L103 632.4705882352941 L104 652.2352941176471 L105 677.6470588235294 L106 666.3529411764706 L107 674.8235294117648 L108 700.2352941176471 L109 720 L110 714.3529411764706 L111 688.9411764705883 L112 683.2941176470588 L113 705.8823529411765 L114 720 L115 717.1764705882352 L116 720 L117 720 L118 720 L119 720 L120 717.1764705882352 L121 720 L122 686.1176470588235 L123 688.9411764705883 L124 649.4117647058823 L125 635.2941176470588 L126 632.4705882352941 L127 607.0588235294117 L128 590.1176470588235 L129 578.8235294117646 L130 573.1764705882354 L131 592.9411764705883 L132 612.7058823529412 L133 612.7058823529412 L134 626.8235294117646 L135 638.1176470588235 L136 672 L137 708.7058823529412 L138 708.7058823529412 L139 700.2352941176471 L140 686.1176470588235 L141 683.2941176470588 L142 708.7058823529412 L143 720 L144 720 L145 720 L146 720 L147 720 L148 703.0588235294117 L149 683.2941176470588 L150 694.5882352941177 L151 705.8823529411765 L152 697.4117647058823 L153 705.8823529411765 L154 720 L155 720 L156 720 L157 697.4117647058823 L158 677.6470588235294 L159 680.4705882352941 L160 694.5882352941177 L161 711.5294117647059 L162 720 L163 705.8823529411765 L164 700.2352941176471 L165 649.4117647058823 L166 624 L167 632.4705882352941 L168 660.7058823529412 L169 708.7058823529412 L170 655.0588235294117 L171 587.2941176470588 L172 561.8823529411765 L173 581.6470588235294 L174 618.3529411764706 L175 592.9411764705883 L176 570.3529411764706 L177 573.1764705882354 L178 567.5294117647059 L179 553.4117647058823 L180 536.4705882352941 L181 522.3529411764706 L182 542.1176470588235 L183 592.9411764705883 L184 652.2352941176471 L185 629.6470588235294 L186 578.8235294117646 L187 530.8235294117646 L188 516.7058823529412 L189 528 L190 553.4117647058823 L191 626.8235294117646 L192 587.2941176470588 L193 570.3529411764706 L194 536.4705882352941 L195 536.4705882352941 L196 590.1176470588235 L197 564.7058823529412 L198 536.4705882352941 L199 530.8235294117646 L200 553.4117647058823 L201 550.5882352941177 L202 559.0588235294117 L203 598.5882352941177 L204 559.0588235294117 L205 561.8823529411765 L206 542.1176470588235 L207 536.4705882352941 L208 561.8823529411765 L209 601.4117647058823 L210 624 L211 618.3529411764706 L212 632.4705882352941 L213 660.7058823529412 L214 626.8235294117646 L215 609.8823529411765 L216 624 L217 626.8235294117646 L218 640.9411764705883 L219 618.3529411764706 L220 576 L221 578.8235294117646 L222 607.0588235294117 L223 643.7647058823529 L224 635.2941176470588 L225 652.2352941176471 L226 672 L227 711.5294117647059 L228 697.4117647058823 L229 688.9411764705883 L230 635.2941176470588 L231 626.8235294117646 L232 621.1764705882352 L233 595.7647058823529 L234 621.1764705882352 L235 674.8235294117648 L236 643.7647058823529 L237 624 L238 638.1176470588235 L239 640.9411764705883 L240 612.7058823529412 L241 629.6470588235294 L242 660.7058823529412 L243 697.4117647058823 L244 660.7058823529412 L245 640.9411764705883 L246 657.8823529411765 L247 646.5882352941177 L248 607.0588235294117 L249 621.1764705882352 L250 669.1764705882352 L251 677.6470588235294 L252 629.6470588235294 L253 584.4705882352941 L254 564.7058823529412 L255 573.1764705882354 L256 598.5882352941177 L257 604.2352941176471 L258 618.3529411764706 L259 646.5882352941177 L260 635.2941176470588 L261 632.4705882352941 L262 640.9411764705883 L263 615.5294117647059 L264 615.5294117647059 L265 652.2352941176471 L266 680.4705882352941 L267 697.4117647058823 L268 660.7058823529412 L269 649.4117647058823 L270 601.4117647058823 L271 573.1764705882354 L272 576 L273 553.4117647058823 L274 547.7647058823529 L275 587.2941176470588 L276 587.2941176470588 L277 573.1764705882354 L278 559.0588235294117 L279 587.2941176470588 L280 624 L281 621.1764705882352 L282 655.0588235294117 L283 612.7058823529412 L284 612.7058823529412 L285 646.5882352941177 L286 612.7058823529412 L287 615.5294117647059 L288 615.5294117647059 L289 561.8823529411765 L290 564.7058823529412 L291 609.8823529411765 L292 649.4117647058823 L293 612.7058823529412 L294 615.5294117647059 L295 660.7058823529412 L296 686.1176470588235 L297 686.1176470588235 L298 635.2941176470588 L299 618.3529411764706 L300 635.2941176470588 L301 683.2941176470588 L302 688.9411764705883 L303 649.4117647058823 L304 646.5882352941177 L305 601.4117647058823 L306 598.5882352941177 L307 624 L308 624 L309 592.9411764705883 L310 604.2352941176471 L311 609.8823529411765 L312 595.7647058823529 L313 607.0588235294117 L314 624 L315 632.4705882352941 L316 635.2941176470588 L317 615.5294117647059 L318 626.8235294117646 L319 640.9411764705883 L320 612.7058823529412 L321 564.7058823529412 L322 570.3529411764706 L323 615.5294117647059 L324 615.5294117647059 L325 632.4705882352941 L326 607.0588235294117 L327 612.7058823529412 L328 655.0588235294117 L329 635.2941176470588 L330 660.7058823529412 L331 666.3529411764706 L332 624 L333 590.1176470588235 L334 567.5294117647059 L335 567.5294117647059 L336 590.1176470588235 L337 635.2941176470588 L338 694.5882352941177 L339 688.9411764705883 L340 660.7058823529412 L341 649.4117647058823 L342 688.9411764705883 L343 660.7058823529412 L344 632.4705882352941 L345 618.3529411764706 L346 587.2941176470588 L347 567.5294117647059 L348 533.6470588235294 L349 530.8235294117646 L350 553.4117647058823 L351 595.7647058823529 L352 646.5882352941177 L353 691.7647058823529 L354 711.5294117647059 L355 663.5294117647059 L356 612.7058823529412 L357 618.3529411764706 L358 655.0588235294117 L359 604.2352941176471 L360 609.8823529411765 L361 655.0588235294117 L362 697.4117647058823 L363 649.4117647058823 L364 601.4117647058823 L365 621.1764705882352 L366 674.8235294117648 L367 638.1176470588235 L368 590.1176470588235 L369 578.8235294117646 L370 573.1764705882354 L371 570.3529411764706 L372 592.9411764705883 L373 626.8235294117646 L374 550.5882352941177 L375 505.4117647058823 L376 513.8823529411765 L377 547.7647058823529 L378 576 L379 624 L380 587.2941176470588 L381 592.9411764705883 L382 649.4117647058823 L383 638.1176470588235 L384 657.8823529411765 L385 646.5882352941177 L386 657.8823529411765 L387 573.1764705882354 L388 536.4705882352941 L389 542.1176470588235 L390 564.7058823529412 L391 624 L392 609.8823529411765 L393 632.4705882352941 L394 621.1764705882352 L395 624 L396 612.7058823529412 L397 626.8235294117646 L398 629.6470588235294 L399 590.1176470588235 L400 564.7058823529412 L401 587.2941176470588 L402 595.7647058823529 L403 624 L404 595.7647058823529 L405 598.5882352941177 L406 649.4117647058823 L407 663.5294117647059 L408 646.5882352941177 L409 663.5294117647059 L410 618.3529411764706 L411 609.8823529411765 L412 663.5294117647059 L413 680.4705882352941 L414 638.1176470588235 L415 618.3529411764706 L416 601.4117647058823 L417 618.3529411764706 L418 683.2941176470588 L419 683.2941176470588 L420 640.9411764705883 L421 655.0588235294117 L422 660.7058823529412 L423 643.7647058823529 L424 669.1764705882352 L425 680.4705882352941 L426 683.2941176470588 L427 700.2352941176471 L428 626.8235294117646 L429 604.2352941176471 L430 638.1176470588235 L431 652.2352941176471 L432 621.1764705882352 L433 652.2352941176471 L434 646.5882352941177 L435 618.3529411764706 L436 632.4705882352941 L437 621.1764705882352 L438 615.5294117647059 L439 657.8823529411765 L440 711.5294117647059 L441 663.5294117647059 L442 649.4117647058823 L443 660.7058823529412 L444 683.2941176470588 L445 720 L446 720 L447 697.4117647058823 L448 697.4117647058823 L449 711.5294117647059 L450 680.4705882352941 L451 680.4705882352941 L452 694.5882352941177 L453 657.8823529411765 L454 649.4117647058823 L455 677.6470588235294 L456 655.0588235294117 L457 691.7647058823529 L458 708.7058823529412 L459 711.5294117647059 L460 694.5882352941177 L461 688.9411764705883 L462 705.8823529411765 L463 708.7058823529412 L464 686.1176470588235 L465 694.5882352941177 L466 720 L467 700.2352941176471 L468 688.9411764705883 L469 717.1764705882352 L470 694.5882352941177 L471 714.3529411764706 L472 657.8823529411765 L473 629.6470588235294 L474 638.1176470588235 L475 677.6470588235294 L476 688.9411764705883 L477 680.4705882352941 L478 720 L479 720 L480 703.0588235294117 L481 697.4117647058823 L482 720 L483 714.3529411764706 L484 720 L485 688.9411764705883 L486 688.9411764705883 L487 672 L488 660.7058823529412 L489 680.4705882352941 L490 666.3529411764706 L491 629.6470588235294 L492 626.8235294117646 L493 615.5294117647059 L494 592.9411764705883 L495 595.7647058823529 L496 615.5294117647059 L497 643.7647058823529 L498 666.3529411764706 L499 691.7647058823529 L500 686.1176470588235 L501 680.4705882352941 L502 677.6470588235294 L503 691.7647058823529 L504 672 L505 657.8823529411765 L506 669.1764705882352 L507 629.6470588235294 L508 584.4705882352941 L509 570.3529411764706 L510 587.2941176470588 L511 595.7647058823529 L512 612.7058823529412 L513 652.2352941176471 L514 652.2352941176471 L515 663.5294117647059 L516 629.6470588235294 L517 618.3529411764706 L518 635.2941176470588 L519 652.2352941176471 L520 657.8823529411765 L521 669.1764705882352 L522 621.1764705882352 L523 578.8235294117646 L524 573.1764705882354 L525 601.4117647058823 L526 640.9411764705883 L527 688.9411764705883 L528 705.8823529411765 L529 711.5294117647059 L530 720 L531 720 L532 720 L533 703.0588235294117 L534 714.3529411764706 L535 720 L536 720 L537 720 L538 720 L539 720 L540 720 L541 720 L542 720 L543 720 L544 720 L545 705.8823529411765 L546 694.5882352941177 L547 708.7058823529412 L548 714.3529411764706 L549 720 L550 720 L551 720 L552 720 L553 720 L554 720 L555 720 L556 720 L557 720 L558 720 L559 720 L560 720 L561 720 L562 720 L563 720 L564 720 L565 720 L566 720 L567 720 L568 720 L569 720 L570 720 L571 720 L572 720 L573 720 L574 720 L575 720 L576 720 L577 720 L578 720 L579 720 L580 720 L581 720 L582 720 L583 705.8823529411765 L584 691.7647058823529 L585 705.8823529411765 L586 720 L587 720 L588 720 L589 714.3529411764706 L590 714.3529411764706 L591 720 L592 720 L593 720 L594 720 L595 720 L596 720 L597 720 L598 705.8823529411765 L599 720 L600 720 L601 714.3529411764706 L602 720 L603 720 L604 720 L605 720 L606 720 L607 720 L608 720 L609 720 L610 720 L611 720 L612 720 L613 720 L614 720 L615 720 L616 700.2352941176471 L617 703.0588235294117 L618 705.8823529411765 L619 720 L620 720 L621 720 L622 720 L623 720 L624 717.1764705882352 L625 714.3529411764706 L626 720 L627 720 L628 720 L629 720 L630 720 L631 720 L632 720 L633 720 L634 720 L635 720 L636 720 L637 720 L638 720 L639 720 L640 720 L641 720 L642 720 L643 720 L644 720 L645 720 L646 720 L647 720 L648 720 L649 720 L650 720 L651 720 L652 720 L653 720 L654 720 L655 720 L656 720 L657 720 L658 720 L659 720 L660 720 L661 720 L662 720 L663 720 L664 720 L665 720 L666 720 L667 720 L668 720 L669 720 L670 720 L671 720 L672 720 L673 720 L674 720 L675 720 L676 720 L677 720 L678 720 L679 720 L680 720 L681 720 L682 720 L683 720 L684 720 L685 720 L686 720 L687 720 L688 720 L689 720 L690 720 L691 720 L692 720 L693 720 L694 720 L695 720 L696 720 L697 720 L698 720 L699 720 L700 800  Z" stroke = "#000000" stroke-width = "1" fill = "#9f876780" />
</svg>