<svg width="800" height="800" viewbox = "0 0 800 800"  xmlns="http://www.w3.org/2000/svg">
 <path d = "M0 800 L1 488.4705882352941 L2 530.8235294117646 L3 581.6470588235294 L4 480 L5 367.05882352941177 L6 338.8235294117647 L7 347.2941176470588 L8 299.2941176470588 L9 228.70588235294116 L10 223.05882352941177 L11 288 L12 336 L13 344.4705882352941 L14 361.4117647058823 L15 330.3529411764706 L16 296.4705882352941 L17 290.8235294117647 L18 293.6470588235294 L19 271.05882352941177 L20 296.4705882352941 L21 347.2941176470588 L22 392.47058823529414 L23 386.8235294117647 L24 378.3529411764706 L25 344.4705882352941 L26 336 L27 361.4117647058823 L28 378.3529411764706 L29 395.29411764705884 L30 434.8235294117647 L31 488.4705882352941 L32 519.5294117647059 L33 499.7647058823529 L34 477.17647058823525 L35 474.3529411764706 L36 502.5882352941177 L37 544.9411764705883 L38 536.4705882352941 L39 522.3529411764706 L40 513.8823529411765 L41 513.8823529411765 L42 516.7058823529412 L43 499.7647058823529 L44 477.17647058823525 L45 474.3529411764706 L46 460.2352941176471 L47 480 L48 494.11764705882354 L49 460.2352941176471 L50 491.29411764705884 L51 502.5882352941177 L52 496.94117647058823 L53 496.94117647058823 L54 502.5882352941177 L55 519.5294117647059 L56 496.94117647058823 L57 465.88235294117646 L58 463.05882352941177 L59 454.5882352941176 L60 412.2352941176471 L61 375.52941176470586 L62 367.05882352941177 L63 398.11764705882354 L64 415.05882352941177 L65 389.64705882352945 L66 386.8235294117647 L67 392.47058823529414 L68 417.88235294117646 L69 392.47058823529414 L70 395.29411764705884 L71 454.5882352941176 L72 465.88235294117646 L73 491.29411764705884 L74 482.8235294117647 L75 519.5294117647059 L76 584.4705882352941 L77 624 L78 660.7058823529412 L79 612.7058823529412 L80 587.2941176470588 L81 590.1176470588235 L82 592.9411764705883 L83 615.5294117647059 L84 640.9411764705883 L85 643.7647058823529 L86 672 L87 711.5294117647059 L88 717.1764705882352 L89 711.5294117647059 L90 680.4705882352941 L91 655.0588235294117 L92 632.4705882352941 L93 640.9411764705883 L94 677.6470588235294 L95 680.4705882352941 L96 674.8235294117648 L97 672 L98 711.5294117647059 L99 720 L100 686.1176470588235 L101 711.5294117647059 L102 720 L103 720 L104 720 L105 711.5294117647059 L106 708.7058823529412 L107 720 L108 720 L109 720 L110 720 L111 720 L112 720 L113 720 L114 720 L115 720 L116 720 L117 720 L118 686.1176470588235 L119 672 L120 674.8235294117648 L121 694.5882352941177 L122 640.9411764705883 L123 629.6470588235294 L124 612.7058823529412 L125 587.2941176470588 L126 598.5882352941177 L127 598.5882352941177 L128 601.4117647058823 L129 618.3529411764706 L130 590.1176470588235 L131 604.2352941176471 L132 663.5294117647059 L133 708.7058823529412 L134 705.8823529411765 L135 694.5882352941177 L136 700.2352941176471 L137 720 L138 720 L139 677.6470588235294 L140 683.2941176470588 L141 720 L142 720 L143 717.1764705882352 L144 720 L145 720 L146 720 L147 720 L148 720 L149 720 L150 720 L151 720 L152 720 L153 720 L154 720 L155 720 L156 720 L157 720 L158 720 L159 720 L160 720 L161 720 L162 720 L163 720 L164 720 L165 720 L166 720 L167 720 L168 720 L169 717.1764705882352 L170 720 L171 700.2352941176471 L172 697.4117647058823 L173 720 L174 720 L175 680.4705882352941 L176 655.0588235294117 L177 624 L178 612.7058823529412 L179 621.1764705882352 L180 609.8823529411765 L181 609.8823529411765 L182 640.9411764705883 L183 666.3529411764706 L184 683.2941176470588 L185 683.2941176470588 L186 677.6470588235294 L187 674.8235294117648 L188 680.4705882352941 L189 677.6470588235294 L190 705.8823529411765 L191 720 L192 720 L193 720 L194 703.0588235294117 L195 700.2352941176471 L196 720 L197 720 L198 720 L199 720 L200 720 L201 720 L202 720 L203 720 L204 720 L205 720 L206 720 L207 705.8823529411765 L208 717.1764705882352 L209 720 L210 720 L211 720 L212 720 L213 720 L214 720 L215 720 L216 720 L217 720 L218 720 L219 720 L220 720 L221 720 L222 720 L223 720 L224 720 L225 720 L226 720 L227 720 L228 720 L229 720 L230 720 L231 720 L232 720 L233 720 L234 720 L235 720 L236 720 L237 720 L238 720 L239 720 L240 720 L241 720 L242 694.5882352941177 L243 649.4117647058823 L244 638.1176470588235 L245 663.5294117647059 L246 700.2352941176471 L247 720 L248 720 L249 720 L250 720 L251 720 L252 720 L253 720 L254 705.8823529411765 L255 717.1764705882352 L256 720 L257 720 L258 720 L259 720 L260 720 L261 720 L262 720 L263 720 L264 720 L265 720 L266 720 L267 720 L268 720 L269 720 L270 720 L271 720 L272 720 L273 720 L274 720 L275 720 L276 720 L277 708.7058823529412 L278 683.2941176470588 L279 714.3529411764706 L280 720 L281 720 L282 720 L283 720 L284 720 L285 720 L286 720 L287 720 L288 720 L289 720 L290 720 L291 720 L292 703.0588235294117 L293 646.5882352941177 L294 640.9411764705883 L295 638.1176470588235 L296 601.4117647058823 L297 604.2352941176471 L298 621.1764705882352 L299 621.1764705882352 L300 626.8235294117646 L301 657.8823529411765 L302 705.8823529411765 L303 720 L304 720 L305 717.1764705882352 L306 703.0588235294117 L307 720 L308 720 L309 720 L310 720 L311 720 L312 720 L313 720 L314 720 L315 720 L316 720 L317 720 L318 720 L319 720 L320 720 L321 720 L322 720 L323 720 L324 720 L325 720 L326 720 L327 720 L328 703.0588235294117 L329 655.0588235294117 L330 655.0588235294117 L331 669.1764705882352 L332 683.2941176470588 L333 677.6470588235294 L334 683.2941176470588 L335 711.5294117647059 L336 720 L337 686.1176470588235 L338 663.5294117647059 L339 683.2941176470588 L340 720 L341 720 L342 720 L343 720 L344 720 L345 714.3529411764706 L346 703.0588235294117 L347 657.8823529411765 L348 629.6470588235294 L349 649.4117647058823 L350 674.8235294117648 L351 660.7058823529412 L352 674.8235294117648 L353 691.7647058823529 L354 714.3529411764706 L355 720 L356 720 L357 720 L358 717.1764705882352 L359 708.7058823529412 L360 720 L361 720 L362 720 L363 720 L364 691.7647058823529 L365 686.1176470588235 L366 720 L367 720 L368 720 L369 714.3529411764706 L370 711.5294117647059 L371 714.3529411764706 L372 720 L373 720 L374 688.9411764705883 L375 663.5294117647059 L376 688.9411764705883 L377 680.4705882352941 L378 669.1764705882352 L379 694.5882352941177 L380 669.1764705882352 L381 666.3529411764706 L382 674.8235294117648 L383 652.2352941176471 L384 672 L385 711.5294117647059 L386 697.4117647058823 L387 700.2352941176471 L388 708.7058823529412 L389 720 L390 720 L391 720 L392 720 L393 708.7058823529412 L394 680.4705882352941 L395 697.4117647058823 L396 720 L397 720 L398 720 L399 703.0588235294117 L400 669.1764705882352 L401 672 L402 677.6470588235294 L403 694.5882352941177 L404 694.5882352941177 L405 694.5882352941177 L406 691.7647058823529 L407 705.8823529411765 L408 677.6470588235294 L409 655.0588235294117 L410 655.0588235294117 L411 663.5294117647059 L412 683.2941176470588 L413 708.7058823529412 L414 720 L415 720 L416 680.4705882352941 L417 663.5294117647059 L418 686.1176470588235 L419 720 L420 700.2352941176471 L421 655.0588235294117 L422 643.7647058823529 L423 672 L424 720 L425 720 L426 720 L427 720 L428 720 L429 691.7647058823529 L430 697.4117647058823 L431 700.2352941176471 L432 694.5882352941177 L433 708.7058823529412 L434 720 L435 720 L436 720 L437 703.0588235294117 L438 686.1176470588235 L439 686.1176470588235 L440 697.4117647058823 L441 708.7058823529412 L442 708.7058823529412 L443 720 L444 720 L445 720 L446 720 L447 720 L448 720 L449 720 L450 705.8823529411765 L451 720 L452 705.8823529411765 L453 700.2352941176471 L454 720 L455 691.7647058823529 L456 674.8235294117648 L457 705.8823529411765 L458 720 L459 720 L460 720 L461 720 L462 720 L463 720 L464 720 L465 720 L466 720 L467 720 L468 720 L469 720 L470 720 L471 720 L472 720 L473 720 L474 720 L475 720 L476 720 L477 720 L478 720 L479 720 L480 720 L481 720 L482 720 L483 720 L484 720 L485 720 L486 720 L487 720 L488 720 L489 720 L490 720 L491 720 L492 720 L493 720 L494 720 L495 720 L496 720 L497 720 L498 720 L499 720 L500 720 L501 720 L502 720 L503 720 L504 720 L505 720 L506 720 L507 720 L508 720 L509 720 L510 720 L511 720 L512 717.1764705882352 L513 720 L514 720 L515 720 L516 720 L517 705.8823529411765 L518 720 L519 700.2352941176471 L520 691.7647058823529 L521 677.6470588235294 L522 672 L523 688.9411764705883 L524 697.4117647058823 L525 720 L526 720 L527 720 L528 720 L529 720 L530 720 L531 720 L532 720 L533 720 L534 720 L535 720 L536 720 L537 720 L538 720 L539 720 L540 720 L541 720 L542 720 L543 720 L544 720 L545 714.3529411764706 L546 720 L547 720 L548 720 L549 720 L550 720 L551 720 L552 720 L553 720 L554 720 L555 720 L556 720 L557 720 L558 720 L559 720 L560 720 L561 720 L562 720 L563 720 L564 720 L565 720 L566 720 L567 720 L568 720 L569 720 L570 720 L571 720 L572 720 L573 720 L574 720 L575 720 L576 720 L577 720 L578 720 L579 720 L580 720 L581 720 L582 720 L583 720 L584 720 L585 720 L586 720 L587 720 L588 720 L589 720 L590 720 L591 720 L592 720 L593 720 L594 720 L595 720 L596 720 L597 720 L598 720 L599 720 L600 720 L601 720 L602 720 L603 720 L604 708.7058823529412 L605 703.0588235294117 L606 694.5882352941177 L607 703.0588235294117 L608 720 L609 720 L610 720 L611 720 L612 720 L613 720 L614 720 L615 720 L616 720 L617 720 L618 720 L619 720 L620 720 L621 720 L622 720 L623 720 L624 720 L625 720 L626 720 L627 720 L628 720 L629 720 L630 720 L631 720 L632 720 L633 720 L634 720 L635 720 L636 720 L637 720 L638 720 L639 720 L640 720 L641 720 L642 720 L643 720 L644 720 L645 720 L646 720 L647 720 L648 720 L649 720 L650 720 L651 720 L652 720 L653 720 L654 720 L655 720 L656 720 L657 720 L658 720 L659 720 L660 720 L661 720 L662 720 L663 720 L664 720 L665 720 L666 720 L667 720 L668 720 L669 720 L670 720 L671 720 L672 720 L673 720 L674 720 L675 720 L676 720 L677 720 L678 720 L679 720 L680 720 L681 720 L682 720 L683 720 L684 720 L685 720 L686 720 L687 720 L688 720 L689 720 L690 720 L691 720 L692 720 L693 720 L694 720 L695 720 L696 720 L697 720 L698 720 L699 720 L700 800  Z" stroke = "#000000" stroke-width = "1" fill = "#9f876780" />
</svg>