<svg width="800" height="800" viewbox = "0 0 800 800"  xmlns="http://www.w3.org/2000/svg">
 <path d = "M0 800 L1 482.8235294117647 L2 499.7647058823529 L3 542.1176470588235 L4 468.7058823529412 L5 352.9411764705883 L6 296.4705882352941 L7 304.9411764705883 L8 256.9411764705882 L9 172.23529411764707 L10 160.94117647058818 L11 220.23529411764707 L12 276.70588235294116 L13 307.764705882353 L14 350.11764705882354 L15 358.5882352941177 L16 330.3529411764706 L17 299.2941176470588 L18 293.6470588235294 L19 276.70588235294116 L20 288 L21 344.4705882352941 L22 384 L23 364.2352941176471 L24 333.1764705882353 L25 307.764705882353 L26 313.4117647058824 L27 338.8235294117647 L28 372.70588235294116 L29 420.70588235294116 L30 432 L31 463.05882352941177 L32 519.5294117647059 L33 536.4705882352941 L34 525.1764705882354 L35 522.3529411764706 L36 559.0588235294117 L37 550.5882352941177 L38 530.8235294117646 L39 505.4117647058823 L40 477.17647058823525 L41 482.8235294117647 L42 494.11764705882354 L43 494.11764705882354 L44 499.7647058823529 L45 516.7058823529412 L46 516.7058823529412 L47 533.6470588235294 L48 550.5882352941177 L49 519.5294117647059 L50 547.7647058823529 L51 567.5294117647059 L52 561.8823529411765 L53 550.5882352941177 L54 556.2352941176471 L55 570.3529411764706 L56 544.9411764705883 L57 519.5294117647059 L58 519.5294117647059 L59 499.7647058823529 L60 463.05882352941177 L61 443.2941176470588 L62 440.4705882352941 L63 463.05882352941177 L64 468.7058823529412 L65 448.94117647058823 L66 451.7647058823529 L67 460.2352941176471 L68 482.8235294117647 L69 457.4117647058824 L70 465.88235294117646 L71 511.0588235294117 L72 508.2352941176471 L73 528 L74 528 L75 547.7647058823529 L76 598.5882352941177 L77 640.9411764705883 L78 652.2352941176471 L79 601.4117647058823 L80 544.9411764705883 L81 496.94117647058823 L82 457.4117647058824 L83 468.7058823529412 L84 465.88235294117646 L85 451.7647058823529 L86 468.7058823529412 L87 482.8235294117647 L88 440.4705882352941 L89 389.64705882352945 L90 358.5882352941177 L91 386.8235294117647 L92 417.88235294117646 L93 448.94117647058823 L94 448.94117647058823 L95 429.1764705882353 L96 398.11764705882354 L97 412.2352941176471 L98 465.88235294117646 L99 477.17647058823525 L100 502.5882352941177 L101 491.29411764705884 L102 471.52941176470586 L103 502.5882352941177 L104 550.5882352941177 L105 559.0588235294117 L106 550.5882352941177 L107 474.3529411764706 L108 409.4117647058823 L109 386.8235294117647 L110 448.94117647058823 L111 542.1176470588235 L112 525.1764705882354 L113 522.3529411764706 L114 480 L115 454.5882352941176 L116 474.3529411764706 L117 539.2941176470588 L118 601.4117647058823 L119 544.9411764705883 L120 513.8823529411765 L121 491.29411764705884 L122 499.7647058823529 L123 556.2352941176471 L124 533.6470588235294 L125 539.2941176470588 L126 513.8823529411765 L127 496.94117647058823 L128 505.4117647058823 L129 564.7058823529412 L130 539.2941176470588 L131 564.7058823529412 L132 539.2941176470588 L133 505.4117647058823 L134 505.4117647058823 L135 550.5882352941177 L136 573.1764705882354 L137 609.8823529411765 L138 550.5882352941177 L139 494.11764705882354 L140 502.5882352941177 L141 561.8823529411765 L142 573.1764705882354 L143 544.9411764705883 L144 621.1764705882352 L145 570.3529411764706 L146 581.6470588235294 L147 595.7647058823529 L148 536.4705882352941 L149 516.7058823529412 L150 564.7058823529412 L151 508.2352941176471 L152 499.7647058823529 L153 539.2941176470588 L154 595.7647058823529 L155 649.4117647058823 L156 688.9411764705883 L157 700.2352941176471 L158 708.7058823529412 L159 720 L160 720 L161 720 L162 720 L163 714.3529411764706 L164 720 L165 717.1764705882352 L166 708.7058823529412 L167 708.7058823529412 L168 714.3529411764706 L169 694.5882352941177 L170 683.2941176470588 L171 666.3529411764706 L172 674.8235294117648 L173 720 L174 703.0588235294117 L175 646.5882352941177 L176 629.6470588235294 L177 629.6470588235294 L178 618.3529411764706 L179 618.3529411764706 L180 609.8823529411765 L181 615.5294117647059 L182 652.2352941176471 L183 663.5294117647059 L184 663.5294117647059 L185 677.6470588235294 L186 655.0588235294117 L187 643.7647058823529 L188 646.5882352941177 L189 674.8235294117648 L190 711.5294117647059 L191 720 L192 720 L193 720 L194 720 L195 720 L196 720 L197 720 L198 720 L199 720 L200 720 L201 720 L202 720 L203 720 L204 720 L205 720 L206 720 L207 720 L208 720 L209 720 L210 720 L211 720 L212 720 L213 720 L214 720 L215 720 L216 720 L217 720 L218 720 L219 720 L220 711.5294117647059 L221 720 L222 720 L223 720 L224 720 L225 720 L226 720 L227 720 L228 720 L229 720 L230 720 L231 720 L232 720 L233 720 L234 720 L235 720 L236 720 L237 720 L238 720 L239 720 L240 720 L241 711.5294117647059 L242 674.8235294117648 L243 652.2352941176471 L244 640.9411764705883 L245 657.8823529411765 L246 694.5882352941177 L247 720 L248 720 L249 720 L250 720 L251 720 L252 720 L253 720 L254 683.2941176470588 L255 703.0588235294117 L256 720 L257 720 L258 720 L259 720 L260 720 L261 720 L262 720 L263 720 L264 720 L265 720 L266 720 L267 720 L268 720 L269 720 L270 720 L271 720 L272 720 L273 720 L274 720 L275 720 L276 720 L277 720 L278 708.7058823529412 L279 720 L280 720 L281 720 L282 720 L283 720 L284 720 L285 720 L286 720 L287 720 L288 720 L289 720 L290 720 L291 720 L292 700.2352941176471 L293 663.5294117647059 L294 663.5294117647059 L295 657.8823529411765 L296 624 L297 624 L298 632.4705882352941 L299 632.4705882352941 L300 640.9411764705883 L301 663.5294117647059 L302 700.2352941176471 L303 720 L304 720 L305 720 L306 720 L307 720 L308 720 L309 720 L310 720 L311 720 L312 720 L313 720 L314 720 L315 720 L316 720 L317 720 L318 720 L319 720 L320 717.1764705882352 L321 720 L322 720 L323 720 L324 720 L325 720 L326 720 L327 720 L328 700.2352941176471 L329 652.2352941176471 L330 657.8823529411765 L331 672 L332 680.4705882352941 L333 686.1176470588235 L334 703.0588235294117 L335 717.1764705882352 L336 720 L337 680.4705882352941 L338 669.1764705882352 L339 683.2941176470588 L340 720 L341 720 L342 720 L343 700.2352941176471 L344 666.3529411764706 L345 666.3529411764706 L346 694.5882352941177 L347 660.7058823529412 L348 635.2941176470588 L349 655.0588235294117 L350 666.3529411764706 L351 652.2352941176471 L352 666.3529411764706 L353 669.1764705882352 L354 680.4705882352941 L355 677.6470588235294 L356 660.7058823529412 L357 626.8235294117646 L358 615.5294117647059 L359 666.3529411764706 L360 691.7647058823529 L361 677.6470588235294 L362 621.1764705882352 L363 601.4117647058823 L364 592.9411764705883 L365 612.7058823529412 L366 660.7058823529412 L367 705.8823529411765 L368 680.4705882352941 L369 683.2941176470588 L370 703.0588235294117 L371 677.6470588235294 L372 677.6470588235294 L373 666.3529411764706 L374 646.5882352941177 L375 646.5882352941177 L376 652.2352941176471 L377 643.7647058823529 L378 669.1764705882352 L379 666.3529411764706 L380 649.4117647058823 L381 638.1176470588235 L382 624 L383 621.1764705882352 L384 646.5882352941177 L385 672 L386 688.9411764705883 L387 700.2352941176471 L388 717.1764705882352 L389 720 L390 720 L391 711.5294117647059 L392 714.3529411764706 L393 683.2941176470588 L394 652.2352941176471 L395 657.8823529411765 L396 686.1176470588235 L397 677.6470588235294 L398 680.4705882352941 L399 683.2941176470588 L400 666.3529411764706 L401 646.5882352941177 L402 629.6470588235294 L403 635.2941176470588 L404 666.3529411764706 L405 672 L406 646.5882352941177 L407 652.2352941176471 L408 688.9411764705883 L409 643.7647058823529 L410 635.2941176470588 L411 652.2352941176471 L412 657.8823529411765 L413 672 L414 703.0588235294117 L415 666.3529411764706 L416 632.4705882352941 L417 629.6470588235294 L418 640.9411764705883 L419 666.3529411764706 L420 677.6470588235294 L421 643.7647058823529 L422 607.0588235294117 L423 609.8823529411765 L424 663.5294117647059 L425 640.9411764705883 L426 649.4117647058823 L427 660.7058823529412 L428 646.5882352941177 L429 643.7647058823529 L430 646.5882352941177 L431 632.4705882352941 L432 629.6470588235294 L433 669.1764705882352 L434 646.5882352941177 L435 624 L436 660.7058823529412 L437 657.8823529411765 L438 632.4705882352941 L439 621.1764705882352 L440 624 L441 626.8235294117646 L442 635.2941176470588 L443 663.5294117647059 L444 640.9411764705883 L445 677.6470588235294 L446 691.7647058823529 L447 705.8823529411765 L448 717.1764705882352 L449 708.7058823529412 L450 697.4117647058823 L451 720 L452 711.5294117647059 L453 703.0588235294117 L454 720 L455 700.2352941176471 L456 688.9411764705883 L457 711.5294117647059 L458 720 L459 717.1764705882352 L460 714.3529411764706 L461 720 L462 720 L463 720 L464 720 L465 720 L466 720 L467 720 L468 720 L469 720 L470 717.1764705882352 L471 720 L472 720 L473 720 L474 714.3529411764706 L475 720 L476 720 L477 720 L478 720 L479 720 L480 720 L481 720 L482 720 L483 720 L484 720 L485 720 L486 720 L487 720 L488 720 L489 720 L490 720 L491 720 L492 720 L493 720 L494 720 L495 720 L496 720 L497 720 L498 720 L499 720 L500 720 L501 720 L502 720 L503 720 L504 720 L505 720 L506 720 L507 720 L508 720 L509 720 L510 720 L511 720 L512 720 L513 720 L514 720 L515 720 L516 700.2352941176471 L517 697.4117647058823 L518 714.3529411764706 L519 686.1176470588235 L520 691.7647058823529 L521 688.9411764705883 L522 674.8235294117648 L523 708.7058823529412 L524 720 L525 720 L526 720 L527 720 L528 717.1764705882352 L529 720 L530 720 L531 720 L532 720 L533 720 L534 720 L535 720 L536 720 L537 720 L538 720 L539 720 L540 720 L541 720 L542 720 L543 720 L544 720 L545 720 L546 720 L547 720 L548 720 L549 720 L550 720 L551 720 L552 720 L553 720 L554 720 L555 720 L556 720 L557 720 L558 720 L559 720 L560 720 L561 720 L562 720 L563 720 L564 720 L565 720 L566 720 L567 720 L568 720 L569 720 L570 720 L571 720 L572 720 L573 720 L574 720 L575 720 L576 720 L577 720 L578 720 L579 720 L580 720 L581 720 L582 720 L583 720 L584 720 L585 720 L586 720 L587 720 L588 720 L589 720 L590 720 L591 720 L592 720 L593 720 L594 720 L595 720 L596 720 L597 720 L598 720 L599 720 L600 720 L601 720 L602 720 L603 720 L604 720 L605 720 L606 720 L607 720 L608 720 L609 720 L610 720 L611 720 L612 720 L613 720 L614 720 L615 720 L616 720 L617 720 L618 720 L619 720 L620 720 L621 720 L622 720 L623 720 L624 720 L625 720 L626 720 L627 720 L628 720 L629 720 L630 720 L631 720 L632 720 L633 720 L634 720 L635 720 L636 720 L637 720 L638 720 L639 720 L640 720 L641 720 L642 720 L643 720 L644 720 L645 720 L646 720 L647 720 L648 720 L649 720 L650 720 L651 720 L652 720 L653 720 L654 720 L655 720 L656 720 L657 720 L658 720 L659 720 L660 720 L661 720 L662 720 L663 720 L664 720 L665 720 L666 720 L667 720 L668 720 L669 720 L670 720 L671 720 L672 720 L673 720 L674 720 L675 720 L676 720 L677 720 L678 720 L679 720 L680 720 L681 720 L682 720 L683 720 L684 720 L685 720 L686 720 L687 720 L688 720 L689 720 L690 720 L691 720 L692 720 L693 720 L694 720 L695 720 L696 720 L697 720 L698 720 L699 720 L700 800  Z" stroke = "#000000" stroke-width = "1" fill = "#9f876780" />
</svg>