<svg width="824" height="824" viewbox = "0 0 824 824"  xmlns="http://www.w3.org/2000/svg">
 <path d = "M0 14 L0 778.7607843137255 L1 772.2980392156862 L2 765.8352941176471 L3 781.9921568627451 L4 423.30980392156863 L5 290.82352941176464 L6 274.66666666666674 L7 365.14509803921567 L8 630.1176470588235 L9 824 L10 630.1176470588235 L11 542.8705882352941 L12 562.2588235294118 L13 685.0509803921568 L14 775.5294117647059 L15 752.9098039215686 L16 610.7294117647059 L17 559.0274509803921 L18 613.9607843137255 L19 801.3803921568627 L20 824 L21 824 L22 824 L23 824 L24 824 L25 824 L26 824 L27 772.2980392156862 L28 704.4392156862745 L29 727.0588235294117 L30 824 L31 824 L32 824 L33 824 L34 824 L35 824 L36 824 L37 824 L38 788.4549019607844 L39 781.9921568627451 L40 772.2980392156862 L41 814.3058823529411 L42 785.2235294117647 L43 756.1411764705882 L44 730.2901960784313 L45 714.1333333333333 L46 746.4470588235295 L47 817.5372549019608 L48 824 L49 824 L50 824 L51 824 L52 824 L53 824 L54 811.0745098039216 L55 778.7607843137255 L56 785.2235294117647 L57 785.2235294117647 L58 791.686274509804 L59 804.6117647058824 L60 769.0666666666667 L61 775.5294117647059 L62 804.6117647058824 L63 788.4549019607844 L64 778.7607843137255 L65 746.4470588235295 L66 704.4392156862745 L67 730.2901960784313 L68 769.0666666666667 L69 824 L70 781.9921568627451 L71 730.2901960784313 L72 707.6705882352941 L73 710.9019607843137 L74 739.9843137254902 L75 759.3725490196078 L76 759.3725490196078 L77 778.7607843137255 L78 811.0745098039216 L79 824 L80 817.5372549019608 L81 772.2980392156862 L82 752.9098039215686 L83 765.8352941176471 L84 791.686274509804 L85 817.5372549019608 L86 824 L87 824 L88 824 L89 824 L90 798.1490196078431 L91 772.2980392156862 L92 769.0666666666667 L93 752.9098039215686 L94 739.9843137254902 L95 762.6039215686275 L96 791.686274509804 L97 778.7607843137255 L98 762.6039215686275 L99 736.7529411764706 L100 720.5960784313726 L101 691.5137254901961 L102 697.9764705882353 L103 730.2901960784313 L104 736.7529411764706 L105 704.4392156862745 L106 678.5882352941176 L107 678.5882352941176 L108 688.2823529411764 L109 694.7450980392157 L110 707.6705882352941 L111 688.2823529411764 L112 681.8196078431372 L113 714.1333333333333 L114 685.0509803921568 L115 697.9764705882353 L116 730.2901960784313 L117 717.364705882353 L118 707.6705882352941 L119 610.7294117647059 L120 594.5725490196078 L121 633.3490196078432 L122 646.2745098039215 L123 633.3490196078432 L124 646.2745098039215 L125 636.5803921568628 L126 652.7372549019608 L127 697.9764705882353 L128 717.364705882353 L129 733.521568627451 L130 798.1490196078431 L131 824 L132 824 L133 824 L134 781.9921568627451 L135 801.3803921568627 L136 824 L137 785.2235294117647 L138 743.2156862745098 L139 756.1411764705882 L140 746.4470588235295 L141 717.364705882353 L142 727.0588235294117 L143 685.0509803921568 L144 633.3490196078432 L145 620.4235294117647 L146 578.4156862745098 L147 584.878431372549 L148 623.6549019607843 L149 643.0431372549019 L150 620.4235294117647 L151 630.1176470588235 L152 649.5058823529412 L153 636.5803921568628 L154 626.8862745098039 L155 581.6470588235294 L156 526.7137254901961 L157 513.7882352941176 L158 546.1019607843136 L159 552.5647058823529 L160 552.5647058823529 L161 617.1921568627452 L162 526.7137254901961 L163 504.0941176470588 L164 513.7882352941176 L165 487.9372549019608 L166 491.1686274509804 L167 484.7058823529412 L168 471.7803921568628 L169 468.5490196078431 L170 475.01176470588234 L171 478.24313725490197 L172 468.5490196078431 L173 475.01176470588234 L174 491.1686274509804 L175 475.01176470588234 L176 487.9372549019608 L177 520.2509803921569 L178 497.6313725490196 L179 494.4 L180 526.7137254901961 L181 510.55686274509804 L182 520.2509803921569 L183 533.1764705882352 L184 549.3333333333334 L185 555.7960784313725 L186 539.6392156862745 L187 510.55686274509804 L188 497.6313725490196 L189 517.0196078431372 L190 565.4901960784314 L191 601.035294117647 L192 591.3411764705883 L193 568.721568627451 L194 559.0274509803921 L195 584.878431372549 L196 584.878431372549 L197 617.1921568627452 L198 665.6627450980392 L199 646.2745098039215 L200 652.7372549019608 L201 668.8941176470588 L202 685.0509803921568 L203 717.364705882353 L204 717.364705882353 L205 701.2078431372549 L206 727.0588235294117 L207 794.9176470588235 L208 824 L209 817.5372549019608 L210 791.686274509804 L211 794.9176470588235 L212 824 L213 824 L214 824 L215 824 L216 824 L217 824 L218 824 L219 824 L220 824 L221 824 L222 824 L223 824 L224 824 L225 824 L226 824 L227 824 L228 824 L229 824 L230 820.7686274509804 L231 824 L232 824 L233 824 L234 824 L235 824 L236 824 L237 824 L238 824 L239 824 L240 791.686274509804 L241 762.6039215686275 L242 759.3725490196078 L243 756.1411764705882 L244 749.678431372549 L245 772.2980392156862 L246 759.3725490196078 L247 739.9843137254902 L248 730.2901960784313 L249 762.6039215686275 L250 772.2980392156862 L251 788.4549019607844 L252 817.5372549019608 L253 785.2235294117647 L254 775.5294117647059 L255 756.1411764705882 L256 736.7529411764706 L257 762.6039215686275 L258 788.4549019607844 L259 788.4549019607844 L260 817.5372549019608 L261 759.3725490196078 L262 733.521568627451 L263 746.4470588235295 L264 727.0588235294117 L265 717.364705882353 L266 720.5960784313726 L267 714.1333333333333 L268 736.7529411764706 L269 746.4470588235295 L270 723.8274509803922 L271 714.1333333333333 L272 723.8274509803922 L273 752.9098039215686 L274 769.0666666666667 L275 772.2980392156862 L276 736.7529411764706 L277 720.5960784313726 L278 723.8274509803922 L279 727.0588235294117 L280 743.2156862745098 L281 730.2901960784313 L282 733.521568627451 L283 727.0588235294117 L284 736.7529411764706 L285 701.2078431372549 L286 681.8196078431372 L287 697.9764705882353 L288 714.1333333333333 L289 704.4392156862745 L290 691.5137254901961 L291 678.5882352941176 L292 665.6627450980392 L293 701.2078431372549 L294 717.364705882353 L295 678.5882352941176 L296 636.5803921568628 L297 639.8117647058823 L298 633.3490196078432 L299 597.8039215686274 L300 613.9607843137255 L301 630.1176470588235 L302 607.4980392156863 L303 613.9607843137255 L304 610.7294117647059 L305 607.4980392156863 L306 636.5803921568628 L307 594.5725490196078 L308 623.6549019607843 L309 659.2 L310 701.2078431372549 L311 697.9764705882353 L312 649.5058823529412 L313 613.9607843137255 L314 623.6549019607843 L315 672.1254901960784 L316 694.7450980392157 L317 646.2745098039215 L318 646.2745098039215 L319 591.3411764705883 L320 568.721568627451 L321 575.1843137254903 L322 588.1098039215686 L323 581.6470588235294 L324 639.8117647058823 L325 649.5058823529412 L326 630.1176470588235 L327 620.4235294117647 L328 617.1921568627452 L329 630.1176470588235 L330 662.4313725490197 L331 665.6627450980392 L332 659.2 L333 649.5058823529412 L334 643.0431372549019 L335 655.9686274509804 L336 659.2 L337 649.5058823529412 L338 672.1254901960784 L339 652.7372549019608 L340 652.7372549019608 L341 652.7372549019608 L342 678.5882352941176 L343 714.1333333333333 L344 746.4470588235295 L345 746.4470588235295 L346 736.7529411764706 L347 717.364705882353 L348 723.8274509803922 L349 746.4470588235295 L350 759.3725490196078 L351 749.678431372549 L352 701.2078431372549 L353 701.2078431372549 L354 707.6705882352941 L355 707.6705882352941 L356 717.364705882353 L357 733.521568627451 L358 678.5882352941176 L359 649.5058823529412 L360 630.1176470588235 L361 639.8117647058823 L362 665.6627450980392 L363 694.7450980392157 L364 665.6627450980392 L365 643.0431372549019 L366 643.0431372549019 L367 662.4313725490197 L368 675.356862745098 L369 688.2823529411764 L370 675.356862745098 L371 665.6627450980392 L372 697.9764705882353 L373 717.364705882353 L374 717.364705882353 L375 720.5960784313726 L376 697.9764705882353 L377 681.8196078431372 L378 681.8196078431372 L379 707.6705882352941 L380 739.9843137254902 L381 736.7529411764706 L382 694.7450980392157 L383 685.0509803921568 L384 710.9019607843137 L385 691.5137254901961 L386 668.8941176470588 L387 665.6627450980392 L388 665.6627450980392 L389 678.5882352941176 L390 717.364705882353 L391 643.0431372549019 L392 620.4235294117647 L393 623.6549019607843 L394 623.6549019607843 L395 639.8117647058823 L396 704.4392156862745 L397 668.8941176470588 L398 626.8862745098039 L399 623.6549019607843 L400 649.5058823529412 L401 662.4313725490197 L402 688.2823529411764 L403 704.4392156862745 L404 672.1254901960784 L405 678.5882352941176 L406 691.5137254901961 L407 681.8196078431372 L408 727.0588235294117 L409 691.5137254901961 L410 652.7372549019608 L411 665.6627450980392 L412 691.5137254901961 L413 710.9019607843137 L414 720.5960784313726 L415 685.0509803921568 L416 659.2 L417 675.356862745098 L418 701.2078431372549 L419 720.5960784313726 L420 717.364705882353 L421 697.9764705882353 L422 697.9764705882353 L423 668.8941176470588 L424 652.7372549019608 L425 678.5882352941176 L426 704.4392156862745 L427 665.6627450980392 L428 672.1254901960784 L429 646.2745098039215 L430 659.2 L431 691.5137254901961 L432 685.0509803921568 L433 675.356862745098 L434 672.1254901960784 L435 672.1254901960784 L436 691.5137254901961 L437 727.0588235294117 L438 727.0588235294117 L439 739.9843137254902 L440 756.1411764705882 L441 762.6039215686275 L442 798.1490196078431 L443 804.6117647058824 L444 817.5372549019608 L445 824 L446 824 L447 824 L448 824 L449 824 L450 824 L451 824 L452 824 L453 824 L454 824 L455 804.6117647058824 L456 746.4470588235295 L457 730.2901960784313 L458 743.2156862745098 L459 720.5960784313726 L460 681.8196078431372 L461 672.1254901960784 L462 678.5882352941176 L463 672.1254901960784 L464 649.5058823529412 L465 636.5803921568628 L466 617.1921568627452 L467 620.4235294117647 L468 633.3490196078432 L469 617.1921568627452 L470 594.5725490196078 L471 588.1098039215686 L472 597.8039215686274 L473 617.1921568627452 L474 626.8862745098039 L475 617.1921568627452 L476 594.5725490196078 L477 591.3411764705883 L478 597.8039215686274 L479 620.4235294117647 L480 646.2745098039215 L481 617.1921568627452 L482 601.035294117647 L483 601.035294117647 L484 597.8039215686274 L485 597.8039215686274 L486 617.1921568627452 L487 588.1098039215686 L488 584.878431372549 L489 620.4235294117647 L490 613.9607843137255 L491 620.4235294117647 L492 623.6549019607843 L493 604.2666666666667 L494 620.4235294117647 L495 659.2 L496 646.2745098039215 L497 636.5803921568628 L498 630.1176470588235 L499 633.3490196078432 L500 655.9686274509804 L501 668.8941176470588 L502 665.6627450980392 L503 636.5803921568628 L504 630.1176470588235 L505 655.9686274509804 L506 652.7372549019608 L507 697.9764705882353 L508 710.9019607843137 L509 655.9686274509804 L510 659.2 L511 665.6627450980392 L512 665.6627450980392 L513 688.2823529411764 L514 717.364705882353 L515 659.2 L516 655.9686274509804 L517 675.356862745098 L518 697.9764705882353 L519 688.2823529411764 L520 746.4470588235295 L521 743.2156862745098 L522 723.8274509803922 L523 730.2901960784313 L524 730.2901960784313 L525 752.9098039215686 L526 804.6117647058824 L527 824 L528 824 L529 824 L530 824 L531 824 L532 824 L533 820.7686274509804 L534 804.6117647058824 L535 824 L536 820.7686274509804 L537 814.3058823529411 L538 824 L539 824 L540 824 L541 824 L542 807.843137254902 L543 807.843137254902 L544 824 L545 824 L546 824 L547 824 L548 824 L549 804.6117647058824 L550 749.678431372549 L551 746.4470588235295 L552 752.9098039215686 L553 762.6039215686275 L554 762.6039215686275 L555 727.0588235294117 L556 730.2901960784313 L557 749.678431372549 L558 772.2980392156862 L559 769.0666666666667 L560 746.4470588235295 L561 759.3725490196078 L562 801.3803921568627 L563 769.0666666666667 L564 743.2156862745098 L565 736.7529411764706 L566 739.9843137254902 L567 707.6705882352941 L568 714.1333333333333 L569 730.2901960784313 L570 717.364705882353 L571 723.8274509803922 L572 733.521568627451 L573 704.4392156862745 L574 710.9019607843137 L575 707.6705882352941 L576 723.8274509803922 L577 736.7529411764706 L578 733.521568627451 L579 743.2156862745098 L580 765.8352941176471 L581 769.0666666666667 L582 762.6039215686275 L583 717.364705882353 L584 701.2078431372549 L585 707.6705882352941 L586 746.4470588235295 L587 778.7607843137255 L588 759.3725490196078 L589 685.0509803921568 L590 668.8941176470588 L591 675.356862745098 L592 675.356862745098 L593 697.9764705882353 L594 714.1333333333333 L595 668.8941176470588 L596 626.8862745098039 L597 623.6549019607843 L598 665.6627450980392 L599 678.5882352941176 L600 665.6627450980392 L601 659.2 L602 643.0431372549019 L603 652.7372549019608 L604 678.5882352941176 L605 681.8196078431372 L606 655.9686274509804 L607 659.2 L608 633.3490196078432 L609 639.8117647058823 L610 665.6627450980392 L611 655.9686274509804 L612 643.0431372549019 L613 659.2 L614 636.5803921568628 L615 646.2745098039215 L616 655.9686274509804 L617 636.5803921568628 L618 633.3490196078432 L619 652.7372549019608 L620 655.9686274509804 L621 655.9686274509804 L622 646.2745098039215 L623 633.3490196078432 L624 655.9686274509804 L625 659.2 L626 675.356862745098 L627 685.0509803921568 L628 662.4313725490197 L629 672.1254901960784 L630 704.4392156862745 L631 704.4392156862745 L632 730.2901960784313 L633 723.8274509803922 L634 736.7529411764706 L635 736.7529411764706 L636 730.2901960784313 L637 736.7529411764706 L638 762.6039215686275 L639 781.9921568627451 L640 791.686274509804 L641 811.0745098039216 L642 824 L643 814.3058823529411 L644 804.6117647058824 L645 824 L646 824 L647 824 L648 824 L649 824 L650 817.5372549019608 L651 804.6117647058824 L652 807.843137254902 L653 804.6117647058824 L654 791.686274509804 L655 794.9176470588235 L656 814.3058823529411 L657 804.6117647058824 L658 804.6117647058824 L659 788.4549019607844 L660 775.5294117647059 L661 785.2235294117647 L662 798.1490196078431 L663 794.9176470588235 L664 781.9921568627451 L665 762.6039215686275 L666 759.3725490196078 L667 739.9843137254902 L668 733.521568627451 L669 727.0588235294117 L670 759.3725490196078 L671 746.4470588235295 L672 739.9843137254902 L673 743.2156862745098 L674 762.6039215686275 L675 739.9843137254902 L676 733.521568627451 L677 730.2901960784313 L678 739.9843137254902 L679 746.4470588235295 L680 730.2901960784313 L681 730.2901960784313 L682 727.0588235294117 L683 749.678431372549 L684 772.2980392156862 L685 739.9843137254902 L686 710.9019607843137 L687 720.5960784313726 L688 749.678431372549 L689 746.4470588235295 L690 746.4470588235295 L691 739.9843137254902 L692 714.1333333333333 L693 720.5960784313726 L694 733.521568627451 L695 707.6705882352941 L696 717.364705882353 L697 681.8196078431372 L698 659.2 L699 659.2 L700 665.6627450980392 L701 665.6627450980392 L702 668.8941176470588 L703 659.2 L704 646.2745098039215 L705 649.5058823529412 L706 662.4313725490197 L707 675.356862745098 L708 707.6705882352941 L709 733.521568627451 L710 694.7450980392157 L711 672.1254901960784 L712 678.5882352941176 L713 694.7450980392157 L714 701.2078431372549 L715 691.5137254901961 L716 685.0509803921568 L717 694.7450980392157 L718 723.8274509803922 L719 704.4392156862745 L720 681.8196078431372 L721 675.356862745098 L722 665.6627450980392 L723 668.8941176470588 L724 710.9019607843137 L725 701.2078431372549 L726 688.2823529411764 L727 717.364705882353 L728 701.2078431372549 L729 701.2078431372549 L730 697.9764705882353 L731 707.6705882352941 L732 723.8274509803922 L733 781.9921568627451 L734 775.5294117647059 L735 769.0666666666667 L736 749.678431372549 L737 756.1411764705882 L738 785.2235294117647 L739 804.6117647058824 L740 817.5372549019608 L741 804.6117647058824 L742 801.3803921568627 L743 807.843137254902 L744 814.3058823529411 L745 811.0745098039216 L746 814.3058823529411 L747 824 L748 824 L749 824 L750 824 L751 824 L752 824 L753 824 L754 824 L755 824 L756 824 L757 824 L758 820.7686274509804 L759 824 L760 824 L761 814.3058823529411 L762 824 L763 798.1490196078431 L764 798.1490196078431 L765 807.843137254902 L766 775.5294117647059 L767 788.4549019607844 L768 824 L769 824 L770 820.7686274509804 L771 791.686274509804 L772 785.2235294117647 L773 781.9921568627451 L774 791.686274509804 L775 778.7607843137255 L776 762.6039215686275 L777 769.0666666666667 L778 775.5294117647059 L779 769.0666666666667 L780 756.1411764705882 L781 730.2901960784313 L782 733.521568627451 L783 756.1411764705882 L784 778.7607843137255 L785 811.0745098039216 L786 807.843137254902 L787 775.5294117647059 L788 772.2980392156862 L789 778.7607843137255 L790 791.686274509804 L791 798.1490196078431 L792 820.7686274509804 L793 781.9921568627451 L794 772.2980392156862 L795 778.7607843137255 L796 798.1490196078431 L797 772.2980392156862 L798 791.686274509804 L799 791.686274509804 L800 775.5294117647059 L801 785.2235294117647 L802 794.9176470588235 L803 798.1490196078431 L804 807.843137254902 L805 791.686274509804 L806 772.2980392156862 L807 775.5294117647059 L808 807.843137254902 L809 824 L810 824 L811 820.7686274509804 L812 811.0745098039216 L813 824 L814 824 L815 824 L816 824 L817 824 L818 824 L819 824 L820 824 L821 824 L822 824 L823 824 L824 824 L825 824 L826 824 L827 824 L828 824 L829 824 L830 824 L831 824 L832 824 L833 824 L834 824 L835 824 L836 824 L837 824 L838 824 L839 824 L840 824 L841 824 L842 824 L843 824 L844 824 L845 824 L846 824 L847 824 L848 824 L849 824 L850 824 L851 824 L852 824 L853 824 L854 817.5372549019608 L855 824 L856 824 L857 824 L858 824 L859 824 L860 824 L861 824 L862 824 L863 824 L864 824 L865 824 L866 824 L867 824 L868 824 L869 824 L870 824 L871 824 L872 824 L873 824 L874 824 L875 824 L876 824 L877 824 L878 824 L879 824 L880 824 L881 824 L882 824 L883 824 L884 824 L885 824 L886 824 L887 824 L888 824 L889 824 L890 824 L891 824 L892 824 L893 824 L894 824 L895 824 L896 824 L897 824 L898 824 L899 824 L900 824 L901 824 L902 824 L903 824 L904 824 L905 824 L906 824 L907 824 L908 824 L909 824 L910 824 L911 824 L912 824 L913 824 L914 824 L915 824 L916 824 L917 824 L918 824 L919 824 L920 824 L921 824 L922 824 L923 824 L924 824 L925 824 L926 824 L927 824 L928 824 L929 824 L930 824 L931 824 L932 824 L933 824 L934 824 L935 824 L936 824 L937 824 L938 824 L939 824 L940 824 L941 824 L942 824 L943 824 L944 824 L945 824 L946 824 L947 824 L948 824 L949 824 L950 824 L951 824 L952 824 L953 824 L954 824 L955 824 L956 824 L957 824 L958 824 L959 824 L960 824 L961 824 L962 824 L963 824 L964 824 L965 824 L966 824 L967 824 L968 824 L969 824 L970 824 L971 824 L972 824 L973 824 L974 824 L975 824 L976 824 L977 824 L978 824 L979 824 L980 824 L981 824 L982 824 L983 824 L984 824 L985 824 L986 824 L987 824 L988 824 L989 824 L990 824 L991 824 L992 824 L993 824 L994 824 L995 824 L996 824 L997 824 L998 824 L999 824 L1000 824 L1001 824 L1002 824 L1003 824 L1004 824 L1005 824 L1006 824 L1007 824 L1008 824 L1009 824 L1010 824 L1011 824 L1012 824 L1013 824 L1014 824 L1015 824 L1016 824 L1017 824 L1018 824 L1019 824 L1020 824 L1021 824 L1022 824 L1023 824 L824 824  Z" stroke = "#000000" stroke-width = "1" fill = "#000000" />
</svg>