<svg width="800" height="800" viewbox = "0 0 800 800"  xmlns="http://www.w3.org/2000/svg">
 <path d = "M0 800 L1 485.6470588235294 L2 513.8823529411765 L3 564.7058823529412 L4 477.17647058823525 L5 378.3529411764706 L6 347.2941176470588 L7 381.1764705882353 L8 369.88235294117646 L9 330.3529411764706 L10 344.4705882352941 L11 355.7647058823529 L12 350.11764705882354 L13 403.7647058823529 L14 471.52941176470586 L15 434.8235294117647 L16 389.64705882352945 L17 375.52941176470586 L18 361.4117647058823 L19 406.5882352941176 L20 448.94117647058823 L21 485.6470588235294 L22 474.3529411764706 L23 480 L24 499.7647058823529 L25 485.6470588235294 L26 437.6470588235294 L27 426.3529411764706 L28 406.5882352941176 L29 434.8235294117647 L30 494.11764705882354 L31 511.0588235294117 L32 499.7647058823529 L33 480 L34 457.4117647058824 L35 454.5882352941176 L36 494.11764705882354 L37 567.5294117647059 L38 570.3529411764706 L39 573.1764705882354 L40 592.9411764705883 L41 581.6470588235294 L42 592.9411764705883 L43 584.4705882352941 L44 590.1176470588235 L45 542.1176470588235 L46 533.6470588235294 L47 584.4705882352941 L48 609.8823529411765 L49 609.8823529411765 L50 615.5294117647059 L51 652.2352941176471 L52 672 L53 635.2941176470588 L54 590.1176470588235 L55 561.8823529411765 L56 561.8823529411765 L57 561.8823529411765 L58 584.4705882352941 L59 573.1764705882354 L60 542.1176470588235 L61 508.2352941176471 L62 485.6470588235294 L63 528 L64 559.0588235294117 L65 556.2352941176471 L66 581.6470588235294 L67 618.3529411764706 L68 595.7647058823529 L69 592.9411764705883 L70 561.8823529411765 L71 530.8235294117646 L72 530.8235294117646 L73 595.7647058823529 L74 635.2941176470588 L75 657.8823529411765 L76 714.3529411764706 L77 717.1764705882352 L78 688.9411764705883 L79 663.5294117647059 L80 655.0588235294117 L81 666.3529411764706 L82 663.5294117647059 L83 663.5294117647059 L84 646.5882352941177 L85 624 L86 646.5882352941177 L87 663.5294117647059 L88 643.7647058823529 L89 629.6470588235294 L90 624 L91 621.1764705882352 L92 618.3529411764706 L93 609.8823529411765 L94 649.4117647058823 L95 669.1764705882352 L96 666.3529411764706 L97 688.9411764705883 L98 703.0588235294117 L99 683.2941176470588 L100 663.5294117647059 L101 666.3529411764706 L102 660.7058823529412 L103 666.3529411764706 L104 680.4705882352941 L105 674.8235294117648 L106 643.7647058823529 L107 657.8823529411765 L108 703.0588235294117 L109 720 L110 720 L111 717.1764705882352 L112 711.5294117647059 L113 720 L114 720 L115 720 L116 720 L117 720 L118 720 L119 720 L120 720 L121 720 L122 717.1764705882352 L123 688.9411764705883 L124 646.5882352941177 L125 646.5882352941177 L126 663.5294117647059 L127 646.5882352941177 L128 626.8235294117646 L129 615.5294117647059 L130 609.8823529411765 L131 629.6470588235294 L132 646.5882352941177 L133 646.5882352941177 L134 663.5294117647059 L135 677.6470588235294 L136 708.7058823529412 L137 720 L138 720 L139 720 L140 720 L141 720 L142 720 L143 720 L144 720 L145 720 L146 720 L147 720 L148 720 L149 717.1764705882352 L150 720 L151 720 L152 720 L153 720 L154 720 L155 720 L156 720 L157 720 L158 717.1764705882352 L159 717.1764705882352 L160 720 L161 720 L162 720 L163 720 L164 720 L165 686.1176470588235 L166 660.7058823529412 L167 669.1764705882352 L168 694.5882352941177 L169 720 L170 691.7647058823529 L171 626.8235294117646 L172 601.4117647058823 L173 618.3529411764706 L174 657.8823529411765 L175 632.4705882352941 L176 609.8823529411765 L177 609.8823529411765 L178 607.0588235294117 L179 592.9411764705883 L180 576 L181 561.8823529411765 L182 581.6470588235294 L183 632.4705882352941 L184 688.9411764705883 L185 666.3529411764706 L186 618.3529411764706 L187 570.3529411764706 L188 556.2352941176471 L189 564.7058823529412 L190 592.9411764705883 L191 663.5294117647059 L192 626.8235294117646 L193 609.8823529411765 L194 576 L195 576 L196 629.6470588235294 L197 604.2352941176471 L198 576 L199 570.3529411764706 L200 592.9411764705883 L201 590.1176470588235 L202 598.5882352941177 L203 635.2941176470588 L204 598.5882352941177 L205 601.4117647058823 L206 578.8235294117646 L207 573.1764705882354 L208 598.5882352941177 L209 638.1176470588235 L210 660.7058823529412 L211 655.0588235294117 L212 666.3529411764706 L213 694.5882352941177 L214 663.5294117647059 L215 643.7647058823529 L216 663.5294117647059 L217 666.3529411764706 L218 677.6470588235294 L219 655.0588235294117 L220 612.7058823529412 L221 615.5294117647059 L222 643.7647058823529 L223 680.4705882352941 L224 674.8235294117648 L225 691.7647058823529 L226 708.7058823529412 L227 720 L228 720 L229 720 L230 669.1764705882352 L231 663.5294117647059 L232 657.8823529411765 L233 632.4705882352941 L234 657.8823529411765 L235 708.7058823529412 L236 683.2941176470588 L237 660.7058823529412 L238 672 L239 677.6470588235294 L240 646.5882352941177 L241 660.7058823529412 L242 691.7647058823529 L243 720 L244 694.5882352941177 L245 677.6470588235294 L246 694.5882352941177 L247 677.6470588235294 L248 638.1176470588235 L249 655.0588235294117 L250 703.0588235294117 L251 714.3529411764706 L252 666.3529411764706 L253 618.3529411764706 L254 598.5882352941177 L255 604.2352941176471 L256 632.4705882352941 L257 640.9411764705883 L258 652.2352941176471 L259 680.4705882352941 L260 669.1764705882352 L261 666.3529411764706 L262 677.6470588235294 L263 655.0588235294117 L264 655.0588235294117 L265 688.9411764705883 L266 714.3529411764706 L267 720 L268 697.4117647058823 L269 686.1176470588235 L270 640.9411764705883 L271 612.7058823529412 L272 612.7058823529412 L273 590.1176470588235 L274 584.4705882352941 L275 621.1764705882352 L276 621.1764705882352 L277 607.0588235294117 L278 595.7647058823529 L279 624 L280 660.7058823529412 L281 655.0588235294117 L282 688.9411764705883 L283 649.4117647058823 L284 649.4117647058823 L285 683.2941176470588 L286 652.2352941176471 L287 652.2352941176471 L288 652.2352941176471 L289 601.4117647058823 L290 604.2352941176471 L291 649.4117647058823 L292 686.1176470588235 L293 652.2352941176471 L294 655.0588235294117 L295 700.2352941176471 L296 720 L297 720 L298 672 L299 655.0588235294117 L300 669.1764705882352 L301 714.3529411764706 L302 717.1764705882352 L303 680.4705882352941 L304 680.4705882352941 L305 638.1176470588235 L306 638.1176470588235 L307 660.7058823529412 L308 663.5294117647059 L309 632.4705882352941 L310 643.7647058823529 L311 649.4117647058823 L312 635.2941176470588 L313 643.7647058823529 L314 663.5294117647059 L315 672 L316 672 L317 655.0588235294117 L318 663.5294117647059 L319 680.4705882352941 L320 649.4117647058823 L321 601.4117647058823 L322 609.8823529411765 L323 652.2352941176471 L324 652.2352941176471 L325 669.1764705882352 L326 643.7647058823529 L327 652.2352941176471 L328 691.7647058823529 L329 674.8235294117648 L330 697.4117647058823 L331 703.0588235294117 L332 660.7058823529412 L333 626.8235294117646 L334 604.2352941176471 L335 604.2352941176471 L336 626.8235294117646 L337 666.3529411764706 L338 720 L339 720 L340 697.4117647058823 L341 688.9411764705883 L342 720 L343 697.4117647058823 L344 666.3529411764706 L345 657.8823529411765 L346 624 L347 601.4117647058823 L348 570.3529411764706 L349 564.7058823529412 L350 590.1176470588235 L351 632.4705882352941 L352 680.4705882352941 L353 720 L354 720 L355 700.2352941176471 L356 646.5882352941177 L357 655.0588235294117 L358 688.9411764705883 L359 640.9411764705883 L360 640.9411764705883 L361 680.4705882352941 L362 720 L363 680.4705882352941 L364 635.2941176470588 L365 649.4117647058823 L366 703.0588235294117 L367 672 L368 624 L369 612.7058823529412 L370 607.0588235294117 L371 607.0588235294117 L372 626.8235294117646 L373 657.8823529411765 L374 584.4705882352941 L375 542.1176470588235 L376 550.5882352941177 L377 584.4705882352941 L378 609.8823529411765 L379 652.2352941176471 L380 624 L381 626.8235294117646 L382 672 L383 663.5294117647059 L384 683.2941176470588 L385 672 L386 686.1176470588235 L387 607.0588235294117 L388 576 L389 578.8235294117646 L390 604.2352941176471 L391 663.5294117647059 L392 649.4117647058823 L393 669.1764705882352 L394 657.8823529411765 L395 657.8823529411765 L396 646.5882352941177 L397 657.8823529411765 L398 663.5294117647059 L399 626.8235294117646 L400 601.4117647058823 L401 626.8235294117646 L402 632.4705882352941 L403 663.5294117647059 L404 635.2941176470588 L405 638.1176470588235 L406 683.2941176470588 L407 697.4117647058823 L408 683.2941176470588 L409 694.5882352941177 L410 652.2352941176471 L411 643.7647058823529 L412 697.4117647058823 L413 711.5294117647059 L414 674.8235294117648 L415 657.8823529411765 L416 638.1176470588235 L417 652.2352941176471 L418 717.1764705882352 L419 720 L420 677.6470588235294 L421 691.7647058823529 L422 697.4117647058823 L423 680.4705882352941 L424 705.8823529411765 L425 717.1764705882352 L426 714.3529411764706 L427 720 L428 663.5294117647059 L429 640.9411764705883 L430 672 L431 686.1176470588235 L432 660.7058823529412 L433 688.9411764705883 L434 683.2941176470588 L435 657.8823529411765 L436 669.1764705882352 L437 657.8823529411765 L438 652.2352941176471 L439 691.7647058823529 L440 720 L441 700.2352941176471 L442 686.1176470588235 L443 697.4117647058823 L444 720 L445 720 L446 720 L447 720 L448 720 L449 720 L450 714.3529411764706 L451 720 L452 720 L453 697.4117647058823 L454 686.1176470588235 L455 714.3529411764706 L456 694.5882352941177 L457 720 L458 720 L459 720 L460 720 L461 720 L462 720 L463 720 L464 720 L465 720 L466 720 L467 720 L468 720 L469 720 L470 720 L471 720 L472 697.4117647058823 L473 669.1764705882352 L474 674.8235294117648 L475 717.1764705882352 L476 720 L477 720 L478 720 L479 720 L480 720 L481 720 L482 720 L483 720 L484 720 L485 720 L486 720 L487 711.5294117647059 L488 700.2352941176471 L489 717.1764705882352 L490 703.0588235294117 L491 669.1764705882352 L492 663.5294117647059 L493 652.2352941176471 L494 632.4705882352941 L495 632.4705882352941 L496 649.4117647058823 L497 677.6470588235294 L498 705.8823529411765 L499 720 L500 720 L501 717.1764705882352 L502 711.5294117647059 L503 720 L504 705.8823529411765 L505 694.5882352941177 L506 703.0588235294117 L507 663.5294117647059 L508 618.3529411764706 L509 607.0588235294117 L510 626.8235294117646 L511 632.4705882352941 L512 649.4117647058823 L513 683.2941176470588 L514 686.1176470588235 L515 700.2352941176471 L516 663.5294117647059 L517 655.0588235294117 L518 669.1764705882352 L519 688.9411764705883 L520 694.5882352941177 L521 705.8823529411765 L522 657.8823529411765 L523 615.5294117647059 L524 609.8823529411765 L525 638.1176470588235 L526 677.6470588235294 L527 720 L528 720 L529 720 L530 720 L531 720 L532 720 L533 720 L534 720 L535 720 L536 720 L537 720 L538 720 L539 720 L540 720 L541 720 L542 720 L543 720 L544 720 L545 720 L546 720 L547 720 L548 720 L549 720 L550 720 L551 720 L552 720 L553 720 L554 720 L555 720 L556 720 L557 720 L558 720 L559 720 L560 720 L561 720 L562 720 L563 720 L564 720 L565 720 L566 720 L567 720 L568 720 L569 720 L570 720 L571 720 L572 720 L573 720 L574 720 L575 720 L576 720 L577 720 L578 720 L579 720 L580 720 L581 720 L582 720 L583 720 L584 720 L585 720 L586 720 L587 720 L588 720 L589 720 L590 720 L591 720 L592 720 L593 720 L594 720 L595 720 L596 720 L597 720 L598 720 L599 720 L600 720 L601 720 L602 720 L603 720 L604 720 L605 720 L606 720 L607 720 L608 720 L609 720 L610 720 L611 720 L612 720 L613 720 L614 720 L615 720 L616 720 L617 720 L618 720 L619 720 L620 720 L621 720 L622 720 L623 720 L624 720 L625 720 L626 720 L627 720 L628 720 L629 720 L630 720 L631 720 L632 720 L633 720 L634 720 L635 720 L636 720 L637 720 L638 720 L639 720 L640 720 L641 720 L642 720 L643 720 L644 720 L645 720 L646 720 L647 720 L648 720 L649 720 L650 720 L651 720 L652 720 L653 720 L654 720 L655 720 L656 720 L657 720 L658 720 L659 720 L660 720 L661 720 L662 720 L663 720 L664 720 L665 720 L666 720 L667 720 L668 720 L669 720 L670 720 L671 720 L672 720 L673 720 L674 720 L675 720 L676 720 L677 720 L678 720 L679 720 L680 720 L681 720 L682 720 L683 720 L684 720 L685 720 L686 720 L687 720 L688 720 L689 720 L690 720 L691 720 L692 720 L693 720 L694 720 L695 720 L696 720 L697 720 L698 720 L699 720 L700 800  Z" stroke = "#000000" stroke-width = "1" fill = "#9f876780" />
</svg>