<svg width="800" height="800" viewbox = "0 0 800 800"  xmlns="http://www.w3.org/2000/svg">
 <path d = "M0 800 L1 491.29411764705884 L2 539.2941176470588 L3 559.0588235294117 L4 525.1764705882354 L5 457.4117647058824 L6 432 L7 457.4117647058824 L8 440.4705882352941 L9 389.64705882352945 L10 406.5882352941176 L11 502.5882352941177 L12 550.5882352941177 L13 578.8235294117646 L14 609.8823529411765 L15 578.8235294117646 L16 550.5882352941177 L17 502.5882352941177 L18 482.8235294117647 L19 533.6470588235294 L20 556.2352941176471 L21 525.1764705882354 L22 542.1176470588235 L23 584.4705882352941 L24 539.2941176470588 L25 505.4117647058823 L26 437.6470588235294 L27 420.70588235294116 L28 417.88235294117646 L29 437.6470588235294 L30 477.17647058823525 L31 485.6470588235294 L32 491.29411764705884 L33 516.7058823529412 L34 567.5294117647059 L35 533.6470588235294 L36 516.7058823529412 L37 544.9411764705883 L38 561.8823529411765 L39 590.1176470588235 L40 598.5882352941177 L41 590.1176470588235 L42 573.1764705882354 L43 561.8823529411765 L44 542.1176470588235 L45 502.5882352941177 L46 496.94117647058823 L47 542.1176470588235 L48 559.0588235294117 L49 564.7058823529412 L50 573.1764705882354 L51 621.1764705882352 L52 624 L53 578.8235294117646 L54 536.4705882352941 L55 502.5882352941177 L56 496.94117647058823 L57 502.5882352941177 L58 533.6470588235294 L59 550.5882352941177 L60 525.1764705882354 L61 505.4117647058823 L62 502.5882352941177 L63 533.6470588235294 L64 528 L65 513.8823529411765 L66 539.2941176470588 L67 561.8823529411765 L68 542.1176470588235 L69 561.8823529411765 L70 567.5294117647059 L71 547.7647058823529 L72 544.9411764705883 L73 590.1176470588235 L74 595.7647058823529 L75 607.0588235294117 L76 649.4117647058823 L77 652.2352941176471 L78 626.8235294117646 L79 612.7058823529412 L80 604.2352941176471 L81 612.7058823529412 L82 629.6470588235294 L83 626.8235294117646 L84 609.8823529411765 L85 590.1176470588235 L86 612.7058823529412 L87 632.4705882352941 L88 607.0588235294117 L89 578.8235294117646 L90 561.8823529411765 L91 561.8823529411765 L92 564.7058823529412 L93 547.7647058823529 L94 590.1176470588235 L95 609.8823529411765 L96 609.8823529411765 L97 640.9411764705883 L98 646.5882352941177 L99 626.8235294117646 L100 604.2352941176471 L101 598.5882352941177 L102 587.2941176470588 L103 595.7647058823529 L104 618.3529411764706 L105 657.8823529411765 L106 652.2352941176471 L107 652.2352941176471 L108 660.7058823529412 L109 700.2352941176471 L110 680.4705882352941 L111 657.8823529411765 L112 649.4117647058823 L113 674.8235294117648 L114 708.7058823529412 L115 697.4117647058823 L116 720 L117 720 L118 720 L119 711.5294117647059 L120 686.1176470588235 L121 691.7647058823529 L122 660.7058823529412 L123 694.5882352941177 L124 649.4117647058823 L125 612.7058823529412 L126 595.7647058823529 L127 576 L128 564.7058823529412 L129 550.5882352941177 L130 544.9411764705883 L131 559.0588235294117 L132 578.8235294117646 L133 584.4705882352941 L134 595.7647058823529 L135 604.2352941176471 L136 640.9411764705883 L137 683.2941176470588 L138 680.4705882352941 L139 666.3529411764706 L140 657.8823529411765 L141 660.7058823529412 L142 691.7647058823529 L143 720 L144 720 L145 720 L146 708.7058823529412 L147 694.5882352941177 L148 669.1764705882352 L149 649.4117647058823 L150 657.8823529411765 L151 672 L152 666.3529411764706 L153 669.1764705882352 L154 711.5294117647059 L155 720 L156 694.5882352941177 L157 663.5294117647059 L158 646.5882352941177 L159 646.5882352941177 L160 660.7058823529412 L161 674.8235294117648 L162 697.4117647058823 L163 674.8235294117648 L164 666.3529411764706 L165 612.7058823529412 L166 587.2941176470588 L167 592.9411764705883 L168 626.8235294117646 L169 680.4705882352941 L170 621.1764705882352 L171 550.5882352941177 L172 525.1764705882354 L173 544.9411764705883 L174 584.4705882352941 L175 559.0588235294117 L176 533.6470588235294 L177 533.6470588235294 L178 530.8235294117646 L179 516.7058823529412 L180 499.7647058823529 L181 485.6470588235294 L182 502.5882352941177 L183 556.2352941176471 L184 612.7058823529412 L185 590.1176470588235 L186 542.1176470588235 L187 494.11764705882354 L188 480 L189 491.29411764705884 L190 519.5294117647059 L191 592.9411764705883 L192 550.5882352941177 L193 533.6470588235294 L194 499.7647058823529 L195 502.5882352941177 L196 556.2352941176471 L197 528 L198 499.7647058823529 L199 496.94117647058823 L200 519.5294117647059 L201 516.7058823529412 L202 525.1764705882354 L203 561.8823529411765 L204 522.3529411764706 L205 528 L206 508.2352941176471 L207 499.7647058823529 L208 525.1764705882354 L209 561.8823529411765 L210 587.2941176470588 L211 584.4705882352941 L212 598.5882352941177 L213 626.8235294117646 L214 590.1176470588235 L215 570.3529411764706 L216 590.1176470588235 L217 592.9411764705883 L218 604.2352941176471 L219 581.6470588235294 L220 539.2941176470588 L221 542.1176470588235 L222 570.3529411764706 L223 609.8823529411765 L224 601.4117647058823 L225 615.5294117647059 L226 638.1176470588235 L227 680.4705882352941 L228 663.5294117647059 L229 655.0588235294117 L230 604.2352941176471 L231 595.7647058823529 L232 587.2941176470588 L233 559.0588235294117 L234 584.4705882352941 L235 640.9411764705883 L236 609.8823529411765 L237 587.2941176470588 L238 604.2352941176471 L239 609.8823529411765 L240 578.8235294117646 L241 595.7647058823529 L242 626.8235294117646 L243 677.6470588235294 L244 640.9411764705883 L245 609.8823529411765 L246 629.6470588235294 L247 621.1764705882352 L248 578.8235294117646 L249 587.2941176470588 L250 632.4705882352941 L251 643.7647058823529 L252 592.9411764705883 L253 550.5882352941177 L254 528 L255 536.4705882352941 L256 564.7058823529412 L257 567.5294117647059 L258 581.6470588235294 L259 609.8823529411765 L260 595.7647058823529 L261 592.9411764705883 L262 604.2352941176471 L263 578.8235294117646 L264 581.6470588235294 L265 618.3529411764706 L266 643.7647058823529 L267 657.8823529411765 L268 624 L269 612.7058823529412 L270 567.5294117647059 L271 539.2941176470588 L272 539.2941176470588 L273 516.7058823529412 L274 511.0588235294117 L275 553.4117647058823 L276 559.0588235294117 L277 542.1176470588235 L278 522.3529411764706 L279 550.5882352941177 L280 587.2941176470588 L281 584.4705882352941 L282 618.3529411764706 L283 576 L284 573.1764705882354 L285 609.8823529411765 L286 576 L287 576 L288 578.8235294117646 L289 525.1764705882354 L290 525.1764705882354 L291 573.1764705882354 L292 612.7058823529412 L293 576 L294 578.8235294117646 L295 624 L296 652.2352941176471 L297 649.4117647058823 L298 598.5882352941177 L299 581.6470588235294 L300 598.5882352941177 L301 649.4117647058823 L302 655.0588235294117 L303 609.8823529411765 L304 607.0588235294117 L305 561.8823529411765 L306 559.0588235294117 L307 584.4705882352941 L308 587.2941176470588 L309 556.2352941176471 L310 567.5294117647059 L311 573.1764705882354 L312 561.8823529411765 L313 567.5294117647059 L314 587.2941176470588 L315 595.7647058823529 L316 595.7647058823529 L317 578.8235294117646 L318 590.1176470588235 L319 604.2352941176471 L320 576 L321 525.1764705882354 L322 533.6470588235294 L323 576 L324 578.8235294117646 L325 601.4117647058823 L326 573.1764705882354 L327 578.8235294117646 L328 615.5294117647059 L329 598.5882352941177 L330 626.8235294117646 L331 635.2941176470588 L332 590.1176470588235 L333 553.4117647058823 L334 530.8235294117646 L335 533.6470588235294 L336 556.2352941176471 L337 601.4117647058823 L338 660.7058823529412 L339 655.0588235294117 L340 626.8235294117646 L341 615.5294117647059 L342 655.0588235294117 L343 624 L344 595.7647058823529 L345 584.4705882352941 L346 550.5882352941177 L347 530.8235294117646 L348 496.94117647058823 L349 494.11764705882354 L350 519.5294117647059 L351 559.0588235294117 L352 609.8823529411765 L353 655.0588235294117 L354 677.6470588235294 L355 626.8235294117646 L356 573.1764705882354 L357 581.6470588235294 L358 621.1764705882352 L359 567.5294117647059 L360 573.1764705882354 L361 618.3529411764706 L362 666.3529411764706 L363 612.7058823529412 L364 567.5294117647059 L365 587.2941176470588 L366 643.7647058823529 L367 604.2352941176471 L368 556.2352941176471 L369 539.2941176470588 L370 536.4705882352941 L371 533.6470588235294 L372 556.2352941176471 L373 590.1176470588235 L374 513.8823529411765 L375 471.52941176470586 L376 477.17647058823525 L377 513.8823529411765 L378 542.1176470588235 L379 587.2941176470588 L380 550.5882352941177 L381 556.2352941176471 L382 618.3529411764706 L383 607.0588235294117 L384 621.1764705882352 L385 607.0588235294117 L386 624 L387 533.6470588235294 L388 499.7647058823529 L389 502.5882352941177 L390 525.1764705882354 L391 587.2941176470588 L392 576 L393 598.5882352941177 L394 584.4705882352941 L395 584.4705882352941 L396 578.8235294117646 L397 590.1176470588235 L398 592.9411764705883 L399 550.5882352941177 L400 525.1764705882354 L401 547.7647058823529 L402 556.2352941176471 L403 587.2941176470588 L404 556.2352941176471 L405 561.8823529411765 L406 609.8823529411765 L407 626.8235294117646 L408 607.0588235294117 L409 624 L410 578.8235294117646 L411 570.3529411764706 L412 624 L413 640.9411764705883 L414 601.4117647058823 L415 581.6470588235294 L416 561.8823529411765 L417 578.8235294117646 L418 643.7647058823529 L419 646.5882352941177 L420 604.2352941176471 L421 621.1764705882352 L422 626.8235294117646 L423 607.0588235294117 L424 632.4705882352941 L425 643.7647058823529 L426 646.5882352941177 L427 663.5294117647059 L428 590.1176470588235 L429 564.7058823529412 L430 598.5882352941177 L431 615.5294117647059 L432 584.4705882352941 L433 615.5294117647059 L434 609.8823529411765 L435 581.6470588235294 L436 595.7647058823529 L437 584.4705882352941 L438 581.6470588235294 L439 621.1764705882352 L440 674.8235294117648 L441 629.6470588235294 L442 612.7058823529412 L443 624 L444 649.4117647058823 L445 700.2352941176471 L446 705.8823529411765 L447 663.5294117647059 L448 657.8823529411765 L449 677.6470588235294 L450 646.5882352941177 L451 652.2352941176471 L452 666.3529411764706 L453 621.1764705882352 L454 612.7058823529412 L455 646.5882352941177 L456 621.1764705882352 L457 657.8823529411765 L458 677.6470588235294 L459 680.4705882352941 L460 657.8823529411765 L461 652.2352941176471 L462 669.1764705882352 L463 672 L464 649.4117647058823 L465 657.8823529411765 L466 700.2352941176471 L467 666.3529411764706 L468 655.0588235294117 L469 680.4705882352941 L470 657.8823529411765 L471 680.4705882352941 L472 621.1764705882352 L473 590.1176470588235 L474 601.4117647058823 L475 643.7647058823529 L476 655.0588235294117 L477 646.5882352941177 L478 694.5882352941177 L479 720 L480 666.3529411764706 L481 660.7058823529412 L482 686.1176470588235 L483 677.6470588235294 L484 691.7647058823529 L485 652.2352941176471 L486 652.2352941176471 L487 632.4705882352941 L488 624 L489 640.9411764705883 L490 626.8235294117646 L491 592.9411764705883 L492 587.2941176470588 L493 578.8235294117646 L494 559.0588235294117 L495 561.8823529411765 L496 578.8235294117646 L497 607.0588235294117 L498 632.4705882352941 L499 655.0588235294117 L500 649.4117647058823 L501 643.7647058823529 L502 643.7647058823529 L503 660.7058823529412 L504 632.4705882352941 L505 621.1764705882352 L506 632.4705882352941 L507 592.9411764705883 L508 544.9411764705883 L509 533.6470588235294 L510 553.4117647058823 L511 559.0588235294117 L512 576 L513 615.5294117647059 L514 615.5294117647059 L515 626.8235294117646 L516 592.9411764705883 L517 581.6470588235294 L518 598.5882352941177 L519 618.3529411764706 L520 624 L521 635.2941176470588 L522 581.6470588235294 L523 542.1176470588235 L524 536.4705882352941 L525 561.8823529411765 L526 604.2352941176471 L527 655.0588235294117 L528 672 L529 674.8235294117648 L530 700.2352941176471 L531 708.7058823529412 L532 688.9411764705883 L533 666.3529411764706 L534 677.6470588235294 L535 720 L536 720 L537 720 L538 708.7058823529412 L539 708.7058823529412 L540 688.9411764705883 L541 686.1176470588235 L542 720 L543 720 L544 714.3529411764706 L545 669.1764705882352 L546 660.7058823529412 L547 672 L548 674.8235294117648 L549 720 L550 720 L551 720 L552 711.5294117647059 L553 720 L554 720 L555 720 L556 720 L557 720 L558 720 L559 720 L560 720 L561 720 L562 720 L563 720 L564 720 L565 720 L566 720 L567 720 L568 720 L569 720 L570 720 L571 720 L572 720 L573 720 L574 720 L575 720 L576 720 L577 717.1764705882352 L578 720 L579 717.1764705882352 L580 683.2941176470588 L581 714.3529411764706 L582 717.1764705882352 L583 669.1764705882352 L584 655.0588235294117 L585 669.1764705882352 L586 694.5882352941177 L587 720 L588 720 L589 677.6470588235294 L590 677.6470588235294 L591 720 L592 720 L593 720 L594 720 L595 708.7058823529412 L596 720 L597 686.1176470588235 L598 669.1764705882352 L599 686.1176470588235 L600 720 L601 674.8235294117648 L602 691.7647058823529 L603 720 L604 694.5882352941177 L605 714.3529411764706 L606 720 L607 720 L608 720 L609 714.3529411764706 L610 720 L611 720 L612 720 L613 720 L614 714.3529411764706 L615 694.5882352941177 L616 666.3529411764706 L617 666.3529411764706 L618 669.1764705882352 L619 691.7647058823529 L620 720 L621 720 L622 720 L623 708.7058823529412 L624 677.6470588235294 L625 677.6470588235294 L626 720 L627 720 L628 720 L629 720 L630 720 L631 720 L632 720 L633 720 L634 720 L635 720 L636 720 L637 720 L638 720 L639 720 L640 720 L641 720 L642 720 L643 720 L644 720 L645 720 L646 720 L647 720 L648 720 L649 720 L650 720 L651 720 L652 720 L653 720 L654 720 L655 720 L656 720 L657 720 L658 720 L659 720 L660 720 L661 720 L662 720 L663 720 L664 720 L665 720 L666 720 L667 720 L668 720 L669 720 L670 720 L671 720 L672 720 L673 720 L674 720 L675 720 L676 720 L677 720 L678 720 L679 720 L680 720 L681 720 L682 720 L683 720 L684 720 L685 720 L686 720 L687 720 L688 720 L689 720 L690 720 L691 720 L692 720 L693 720 L694 720 L695 720 L696 720 L697 720 L698 720 L699 720 L700 800  Z" stroke = "#000000" stroke-width = "1" fill = "#9f876780" />
</svg>