<svg width="824" height="824" viewbox = "0 0 824 824"  xmlns="http://www.w3.org/2000/svg">
 <path d = "M0 56 L0 643.0431372549019 L1 601.035294117647 L2 591.3411764705883 L3 636.5803921568628 L4 662.4313725490197 L5 591.3411764705883 L6 571.9529411764706 L7 613.9607843137255 L8 636.5803921568628 L9 626.8862745098039 L10 623.6549019607843 L11 594.5725490196078 L12 568.721568627451 L13 549.3333333333334 L14 555.7960784313725 L15 591.3411764705883 L16 626.8862745098039 L17 675.356862745098 L18 678.5882352941176 L19 678.5882352941176 L20 617.1921568627452 L21 604.2666666666667 L22 617.1921568627452 L23 639.8117647058823 L24 662.4313725490197 L25 662.4313725490197 L26 626.8862745098039 L27 617.1921568627452 L28 649.5058823529412 L29 649.5058823529412 L30 613.9607843137255 L31 546.1019607843136 L32 526.7137254901961 L33 578.4156862745098 L34 668.8941176470588 L35 685.0509803921568 L36 688.2823529411764 L37 688.2823529411764 L38 668.8941176470588 L39 678.5882352941176 L40 704.4392156862745 L41 714.1333333333333 L42 668.8941176470588 L43 633.3490196078432 L44 675.356862745098 L45 717.364705882353 L46 723.8274509803922 L47 710.9019607843137 L48 678.5882352941176 L49 685.0509803921568 L50 730.2901960784313 L51 730.2901960784313 L52 701.2078431372549 L53 681.8196078431372 L54 691.5137254901961 L55 710.9019607843137 L56 707.6705882352941 L57 694.7450980392157 L58 694.7450980392157 L59 701.2078431372549 L60 694.7450980392157 L61 701.2078431372549 L62 697.9764705882353 L63 675.356862745098 L64 665.6627450980392 L65 668.8941176470588 L66 668.8941176470588 L67 665.6627450980392 L68 655.9686274509804 L69 659.2 L70 668.8941176470588 L71 701.2078431372549 L72 775.5294117647059 L73 794.9176470588235 L74 778.7607843137255 L75 752.9098039215686 L76 756.1411764705882 L77 739.9843137254902 L78 727.0588235294117 L79 717.364705882353 L80 675.356862745098 L81 665.6627450980392 L82 678.5882352941176 L83 701.2078431372549 L84 762.6039215686275 L85 775.5294117647059 L86 736.7529411764706 L87 691.5137254901961 L88 688.2823529411764 L89 720.5960784313726 L90 723.8274509803922 L91 704.4392156862745 L92 668.8941176470588 L93 685.0509803921568 L94 749.678431372549 L95 775.5294117647059 L96 743.2156862745098 L97 739.9843137254902 L98 739.9843137254902 L99 743.2156862745098 L100 733.521568627451 L101 685.0509803921568 L102 681.8196078431372 L103 701.2078431372549 L104 701.2078431372549 L105 733.521568627451 L106 765.8352941176471 L107 762.6039215686275 L108 756.1411764705882 L109 743.2156862745098 L110 743.2156862745098 L111 769.0666666666667 L112 769.0666666666667 L113 785.2235294117647 L114 739.9843137254902 L115 743.2156862745098 L116 759.3725490196078 L117 769.0666666666667 L118 762.6039215686275 L119 739.9843137254902 L120 749.678431372549 L121 762.6039215686275 L122 775.5294117647059 L123 781.9921568627451 L124 775.5294117647059 L125 752.9098039215686 L126 749.678431372549 L127 769.0666666666667 L128 769.0666666666667 L129 759.3725490196078 L130 756.1411764705882 L131 765.8352941176471 L132 788.4549019607844 L133 781.9921568627451 L134 749.678431372549 L135 756.1411764705882 L136 791.686274509804 L137 824 L138 814.3058823529411 L139 811.0745098039216 L140 788.4549019607844 L141 778.7607843137255 L142 775.5294117647059 L143 759.3725490196078 L144 739.9843137254902 L145 720.5960784313726 L146 697.9764705882353 L147 691.5137254901961 L148 736.7529411764706 L149 772.2980392156862 L150 756.1411764705882 L151 743.2156862745098 L152 743.2156862745098 L153 791.686274509804 L154 778.7607843137255 L155 781.9921568627451 L156 807.843137254902 L157 814.3058823529411 L158 811.0745098039216 L159 814.3058823529411 L160 824 L161 798.1490196078431 L162 788.4549019607844 L163 762.6039215686275 L164 759.3725490196078 L165 762.6039215686275 L166 772.2980392156862 L167 752.9098039215686 L168 743.2156862745098 L169 778.7607843137255 L170 772.2980392156862 L171 781.9921568627451 L172 772.2980392156862 L173 788.4549019607844 L174 791.686274509804 L175 807.843137254902 L176 824 L177 824 L178 824 L179 824 L180 824 L181 824 L182 824 L183 824 L184 824 L185 824 L186 824 L187 824 L188 824 L189 824 L190 824 L191 824 L192 824 L193 824 L194 824 L195 824 L196 824 L197 824 L198 811.0745098039216 L199 817.5372549019608 L200 811.0745098039216 L201 794.9176470588235 L202 778.7607843137255 L203 791.686274509804 L204 814.3058823529411 L205 811.0745098039216 L206 811.0745098039216 L207 820.7686274509804 L208 824 L209 824 L210 817.5372549019608 L211 814.3058823529411 L212 814.3058823529411 L213 824 L214 824 L215 824 L216 804.6117647058824 L217 824 L218 794.9176470588235 L219 769.0666666666667 L220 801.3803921568627 L221 820.7686274509804 L222 820.7686274509804 L223 814.3058823529411 L224 794.9176470588235 L225 807.843137254902 L226 824 L227 824 L228 824 L229 824 L230 824 L231 824 L232 824 L233 824 L234 824 L235 824 L236 824 L237 824 L238 824 L239 824 L240 817.5372549019608 L241 824 L242 824 L243 824 L244 807.843137254902 L245 798.1490196078431 L246 798.1490196078431 L247 804.6117647058824 L248 824 L249 824 L250 824 L251 824 L252 824 L253 824 L254 824 L255 824 L256 824 L257 824 L258 824 L259 824 L260 824 L261 824 L262 824 L263 824 L264 824 L265 824 L266 824 L267 824 L268 824 L269 824 L270 824 L271 824 L272 824 L273 824 L274 824 L275 824 L276 824 L277 824 L278 824 L279 824 L280 824 L281 824 L282 824 L283 824 L284 824 L285 824 L286 807.843137254902 L287 798.1490196078431 L288 824 L289 824 L290 824 L291 824 L292 824 L293 824 L294 824 L295 824 L296 824 L297 824 L298 824 L299 824 L300 824 L301 824 L302 824 L303 824 L304 824 L305 824 L306 824 L307 824 L308 824 L309 824 L310 824 L311 824 L312 824 L313 824 L314 824 L315 824 L316 824 L317 824 L318 824 L319 824 L320 824 L321 824 L322 824 L323 824 L324 824 L325 824 L326 824 L327 824 L328 824 L329 824 L330 824 L331 824 L332 824 L333 824 L334 824 L335 824 L336 824 L337 824 L338 824 L339 824 L340 824 L341 824 L342 824 L343 824 L344 824 L345 824 L346 824 L347 824 L348 824 L349 824 L350 824 L351 824 L352 824 L353 824 L354 824 L355 824 L356 824 L357 824 L358 824 L359 824 L360 824 L361 824 L362 824 L363 824 L364 824 L365 824 L366 824 L367 824 L368 824 L369 824 L370 824 L371 824 L372 824 L373 824 L374 824 L375 824 L376 824 L377 824 L378 824 L379 824 L380 824 L381 824 L382 824 L383 824 L384 824 L385 824 L386 824 L387 824 L388 824 L389 824 L390 824 L391 824 L392 824 L393 824 L394 824 L395 824 L396 824 L397 824 L398 824 L399 824 L400 824 L401 824 L402 824 L403 824 L404 824 L405 824 L406 824 L407 824 L408 824 L409 824 L410 824 L411 824 L412 824 L413 824 L414 824 L415 824 L416 824 L417 824 L418 824 L419 824 L420 824 L421 824 L422 824 L423 824 L424 824 L425 824 L426 824 L427 824 L428 824 L429 824 L430 824 L431 824 L432 824 L433 824 L434 824 L435 824 L436 824 L437 824 L438 824 L439 824 L440 824 L441 824 L442 824 L443 824 L444 824 L445 824 L446 824 L447 824 L448 824 L449 824 L450 824 L451 824 L452 824 L453 824 L454 824 L455 824 L456 824 L457 824 L458 824 L459 824 L460 824 L461 824 L462 824 L463 824 L464 824 L465 824 L466 824 L467 824 L468 824 L469 824 L470 824 L471 824 L472 824 L473 824 L474 824 L475 824 L476 824 L477 824 L478 824 L479 824 L480 824 L481 824 L482 824 L483 824 L484 824 L485 824 L486 824 L487 824 L488 824 L489 824 L490 824 L491 824 L492 824 L493 824 L494 824 L495 824 L496 824 L497 824 L498 824 L499 824 L500 824 L501 824 L502 824 L503 824 L504 824 L505 824 L506 824 L507 824 L508 824 L509 824 L510 824 L511 824 L512 824 L513 824 L514 824 L515 824 L516 824 L517 824 L518 824 L519 824 L520 824 L521 824 L522 824 L523 824 L524 824 L525 824 L526 824 L527 824 L528 824 L529 824 L530 824 L531 824 L532 824 L533 824 L534 824 L535 824 L536 824 L537 824 L538 824 L539 824 L540 824 L541 824 L542 824 L543 824 L544 824 L545 824 L546 824 L547 824 L548 824 L549 824 L550 824 L551 824 L552 824 L553 824 L554 824 L555 824 L556 824 L557 824 L558 824 L559 824 L560 824 L561 824 L562 824 L563 824 L564 824 L565 824 L566 824 L567 824 L568 824 L569 824 L570 824 L571 824 L572 824 L573 824 L574 824 L575 824 L576 824 L577 824 L578 824 L579 824 L580 824 L581 824 L582 824 L583 824 L584 824 L585 824 L586 824 L587 824 L588 824 L589 824 L590 824 L591 824 L592 824 L593 824 L594 824 L595 824 L596 824 L597 824 L598 824 L599 824 L600 824 L601 824 L602 824 L603 824 L604 824 L605 824 L606 824 L607 824 L608 824 L609 824 L610 824 L611 824 L612 824 L613 824 L614 824 L615 824 L616 824 L617 824 L618 824 L619 824 L620 824 L621 824 L622 824 L623 824 L624 824 L625 824 L626 824 L627 824 L628 824 L629 824 L630 824 L631 824 L632 824 L633 824 L634 824 L635 824 L636 824 L637 824 L638 824 L639 824 L640 824 L641 824 L642 824 L643 824 L644 824 L645 824 L646 824 L647 824 L648 824 L649 824 L650 824 L651 824 L652 824 L653 824 L654 824 L655 824 L656 824 L657 824 L658 824 L659 824 L660 824 L661 824 L662 824 L663 824 L664 824 L665 824 L666 824 L667 824 L668 824 L669 824 L670 824 L671 824 L672 824 L673 824 L674 824 L675 824 L676 824 L677 824 L678 824 L679 824 L680 824 L681 824 L682 824 L683 824 L684 824 L685 824 L686 824 L687 824 L688 824 L689 824 L690 824 L691 824 L692 824 L693 824 L694 824 L695 824 L696 824 L697 824 L698 824 L699 824 L700 824 L701 824 L702 824 L703 824 L704 824 L705 824 L706 824 L707 824 L708 824 L709 824 L710 824 L711 824 L712 824 L713 824 L714 824 L715 824 L716 824 L717 824 L718 824 L719 824 L720 824 L721 824 L722 824 L723 824 L724 824 L725 824 L726 824 L727 824 L728 824 L729 824 L730 824 L731 824 L732 824 L733 824 L734 824 L735 824 L736 824 L737 824 L738 824 L739 824 L740 824 L741 824 L742 824 L743 824 L744 824 L745 824 L746 824 L747 824 L748 824 L749 824 L750 824 L751 824 L752 824 L753 824 L754 824 L755 824 L756 824 L757 824 L758 824 L759 824 L760 824 L761 824 L762 824 L763 824 L764 824 L765 824 L766 824 L767 824 L768 824 L769 824 L770 824 L771 824 L772 824 L773 824 L774 824 L775 824 L776 824 L777 824 L778 824 L779 824 L780 824 L781 824 L782 824 L783 824 L784 824 L785 824 L786 824 L787 824 L788 824 L789 824 L790 824 L791 824 L792 824 L793 824 L794 824 L795 824 L796 824 L797 824 L798 824 L799 824 L800 824 L801 824 L802 824 L803 824 L804 824 L805 824 L806 824 L807 824 L808 824 L809 824 L810 824 L811 824 L812 824 L813 824 L814 824 L815 824 L816 824 L817 824 L818 824 L819 824 L820 824 L821 824 L822 824 L823 824 L824 824 L825 824 L826 824 L827 824 L828 824 L829 824 L830 824 L831 824 L832 824 L833 824 L834 824 L835 824 L836 824 L837 824 L838 824 L839 824 L840 824 L841 824 L842 824 L843 824 L844 824 L845 824 L846 824 L847 824 L848 824 L849 824 L850 824 L851 824 L852 824 L853 824 L854 824 L855 824 L856 824 L857 824 L858 824 L859 824 L860 824 L861 824 L862 824 L863 824 L864 824 L865 824 L866 824 L867 824 L868 824 L869 824 L870 824 L871 824 L872 824 L873 824 L874 824 L875 824 L876 824 L877 824 L878 824 L879 824 L880 824 L881 824 L882 824 L883 824 L884 824 L885 824 L886 824 L887 824 L888 824 L889 824 L890 824 L891 824 L892 824 L893 824 L894 824 L895 824 L896 824 L897 824 L898 824 L899 824 L900 824 L901 824 L902 824 L903 824 L904 824 L905 824 L906 824 L907 824 L908 824 L909 824 L910 824 L911 824 L912 824 L913 824 L914 824 L915 824 L916 824 L917 824 L918 824 L919 824 L920 824 L921 824 L922 824 L923 824 L924 824 L925 824 L926 824 L927 824 L928 824 L929 824 L930 824 L931 824 L932 824 L933 824 L934 824 L935 824 L936 824 L937 824 L938 824 L939 824 L940 824 L941 824 L942 824 L943 824 L944 824 L945 824 L946 824 L947 824 L948 824 L949 824 L950 824 L951 824 L952 824 L953 824 L954 824 L955 824 L956 824 L957 824 L958 824 L959 824 L960 824 L961 824 L962 824 L963 824 L964 824 L965 824 L966 824 L967 824 L968 824 L969 824 L970 824 L971 824 L972 824 L973 824 L974 824 L975 824 L976 824 L977 824 L978 824 L979 824 L980 824 L981 824 L982 824 L983 824 L984 824 L985 824 L986 824 L987 824 L988 824 L989 824 L990 824 L991 824 L992 824 L993 824 L994 824 L995 824 L996 824 L997 824 L998 824 L999 824 L1000 824 L1001 824 L1002 824 L1003 824 L1004 824 L1005 824 L1006 824 L1007 824 L1008 824 L1009 824 L1010 824 L1011 824 L1012 824 L1013 824 L1014 824 L1015 824 L1016 824 L1017 824 L1018 824 L1019 824 L1020 824 L1021 824 L1022 824 L1023 824 L824 824  Z" stroke = "#000000" stroke-width = "1" fill = "#000000" />
</svg>