<svg width="824" height="824" viewbox = "0 0 824 824"  xmlns="http://www.w3.org/2000/svg">
 <path d = "M0 824 L0 494.4 L1 471.7803921568628 L2 487.9372549019608 L3 517.0196078431372 L4 517.0196078431372 L5 439.46666666666664 L6 429.7725490196078 L7 471.7803921568628 L8 368.3764705882353 L9 106.63529411764705 L10 0 L11 0 L12 0 L13 58.164705882352905 L14 126.02352941176468 L15 219.73333333333335 L16 268.2039215686274 L17 274.66666666666674 L18 316.6745098039215 L19 339.2941176470588 L20 268.2039215686274 L21 216.50196078431372 L22 219.73333333333335 L23 264.97254901960787 L24 310.2117647058824 L25 319.90588235294115 L26 342.5254901960784 L27 397.45882352941175 L28 462.0862745098039 L29 423.30980392156863 L30 348.9882352941177 L31 294.05490196078426 L32 258.5098039215686 L33 245.58431372549023 L34 277.89803921568625 L35 368.3764705882353 L36 465.3176470588235 L37 542.8705882352941 L38 536.407843137255 L39 510.55686274509804 L40 539.6392156862745 L41 468.5490196078431 L42 374.83921568627454 L43 332.8313725490196 L44 326.3686274509804 L45 339.2941176470588 L46 358.6823529411765 L47 378.07058823529417 L48 423.30980392156863 L49 433.00392156862745 L50 374.83921568627454 L51 365.14509803921567 L52 248.81568627450986 L53 151.87450980392157 L54 142.1803921568628 L55 200.3450980392157 L56 216.50196078431372 L57 216.50196078431372 L58 252.04705882352948 L59 281.1294117647059 L60 303.74901960784314 L61 264.97254901960787 L62 229.4274509803921 L63 248.81568627450986 L64 277.89803921568625 L65 274.66666666666674 L66 277.89803921568625 L67 268.2039215686274 L68 294.05490196078426 L69 326.3686274509804 L70 323.13725490196083 L71 310.2117647058824 L72 316.6745098039215 L73 323.13725490196083 L74 355.4509803921569 L75 348.9882352941177 L76 361.9137254901961 L77 306.98039215686276 L78 281.1294117647059 L79 287.5921568627451 L80 235.89019607843136 L81 242.3529411764705 L82 290.82352941176464 L83 313.44313725490196 L84 326.3686274509804 L85 319.90588235294115 L86 323.13725490196083 L87 352.2196078431373 L88 400.6901960784314 L89 426.54117647058825 L90 436.2352941176471 L91 449.1607843137255 L92 465.3176470588235 L93 439.46666666666664 L94 410.3843137254902 L95 407.1529411764706 L96 426.54117647058825 L97 416.8470588235294 L98 403.921568627451 L99 433.00392156862745 L100 458.85490196078433 L101 462.0862745098039 L102 481.47450980392153 L103 478.24313725490197 L104 478.24313725490197 L105 455.6235294117647 L106 452.3921568627451 L107 478.24313725490197 L108 462.0862745098039 L109 445.9294117647059 L110 468.5490196078431 L111 487.9372549019608 L112 478.24313725490197 L113 500.8627450980392 L114 539.6392156862745 L115 559.0274509803921 L116 565.4901960784314 L117 575.1843137254903 L118 533.1764705882352 L119 513.7882352941176 L120 555.7960784313725 L121 552.5647058823529 L122 552.5647058823529 L123 581.6470588235294 L124 601.035294117647 L125 620.4235294117647 L126 601.035294117647 L127 565.4901960784314 L128 497.6313725490196 L129 468.5490196078431 L130 449.1607843137255 L131 449.1607843137255 L132 468.5490196078431 L133 507.3254901960784 L134 504.0941176470588 L135 487.9372549019608 L136 462.0862745098039 L137 436.2352941176471 L138 487.9372549019608 L139 491.1686274509804 L140 436.2352941176471 L141 413.6156862745098 L142 410.3843137254902 L143 378.07058823529417 L144 348.9882352941177 L145 358.6823529411765 L146 374.83921568627454 L147 429.7725490196078 L148 426.54117647058825 L149 429.7725490196078 L150 429.7725490196078 L151 410.3843137254902 L152 384.53333333333336 L153 403.921568627451 L154 378.07058823529417 L155 345.756862745098 L156 332.8313725490196 L157 313.44313725490196 L158 326.3686274509804 L159 374.83921568627454 L160 400.6901960784314 L161 420.07843137254906 L162 462.0862745098039 L163 475.01176470588234 L164 536.407843137255 L165 529.9450980392157 L166 513.7882352941176 L167 504.0941176470588 L168 523.4823529411765 L169 546.1019607843136 L170 571.9529411764706 L171 546.1019607843136 L172 568.721568627451 L173 607.4980392156863 L174 568.721568627451 L175 546.1019607843136 L176 578.4156862745098 L177 630.1176470588235 L178 591.3411764705883 L179 594.5725490196078 L180 604.2666666666667 L181 597.8039215686274 L182 588.1098039215686 L183 649.5058823529412 L184 643.0431372549019 L185 604.2666666666667 L186 591.3411764705883 L187 613.9607843137255 L188 668.8941176470588 L189 681.8196078431372 L190 646.2745098039215 L191 655.9686274509804 L192 685.0509803921568 L193 749.678431372549 L194 739.9843137254902 L195 688.2823529411764 L196 694.7450980392157 L197 646.2745098039215 L198 601.035294117647 L199 591.3411764705883 L200 581.6470588235294 L201 533.1764705882352 L202 526.7137254901961 L203 536.407843137255 L204 552.5647058823529 L205 533.1764705882352 L206 539.6392156862745 L207 562.2588235294118 L208 604.2666666666667 L209 578.4156862745098 L210 555.7960784313725 L211 546.1019607843136 L212 513.7882352941176 L213 507.3254901960784 L214 523.4823529411765 L215 552.5647058823529 L216 559.0274509803921 L217 546.1019607843136 L218 555.7960784313725 L219 533.1764705882352 L220 504.0941176470588 L221 497.6313725490196 L222 491.1686274509804 L223 420.07843137254906 L224 397.45882352941175 L225 410.3843137254902 L226 452.3921568627451 L227 413.6156862745098 L228 400.6901960784314 L229 387.7647058823529 L230 394.2274509803921 L231 423.30980392156863 L232 420.07843137254906 L233 452.3921568627451 L234 429.7725490196078 L235 400.6901960784314 L236 413.6156862745098 L237 449.1607843137255 L238 420.07843137254906 L239 413.6156862745098 L240 442.69803921568626 L241 439.46666666666664 L242 462.0862745098039 L243 416.8470588235294 L244 436.2352941176471 L245 455.6235294117647 L246 433.00392156862745 L247 449.1607843137255 L248 429.7725490196078 L249 400.6901960784314 L250 416.8470588235294 L251 462.0862745098039 L252 465.3176470588235 L253 403.921568627451 L254 381.30196078431374 L255 365.14509803921567 L256 339.2941176470588 L257 342.5254901960784 L258 348.9882352941177 L259 374.83921568627454 L260 381.30196078431374 L261 371.60784313725486 L262 374.83921568627454 L263 313.44313725490196 L264 284.3607843137255 L265 271.4352941176471 L266 255.278431372549 L267 287.5921568627451 L268 306.98039215686276 L269 277.89803921568625 L270 290.82352941176464 L271 264.97254901960787 L272 287.5921568627451 L273 284.3607843137255 L274 268.2039215686274 L275 284.3607843137255 L276 281.1294117647059 L277 271.4352941176471 L278 306.98039215686276 L279 300.5176470588235 L280 313.44313725490196 L281 313.44313725490196 L282 310.2117647058824 L283 336.0627450980392 L284 368.3764705882353 L285 387.7647058823529 L286 407.1529411764706 L287 407.1529411764706 L288 378.07058823529417 L289 378.07058823529417 L290 413.6156862745098 L291 465.3176470588235 L292 413.6156862745098 L293 449.1607843137255 L294 465.3176470588235 L295 481.47450980392153 L296 507.3254901960784 L297 510.55686274509804 L298 494.4 L299 478.24313725490197 L300 497.6313725490196 L301 507.3254901960784 L302 478.24313725490197 L303 471.7803921568628 L304 500.8627450980392 L305 523.4823529411765 L306 529.9450980392157 L307 552.5647058823529 L308 617.1921568627452 L309 617.1921568627452 L310 643.0431372549019 L311 646.2745098039215 L312 597.8039215686274 L313 529.9450980392157 L314 507.3254901960784 L315 510.55686274509804 L316 471.7803921568628 L317 458.85490196078433 L318 455.6235294117647 L319 436.2352941176471 L320 458.85490196078433 L321 491.1686274509804 L322 504.0941176470588 L323 552.5647058823529 L324 484.7058823529412 L325 445.9294117647059 L326 410.3843137254902 L327 390.99607843137255 L328 439.46666666666664 L329 368.3764705882353 L330 371.60784313725486 L331 400.6901960784314 L332 416.8470588235294 L333 426.54117647058825 L334 439.46666666666664 L335 445.9294117647059 L336 410.3843137254902 L337 384.53333333333336 L338 423.30980392156863 L339 407.1529411764706 L340 352.2196078431373 L341 361.9137254901961 L342 400.6901960784314 L343 374.83921568627454 L344 348.9882352941177 L345 371.60784313725486 L346 345.756862745098 L347 306.98039215686276 L348 258.5098039215686 L349 258.5098039215686 L350 310.2117647058824 L351 294.05490196078426 L352 306.98039215686276 L353 368.3764705882353 L354 394.2274509803921 L355 355.4509803921569 L356 365.14509803921567 L357 397.45882352941175 L358 371.60784313725486 L359 342.5254901960784 L360 306.98039215686276 L361 323.13725490196083 L362 316.6745098039215 L363 290.82352941176464 L364 297.286274509804 L365 342.5254901960784 L366 384.53333333333336 L367 365.14509803921567 L368 378.07058823529417 L369 397.45882352941175 L370 433.00392156862745 L371 429.7725490196078 L372 429.7725490196078 L373 420.07843137254906 L374 449.1607843137255 L375 462.0862745098039 L376 416.8470588235294 L377 390.99607843137255 L378 394.2274509803921 L379 420.07843137254906 L380 423.30980392156863 L381 433.00392156862745 L382 413.6156862745098 L383 410.3843137254902 L384 445.9294117647059 L385 471.7803921568628 L386 445.9294117647059 L387 416.8470588235294 L388 387.7647058823529 L389 397.45882352941175 L390 410.3843137254902 L391 394.2274509803921 L392 416.8470588235294 L393 384.53333333333336 L394 394.2274509803921 L395 449.1607843137255 L396 462.0862745098039 L397 481.47450980392153 L398 462.0862745098039 L399 475.01176470588234 L400 500.8627450980392 L401 507.3254901960784 L402 520.2509803921569 L403 484.7058823529412 L404 481.47450980392153 L405 504.0941176470588 L406 510.55686274509804 L407 497.6313725490196 L408 497.6313725490196 L409 500.8627450980392 L410 533.1764705882352 L411 542.8705882352941 L412 491.1686274509804 L413 487.9372549019608 L414 504.0941176470588 L415 507.3254901960784 L416 526.7137254901961 L417 559.0274509803921 L418 588.1098039215686 L419 610.7294117647059 L420 617.1921568627452 L421 620.4235294117647 L422 578.4156862745098 L423 581.6470588235294 L424 559.0274509803921 L425 562.2588235294118 L426 581.6470588235294 L427 517.0196078431372 L428 533.1764705882352 L429 529.9450980392157 L430 539.6392156862745 L431 549.3333333333334 L432 533.1764705882352 L433 533.1764705882352 L434 513.7882352941176 L435 517.0196078431372 L436 555.7960784313725 L437 578.4156862745098 L438 565.4901960784314 L439 575.1843137254903 L440 584.878431372549 L441 578.4156862745098 L442 549.3333333333334 L443 539.6392156862745 L444 562.2588235294118 L445 559.0274509803921 L446 559.0274509803921 L447 555.7960784313725 L448 533.1764705882352 L449 539.6392156862745 L450 562.2588235294118 L451 562.2588235294118 L452 555.7960784313725 L453 497.6313725490196 L454 471.7803921568628 L455 510.55686274509804 L456 500.8627450980392 L457 468.5490196078431 L458 462.0862745098039 L459 468.5490196078431 L460 513.7882352941176 L461 510.55686274509804 L462 529.9450980392157 L463 523.4823529411765 L464 471.7803921568628 L465 433.00392156862745 L466 407.1529411764706 L467 410.3843137254902 L468 445.9294117647059 L469 465.3176470588235 L470 487.9372549019608 L471 526.7137254901961 L472 539.6392156862745 L473 568.721568627451 L474 542.8705882352941 L475 546.1019607843136 L476 523.4823529411765 L477 487.9372549019608 L478 462.0862745098039 L479 442.69803921568626 L480 436.2352941176471 L481 445.9294117647059 L482 462.0862745098039 L483 475.01176470588234 L484 484.7058823529412 L485 465.3176470588235 L486 465.3176470588235 L487 465.3176470588235 L488 484.7058823529412 L489 494.4 L490 449.1607843137255 L491 420.07843137254906 L492 423.30980392156863 L493 445.9294117647059 L494 468.5490196078431 L495 475.01176470588234 L496 465.3176470588235 L497 423.30980392156863 L498 426.54117647058825 L499 452.3921568627451 L500 458.85490196078433 L501 381.30196078431374 L502 355.4509803921569 L503 374.83921568627454 L504 407.1529411764706 L505 445.9294117647059 L506 455.6235294117647 L507 449.1607843137255 L508 442.69803921568626 L509 452.3921568627451 L510 445.9294117647059 L511 397.45882352941175 L512 371.60784313725486 L513 394.2274509803921 L514 449.1607843137255 L515 462.0862745098039 L516 458.85490196078433 L517 487.9372549019608 L518 484.7058823529412 L519 445.9294117647059 L520 442.69803921568626 L521 458.85490196078433 L522 439.46666666666664 L523 439.46666666666664 L524 468.5490196078431 L525 481.47450980392153 L526 507.3254901960784 L527 546.1019607843136 L528 526.7137254901961 L529 494.4 L530 452.3921568627451 L531 442.69803921568626 L532 455.6235294117647 L533 452.3921568627451 L534 468.5490196078431 L535 494.4 L536 458.85490196078433 L537 462.0862745098039 L538 494.4 L539 504.0941176470588 L540 536.407843137255 L541 542.8705882352941 L542 500.8627450980392 L543 513.7882352941176 L544 500.8627450980392 L545 487.9372549019608 L546 517.0196078431372 L547 536.407843137255 L548 536.407843137255 L549 539.6392156862745 L550 536.407843137255 L551 539.6392156862745 L552 552.5647058823529 L553 559.0274509803921 L554 510.55686274509804 L555 504.0941176470588 L556 526.7137254901961 L557 568.721568627451 L558 578.4156862745098 L559 578.4156862745098 L560 610.7294117647059 L561 571.9529411764706 L562 562.2588235294118 L563 571.9529411764706 L564 568.721568627451 L565 584.878431372549 L566 549.3333333333334 L567 539.6392156862745 L568 555.7960784313725 L569 597.8039215686274 L570 584.878431372549 L571 575.1843137254903 L572 559.0274509803921 L573 536.407843137255 L574 536.407843137255 L575 526.7137254901961 L576 510.55686274509804 L577 526.7137254901961 L578 533.1764705882352 L579 559.0274509803921 L580 591.3411764705883 L581 578.4156862745098 L582 571.9529411764706 L583 536.407843137255 L584 517.0196078431372 L585 529.9450980392157 L586 529.9450980392157 L587 513.7882352941176 L588 475.01176470588234 L589 468.5490196078431 L590 497.6313725490196 L591 529.9450980392157 L592 542.8705882352941 L593 517.0196078431372 L594 504.0941176470588 L595 504.0941176470588 L596 539.6392156862745 L597 571.9529411764706 L598 526.7137254901961 L599 504.0941176470588 L600 529.9450980392157 L601 565.4901960784314 L602 588.1098039215686 L603 584.878431372549 L604 581.6470588235294 L605 613.9607843137255 L606 604.2666666666667 L607 568.721568627451 L608 513.7882352941176 L609 500.8627450980392 L610 510.55686274509804 L611 529.9450980392157 L612 552.5647058823529 L613 520.2509803921569 L614 536.407843137255 L615 581.6470588235294 L616 555.7960784313725 L617 507.3254901960784 L618 500.8627450980392 L619 562.2588235294118 L620 565.4901960784314 L621 565.4901960784314 L622 536.407843137255 L623 536.407843137255 L624 529.9450980392157 L625 546.1019607843136 L626 552.5647058823529 L627 546.1019607843136 L628 562.2588235294118 L629 568.721568627451 L630 571.9529411764706 L631 578.4156862745098 L632 594.5725490196078 L633 584.878431372549 L634 555.7960784313725 L635 559.0274509803921 L636 610.7294117647059 L637 626.8862745098039 L638 626.8862745098039 L639 610.7294117647059 L640 588.1098039215686 L641 620.4235294117647 L642 672.1254901960784 L643 665.6627450980392 L644 604.2666666666667 L645 584.878431372549 L646 613.9607843137255 L647 639.8117647058823 L648 610.7294117647059 L649 613.9607843137255 L650 630.1176470588235 L651 601.035294117647 L652 623.6549019607843 L653 633.3490196078432 L654 633.3490196078432 L655 626.8862745098039 L656 620.4235294117647 L657 639.8117647058823 L658 639.8117647058823 L659 613.9607843137255 L660 626.8862745098039 L661 662.4313725490197 L662 649.5058823529412 L663 613.9607843137255 L664 623.6549019607843 L665 643.0431372549019 L666 620.4235294117647 L667 623.6549019607843 L668 607.4980392156863 L669 594.5725490196078 L670 620.4235294117647 L671 613.9607843137255 L672 646.2745098039215 L673 662.4313725490197 L674 630.1176470588235 L675 610.7294117647059 L676 652.7372549019608 L677 704.4392156862745 L678 688.2823529411764 L679 649.5058823529412 L680 613.9607843137255 L681 604.2666666666667 L682 610.7294117647059 L683 607.4980392156863 L684 613.9607843137255 L685 613.9607843137255 L686 633.3490196078432 L687 620.4235294117647 L688 591.3411764705883 L689 552.5647058823529 L690 546.1019607843136 L691 575.1843137254903 L692 617.1921568627452 L693 588.1098039215686 L694 575.1843137254903 L695 562.2588235294118 L696 594.5725490196078 L697 575.1843137254903 L698 578.4156862745098 L699 588.1098039215686 L700 597.8039215686274 L701 623.6549019607843 L702 626.8862745098039 L703 623.6549019607843 L704 617.1921568627452 L705 652.7372549019608 L706 665.6627450980392 L707 694.7450980392157 L708 694.7450980392157 L709 665.6627450980392 L710 610.7294117647059 L711 594.5725490196078 L712 633.3490196078432 L713 649.5058823529412 L714 649.5058823529412 L715 630.1176470588235 L716 613.9607843137255 L717 597.8039215686274 L718 620.4235294117647 L719 675.356862745098 L720 662.4313725490197 L721 639.8117647058823 L722 610.7294117647059 L723 607.4980392156863 L724 610.7294117647059 L725 601.035294117647 L726 623.6549019607843 L727 623.6549019607843 L728 610.7294117647059 L729 639.8117647058823 L730 633.3490196078432 L731 620.4235294117647 L732 617.1921568627452 L733 565.4901960784314 L734 559.0274509803921 L735 584.878431372549 L736 584.878431372549 L737 588.1098039215686 L738 588.1098039215686 L739 591.3411764705883 L740 601.035294117647 L741 597.8039215686274 L742 594.5725490196078 L743 559.0274509803921 L744 581.6470588235294 L745 617.1921568627452 L746 597.8039215686274 L747 604.2666666666667 L748 617.1921568627452 L749 601.035294117647 L750 610.7294117647059 L751 607.4980392156863 L752 607.4980392156863 L753 584.878431372549 L754 575.1843137254903 L755 588.1098039215686 L756 626.8862745098039 L757 620.4235294117647 L758 630.1176470588235 L759 601.035294117647 L760 617.1921568627452 L761 607.4980392156863 L762 626.8862745098039 L763 623.6549019607843 L764 604.2666666666667 L765 597.8039215686274 L766 607.4980392156863 L767 601.035294117647 L768 610.7294117647059 L769 617.1921568627452 L770 649.5058823529412 L771 655.9686274509804 L772 652.7372549019608 L773 636.5803921568628 L774 620.4235294117647 L775 630.1176470588235 L776 610.7294117647059 L777 636.5803921568628 L778 649.5058823529412 L779 607.4980392156863 L780 594.5725490196078 L781 623.6549019607843 L782 633.3490196078432 L783 636.5803921568628 L784 636.5803921568628 L785 617.1921568627452 L786 620.4235294117647 L787 607.4980392156863 L788 636.5803921568628 L789 643.0431372549019 L790 588.1098039215686 L791 601.035294117647 L792 649.5058823529412 L793 662.4313725490197 L794 636.5803921568628 L795 655.9686274509804 L796 694.7450980392157 L797 652.7372549019608 L798 646.2745098039215 L799 694.7450980392157 L800 643.0431372549019 L801 646.2745098039215 L802 685.0509803921568 L803 691.5137254901961 L804 672.1254901960784 L805 688.2823529411764 L806 710.9019607843137 L807 681.8196078431372 L808 626.8862745098039 L809 633.3490196078432 L810 678.5882352941176 L811 662.4313725490197 L812 652.7372549019608 L813 668.8941176470588 L814 681.8196078431372 L815 707.6705882352941 L816 710.9019607843137 L817 720.5960784313726 L818 727.0588235294117 L819 681.8196078431372 L820 678.5882352941176 L821 704.4392156862745 L822 723.8274509803922 L823 727.0588235294117 L824 720.5960784313726 L825 707.6705882352941 L826 739.9843137254902 L827 749.678431372549 L828 714.1333333333333 L829 704.4392156862745 L830 717.364705882353 L831 736.7529411764706 L832 727.0588235294117 L833 727.0588235294117 L834 694.7450980392157 L835 688.2823529411764 L836 688.2823529411764 L837 681.8196078431372 L838 720.5960784313726 L839 752.9098039215686 L840 730.2901960784313 L841 720.5960784313726 L842 720.5960784313726 L843 710.9019607843137 L844 730.2901960784313 L845 727.0588235294117 L846 717.364705882353 L847 707.6705882352941 L848 720.5960784313726 L849 749.678431372549 L850 788.4549019607844 L851 730.2901960784313 L852 707.6705882352941 L853 691.5137254901961 L854 697.9764705882353 L855 723.8274509803922 L856 727.0588235294117 L857 733.521568627451 L858 746.4470588235295 L859 746.4470588235295 L860 717.364705882353 L861 733.521568627451 L862 743.2156862745098 L863 720.5960784313726 L864 736.7529411764706 L865 736.7529411764706 L866 730.2901960784313 L867 717.364705882353 L868 717.364705882353 L869 752.9098039215686 L870 720.5960784313726 L871 727.0588235294117 L872 769.0666666666667 L873 765.8352941176471 L874 746.4470588235295 L875 739.9843137254902 L876 752.9098039215686 L877 714.1333333333333 L878 746.4470588235295 L879 752.9098039215686 L880 756.1411764705882 L881 778.7607843137255 L882 781.9921568627451 L883 794.9176470588235 L884 759.3725490196078 L885 769.0666666666667 L886 794.9176470588235 L887 772.2980392156862 L888 762.6039215686275 L889 781.9921568627451 L890 794.9176470588235 L891 762.6039215686275 L892 743.2156862745098 L893 778.7607843137255 L894 778.7607843137255 L895 765.8352941176471 L896 801.3803921568627 L897 791.686274509804 L898 824 L899 775.5294117647059 L900 781.9921568627451 L901 814.3058823529411 L902 759.3725490196078 L903 756.1411764705882 L904 807.843137254902 L905 811.0745098039216 L906 762.6039215686275 L907 759.3725490196078 L908 791.686274509804 L909 781.9921568627451 L910 781.9921568627451 L911 743.2156862745098 L912 759.3725490196078 L913 798.1490196078431 L914 801.3803921568627 L915 785.2235294117647 L916 772.2980392156862 L917 772.2980392156862 L918 762.6039215686275 L919 814.3058823529411 L920 824 L921 824 L922 785.2235294117647 L923 769.0666666666667 L924 811.0745098039216 L925 824 L926 824 L927 807.843137254902 L928 794.9176470588235 L929 785.2235294117647 L930 794.9176470588235 L931 824 L932 817.5372549019608 L933 778.7607843137255 L934 769.0666666666667 L935 804.6117647058824 L936 794.9176470588235 L937 798.1490196078431 L938 785.2235294117647 L939 756.1411764705882 L940 752.9098039215686 L941 804.6117647058824 L942 804.6117647058824 L943 788.4549019607844 L944 811.0745098039216 L945 824 L946 791.686274509804 L947 775.5294117647059 L948 798.1490196078431 L949 820.7686274509804 L950 798.1490196078431 L951 788.4549019607844 L952 804.6117647058824 L953 791.686274509804 L954 814.3058823529411 L955 824 L956 824 L957 820.7686274509804 L958 807.843137254902 L959 820.7686274509804 L960 824 L961 817.5372549019608 L962 824 L963 824 L964 824 L965 824 L966 824 L967 811.0745098039216 L968 817.5372549019608 L969 824 L970 824 L971 824 L972 824 L973 824 L974 824 L975 824 L976 824 L977 824 L978 824 L979 824 L980 824 L981 824 L982 824 L983 824 L984 824 L985 824 L986 824 L987 824 L988 824 L989 824 L990 824 L991 824 L992 824 L993 824 L994 824 L995 824 L996 824 L997 824 L998 824 L999 824 L1000 824 L1001 824 L1002 824 L1003 824 L1004 824 L1005 824 L1006 824 L1007 824 L1008 824 L1009 824 L1010 824 L1011 824 L1012 824 L1013 824 L1014 824 L1015 824 L1016 824 L1017 824 L1018 824 L1019 824 L1020 824 L1021 824 L1022 824 L1023 824 L824 824  Z" stroke = "#000000" stroke-width = "3" fill = "#808080" />
</svg>