<svg width="824" height="824" viewbox = "0 0 824 824"  xmlns="http://www.w3.org/2000/svg">
 <path d = "M0 824 L0 824 L1 824 L2 791.686274509804 L3 775.5294117647059 L4 788.4549019607844 L5 788.4549019607844 L6 769.0666666666667 L7 785.2235294117647 L8 794.9176470588235 L9 775.5294117647059 L10 775.5294117647059 L11 752.9098039215686 L12 717.364705882353 L13 678.5882352941176 L14 694.7450980392157 L15 736.7529411764706 L16 765.8352941176471 L17 736.7529411764706 L18 707.6705882352941 L19 739.9843137254902 L20 781.9921568627451 L21 775.5294117647059 L22 785.2235294117647 L23 794.9176470588235 L24 775.5294117647059 L25 756.1411764705882 L26 743.2156862745098 L27 781.9921568627451 L28 824 L29 824 L30 794.9176470588235 L31 769.0666666666667 L32 781.9921568627451 L33 817.5372549019608 L34 824 L35 824 L36 824 L37 824 L38 824 L39 824 L40 824 L41 824 L42 824 L43 824 L44 824 L45 824 L46 824 L47 824 L48 824 L49 824 L50 824 L51 814.3058823529411 L52 820.7686274509804 L53 801.3803921568627 L54 788.4549019607844 L55 775.5294117647059 L56 752.9098039215686 L57 743.2156862745098 L58 772.2980392156862 L59 756.1411764705882 L60 749.678431372549 L61 775.5294117647059 L62 775.5294117647059 L63 746.4470588235295 L64 736.7529411764706 L65 756.1411764705882 L66 801.3803921568627 L67 794.9176470588235 L68 752.9098039215686 L69 730.2901960784313 L70 717.364705882353 L71 668.8941176470588 L72 633.3490196078432 L73 623.6549019607843 L74 643.0431372549019 L75 639.8117647058823 L76 578.4156862745098 L77 546.1019607843136 L78 368.3764705882353 L79 158.33725490196082 L80 87.24705882352941 L81 119.56078431372555 L82 268.2039215686274 L83 549.3333333333334 L84 588.1098039215686 L85 639.8117647058823 L86 659.2 L87 681.8196078431372 L88 662.4313725490197 L89 649.5058823529412 L90 643.0431372549019 L91 649.5058823529412 L92 646.2745098039215 L93 688.2823529411764 L94 707.6705882352941 L95 681.8196078431372 L96 714.1333333333333 L97 733.521568627451 L98 723.8274509803922 L99 736.7529411764706 L100 736.7529411764706 L101 710.9019607843137 L102 733.521568627451 L103 772.2980392156862 L104 765.8352941176471 L105 759.3725490196078 L106 756.1411764705882 L107 736.7529411764706 L108 778.7607843137255 L109 824 L110 824 L111 824 L112 824 L113 824 L114 824 L115 824 L116 824 L117 824 L118 824 L119 824 L120 824 L121 824 L122 824 L123 824 L124 824 L125 824 L126 824 L127 824 L128 824 L129 824 L130 824 L131 824 L132 824 L133 824 L134 824 L135 824 L136 824 L137 824 L138 824 L139 824 L140 824 L141 824 L142 814.3058823529411 L143 824 L144 824 L145 824 L146 824 L147 824 L148 824 L149 824 L150 824 L151 824 L152 824 L153 824 L154 824 L155 824 L156 794.9176470588235 L157 752.9098039215686 L158 675.356862745098 L159 533.1764705882352 L160 465.3176470588235 L161 481.47450980392153 L162 594.5725490196078 L163 775.5294117647059 L164 824 L165 824 L166 824 L167 824 L168 824 L169 824 L170 824 L171 824 L172 824 L173 824 L174 824 L175 824 L176 824 L177 824 L178 824 L179 824 L180 824 L181 824 L182 824 L183 824 L184 824 L185 824 L186 824 L187 824 L188 824 L189 824 L190 824 L191 824 L192 824 L193 824 L194 824 L195 824 L196 824 L197 824 L198 824 L199 824 L200 824 L201 824 L202 824 L203 824 L204 824 L205 824 L206 824 L207 824 L208 824 L209 824 L210 824 L211 824 L212 824 L213 824 L214 824 L215 824 L216 824 L217 824 L218 824 L219 824 L220 824 L221 824 L222 824 L223 824 L224 824 L225 824 L226 824 L227 824 L228 824 L229 824 L230 824 L231 824 L232 824 L233 824 L234 824 L235 824 L236 824 L237 824 L238 798.1490196078431 L239 701.2078431372549 L240 623.6549019607843 L241 626.8862745098039 L242 701.2078431372549 L243 791.686274509804 L244 824 L245 824 L246 824 L247 824 L248 824 L249 824 L250 824 L251 824 L252 824 L253 824 L254 824 L255 824 L256 824 L257 824 L258 824 L259 824 L260 824 L261 824 L262 824 L263 824 L264 824 L265 824 L266 824 L267 824 L268 824 L269 824 L270 824 L271 824 L272 824 L273 824 L274 824 L275 824 L276 824 L277 824 L278 824 L279 824 L280 824 L281 824 L282 824 L283 824 L284 824 L285 824 L286 824 L287 824 L288 824 L289 824 L290 824 L291 824 L292 824 L293 824 L294 824 L295 824 L296 824 L297 824 L298 824 L299 824 L300 824 L301 824 L302 824 L303 824 L304 824 L305 824 L306 824 L307 824 L308 824 L309 824 L310 824 L311 824 L312 824 L313 824 L314 824 L315 824 L316 824 L317 794.9176470588235 L318 704.4392156862745 L319 601.035294117647 L320 507.3254901960784 L321 475.01176470588234 L322 513.7882352941176 L323 636.5803921568628 L324 772.2980392156862 L325 791.686274509804 L326 824 L327 824 L328 824 L329 824 L330 824 L331 824 L332 824 L333 824 L334 824 L335 824 L336 824 L337 824 L338 824 L339 824 L340 824 L341 824 L342 824 L343 824 L344 824 L345 824 L346 824 L347 824 L348 824 L349 824 L350 824 L351 824 L352 824 L353 824 L354 824 L355 824 L356 824 L357 824 L358 824 L359 824 L360 824 L361 824 L362 824 L363 824 L364 824 L365 824 L366 824 L367 824 L368 824 L369 824 L370 824 L371 824 L372 824 L373 824 L374 824 L375 824 L376 824 L377 824 L378 824 L379 824 L380 824 L381 824 L382 824 L383 824 L384 824 L385 824 L386 824 L387 824 L388 824 L389 824 L390 824 L391 824 L392 824 L393 824 L394 824 L395 824 L396 824 L397 824 L398 814.3058823529411 L399 739.9843137254902 L400 668.8941176470588 L401 636.5803921568628 L402 655.9686274509804 L403 736.7529411764706 L404 824 L405 824 L406 824 L407 824 L408 824 L409 824 L410 824 L411 824 L412 824 L413 824 L414 824 L415 824 L416 824 L417 824 L418 824 L419 824 L420 824 L421 824 L422 824 L423 824 L424 824 L425 824 L426 824 L427 824 L428 824 L429 824 L430 824 L431 824 L432 824 L433 824 L434 824 L435 824 L436 824 L437 824 L438 824 L439 824 L440 824 L441 824 L442 824 L443 824 L444 824 L445 824 L446 824 L447 824 L448 824 L449 824 L450 824 L451 824 L452 824 L453 824 L454 824 L455 824 L456 824 L457 824 L458 824 L459 824 L460 824 L461 824 L462 824 L463 824 L464 824 L465 824 L466 824 L467 824 L468 824 L469 824 L470 824 L471 824 L472 824 L473 824 L474 824 L475 824 L476 824 L477 824 L478 756.1411764705882 L479 704.4392156862745 L480 643.0431372549019 L481 594.5725490196078 L482 591.3411764705883 L483 652.7372549019608 L484 769.0666666666667 L485 824 L486 824 L487 824 L488 824 L489 824 L490 824 L491 824 L492 824 L493 824 L494 824 L495 824 L496 824 L497 824 L498 824 L499 824 L500 824 L501 824 L502 824 L503 824 L504 824 L505 824 L506 824 L507 824 L508 824 L509 824 L510 824 L511 824 L512 824 L513 824 L514 824 L515 824 L516 824 L517 824 L518 824 L519 824 L520 824 L521 824 L522 824 L523 824 L524 824 L525 824 L526 824 L527 824 L528 824 L529 824 L530 824 L531 824 L532 824 L533 824 L534 824 L535 824 L536 824 L537 824 L538 824 L539 824 L540 824 L541 824 L542 824 L543 824 L544 824 L545 824 L546 824 L547 824 L548 824 L549 824 L550 824 L551 824 L552 824 L553 824 L554 824 L555 824 L556 824 L557 824 L558 788.4549019607844 L559 759.3725490196078 L560 756.1411764705882 L561 710.9019607843137 L562 672.1254901960784 L563 688.2823529411764 L564 762.6039215686275 L565 824 L566 824 L567 824 L568 824 L569 824 L570 824 L571 824 L572 824 L573 824 L574 824 L575 824 L576 824 L577 824 L578 824 L579 824 L580 824 L581 824 L582 824 L583 824 L584 824 L585 824 L586 824 L587 824 L588 824 L589 824 L590 824 L591 824 L592 824 L593 824 L594 824 L595 824 L596 824 L597 824 L598 824 L599 824 L600 824 L601 824 L602 824 L603 824 L604 824 L605 824 L606 824 L607 824 L608 824 L609 824 L610 824 L611 824 L612 824 L613 824 L614 824 L615 824 L616 824 L617 824 L618 824 L619 824 L620 824 L621 824 L622 824 L623 824 L624 824 L625 824 L626 824 L627 824 L628 824 L629 824 L630 824 L631 824 L632 824 L633 824 L634 824 L635 824 L636 824 L637 824 L638 824 L639 824 L640 824 L641 801.3803921568627 L642 785.2235294117647 L643 801.3803921568627 L644 824 L645 824 L646 824 L647 824 L648 824 L649 824 L650 824 L651 824 L652 824 L653 824 L654 824 L655 824 L656 824 L657 824 L658 824 L659 824 L660 824 L661 824 L662 824 L663 824 L664 824 L665 824 L666 824 L667 824 L668 824 L669 824 L670 824 L671 824 L672 824 L673 824 L674 824 L675 824 L676 824 L677 824 L678 824 L679 824 L680 824 L681 824 L682 824 L683 824 L684 824 L685 824 L686 824 L687 824 L688 824 L689 824 L690 824 L691 824 L692 824 L693 824 L694 824 L695 824 L696 824 L697 824 L698 824 L699 824 L700 824 L701 824 L702 824 L703 824 L704 824 L705 824 L706 824 L707 824 L708 824 L709 824 L710 824 L711 824 L712 824 L713 824 L714 824 L715 824 L716 824 L717 811.0745098039216 L718 769.0666666666667 L719 743.2156862745098 L720 704.4392156862745 L721 662.4313725490197 L722 649.5058823529412 L723 636.5803921568628 L724 662.4313725490197 L725 743.2156862745098 L726 817.5372549019608 L727 824 L728 824 L729 824 L730 824 L731 824 L732 824 L733 824 L734 824 L735 824 L736 824 L737 824 L738 824 L739 824 L740 824 L741 824 L742 824 L743 824 L744 824 L745 824 L746 824 L747 824 L748 824 L749 824 L750 824 L751 824 L752 824 L753 824 L754 824 L755 824 L756 824 L757 824 L758 824 L759 824 L760 824 L761 824 L762 824 L763 824 L764 824 L765 824 L766 824 L767 824 L768 824 L769 824 L770 824 L771 824 L772 824 L773 824 L774 824 L775 824 L776 824 L777 824 L778 824 L779 824 L780 824 L781 824 L782 824 L783 824 L784 824 L785 824 L786 824 L787 824 L788 824 L789 824 L790 824 L791 824 L792 824 L793 824 L794 824 L795 824 L796 824 L797 824 L798 824 L799 824 L800 824 L801 788.4549019607844 L802 775.5294117647059 L803 769.0666666666667 L804 778.7607843137255 L805 824 L806 824 L807 824 L808 824 L809 824 L810 824 L811 824 L812 824 L813 824 L814 824 L815 824 L816 824 L817 824 L818 824 L819 824 L820 824 L821 824 L822 824 L823 824 L824 824 L825 824 L826 824 L827 824 L828 824 L829 824 L830 824 L831 824 L832 824 L833 824 L834 824 L835 824 L836 824 L837 824 L838 824 L839 824 L840 824 L841 824 L842 824 L843 824 L844 824 L845 824 L846 824 L847 824 L848 824 L849 824 L850 824 L851 824 L852 824 L853 824 L854 824 L855 824 L856 824 L857 824 L858 824 L859 824 L860 824 L861 824 L862 824 L863 824 L864 824 L865 824 L866 824 L867 824 L868 824 L869 824 L870 824 L871 824 L872 824 L873 824 L874 824 L875 824 L876 824 L877 824 L878 824 L879 824 L880 824 L881 824 L882 824 L883 824 L884 824 L885 824 L886 824 L887 824 L888 824 L889 824 L890 824 L891 824 L892 824 L893 824 L894 824 L895 824 L896 824 L897 824 L898 824 L899 824 L900 824 L901 824 L902 824 L903 824 L904 824 L905 824 L906 824 L907 824 L908 824 L909 824 L910 824 L911 824 L912 824 L913 824 L914 824 L915 824 L916 824 L917 824 L918 824 L919 824 L920 824 L921 824 L922 824 L923 824 L924 824 L925 824 L926 824 L927 824 L928 824 L929 824 L930 824 L931 824 L932 824 L933 824 L934 824 L935 824 L936 824 L937 824 L938 824 L939 824 L940 824 L941 824 L942 824 L943 824 L944 824 L945 824 L946 824 L947 824 L948 824 L949 824 L950 824 L951 824 L952 824 L953 824 L954 824 L955 824 L956 824 L957 824 L958 824 L959 824 L960 824 L961 824 L962 824 L963 824 L964 824 L965 824 L966 824 L967 824 L968 824 L969 824 L970 824 L971 824 L972 824 L973 824 L974 824 L975 824 L976 824 L977 824 L978 824 L979 824 L980 824 L981 824 L982 824 L983 824 L984 824 L985 824 L986 824 L987 824 L988 824 L989 824 L990 824 L991 824 L992 824 L993 824 L994 824 L995 824 L996 824 L997 824 L998 824 L999 824 L1000 824 L1001 824 L1002 824 L1003 824 L1004 824 L1005 824 L1006 824 L1007 824 L1008 824 L1009 824 L1010 824 L1011 824 L1012 824 L1013 824 L1014 824 L1015 824 L1016 824 L1017 824 L1018 824 L1019 824 L1020 824 L1021 824 L1022 824 L1023 824 L824 824  Z" stroke = "#000000" stroke-width = "3" fill = "#808080" />
</svg>