<svg width="800" height="800" viewbox = "0 0 800 800"  xmlns="http://www.w3.org/2000/svg">
 <path d = "M0 800 L1 488.4705882352941 L2 516.7058823529412 L3 567.5294117647059 L4 446.11764705882354 L5 336 L6 307.764705882353 L7 355.7647058823529 L8 378.3529411764706 L9 333.1764705882353 L10 347.2941176470588 L11 327.5294117647059 L12 299.2941176470588 L13 341.6470588235294 L14 440.4705882352941 L15 446.11764705882354 L16 372.70588235294116 L17 310.5882352941177 L18 279.52941176470586 L19 319.05882352941177 L20 398.11764705882354 L21 460.2352941176471 L22 485.6470588235294 L23 451.7647058823529 L24 437.6470588235294 L25 448.94117647058823 L26 443.2941176470588 L27 432 L28 403.7647058823529 L29 420.70588235294116 L30 463.05882352941177 L31 505.4117647058823 L32 511.0588235294117 L33 488.4705882352941 L34 434.8235294117647 L35 412.2352941176471 L36 437.6470588235294 L37 502.5882352941177 L38 522.3529411764706 L39 553.4117647058823 L40 542.1176470588235 L41 511.0588235294117 L42 502.5882352941177 L43 499.7647058823529 L44 522.3529411764706 L45 519.5294117647059 L46 528 L47 584.4705882352941 L48 612.7058823529412 L49 604.2352941176471 L50 621.1764705882352 L51 663.5294117647059 L52 672 L53 646.5882352941177 L54 595.7647058823529 L55 573.1764705882354 L56 578.8235294117646 L57 578.8235294117646 L58 592.9411764705883 L59 578.8235294117646 L60 539.2941176470588 L61 505.4117647058823 L62 496.94117647058823 L63 519.5294117647059 L64 522.3529411764706 L65 536.4705882352941 L66 567.5294117647059 L67 615.5294117647059 L68 592.9411764705883 L69 570.3529411764706 L70 544.9411764705883 L71 519.5294117647059 L72 525.1764705882354 L73 587.2941176470588 L74 632.4705882352941 L75 660.7058823529412 L76 708.7058823529412 L77 720 L78 703.0588235294117 L79 677.6470588235294 L80 666.3529411764706 L81 677.6470588235294 L82 680.4705882352941 L83 669.1764705882352 L84 640.9411764705883 L85 629.6470588235294 L86 646.5882352941177 L87 655.0588235294117 L88 643.7647058823529 L89 638.1176470588235 L90 635.2941176470588 L91 629.6470588235294 L92 624 L93 618.3529411764706 L94 657.8823529411765 L95 683.2941176470588 L96 680.4705882352941 L97 703.0588235294117 L98 717.1764705882352 L99 703.0588235294117 L100 680.4705882352941 L101 683.2941176470588 L102 677.6470588235294 L103 683.2941176470588 L104 686.1176470588235 L105 672 L106 635.2941176470588 L107 655.0588235294117 L108 714.3529411764706 L109 720 L110 720 L111 720 L112 720 L113 720 L114 720 L115 720 L116 720 L117 720 L118 720 L119 720 L120 720 L121 720 L122 720 L123 688.9411764705883 L124 643.7647058823529 L125 655.0588235294117 L126 683.2941176470588 L127 663.5294117647059 L128 643.7647058823529 L129 632.4705882352941 L130 626.8235294117646 L131 646.5882352941177 L132 666.3529411764706 L133 666.3529411764706 L134 680.4705882352941 L135 694.5882352941177 L136 720 L137 720 L138 720 L139 720 L140 720 L141 720 L142 720 L143 720 L144 720 L145 720 L146 720 L147 720 L148 720 L149 720 L150 720 L151 720 L152 720 L153 720 L154 720 L155 720 L156 720 L157 720 L158 720 L159 720 L160 720 L161 720 L162 720 L163 720 L164 720 L165 705.8823529411765 L166 680.4705882352941 L167 688.9411764705883 L168 711.5294117647059 L169 720 L170 708.7058823529412 L171 646.5882352941177 L172 618.3529411764706 L173 638.1176470588235 L174 677.6470588235294 L175 652.2352941176471 L176 629.6470588235294 L177 629.6470588235294 L178 626.8235294117646 L179 612.7058823529412 L180 595.7647058823529 L181 581.6470588235294 L182 601.4117647058823 L183 652.2352941176471 L184 708.7058823529412 L185 686.1176470588235 L186 638.1176470588235 L187 590.1176470588235 L188 576 L189 581.6470588235294 L190 612.7058823529412 L191 683.2941176470588 L192 646.5882352941177 L193 629.6470588235294 L194 592.9411764705883 L195 595.7647058823529 L196 649.4117647058823 L197 621.1764705882352 L198 595.7647058823529 L199 590.1176470588235 L200 612.7058823529412 L201 609.8823529411765 L202 618.3529411764706 L203 655.0588235294117 L204 615.5294117647059 L205 618.3529411764706 L206 598.5882352941177 L207 592.9411764705883 L208 618.3529411764706 L209 657.8823529411765 L210 680.4705882352941 L211 674.8235294117648 L212 686.1176470588235 L213 708.7058823529412 L214 677.6470588235294 L215 663.5294117647059 L216 683.2941176470588 L217 683.2941176470588 L218 694.5882352941177 L219 674.8235294117648 L220 632.4705882352941 L221 635.2941176470588 L222 663.5294117647059 L223 700.2352941176471 L224 694.5882352941177 L225 708.7058823529412 L226 720 L227 720 L228 720 L229 720 L230 688.9411764705883 L231 680.4705882352941 L232 677.6470588235294 L233 649.4117647058823 L234 672 L235 720 L236 697.4117647058823 L237 677.6470588235294 L238 688.9411764705883 L239 691.7647058823529 L240 663.5294117647059 L241 680.4705882352941 L242 711.5294117647059 L243 720 L244 714.3529411764706 L245 694.5882352941177 L246 711.5294117647059 L247 697.4117647058823 L248 657.8823529411765 L249 674.8235294117648 L250 720 L251 720 L252 686.1176470588235 L253 638.1176470588235 L254 612.7058823529412 L255 621.1764705882352 L256 646.5882352941177 L257 657.8823529411765 L258 672 L259 697.4117647058823 L260 688.9411764705883 L261 686.1176470588235 L262 697.4117647058823 L263 674.8235294117648 L264 672 L265 705.8823529411765 L266 720 L267 720 L268 717.1764705882352 L269 703.0588235294117 L270 657.8823529411765 L271 632.4705882352941 L272 632.4705882352941 L273 609.8823529411765 L274 604.2352941176471 L275 638.1176470588235 L276 638.1176470588235 L277 624 L278 612.7058823529412 L279 643.7647058823529 L280 677.6470588235294 L281 674.8235294117648 L282 705.8823529411765 L283 666.3529411764706 L284 666.3529411764706 L285 700.2352941176471 L286 672 L287 672 L288 672 L289 621.1764705882352 L290 624 L291 669.1764705882352 L292 703.0588235294117 L293 669.1764705882352 L294 672 L295 717.1764705882352 L296 720 L297 720 L298 691.7647058823529 L299 672 L300 686.1176470588235 L301 720 L302 720 L303 697.4117647058823 L304 697.4117647058823 L305 655.0588235294117 L306 652.2352941176471 L307 672 L308 674.8235294117648 L309 649.4117647058823 L310 663.5294117647059 L311 666.3529411764706 L312 652.2352941176471 L313 660.7058823529412 L314 680.4705882352941 L315 691.7647058823529 L316 691.7647058823529 L317 674.8235294117648 L318 683.2941176470588 L319 697.4117647058823 L320 669.1764705882352 L321 621.1764705882352 L322 629.6470588235294 L323 672 L324 669.1764705882352 L325 686.1176470588235 L326 660.7058823529412 L327 669.1764705882352 L328 708.7058823529412 L329 694.5882352941177 L330 717.1764705882352 L331 720 L332 680.4705882352941 L333 643.7647058823529 L334 621.1764705882352 L335 621.1764705882352 L336 643.7647058823529 L337 686.1176470588235 L338 720 L339 720 L340 717.1764705882352 L341 708.7058823529412 L342 720 L343 714.3529411764706 L344 683.2941176470588 L345 672 L346 640.9411764705883 L347 618.3529411764706 L348 587.2941176470588 L349 584.4705882352941 L350 609.8823529411765 L351 652.2352941176471 L352 700.2352941176471 L353 720 L354 720 L355 714.3529411764706 L356 663.5294117647059 L357 672 L358 705.8823529411765 L359 657.8823529411765 L360 657.8823529411765 L361 697.4117647058823 L362 720 L363 697.4117647058823 L364 649.4117647058823 L365 657.8823529411765 L366 700.2352941176471 L367 677.6470588235294 L368 640.9411764705883 L369 629.6470588235294 L370 626.8235294117646 L371 624 L372 643.7647058823529 L373 672 L374 601.4117647058823 L375 559.0588235294117 L376 567.5294117647059 L377 601.4117647058823 L378 624 L379 660.7058823529412 L380 638.1176470588235 L381 643.7647058823529 L382 669.1764705882352 L383 649.4117647058823 L384 663.5294117647059 L385 669.1764705882352 L386 691.7647058823529 L387 621.1764705882352 L388 590.1176470588235 L389 598.5882352941177 L390 624 L391 680.4705882352941 L392 663.5294117647059 L393 677.6470588235294 L394 663.5294117647059 L395 663.5294117647059 L396 663.5294117647059 L397 674.8235294117648 L398 674.8235294117648 L399 638.1176470588235 L400 612.7058823529412 L401 638.1176470588235 L402 649.4117647058823 L403 677.6470588235294 L404 643.7647058823529 L405 638.1176470588235 L406 669.1764705882352 L407 686.1176470588235 L408 688.9411764705883 L409 703.0588235294117 L410 666.3529411764706 L411 652.2352941176471 L412 700.2352941176471 L413 720 L414 691.7647058823529 L415 674.8235294117648 L416 655.0588235294117 L417 666.3529411764706 L418 720 L419 720 L420 697.4117647058823 L421 708.7058823529412 L422 711.5294117647059 L423 697.4117647058823 L424 720 L425 720 L426 720 L427 720 L428 680.4705882352941 L429 657.8823529411765 L430 688.9411764705883 L431 703.0588235294117 L432 674.8235294117648 L433 703.0588235294117 L434 700.2352941176471 L435 672 L436 686.1176470588235 L437 672 L438 666.3529411764706 L439 703.0588235294117 L440 720 L441 714.3529411764706 L442 700.2352941176471 L443 708.7058823529412 L444 720 L445 720 L446 720 L447 720 L448 720 L449 720 L450 720 L451 720 L452 720 L453 714.3529411764706 L454 705.8823529411765 L455 720 L456 711.5294117647059 L457 720 L458 720 L459 720 L460 720 L461 720 L462 720 L463 720 L464 720 L465 720 L466 720 L467 720 L468 720 L469 720 L470 720 L471 720 L472 717.1764705882352 L473 688.9411764705883 L474 694.5882352941177 L475 720 L476 720 L477 720 L478 720 L479 720 L480 720 L481 720 L482 720 L483 720 L484 720 L485 720 L486 720 L487 720 L488 720 L489 720 L490 720 L491 686.1176470588235 L492 683.2941176470588 L493 672 L494 652.2352941176471 L495 652.2352941176471 L496 669.1764705882352 L497 697.4117647058823 L498 720 L499 720 L500 720 L501 720 L502 720 L503 720 L504 720 L505 705.8823529411765 L506 711.5294117647059 L507 677.6470588235294 L508 635.2941176470588 L509 624 L510 643.7647058823529 L511 646.5882352941177 L512 657.8823529411765 L513 686.1176470588235 L514 688.9411764705883 L515 705.8823529411765 L516 674.8235294117648 L517 663.5294117647059 L518 674.8235294117648 L519 688.9411764705883 L520 691.7647058823529 L521 705.8823529411765 L522 672 L523 629.6470588235294 L524 624 L525 652.2352941176471 L526 686.1176470588235 L527 720 L528 720 L529 720 L530 720 L531 720 L532 720 L533 720 L534 720 L535 720 L536 720 L537 720 L538 720 L539 720 L540 720 L541 720 L542 720 L543 720 L544 720 L545 720 L546 720 L547 720 L548 720 L549 720 L550 720 L551 720 L552 720 L553 720 L554 720 L555 720 L556 720 L557 720 L558 720 L559 720 L560 720 L561 720 L562 720 L563 720 L564 720 L565 720 L566 720 L567 720 L568 720 L569 720 L570 720 L571 720 L572 720 L573 720 L574 720 L575 720 L576 720 L577 720 L578 720 L579 720 L580 720 L581 720 L582 720 L583 720 L584 720 L585 720 L586 720 L587 720 L588 720 L589 720 L590 720 L591 720 L592 720 L593 720 L594 720 L595 720 L596 720 L597 720 L598 720 L599 720 L600 720 L601 720 L602 720 L603 720 L604 720 L605 720 L606 720 L607 720 L608 720 L609 720 L610 720 L611 720 L612 720 L613 720 L614 720 L615 720 L616 720 L617 720 L618 720 L619 720 L620 720 L621 720 L622 720 L623 720 L624 720 L625 720 L626 720 L627 720 L628 720 L629 720 L630 720 L631 720 L632 720 L633 720 L634 720 L635 720 L636 720 L637 720 L638 720 L639 720 L640 720 L641 720 L642 720 L643 720 L644 720 L645 720 L646 720 L647 720 L648 720 L649 720 L650 720 L651 720 L652 720 L653 720 L654 720 L655 720 L656 720 L657 720 L658 720 L659 720 L660 720 L661 720 L662 720 L663 720 L664 720 L665 720 L666 720 L667 720 L668 720 L669 720 L670 720 L671 720 L672 720 L673 720 L674 720 L675 720 L676 720 L677 720 L678 720 L679 720 L680 720 L681 720 L682 720 L683 720 L684 720 L685 720 L686 720 L687 720 L688 720 L689 720 L690 720 L691 720 L692 720 L693 720 L694 720 L695 720 L696 720 L697 720 L698 720 L699 720 L700 800  Z" stroke = "#000000" stroke-width = "1" fill = "#9f876780" />
</svg>