<svg width="800" height="800" viewbox = "0 0 800 800"  xmlns="http://www.w3.org/2000/svg">
 <path d = "M0 800 L1 477.17647058823525 L2 511.0588235294117 L3 561.8823529411765 L4 511.0588235294117 L5 429.1764705882353 L6 389.64705882352945 L7 395.29411764705884 L8 375.52941176470586 L9 341.6470588235294 L10 384 L11 460.2352941176471 L12 429.1764705882353 L13 440.4705882352941 L14 465.88235294117646 L15 463.05882352941177 L16 477.17647058823525 L17 499.7647058823529 L18 429.1764705882353 L19 434.8235294117647 L20 474.3529411764706 L21 494.11764705882354 L22 511.0588235294117 L23 550.5882352941177 L24 539.2941176470588 L25 494.11764705882354 L26 434.8235294117647 L27 412.2352941176471 L28 415.05882352941177 L29 446.11764705882354 L30 499.7647058823529 L31 496.94117647058823 L32 496.94117647058823 L33 502.5882352941177 L34 519.5294117647059 L35 516.7058823529412 L36 528 L37 578.8235294117646 L38 584.4705882352941 L39 609.8823529411765 L40 624 L41 604.2352941176471 L42 590.1176470588235 L43 581.6470588235294 L44 576 L45 528 L46 519.5294117647059 L47 570.3529411764706 L48 595.7647058823529 L49 595.7647058823529 L50 601.4117647058823 L51 643.7647058823529 L52 660.7058823529412 L53 624 L54 581.6470588235294 L55 550.5882352941177 L56 547.7647058823529 L57 547.7647058823529 L58 573.1764705882354 L59 573.1764705882354 L60 542.1176470588235 L61 502.5882352941177 L62 482.8235294117647 L63 516.7058823529412 L64 547.7647058823529 L65 547.7647058823529 L66 573.1764705882354 L67 598.5882352941177 L68 581.6470588235294 L69 592.9411764705883 L70 561.8823529411765 L71 525.1764705882354 L72 530.8235294117646 L73 590.1176470588235 L74 626.8235294117646 L75 646.5882352941177 L76 697.4117647058823 L77 703.0588235294117 L78 674.8235294117648 L79 655.0588235294117 L80 643.7647058823529 L81 660.7058823529412 L82 666.3529411764706 L83 669.1764705882352 L84 638.1176470588235 L85 621.1764705882352 L86 652.2352941176471 L87 669.1764705882352 L88 643.7647058823529 L89 624 L90 618.3529411764706 L91 609.8823529411765 L92 601.4117647058823 L93 592.9411764705883 L94 632.4705882352941 L95 655.0588235294117 L96 652.2352941176471 L97 677.6470588235294 L98 686.1176470588235 L99 669.1764705882352 L100 649.4117647058823 L101 652.2352941176471 L102 643.7647058823529 L103 652.2352941176471 L104 669.1764705882352 L105 683.2941176470588 L106 657.8823529411765 L107 674.8235294117648 L108 714.3529411764706 L109 720 L110 720 L111 708.7058823529412 L112 700.2352941176471 L113 720 L114 720 L115 720 L116 720 L117 720 L118 720 L119 720 L120 720 L121 720 L122 703.0588235294117 L123 691.7647058823529 L124 652.2352941176471 L125 643.7647058823529 L126 649.4117647058823 L127 626.8235294117646 L128 609.8823529411765 L129 595.7647058823529 L130 592.9411764705883 L131 612.7058823529412 L132 629.6470588235294 L133 629.6470588235294 L134 643.7647058823529 L135 657.8823529411765 L136 688.9411764705883 L137 720 L138 720 L139 717.1764705882352 L140 703.0588235294117 L141 700.2352941176471 L142 720 L143 720 L144 720 L145 720 L146 720 L147 720 L148 720 L149 700.2352941176471 L150 711.5294117647059 L151 720 L152 711.5294117647059 L153 720 L154 720 L155 720 L156 720 L157 717.1764705882352 L158 697.4117647058823 L159 697.4117647058823 L160 714.3529411764706 L161 720 L162 720 L163 720 L164 717.1764705882352 L165 669.1764705882352 L166 643.7647058823529 L167 649.4117647058823 L168 677.6470588235294 L169 720 L170 674.8235294117648 L171 607.0588235294117 L172 581.6470588235294 L173 598.5882352941177 L174 638.1176470588235 L175 612.7058823529412 L176 590.1176470588235 L177 590.1176470588235 L178 587.2941176470588 L179 573.1764705882354 L180 556.2352941176471 L181 542.1176470588235 L182 561.8823529411765 L183 612.7058823529412 L184 672 L185 649.4117647058823 L186 598.5882352941177 L187 550.5882352941177 L188 536.4705882352941 L189 544.9411764705883 L190 573.1764705882354 L191 646.5882352941177 L192 607.0588235294117 L193 590.1176470588235 L194 556.2352941176471 L195 556.2352941176471 L196 609.8823529411765 L197 584.4705882352941 L198 556.2352941176471 L199 550.5882352941177 L200 573.1764705882354 L201 570.3529411764706 L202 578.8235294117646 L203 615.5294117647059 L204 578.8235294117646 L205 581.6470588235294 L206 559.0588235294117 L207 553.4117647058823 L208 578.8235294117646 L209 618.3529411764706 L210 640.9411764705883 L211 635.2941176470588 L212 649.4117647058823 L213 677.6470588235294 L214 643.7647058823529 L215 626.8235294117646 L216 643.7647058823529 L217 646.5882352941177 L218 657.8823529411765 L219 638.1176470588235 L220 595.7647058823529 L221 598.5882352941177 L222 626.8235294117646 L223 663.5294117647059 L224 655.0588235294117 L225 672 L226 688.9411764705883 L227 720 L228 714.3529411764706 L229 703.0588235294117 L230 652.2352941176471 L231 643.7647058823529 L232 638.1176470588235 L233 612.7058823529412 L234 640.9411764705883 L235 694.5882352941177 L236 663.5294117647059 L237 643.7647058823529 L238 655.0588235294117 L239 657.8823529411765 L240 629.6470588235294 L241 643.7647058823529 L242 677.6470588235294 L243 714.3529411764706 L244 677.6470588235294 L245 657.8823529411765 L246 674.8235294117648 L247 660.7058823529412 L248 624 L249 638.1176470588235 L250 688.9411764705883 L251 697.4117647058823 L252 649.4117647058823 L253 601.4117647058823 L254 578.8235294117646 L255 590.1176470588235 L256 618.3529411764706 L257 624 L258 635.2941176470588 L259 663.5294117647059 L260 655.0588235294117 L261 649.4117647058823 L262 660.7058823529412 L263 635.2941176470588 L264 635.2941176470588 L265 672 L266 697.4117647058823 L267 714.3529411764706 L268 680.4705882352941 L269 666.3529411764706 L270 621.1764705882352 L271 592.9411764705883 L272 592.9411764705883 L273 573.1764705882354 L274 564.7058823529412 L275 604.2352941176471 L276 604.2352941176471 L277 592.9411764705883 L278 578.8235294117646 L279 607.0588235294117 L280 640.9411764705883 L281 638.1176470588235 L282 672 L283 632.4705882352941 L284 632.4705882352941 L285 666.3529411764706 L286 632.4705882352941 L287 632.4705882352941 L288 635.2941176470588 L289 581.6470588235294 L290 584.4705882352941 L291 629.6470588235294 L292 669.1764705882352 L293 632.4705882352941 L294 635.2941176470588 L295 680.4705882352941 L296 705.8823529411765 L297 703.0588235294117 L298 652.2352941176471 L299 638.1176470588235 L300 655.0588235294117 L301 700.2352941176471 L302 705.8823529411765 L303 666.3529411764706 L304 663.5294117647059 L305 621.1764705882352 L306 618.3529411764706 L307 640.9411764705883 L308 643.7647058823529 L309 612.7058823529412 L310 624 L311 629.6470588235294 L312 615.5294117647059 L313 624 L314 643.7647058823529 L315 652.2352941176471 L316 652.2352941176471 L317 635.2941176470588 L318 643.7647058823529 L319 660.7058823529412 L320 632.4705882352941 L321 584.4705882352941 L322 590.1176470588235 L323 632.4705882352941 L324 635.2941176470588 L325 652.2352941176471 L326 626.8235294117646 L327 632.4705882352941 L328 672 L329 655.0588235294117 L330 677.6470588235294 L331 686.1176470588235 L332 643.7647058823529 L333 607.0588235294117 L334 584.4705882352941 L335 584.4705882352941 L336 609.8823529411765 L337 649.4117647058823 L338 705.8823529411765 L339 705.8823529411765 L340 680.4705882352941 L341 669.1764705882352 L342 708.7058823529412 L343 680.4705882352941 L344 649.4117647058823 L345 638.1176470588235 L346 607.0588235294117 L347 587.2941176470588 L348 553.4117647058823 L349 547.7647058823529 L350 573.1764705882354 L351 615.5294117647059 L352 666.3529411764706 L353 711.5294117647059 L354 720 L355 680.4705882352941 L356 629.6470588235294 L357 638.1176470588235 L358 672 L359 624 L360 626.8235294117646 L361 669.1764705882352 L362 714.3529411764706 L363 666.3529411764706 L364 618.3529411764706 L365 638.1176470588235 L366 691.7647058823529 L367 655.0588235294117 L368 609.8823529411765 L369 595.7647058823529 L370 590.1176470588235 L371 590.1176470588235 L372 612.7058823529412 L373 643.7647058823529 L374 567.5294117647059 L375 525.1764705882354 L376 533.6470588235294 L377 567.5294117647059 L378 595.7647058823529 L379 638.1176470588235 L380 607.0588235294117 L381 609.8823529411765 L382 663.5294117647059 L383 652.2352941176471 L384 669.1764705882352 L385 660.7058823529412 L386 674.8235294117648 L387 590.1176470588235 L388 556.2352941176471 L389 561.8823529411765 L390 584.4705882352941 L391 643.7647058823529 L392 629.6470588235294 L393 652.2352941176471 L394 640.9411764705883 L395 640.9411764705883 L396 632.4705882352941 L397 643.7647058823529 L398 646.5882352941177 L399 609.8823529411765 L400 581.6470588235294 L401 607.0588235294117 L402 615.5294117647059 L403 643.7647058823529 L404 615.5294117647059 L405 618.3529411764706 L406 666.3529411764706 L407 680.4705882352941 L408 663.5294117647059 L409 680.4705882352941 L410 638.1176470588235 L411 626.8235294117646 L412 680.4705882352941 L413 697.4117647058823 L414 657.8823529411765 L415 638.1176470588235 L416 621.1764705882352 L417 635.2941176470588 L418 700.2352941176471 L419 703.0588235294117 L420 660.7058823529412 L421 674.8235294117648 L422 680.4705882352941 L423 663.5294117647059 L424 688.9411764705883 L425 700.2352941176471 L426 700.2352941176471 L427 717.1764705882352 L428 646.5882352941177 L429 624 L430 655.0588235294117 L431 672 L432 640.9411764705883 L433 672 L434 666.3529411764706 L435 638.1176470588235 L436 652.2352941176471 L437 640.9411764705883 L438 635.2941176470588 L439 674.8235294117648 L440 720 L441 683.2941176470588 L442 666.3529411764706 L443 677.6470588235294 L444 703.0588235294117 L445 720 L446 720 L447 717.1764705882352 L448 714.3529411764706 L449 720 L450 697.4117647058823 L451 700.2352941176471 L452 714.3529411764706 L453 677.6470588235294 L454 669.1764705882352 L455 697.4117647058823 L456 674.8235294117648 L457 711.5294117647059 L458 720 L459 720 L460 711.5294117647059 L461 708.7058823529412 L462 720 L463 720 L464 705.8823529411765 L465 711.5294117647059 L466 720 L467 717.1764705882352 L468 708.7058823529412 L469 720 L470 711.5294117647059 L471 720 L472 677.6470588235294 L473 649.4117647058823 L474 657.8823529411765 L475 697.4117647058823 L476 708.7058823529412 L477 700.2352941176471 L478 720 L479 720 L480 720 L481 717.1764705882352 L482 720 L483 720 L484 720 L485 708.7058823529412 L486 708.7058823529412 L487 691.7647058823529 L488 680.4705882352941 L489 697.4117647058823 L490 683.2941176470588 L491 649.4117647058823 L492 646.5882352941177 L493 632.4705882352941 L494 612.7058823529412 L495 612.7058823529412 L496 632.4705882352941 L497 660.7058823529412 L498 686.1176470588235 L499 708.7058823529412 L500 705.8823529411765 L501 700.2352941176471 L502 694.5882352941177 L503 708.7058823529412 L504 686.1176470588235 L505 674.8235294117648 L506 686.1176470588235 L507 646.5882352941177 L508 601.4117647058823 L509 587.2941176470588 L510 607.0588235294117 L511 612.7058823529412 L512 632.4705882352941 L513 669.1764705882352 L514 669.1764705882352 L515 683.2941176470588 L516 646.5882352941177 L517 638.1176470588235 L518 652.2352941176471 L519 672 L520 677.6470588235294 L521 688.9411764705883 L522 638.1176470588235 L523 598.5882352941177 L524 592.9411764705883 L525 618.3529411764706 L526 660.7058823529412 L527 708.7058823529412 L528 720 L529 720 L530 720 L531 720 L532 720 L533 720 L534 720 L535 720 L536 720 L537 720 L538 720 L539 720 L540 720 L541 720 L542 720 L543 720 L544 720 L545 720 L546 714.3529411764706 L547 720 L548 720 L549 720 L550 720 L551 720 L552 720 L553 720 L554 720 L555 720 L556 720 L557 720 L558 720 L559 720 L560 720 L561 720 L562 720 L563 720 L564 720 L565 720 L566 720 L567 720 L568 720 L569 720 L570 720 L571 720 L572 720 L573 720 L574 720 L575 720 L576 720 L577 720 L578 720 L579 720 L580 720 L581 720 L582 720 L583 720 L584 711.5294117647059 L585 720 L586 720 L587 720 L588 720 L589 720 L590 720 L591 720 L592 720 L593 720 L594 720 L595 720 L596 720 L597 720 L598 720 L599 720 L600 720 L601 720 L602 720 L603 720 L604 720 L605 720 L606 720 L607 720 L608 720 L609 720 L610 720 L611 720 L612 720 L613 720 L614 720 L615 720 L616 717.1764705882352 L617 720 L618 720 L619 720 L620 720 L621 720 L622 720 L623 720 L624 720 L625 720 L626 720 L627 720 L628 720 L629 720 L630 720 L631 720 L632 720 L633 720 L634 720 L635 720 L636 720 L637 720 L638 720 L639 720 L640 720 L641 720 L642 720 L643 720 L644 720 L645 720 L646 720 L647 720 L648 720 L649 720 L650 720 L651 720 L652 720 L653 720 L654 720 L655 720 L656 720 L657 720 L658 720 L659 720 L660 720 L661 720 L662 720 L663 720 L664 720 L665 720 L666 720 L667 720 L668 720 L669 720 L670 720 L671 720 L672 720 L673 720 L674 720 L675 720 L676 720 L677 720 L678 720 L679 720 L680 720 L681 720 L682 720 L683 720 L684 720 L685 720 L686 720 L687 720 L688 720 L689 720 L690 720 L691 720 L692 720 L693 720 L694 720 L695 720 L696 720 L697 720 L698 720 L699 720 L700 800  Z" stroke = "#000000" stroke-width = "1" fill = "#9f876780" />
</svg>