<svg width="800" height="800" viewbox = "0 0 800 800"  xmlns="http://www.w3.org/2000/svg">
 <path d = "M0 800 L1 494.11764705882354 L2 516.7058823529412 L3 573.1764705882354 L4 480 L5 389.64705882352945 L6 347.2941176470588 L7 347.2941176470588 L8 273.88235294117646 L9 192 L10 183.52941176470586 L11 256.9411764705882 L12 344.4705882352941 L13 338.8235294117647 L14 369.88235294117646 L15 352.9411764705883 L16 319.05882352941177 L17 299.2941176470588 L18 290.8235294117647 L19 273.88235294117646 L20 296.4705882352941 L21 347.2941176470588 L22 412.2352941176471 L23 398.11764705882354 L24 381.1764705882353 L25 355.7647058823529 L26 355.7647058823529 L27 372.70588235294116 L28 389.64705882352945 L29 426.3529411764706 L30 454.5882352941176 L31 499.7647058823529 L32 544.9411764705883 L33 530.8235294117646 L34 505.4117647058823 L35 502.5882352941177 L36 533.6470588235294 L37 561.8823529411765 L38 553.4117647058823 L39 542.1176470588235 L40 525.1764705882354 L41 536.4705882352941 L42 539.2941176470588 L43 530.8235294117646 L44 502.5882352941177 L45 502.5882352941177 L46 488.4705882352941 L47 508.2352941176471 L48 528 L49 494.11764705882354 L50 522.3529411764706 L51 536.4705882352941 L52 530.8235294117646 L53 525.1764705882354 L54 528 L55 539.2941176470588 L56 519.5294117647059 L57 496.94117647058823 L58 496.94117647058823 L59 477.17647058823525 L60 434.8235294117647 L61 406.5882352941176 L62 403.7647058823529 L63 429.1764705882353 L64 437.6470588235294 L65 415.05882352941177 L66 415.05882352941177 L67 423.5294117647059 L68 446.11764705882354 L69 423.5294117647059 L70 429.1764705882353 L71 482.8235294117647 L72 482.8235294117647 L73 508.2352941176471 L74 502.5882352941177 L75 533.6470588235294 L76 604.2352941176471 L77 652.2352941176471 L78 666.3529411764706 L79 587.2941176470588 L80 544.9411764705883 L81 519.5294117647059 L82 505.4117647058823 L83 539.2941176470588 L84 559.0588235294117 L85 547.7647058823529 L86 612.7058823529412 L87 615.5294117647059 L88 561.8823529411765 L89 499.7647058823529 L90 474.3529411764706 L91 494.11764705882354 L92 499.7647058823529 L93 567.5294117647059 L94 598.5882352941177 L95 635.2941176470588 L96 638.1176470588235 L97 624 L98 652.2352941176471 L99 592.9411764705883 L100 584.4705882352941 L101 666.3529411764706 L102 674.8235294117648 L103 720 L104 669.1764705882352 L105 683.2941176470588 L106 621.1764705882352 L107 595.7647058823529 L108 550.5882352941177 L109 525.1764705882354 L110 567.5294117647059 L111 657.8823529411765 L112 655.0588235294117 L113 677.6470588235294 L114 649.4117647058823 L115 669.1764705882352 L116 629.6470588235294 L117 601.4117647058823 L118 612.7058823529412 L119 598.5882352941177 L120 618.3529411764706 L121 643.7647058823529 L122 609.8823529411765 L123 624 L124 592.9411764705883 L125 581.6470588235294 L126 578.8235294117646 L127 584.4705882352941 L128 581.6470588235294 L129 576 L130 556.2352941176471 L131 578.8235294117646 L132 646.5882352941177 L133 663.5294117647059 L134 660.7058823529412 L135 660.7058823529412 L136 663.5294117647059 L137 688.9411764705883 L138 686.1176470588235 L139 638.1176470588235 L140 646.5882352941177 L141 700.2352941176471 L142 694.5882352941177 L143 657.8823529411765 L144 669.1764705882352 L145 720 L146 720 L147 720 L148 720 L149 717.1764705882352 L150 720 L151 720 L152 720 L153 694.5882352941177 L154 705.8823529411765 L155 720 L156 720 L157 720 L158 720 L159 720 L160 720 L161 720 L162 720 L163 720 L164 720 L165 720 L166 720 L167 711.5294117647059 L168 708.7058823529412 L169 700.2352941176471 L170 717.1764705882352 L171 677.6470588235294 L172 677.6470588235294 L173 720 L174 720 L175 649.4117647058823 L176 615.5294117647059 L177 595.7647058823529 L178 587.2941176470588 L179 592.9411764705883 L180 587.2941176470588 L181 595.7647058823529 L182 632.4705882352941 L183 638.1176470588235 L184 638.1176470588235 L185 660.7058823529412 L186 635.2941176470588 L187 660.7058823529412 L188 660.7058823529412 L189 660.7058823529412 L190 694.5882352941177 L191 720 L192 720 L193 720 L194 714.3529411764706 L195 708.7058823529412 L196 720 L197 720 L198 720 L199 720 L200 720 L201 720 L202 717.1764705882352 L203 720 L204 720 L205 720 L206 720 L207 714.3529411764706 L208 717.1764705882352 L209 720 L210 720 L211 720 L212 720 L213 720 L214 720 L215 720 L216 720 L217 720 L218 720 L219 711.5294117647059 L220 697.4117647058823 L221 720 L222 720 L223 720 L224 720 L225 720 L226 720 L227 720 L228 720 L229 720 L230 720 L231 720 L232 720 L233 720 L234 720 L235 720 L236 720 L237 720 L238 720 L239 720 L240 720 L241 720 L242 666.3529411764706 L243 635.2941176470588 L244 621.1764705882352 L245 640.9411764705883 L246 677.6470588235294 L247 720 L248 720 L249 720 L250 720 L251 720 L252 720 L253 720 L254 683.2941176470588 L255 703.0588235294117 L256 720 L257 720 L258 720 L259 720 L260 720 L261 720 L262 720 L263 720 L264 720 L265 720 L266 720 L267 720 L268 720 L269 720 L270 720 L271 720 L272 720 L273 720 L274 720 L275 720 L276 720 L277 705.8823529411765 L278 677.6470588235294 L279 717.1764705882352 L280 720 L281 714.3529411764706 L282 720 L283 720 L284 720 L285 720 L286 720 L287 720 L288 720 L289 720 L290 720 L291 720 L292 691.7647058823529 L293 643.7647058823529 L294 643.7647058823529 L295 635.2941176470588 L296 590.1176470588235 L297 590.1176470588235 L298 601.4117647058823 L299 601.4117647058823 L300 612.7058823529412 L301 640.9411764705883 L302 686.1176470588235 L303 720 L304 720 L305 705.8823529411765 L306 694.5882352941177 L307 720 L308 720 L309 720 L310 720 L311 720 L312 720 L313 720 L314 720 L315 720 L316 714.3529411764706 L317 714.3529411764706 L318 720 L319 720 L320 720 L321 720 L322 720 L323 711.5294117647059 L324 720 L325 720 L326 720 L327 720 L328 680.4705882352941 L329 635.2941176470588 L330 638.1176470588235 L331 657.8823529411765 L332 666.3529411764706 L333 669.1764705882352 L334 680.4705882352941 L335 717.1764705882352 L336 720 L337 677.6470588235294 L338 666.3529411764706 L339 683.2941176470588 L340 720 L341 720 L342 720 L343 720 L344 683.2941176470588 L345 669.1764705882352 L346 683.2941176470588 L347 635.2941176470588 L348 612.7058823529412 L349 652.2352941176471 L350 674.8235294117648 L351 643.7647058823529 L352 649.4117647058823 L353 655.0588235294117 L354 674.8235294117648 L355 720 L356 705.8823529411765 L357 660.7058823529412 L358 646.5882352941177 L359 691.7647058823529 L360 694.5882352941177 L361 683.2941176470588 L362 657.8823529411765 L363 640.9411764705883 L364 626.8235294117646 L365 640.9411764705883 L366 697.4117647058823 L367 720 L368 717.1764705882352 L369 703.0588235294117 L370 697.4117647058823 L371 674.8235294117648 L372 683.2941176470588 L373 720 L374 674.8235294117648 L375 657.8823529411765 L376 703.0588235294117 L377 677.6470588235294 L378 660.7058823529412 L379 669.1764705882352 L380 652.2352941176471 L381 655.0588235294117 L382 643.7647058823529 L383 638.1176470588235 L384 657.8823529411765 L385 691.7647058823529 L386 680.4705882352941 L387 697.4117647058823 L388 720 L389 720 L390 720 L391 720 L392 720 L393 708.7058823529412 L394 680.4705882352941 L395 697.4117647058823 L396 720 L397 720 L398 720 L399 697.4117647058823 L400 666.3529411764706 L401 652.2352941176471 L402 657.8823529411765 L403 680.4705882352941 L404 697.4117647058823 L405 697.4117647058823 L406 686.1176470588235 L407 680.4705882352941 L408 672 L409 643.7647058823529 L410 638.1176470588235 L411 643.7647058823529 L412 655.0588235294117 L413 663.5294117647059 L414 708.7058823529412 L415 694.5882352941177 L416 657.8823529411765 L417 646.5882352941177 L418 666.3529411764706 L419 720 L420 705.8823529411765 L421 640.9411764705883 L422 626.8235294117646 L423 655.0588235294117 L424 720 L425 720 L426 703.0588235294117 L427 691.7647058823529 L428 674.8235294117648 L429 660.7058823529412 L430 652.2352941176471 L431 657.8823529411765 L432 660.7058823529412 L433 697.4117647058823 L434 703.0588235294117 L435 714.3529411764706 L436 708.7058823529412 L437 669.1764705882352 L438 666.3529411764706 L439 655.0588235294117 L440 649.4117647058823 L441 672 L442 672 L443 697.4117647058823 L444 714.3529411764706 L445 720 L446 720 L447 720 L448 720 L449 694.5882352941177 L450 697.4117647058823 L451 720 L452 694.5882352941177 L453 683.2941176470588 L454 720 L455 686.1176470588235 L456 669.1764705882352 L457 697.4117647058823 L458 720 L459 720 L460 717.1764705882352 L461 720 L462 720 L463 717.1764705882352 L464 720 L465 720 L466 720 L467 720 L468 720 L469 720 L470 703.0588235294117 L471 720 L472 720 L473 720 L474 720 L475 720 L476 720 L477 720 L478 720 L479 720 L480 720 L481 720 L482 720 L483 720 L484 720 L485 720 L486 720 L487 720 L488 720 L489 720 L490 720 L491 720 L492 720 L493 720 L494 720 L495 720 L496 720 L497 720 L498 720 L499 720 L500 720 L501 720 L502 720 L503 720 L504 720 L505 720 L506 720 L507 720 L508 720 L509 720 L510 720 L511 720 L512 720 L513 720 L514 720 L515 720 L516 714.3529411764706 L517 703.0588235294117 L518 720 L519 694.5882352941177 L520 677.6470588235294 L521 672 L522 680.4705882352941 L523 711.5294117647059 L524 711.5294117647059 L525 720 L526 720 L527 720 L528 720 L529 720 L530 720 L531 720 L532 720 L533 720 L534 720 L535 720 L536 720 L537 720 L538 720 L539 720 L540 720 L541 720 L542 720 L543 720 L544 720 L545 720 L546 720 L547 720 L548 720 L549 720 L550 720 L551 720 L552 720 L553 720 L554 720 L555 720 L556 717.1764705882352 L557 720 L558 720 L559 720 L560 720 L561 720 L562 720 L563 720 L564 720 L565 720 L566 720 L567 720 L568 720 L569 720 L570 720 L571 720 L572 720 L573 720 L574 720 L575 720 L576 720 L577 720 L578 720 L579 720 L580 720 L581 720 L582 720 L583 720 L584 720 L585 720 L586 720 L587 720 L588 720 L589 720 L590 720 L591 720 L592 720 L593 720 L594 720 L595 720 L596 720 L597 720 L598 720 L599 720 L600 720 L601 720 L602 720 L603 711.5294117647059 L604 703.0588235294117 L605 697.4117647058823 L606 700.2352941176471 L607 720 L608 720 L609 720 L610 720 L611 720 L612 720 L613 720 L614 720 L615 720 L616 720 L617 720 L618 720 L619 720 L620 720 L621 720 L622 720 L623 720 L624 720 L625 720 L626 720 L627 720 L628 720 L629 720 L630 720 L631 720 L632 720 L633 720 L634 720 L635 720 L636 720 L637 720 L638 720 L639 720 L640 720 L641 720 L642 720 L643 720 L644 720 L645 720 L646 720 L647 720 L648 720 L649 720 L650 720 L651 720 L652 720 L653 720 L654 720 L655 720 L656 720 L657 720 L658 720 L659 720 L660 720 L661 720 L662 720 L663 720 L664 720 L665 720 L666 720 L667 720 L668 720 L669 720 L670 720 L671 720 L672 720 L673 720 L674 720 L675 720 L676 720 L677 720 L678 720 L679 720 L680 720 L681 720 L682 720 L683 720 L684 720 L685 720 L686 720 L687 720 L688 720 L689 720 L690 720 L691 720 L692 720 L693 720 L694 720 L695 720 L696 720 L697 720 L698 720 L699 720 L700 800  Z" stroke = "#000000" stroke-width = "1" fill = "#9f876780" />
</svg>