<svg width="800" height="800" viewbox = "0 0 800 800"  xmlns="http://www.w3.org/2000/svg">
 <path d = "M0 800 L1 482.8235294117647 L2 496.94117647058823 L3 533.6470588235294 L4 355.7647058823529 L5 248.4705882352941 L6 228.70588235294116 L7 288 L8 296.4705882352941 L9 206.11764705882354 L10 166.58823529411757 L11 172.23529411764707 L12 223.05882352941177 L13 324.70588235294116 L14 386.8235294117647 L15 378.3529411764706 L16 330.3529411764706 L17 316.2352941176471 L18 333.1764705882353 L19 321.88235294117646 L20 324.70588235294116 L21 352.9411764705883 L22 364.2352941176471 L23 378.3529411764706 L24 378.3529411764706 L25 355.7647058823529 L26 347.2941176470588 L27 338.8235294117647 L28 350.11764705882354 L29 400.94117647058823 L30 443.2941176470588 L31 482.8235294117647 L32 533.6470588235294 L33 536.4705882352941 L34 542.1176470588235 L35 547.7647058823529 L36 578.8235294117646 L37 539.2941176470588 L38 502.5882352941177 L39 491.29411764705884 L40 471.52941176470586 L41 477.17647058823525 L42 502.5882352941177 L43 502.5882352941177 L44 499.7647058823529 L45 528 L46 539.2941176470588 L47 564.7058823529412 L48 587.2941176470588 L49 559.0588235294117 L50 592.9411764705883 L51 615.5294117647059 L52 612.7058823529412 L53 601.4117647058823 L54 601.4117647058823 L55 595.7647058823529 L56 570.3529411764706 L57 544.9411764705883 L58 553.4117647058823 L59 544.9411764705883 L60 511.0588235294117 L61 485.6470588235294 L62 482.8235294117647 L63 505.4117647058823 L64 505.4117647058823 L65 485.6470588235294 L66 491.29411764705884 L67 505.4117647058823 L68 530.8235294117646 L69 505.4117647058823 L70 508.2352941176471 L71 544.9411764705883 L72 547.7647058823529 L73 570.3529411764706 L74 567.5294117647059 L75 578.8235294117646 L76 615.5294117647059 L77 649.4117647058823 L78 672 L79 635.2941176470588 L80 559.0588235294117 L81 516.7058823529412 L82 485.6470588235294 L83 482.8235294117647 L84 477.17647058823525 L85 480 L86 482.8235294117647 L87 488.4705882352941 L88 457.4117647058824 L89 406.5882352941176 L90 381.1764705882353 L91 420.70588235294116 L92 429.1764705882353 L93 443.2941176470588 L94 440.4705882352941 L95 417.88235294117646 L96 415.05882352941177 L97 432 L98 440.4705882352941 L99 457.4117647058824 L100 446.11764705882354 L101 417.88235294117646 L102 434.8235294117647 L103 451.7647058823529 L104 463.05882352941177 L105 502.5882352941177 L106 485.6470588235294 L107 482.8235294117647 L108 437.6470588235294 L109 415.05882352941177 L110 465.88235294117646 L111 508.2352941176471 L112 480 L113 496.94117647058823 L114 465.88235294117646 L115 440.4705882352941 L116 471.52941176470586 L117 525.1764705882354 L118 542.1176470588235 L119 536.4705882352941 L120 505.4117647058823 L121 488.4705882352941 L122 516.7058823529412 L123 556.2352941176471 L124 533.6470588235294 L125 539.2941176470588 L126 516.7058823529412 L127 508.2352941176471 L128 533.6470588235294 L129 550.5882352941177 L130 544.9411764705883 L131 542.1176470588235 L132 528 L133 516.7058823529412 L134 505.4117647058823 L135 533.6470588235294 L136 559.0588235294117 L137 559.0588235294117 L138 536.4705882352941 L139 502.5882352941177 L140 496.94117647058823 L141 536.4705882352941 L142 547.7647058823529 L143 530.8235294117646 L144 556.2352941176471 L145 547.7647058823529 L146 567.5294117647059 L147 587.2941176470588 L148 530.8235294117646 L149 519.5294117647059 L150 533.6470588235294 L151 494.11764705882354 L152 477.17647058823525 L153 508.2352941176471 L154 522.3529411764706 L155 530.8235294117646 L156 604.2352941176471 L157 674.8235294117648 L158 674.8235294117648 L159 686.1176470588235 L160 720 L161 720 L162 720 L163 720 L164 720 L165 720 L166 711.5294117647059 L167 720 L168 720 L169 717.1764705882352 L170 700.2352941176471 L171 688.9411764705883 L172 703.0588235294117 L173 720 L174 720 L175 686.1176470588235 L176 677.6470588235294 L177 677.6470588235294 L178 669.1764705882352 L179 669.1764705882352 L180 663.5294117647059 L181 666.3529411764706 L182 703.0588235294117 L183 717.1764705882352 L184 714.3529411764706 L185 717.1764705882352 L186 694.5882352941177 L187 691.7647058823529 L188 697.4117647058823 L189 720 L190 720 L191 720 L192 720 L193 720 L194 720 L195 720 L196 720 L197 720 L198 720 L199 720 L200 720 L201 720 L202 720 L203 720 L204 720 L205 720 L206 720 L207 720 L208 720 L209 720 L210 720 L211 720 L212 720 L213 720 L214 720 L215 720 L216 720 L217 720 L218 720 L219 720 L220 720 L221 720 L222 720 L223 720 L224 720 L225 720 L226 720 L227 720 L228 720 L229 720 L230 720 L231 720 L232 720 L233 720 L234 720 L235 720 L236 720 L237 720 L238 720 L239 720 L240 720 L241 720 L242 720 L243 697.4117647058823 L244 688.9411764705883 L245 711.5294117647059 L246 720 L247 720 L248 720 L249 720 L250 720 L251 720 L252 720 L253 720 L254 720 L255 720 L256 720 L257 720 L258 720 L259 720 L260 720 L261 720 L262 720 L263 720 L264 720 L265 720 L266 720 L267 720 L268 720 L269 720 L270 720 L271 720 L272 720 L273 720 L274 720 L275 720 L276 720 L277 720 L278 720 L279 720 L280 720 L281 720 L282 720 L283 720 L284 720 L285 720 L286 720 L287 720 L288 720 L289 720 L290 720 L291 720 L292 720 L293 720 L294 717.1764705882352 L295 711.5294117647059 L296 680.4705882352941 L297 680.4705882352941 L298 688.9411764705883 L299 688.9411764705883 L300 697.4117647058823 L301 720 L302 720 L303 720 L304 720 L305 720 L306 720 L307 720 L308 720 L309 720 L310 720 L311 720 L312 720 L313 720 L314 720 L315 720 L316 720 L317 720 L318 720 L319 720 L320 720 L321 720 L322 720 L323 720 L324 720 L325 720 L326 720 L327 720 L328 720 L329 697.4117647058823 L330 697.4117647058823 L331 714.3529411764706 L332 720 L333 720 L334 720 L335 720 L336 720 L337 717.1764705882352 L338 717.1764705882352 L339 720 L340 720 L341 720 L342 720 L343 720 L344 708.7058823529412 L345 714.3529411764706 L346 720 L347 703.0588235294117 L348 680.4705882352941 L349 694.5882352941177 L350 697.4117647058823 L351 688.9411764705883 L352 705.8823529411765 L353 700.2352941176471 L354 700.2352941176471 L355 688.9411764705883 L356 669.1764705882352 L357 660.7058823529412 L358 660.7058823529412 L359 686.1176470588235 L360 700.2352941176471 L361 663.5294117647059 L362 615.5294117647059 L363 624 L364 629.6470588235294 L365 638.1176470588235 L366 691.7647058823529 L367 720 L368 697.4117647058823 L369 708.7058823529412 L370 720 L371 688.9411764705883 L372 677.6470588235294 L373 672 L374 660.7058823529412 L375 666.3529411764706 L376 683.2941176470588 L377 669.1764705882352 L378 660.7058823529412 L379 660.7058823529412 L380 666.3529411764706 L381 677.6470588235294 L382 663.5294117647059 L383 666.3529411764706 L384 686.1176470588235 L385 691.7647058823529 L386 705.8823529411765 L387 720 L388 720 L389 720 L390 720 L391 720 L392 720 L393 717.1764705882352 L394 691.7647058823529 L395 686.1176470588235 L396 700.2352941176471 L397 697.4117647058823 L398 720 L399 717.1764705882352 L400 708.7058823529412 L401 674.8235294117648 L402 638.1176470588235 L403 635.2941176470588 L404 672 L405 688.9411764705883 L406 694.5882352941177 L407 686.1176470588235 L408 691.7647058823529 L409 672 L410 677.6470588235294 L411 691.7647058823529 L412 697.4117647058823 L413 700.2352941176471 L414 720 L415 703.0588235294117 L416 674.8235294117648 L417 674.8235294117648 L418 666.3529411764706 L419 666.3529411764706 L420 672 L421 669.1764705882352 L422 643.7647058823529 L423 657.8823529411765 L424 686.1176470588235 L425 666.3529411764706 L426 677.6470588235294 L427 688.9411764705883 L428 680.4705882352941 L429 683.2941176470588 L430 680.4705882352941 L431 666.3529411764706 L432 663.5294117647059 L433 697.4117647058823 L434 674.8235294117648 L435 638.1176470588235 L436 657.8823529411765 L437 663.5294117647059 L438 652.2352941176471 L439 660.7058823529412 L440 666.3529411764706 L441 666.3529411764706 L442 672 L443 703.0588235294117 L444 688.9411764705883 L445 714.3529411764706 L446 720 L447 720 L448 720 L449 720 L450 720 L451 720 L452 720 L453 720 L454 720 L455 720 L456 720 L457 720 L458 720 L459 720 L460 720 L461 720 L462 720 L463 720 L464 720 L465 720 L466 720 L467 720 L468 720 L469 720 L470 720 L471 720 L472 720 L473 720 L474 720 L475 720 L476 720 L477 720 L478 720 L479 720 L480 720 L481 720 L482 720 L483 720 L484 720 L485 720 L486 720 L487 720 L488 720 L489 720 L490 720 L491 720 L492 720 L493 720 L494 720 L495 720 L496 720 L497 720 L498 720 L499 720 L500 720 L501 720 L502 720 L503 720 L504 720 L505 720 L506 720 L507 720 L508 720 L509 720 L510 720 L511 720 L512 720 L513 720 L514 720 L515 720 L516 720 L517 720 L518 720 L519 720 L520 720 L521 720 L522 714.3529411764706 L523 720 L524 720 L525 720 L526 720 L527 720 L528 720 L529 720 L530 720 L531 720 L532 720 L533 720 L534 720 L535 720 L536 720 L537 720 L538 720 L539 720 L540 720 L541 720 L542 720 L543 720 L544 720 L545 720 L546 720 L547 720 L548 720 L549 720 L550 720 L551 720 L552 720 L553 720 L554 720 L555 720 L556 720 L557 720 L558 720 L559 720 L560 720 L561 720 L562 720 L563 720 L564 720 L565 720 L566 720 L567 720 L568 720 L569 720 L570 720 L571 720 L572 720 L573 720 L574 720 L575 720 L576 720 L577 720 L578 720 L579 720 L580 720 L581 720 L582 720 L583 720 L584 720 L585 720 L586 720 L587 720 L588 720 L589 720 L590 720 L591 720 L592 720 L593 720 L594 720 L595 720 L596 720 L597 720 L598 720 L599 720 L600 720 L601 720 L602 720 L603 720 L604 720 L605 720 L606 720 L607 720 L608 720 L609 720 L610 720 L611 720 L612 720 L613 720 L614 720 L615 720 L616 720 L617 720 L618 720 L619 720 L620 720 L621 720 L622 720 L623 720 L624 720 L625 720 L626 720 L627 720 L628 720 L629 720 L630 720 L631 720 L632 720 L633 720 L634 720 L635 720 L636 720 L637 720 L638 720 L639 720 L640 720 L641 720 L642 720 L643 720 L644 720 L645 720 L646 720 L647 720 L648 720 L649 720 L650 720 L651 720 L652 720 L653 720 L654 720 L655 720 L656 720 L657 720 L658 720 L659 720 L660 720 L661 720 L662 720 L663 720 L664 720 L665 720 L666 720 L667 720 L668 720 L669 720 L670 720 L671 720 L672 720 L673 720 L674 720 L675 720 L676 720 L677 720 L678 720 L679 720 L680 720 L681 720 L682 720 L683 720 L684 720 L685 720 L686 720 L687 720 L688 720 L689 720 L690 720 L691 720 L692 720 L693 720 L694 720 L695 720 L696 720 L697 720 L698 720 L699 720 L700 800  Z" stroke = "#000000" stroke-width = "1" fill = "#9f876780" />
</svg>