<svg width="824" height="824" viewbox = "0 0 824 824"  xmlns="http://www.w3.org/2000/svg">
 <path d = "M0 762.6039215686275 L0 762.6039215686275 L1 759.3725490196078 L2 730.2901960784313 L3 652.7372549019608 L4 504.0941176470588 L5 371.60784313725486 L6 297.286274509804 L7 271.4352941176471 L8 329.6 L9 458.85490196078433 L10 504.0941176470588 L11 549.3333333333334 L12 507.3254901960784 L13 394.2274509803921 L14 358.6823529411765 L15 413.6156862745098 L16 539.6392156862745 L17 584.878431372549 L18 494.4 L19 371.60784313725486 L20 294.05490196078426 L21 290.82352941176464 L22 361.9137254901961 L23 420.07843137254906 L24 410.3843137254902 L25 348.9882352941177 L26 277.89803921568625 L27 197.1137254901961 L28 187.41960784313721 L29 252.04705882352948 L30 358.6823529411765 L31 449.1607843137255 L32 517.0196078431372 L33 481.47450980392153 L34 400.6901960784314 L35 371.60784313725486 L36 423.30980392156863 L37 546.1019607843136 L38 601.035294117647 L39 601.035294117647 L40 523.4823529411765 L41 484.7058823529412 L42 494.4 L43 555.7960784313725 L44 607.4980392156863 L45 623.6549019607843 L46 668.8941176470588 L47 588.1098039215686 L48 500.8627450980392 L49 500.8627450980392 L50 578.4156862745098 L51 607.4980392156863 L52 604.2666666666667 L53 581.6470588235294 L54 555.7960784313725 L55 513.7882352941176 L56 491.1686274509804 L57 500.8627450980392 L58 536.407843137255 L59 546.1019607843136 L60 500.8627450980392 L61 394.2274509803921 L62 323.13725490196083 L63 342.5254901960784 L64 407.1529411764706 L65 416.8470588235294 L66 426.54117647058825 L67 439.46666666666664 L68 429.7725490196078 L69 403.921568627451 L70 400.6901960784314 L71 426.54117647058825 L72 449.1607843137255 L73 445.9294117647059 L74 449.1607843137255 L75 475.01176470588234 L76 452.3921568627451 L77 471.7803921568628 L78 552.5647058823529 L79 591.3411764705883 L80 542.8705882352941 L81 536.407843137255 L82 533.1764705882352 L83 500.8627450980392 L84 507.3254901960784 L85 529.9450980392157 L86 591.3411764705883 L87 542.8705882352941 L88 517.0196078431372 L89 494.4 L90 452.3921568627451 L91 471.7803921568628 L92 500.8627450980392 L93 546.1019607843136 L94 529.9450980392157 L95 510.55686274509804 L96 491.1686274509804 L97 468.5490196078431 L98 491.1686274509804 L99 520.2509803921569 L100 552.5647058823529 L101 549.3333333333334 L102 513.7882352941176 L103 491.1686274509804 L104 497.6313725490196 L105 523.4823529411765 L106 552.5647058823529 L107 601.035294117647 L108 591.3411764705883 L109 552.5647058823529 L110 542.8705882352941 L111 539.6392156862745 L112 588.1098039215686 L113 649.5058823529412 L114 665.6627450980392 L115 639.8117647058823 L116 626.8862745098039 L117 601.035294117647 L118 613.9607843137255 L119 623.6549019607843 L120 613.9607843137255 L121 672.1254901960784 L122 675.356862745098 L123 601.035294117647 L124 555.7960784313725 L125 571.9529411764706 L126 646.2745098039215 L127 681.8196078431372 L128 701.2078431372549 L129 694.7450980392157 L130 672.1254901960784 L131 652.7372549019608 L132 649.5058823529412 L133 707.6705882352941 L134 759.3725490196078 L135 788.4549019607844 L136 824 L137 824 L138 824 L139 801.3803921568627 L140 772.2980392156862 L141 785.2235294117647 L142 794.9176470588235 L143 781.9921568627451 L144 756.1411764705882 L145 736.7529411764706 L146 710.9019607843137 L147 681.8196078431372 L148 701.2078431372549 L149 723.8274509803922 L150 672.1254901960784 L151 688.2823529411764 L152 694.7450980392157 L153 681.8196078431372 L154 681.8196078431372 L155 613.9607843137255 L156 575.1843137254903 L157 559.0274509803921 L158 568.721568627451 L159 584.878431372549 L160 610.7294117647059 L161 562.2588235294118 L162 552.5647058823529 L163 555.7960784313725 L164 523.4823529411765 L165 487.9372549019608 L166 494.4 L167 494.4 L168 475.01176470588234 L169 484.7058823529412 L170 471.7803921568628 L171 455.6235294117647 L172 478.24313725490197 L173 504.0941176470588 L174 507.3254901960784 L175 539.6392156862745 L176 588.1098039215686 L177 604.2666666666667 L178 562.2588235294118 L179 529.9450980392157 L180 513.7882352941176 L181 513.7882352941176 L182 520.2509803921569 L183 520.2509803921569 L184 484.7058823529412 L185 497.6313725490196 L186 494.4 L187 433.00392156862745 L188 407.1529411764706 L189 455.6235294117647 L190 520.2509803921569 L191 507.3254901960784 L192 487.9372549019608 L193 494.4 L194 497.6313725490196 L195 517.0196078431372 L196 500.8627450980392 L197 523.4823529411765 L198 562.2588235294118 L199 555.7960784313725 L200 539.6392156862745 L201 529.9450980392157 L202 539.6392156862745 L203 536.407843137255 L204 539.6392156862745 L205 539.6392156862745 L206 523.4823529411765 L207 523.4823529411765 L208 559.0274509803921 L209 539.6392156862745 L210 565.4901960784314 L211 588.1098039215686 L212 542.8705882352941 L213 555.7960784313725 L214 613.9607843137255 L215 597.8039215686274 L216 584.878431372549 L217 607.4980392156863 L218 601.035294117647 L219 636.5803921568628 L220 649.5058823529412 L221 620.4235294117647 L222 636.5803921568628 L223 630.1176470588235 L224 655.9686274509804 L225 652.7372549019608 L226 685.0509803921568 L227 730.2901960784313 L228 710.9019607843137 L229 730.2901960784313 L230 714.1333333333333 L231 697.9764705882353 L232 701.2078431372549 L233 688.2823529411764 L234 685.0509803921568 L235 681.8196078431372 L236 678.5882352941176 L237 623.6549019607843 L238 617.1921568627452 L239 591.3411764705883 L240 523.4823529411765 L241 500.8627450980392 L242 507.3254901960784 L243 507.3254901960784 L244 513.7882352941176 L245 513.7882352941176 L246 494.4 L247 494.4 L248 494.4 L249 468.5490196078431 L250 452.3921568627451 L251 504.0941176470588 L252 517.0196078431372 L253 471.7803921568628 L254 478.24313725490197 L255 487.9372549019608 L256 471.7803921568628 L257 504.0941176470588 L258 487.9372549019608 L259 426.54117647058825 L260 416.8470588235294 L261 455.6235294117647 L262 497.6313725490196 L263 475.01176470588234 L264 455.6235294117647 L265 481.47450980392153 L266 462.0862745098039 L267 462.0862745098039 L268 487.9372549019608 L269 520.2509803921569 L270 504.0941176470588 L271 497.6313725490196 L272 481.47450980392153 L273 468.5490196078431 L274 475.01176470588234 L275 439.46666666666664 L276 449.1607843137255 L277 468.5490196078431 L278 462.0862745098039 L279 445.9294117647059 L280 471.7803921568628 L281 500.8627450980392 L282 497.6313725490196 L283 529.9450980392157 L284 520.2509803921569 L285 500.8627450980392 L286 458.85490196078433 L287 452.3921568627451 L288 455.6235294117647 L289 500.8627450980392 L290 526.7137254901961 L291 504.0941176470588 L292 481.47450980392153 L293 445.9294117647059 L294 439.46666666666664 L295 439.46666666666664 L296 429.7725490196078 L297 439.46666666666664 L298 491.1686274509804 L299 529.9450980392157 L300 504.0941176470588 L301 481.47450980392153 L302 487.9372549019608 L303 507.3254901960784 L304 465.3176470588235 L305 429.7725490196078 L306 413.6156862745098 L307 403.921568627451 L308 423.30980392156863 L309 462.0862745098039 L310 484.7058823529412 L311 478.24313725490197 L312 445.9294117647059 L313 436.2352941176471 L314 445.9294117647059 L315 420.07843137254906 L316 410.3843137254902 L317 449.1607843137255 L318 475.01176470588234 L319 462.0862745098039 L320 416.8470588235294 L321 403.921568627451 L322 436.2352941176471 L323 420.07843137254906 L324 403.921568627451 L325 381.30196078431374 L326 345.756862745098 L327 361.9137254901961 L328 387.7647058823529 L329 407.1529411764706 L330 394.2274509803921 L331 416.8470588235294 L332 439.46666666666664 L333 426.54117647058825 L334 426.54117647058825 L335 478.24313725490197 L336 510.55686274509804 L337 455.6235294117647 L338 445.9294117647059 L339 442.69803921568626 L340 468.5490196078431 L341 539.6392156862745 L342 487.9372549019608 L343 475.01176470588234 L344 465.3176470588235 L345 462.0862745098039 L346 471.7803921568628 L347 491.1686274509804 L348 533.1764705882352 L349 520.2509803921569 L350 484.7058823529412 L351 458.85490196078433 L352 452.3921568627451 L353 481.47450980392153 L354 533.1764705882352 L355 468.5490196078431 L356 426.54117647058825 L357 407.1529411764706 L358 407.1529411764706 L359 407.1529411764706 L360 384.53333333333336 L361 371.60784313725486 L362 336.0627450980392 L363 323.13725490196083 L364 329.6 L365 348.9882352941177 L366 426.54117647058825 L367 390.99607843137255 L368 358.6823529411765 L369 378.07058823529417 L370 420.07843137254906 L371 481.47450980392153 L372 500.8627450980392 L373 497.6313725490196 L374 529.9450980392157 L375 533.1764705882352 L376 520.2509803921569 L377 510.55686274509804 L378 520.2509803921569 L379 523.4823529411765 L380 536.407843137255 L381 523.4823529411765 L382 523.4823529411765 L383 542.8705882352941 L384 571.9529411764706 L385 552.5647058823529 L386 542.8705882352941 L387 520.2509803921569 L388 549.3333333333334 L389 526.7137254901961 L390 517.0196078431372 L391 520.2509803921569 L392 517.0196078431372 L393 504.0941176470588 L394 487.9372549019608 L395 481.47450980392153 L396 523.4823529411765 L397 500.8627450980392 L398 507.3254901960784 L399 533.1764705882352 L400 497.6313725490196 L401 487.9372549019608 L402 536.407843137255 L403 597.8039215686274 L404 584.878431372549 L405 555.7960784313725 L406 552.5647058823529 L407 562.2588235294118 L408 594.5725490196078 L409 542.8705882352941 L410 533.1764705882352 L411 546.1019607843136 L412 559.0274509803921 L413 578.4156862745098 L414 549.3333333333334 L415 536.407843137255 L416 523.4823529411765 L417 536.407843137255 L418 536.407843137255 L419 529.9450980392157 L420 552.5647058823529 L421 581.6470588235294 L422 594.5725490196078 L423 552.5647058823529 L424 533.1764705882352 L425 539.6392156862745 L426 555.7960784313725 L427 536.407843137255 L428 533.1764705882352 L429 571.9529411764706 L430 607.4980392156863 L431 565.4901960784314 L432 536.407843137255 L433 539.6392156862745 L434 575.1843137254903 L435 562.2588235294118 L436 539.6392156862745 L437 578.4156862745098 L438 607.4980392156863 L439 610.7294117647059 L440 597.8039215686274 L441 610.7294117647059 L442 604.2666666666667 L443 584.878431372549 L444 604.2666666666667 L445 613.9607843137255 L446 578.4156862745098 L447 588.1098039215686 L448 588.1098039215686 L449 623.6549019607843 L450 617.1921568627452 L451 571.9529411764706 L452 562.2588235294118 L453 546.1019607843136 L454 571.9529411764706 L455 610.7294117647059 L456 623.6549019607843 L457 626.8862745098039 L458 607.4980392156863 L459 610.7294117647059 L460 617.1921568627452 L461 575.1843137254903 L462 591.3411764705883 L463 601.035294117647 L464 575.1843137254903 L465 578.4156862745098 L466 546.1019607843136 L467 546.1019607843136 L468 597.8039215686274 L469 610.7294117647059 L470 555.7960784313725 L471 520.2509803921569 L472 520.2509803921569 L473 536.407843137255 L474 533.1764705882352 L475 523.4823529411765 L476 517.0196078431372 L477 491.1686274509804 L478 481.47450980392153 L479 497.6313725490196 L480 526.7137254901961 L481 536.407843137255 L482 507.3254901960784 L483 507.3254901960784 L484 494.4 L485 468.5490196078431 L486 458.85490196078433 L487 462.0862745098039 L488 478.24313725490197 L489 529.9450980392157 L490 542.8705882352941 L491 526.7137254901961 L492 536.407843137255 L493 559.0274509803921 L494 536.407843137255 L495 523.4823529411765 L496 562.2588235294118 L497 578.4156862745098 L498 539.6392156862745 L499 520.2509803921569 L500 526.7137254901961 L501 568.721568627451 L502 559.0274509803921 L503 546.1019607843136 L504 500.8627450980392 L505 478.24313725490197 L506 497.6313725490196 L507 510.55686274509804 L508 507.3254901960784 L509 478.24313725490197 L510 462.0862745098039 L511 510.55686274509804 L512 549.3333333333334 L513 555.7960784313725 L514 552.5647058823529 L515 539.6392156862745 L516 578.4156862745098 L517 594.5725490196078 L518 555.7960784313725 L519 571.9529411764706 L520 539.6392156862745 L521 549.3333333333334 L522 588.1098039215686 L523 636.5803921568628 L524 639.8117647058823 L525 652.7372549019608 L526 646.2745098039215 L527 672.1254901960784 L528 675.356862745098 L529 675.356862745098 L530 704.4392156862745 L531 723.8274509803922 L532 733.521568627451 L533 710.9019607843137 L534 697.9764705882353 L535 697.9764705882353 L536 681.8196078431372 L537 688.2823529411764 L538 727.0588235294117 L539 769.0666666666667 L540 794.9176470588235 L541 781.9921568627451 L542 769.0666666666667 L543 762.6039215686275 L544 743.2156862745098 L545 759.3725490196078 L546 791.686274509804 L547 788.4549019607844 L548 769.0666666666667 L549 752.9098039215686 L550 723.8274509803922 L551 697.9764705882353 L552 707.6705882352941 L553 710.9019607843137 L554 697.9764705882353 L555 733.521568627451 L556 743.2156862745098 L557 714.1333333333333 L558 723.8274509803922 L559 720.5960784313726 L560 672.1254901960784 L561 659.2 L562 694.7450980392157 L563 685.0509803921568 L564 678.5882352941176 L565 694.7450980392157 L566 733.521568627451 L567 723.8274509803922 L568 697.9764705882353 L569 697.9764705882353 L570 701.2078431372549 L571 714.1333333333333 L572 691.5137254901961 L573 688.2823529411764 L574 688.2823529411764 L575 717.364705882353 L576 704.4392156862745 L577 704.4392156862745 L578 733.521568627451 L579 765.8352941176471 L580 749.678431372549 L581 720.5960784313726 L582 714.1333333333333 L583 714.1333333333333 L584 675.356862745098 L585 672.1254901960784 L586 701.2078431372549 L587 717.364705882353 L588 723.8274509803922 L589 720.5960784313726 L590 694.7450980392157 L591 685.0509803921568 L592 701.2078431372549 L593 730.2901960784313 L594 730.2901960784313 L595 685.0509803921568 L596 675.356862745098 L597 697.9764705882353 L598 733.521568627451 L599 720.5960784313726 L600 707.6705882352941 L601 733.521568627451 L602 678.5882352941176 L603 675.356862745098 L604 688.2823529411764 L605 707.6705882352941 L606 739.9843137254902 L607 720.5960784313726 L608 720.5960784313726 L609 739.9843137254902 L610 743.2156862745098 L611 717.364705882353 L612 707.6705882352941 L613 704.4392156862745 L614 710.9019607843137 L615 710.9019607843137 L616 668.8941176470588 L617 646.2745098039215 L618 697.9764705882353 L619 788.4549019607844 L620 691.5137254901961 L621 672.1254901960784 L622 688.2823529411764 L623 723.8274509803922 L624 775.5294117647059 L625 798.1490196078431 L626 775.5294117647059 L627 743.2156862745098 L628 739.9843137254902 L629 762.6039215686275 L630 743.2156862745098 L631 727.0588235294117 L632 714.1333333333333 L633 707.6705882352941 L634 739.9843137254902 L635 788.4549019607844 L636 788.4549019607844 L637 769.0666666666667 L638 765.8352941176471 L639 775.5294117647059 L640 824 L641 824 L642 824 L643 824 L644 775.5294117647059 L645 778.7607843137255 L646 781.9921568627451 L647 788.4549019607844 L648 791.686274509804 L649 769.0666666666667 L650 759.3725490196078 L651 762.6039215686275 L652 781.9921568627451 L653 781.9921568627451 L654 762.6039215686275 L655 743.2156862745098 L656 756.1411764705882 L657 749.678431372549 L658 739.9843137254902 L659 811.0745098039216 L660 772.2980392156862 L661 752.9098039215686 L662 807.843137254902 L663 778.7607843137255 L664 749.678431372549 L665 778.7607843137255 L666 749.678431372549 L667 688.2823529411764 L668 678.5882352941176 L669 720.5960784313726 L670 717.364705882353 L671 701.2078431372549 L672 720.5960784313726 L673 707.6705882352941 L674 697.9764705882353 L675 710.9019607843137 L676 743.2156862745098 L677 733.521568627451 L678 733.521568627451 L679 727.0588235294117 L680 743.2156862745098 L681 772.2980392156862 L682 714.1333333333333 L683 697.9764705882353 L684 710.9019607843137 L685 707.6705882352941 L686 704.4392156862745 L687 710.9019607843137 L688 746.4470588235295 L689 772.2980392156862 L690 739.9843137254902 L691 697.9764705882353 L692 685.0509803921568 L693 727.0588235294117 L694 743.2156862745098 L695 723.8274509803922 L696 727.0588235294117 L697 730.2901960784313 L698 749.678431372549 L699 733.521568627451 L700 736.7529411764706 L701 736.7529411764706 L702 739.9843137254902 L703 730.2901960784313 L704 739.9843137254902 L705 752.9098039215686 L706 739.9843137254902 L707 772.2980392156862 L708 791.686274509804 L709 778.7607843137255 L710 788.4549019607844 L711 801.3803921568627 L712 814.3058823529411 L713 804.6117647058824 L714 791.686274509804 L715 769.0666666666667 L716 717.364705882353 L717 739.9843137254902 L718 785.2235294117647 L719 772.2980392156862 L720 775.5294117647059 L721 814.3058823529411 L722 824 L723 824 L724 824 L725 824 L726 824 L727 824 L728 824 L729 824 L730 824 L731 824 L732 824 L733 824 L734 824 L735 824 L736 824 L737 807.843137254902 L738 820.7686274509804 L739 824 L740 824 L741 824 L742 824 L743 824 L744 824 L745 824 L746 824 L747 824 L748 824 L749 824 L750 824 L751 824 L752 824 L753 824 L754 824 L755 824 L756 824 L757 824 L758 824 L759 824 L760 817.5372549019608 L761 824 L762 824 L763 801.3803921568627 L764 794.9176470588235 L765 824 L766 824 L767 811.0745098039216 L768 824 L769 824 L770 814.3058823529411 L771 785.2235294117647 L772 801.3803921568627 L773 824 L774 824 L775 824 L776 824 L777 824 L778 824 L779 824 L780 824 L781 824 L782 824 L783 824 L784 824 L785 824 L786 824 L787 824 L788 824 L789 824 L790 824 L791 824 L792 824 L793 817.5372549019608 L794 824 L795 824 L796 801.3803921568627 L797 824 L798 824 L799 824 L800 817.5372549019608 L801 820.7686274509804 L802 824 L803 824 L804 824 L805 824 L806 824 L807 824 L808 824 L809 824 L810 824 L811 824 L812 824 L813 824 L814 824 L815 824 L816 824 L817 824 L818 824 L819 824 L820 824 L821 824 L822 824 L823 824 L824 824 L825 824 L826 824 L827 824 L828 824 L829 824 L830 824 L831 824 L832 824 L833 824 L834 824 L835 824 L836 824 L837 824 L838 824 L839 824 L840 824 L841 824 L842 824 L843 824 L844 824 L845 824 L846 824 L847 824 L848 824 L849 824 L850 824 L851 824 L852 824 L853 824 L854 824 L855 824 L856 824 L857 824 L858 824 L859 824 L860 824 L861 824 L862 824 L863 824 L864 824 L865 824 L866 824 L867 824 L868 824 L869 824 L870 824 L871 824 L872 824 L873 824 L874 824 L875 824 L876 824 L877 824 L878 824 L879 824 L880 824 L881 824 L882 824 L883 824 L884 824 L885 824 L886 824 L887 824 L888 824 L889 824 L890 824 L891 824 L892 824 L893 824 L894 824 L895 824 L896 824 L897 824 L898 824 L899 824 L900 824 L901 824 L902 824 L903 824 L904 824 L905 824 L906 824 L907 824 L908 824 L909 824 L910 824 L911 824 L912 824 L913 824 L914 824 L915 824 L916 824 L917 824 L918 824 L919 824 L920 824 L921 824 L922 824 L923 824 L924 824 L925 824 L926 824 L927 824 L928 824 L929 824 L930 824 L931 824 L932 824 L933 824 L934 824 L935 824 L936 824 L937 824 L938 824 L939 824 L940 824 L941 824 L942 824 L943 824 L944 824 L945 824 L946 824 L947 824 L948 824 L949 824 L950 824 L951 824 L952 824 L953 824 L954 824 L955 824 L956 824 L957 824 L958 824 L959 824 L960 824 L961 824 L962 824 L963 824 L964 824 L965 824 L966 824 L967 824 L968 824 L969 824 L970 824 L971 824 L972 824 L973 824 L974 824 L975 824 L976 824 L977 824 L978 824 L979 824 L980 824 L981 824 L982 824 L983 824 L984 824 L985 824 L986 824 L987 824 L988 824 L989 824 L990 824 L991 824 L992 824 L993 824 L994 824 L995 824 L996 824 L997 824 L998 824 L999 824 L1000 824 L1001 824 L1002 824 L1003 824 L1004 824 L1005 824 L1006 824 L1007 824 L1008 824 L1009 824 L1010 824 L1011 824 L1012 824 L1013 824 L1014 824 L1015 824 L1016 824 L1017 824 L1018 824 L1019 824 L1020 824 L1021 824 L1022 824 L1023 824 L824 824  Z" stroke = "#000000" stroke-width = "3" fill = "#808080" />
</svg>