<svg width="800" height="800" viewbox = "0 0 800 800"  xmlns="http://www.w3.org/2000/svg">
 <path d = "M0 800 L1 494.11764705882354 L2 516.7058823529412 L3 556.2352941176471 L4 437.6470588235294 L5 319.05882352941177 L6 285.1764705882353 L7 296.4705882352941 L8 313.4117647058824 L9 321.88235294117646 L10 355.7647058823529 L11 350.11764705882354 L12 307.764705882353 L13 290.8235294117647 L14 299.2941176470588 L15 290.8235294117647 L16 299.2941176470588 L17 302.1176470588235 L18 273.88235294117646 L19 251.29411764705878 L20 256.9411764705882 L21 293.6470588235294 L22 336 L23 341.6470588235294 L24 358.5882352941177 L25 389.64705882352945 L26 384 L27 375.52941176470586 L28 361.4117647058823 L29 372.70588235294116 L30 398.11764705882354 L31 420.70588235294116 L32 457.4117647058824 L33 477.17647058823525 L34 454.5882352941176 L35 437.6470588235294 L36 460.2352941176471 L37 516.7058823529412 L38 482.8235294117647 L39 474.3529411764706 L40 460.2352941176471 L41 451.7647058823529 L42 457.4117647058824 L43 446.11764705882354 L44 423.5294117647059 L45 417.88235294117646 L46 412.2352941176471 L47 420.70588235294116 L48 460.2352941176471 L49 463.05882352941177 L50 508.2352941176471 L51 570.3529411764706 L52 598.5882352941177 L53 615.5294117647059 L54 550.5882352941177 L55 522.3529411764706 L56 542.1176470588235 L57 530.8235294117646 L58 522.3529411764706 L59 547.7647058823529 L60 477.17647058823525 L61 451.7647058823529 L62 448.94117647058823 L63 446.11764705882354 L64 468.7058823529412 L65 485.6470588235294 L66 460.2352941176471 L67 432 L68 420.70588235294116 L69 457.4117647058824 L70 457.4117647058824 L71 465.88235294117646 L72 547.7647058823529 L73 539.2941176470588 L74 561.8823529411765 L75 612.7058823529412 L76 646.5882352941177 L77 697.4117647058823 L78 705.8823529411765 L79 683.2941176470588 L80 691.7647058823529 L81 666.3529411764706 L82 669.1764705882352 L83 677.6470588235294 L84 640.9411764705883 L85 629.6470588235294 L86 655.0588235294117 L87 669.1764705882352 L88 663.5294117647059 L89 660.7058823529412 L90 660.7058823529412 L91 652.2352941176471 L92 643.7647058823529 L93 638.1176470588235 L94 683.2941176470588 L95 720 L96 711.5294117647059 L97 720 L98 720 L99 720 L100 703.0588235294117 L101 705.8823529411765 L102 705.8823529411765 L103 705.8823529411765 L104 708.7058823529412 L105 683.2941176470588 L106 643.7647058823529 L107 660.7058823529412 L108 717.1764705882352 L109 720 L110 720 L111 720 L112 720 L113 720 L114 720 L115 720 L116 720 L117 720 L118 720 L119 714.3529411764706 L120 686.1176470588235 L121 683.2941176470588 L122 666.3529411764706 L123 621.1764705882352 L124 598.5882352941177 L125 635.2941176470588 L126 700.2352941176471 L127 686.1176470588235 L128 669.1764705882352 L129 666.3529411764706 L130 660.7058823529412 L131 672 L132 691.7647058823529 L133 697.4117647058823 L134 714.3529411764706 L135 720 L136 720 L137 720 L138 720 L139 720 L140 720 L141 720 L142 720 L143 720 L144 720 L145 720 L146 720 L147 720 L148 720 L149 720 L150 720 L151 720 L152 720 L153 720 L154 720 L155 720 L156 720 L157 720 L158 720 L159 720 L160 720 L161 720 L162 720 L163 720 L164 720 L165 720 L166 717.1764705882352 L167 720 L168 720 L169 720 L170 720 L171 683.2941176470588 L172 657.8823529411765 L173 677.6470588235294 L174 714.3529411764706 L175 688.9411764705883 L176 666.3529411764706 L177 669.1764705882352 L178 666.3529411764706 L179 652.2352941176471 L180 635.2941176470588 L181 621.1764705882352 L182 640.9411764705883 L183 691.7647058823529 L184 720 L185 720 L186 674.8235294117648 L187 629.6470588235294 L188 615.5294117647059 L189 621.1764705882352 L190 652.2352941176471 L191 720 L192 686.1176470588235 L193 669.1764705882352 L194 632.4705882352941 L195 635.2941176470588 L196 688.9411764705883 L197 660.7058823529412 L198 635.2941176470588 L199 629.6470588235294 L200 652.2352941176471 L201 649.4117647058823 L202 657.8823529411765 L203 691.7647058823529 L204 655.0588235294117 L205 657.8823529411765 L206 638.1176470588235 L207 629.6470588235294 L208 657.8823529411765 L209 697.4117647058823 L210 720 L211 714.3529411764706 L212 720 L213 720 L214 717.1764705882352 L215 700.2352941176471 L216 720 L217 720 L218 720 L219 711.5294117647059 L220 672 L221 672 L222 703.0588235294117 L223 720 L224 720 L225 720 L226 720 L227 720 L228 720 L229 720 L230 720 L231 720 L232 714.3529411764706 L233 688.9411764705883 L234 711.5294117647059 L235 720 L236 720 L237 717.1764705882352 L238 720 L239 720 L240 703.0588235294117 L241 720 L242 720 L243 720 L244 720 L245 720 L246 720 L247 720 L248 694.5882352941177 L249 711.5294117647059 L250 720 L251 720 L252 720 L253 674.8235294117648 L254 652.2352941176471 L255 657.8823529411765 L256 683.2941176470588 L257 691.7647058823529 L258 708.7058823529412 L259 720 L260 720 L261 720 L262 720 L263 714.3529411764706 L264 711.5294117647059 L265 720 L266 720 L267 720 L268 720 L269 720 L270 697.4117647058823 L271 672 L272 672 L273 649.4117647058823 L274 640.9411764705883 L275 677.6470588235294 L276 674.8235294117648 L277 660.7058823529412 L278 652.2352941176471 L279 683.2941176470588 L280 717.1764705882352 L281 711.5294117647059 L282 720 L283 703.0588235294117 L284 703.0588235294117 L285 720 L286 708.7058823529412 L287 708.7058823529412 L288 711.5294117647059 L289 660.7058823529412 L290 663.5294117647059 L291 708.7058823529412 L292 720 L293 708.7058823529412 L294 711.5294117647059 L295 720 L296 720 L297 720 L298 720 L299 711.5294117647059 L300 720 L301 720 L302 720 L303 720 L304 720 L305 691.7647058823529 L306 686.1176470588235 L307 705.8823529411765 L308 708.7058823529412 L309 683.2941176470588 L310 697.4117647058823 L311 703.0588235294117 L312 691.7647058823529 L313 697.4117647058823 L314 717.1764705882352 L315 720 L316 720 L317 711.5294117647059 L318 720 L319 720 L320 708.7058823529412 L321 660.7058823529412 L322 669.1764705882352 L323 711.5294117647059 L324 708.7058823529412 L325 720 L326 700.2352941176471 L327 708.7058823529412 L328 720 L329 720 L330 720 L331 720 L332 720 L333 683.2941176470588 L334 660.7058823529412 L335 657.8823529411765 L336 677.6470588235294 L337 720 L338 720 L339 720 L340 720 L341 720 L342 720 L343 720 L344 717.1764705882352 L345 708.7058823529412 L346 677.6470588235294 L347 657.8823529411765 L348 626.8235294117646 L349 621.1764705882352 L350 646.5882352941177 L351 688.9411764705883 L352 720 L353 720 L354 720 L355 720 L356 697.4117647058823 L357 703.0588235294117 L358 720 L359 691.7647058823529 L360 691.7647058823529 L361 720 L362 720 L363 720 L364 680.4705882352941 L365 683.2941176470588 L366 720 L367 705.8823529411765 L368 672 L369 666.3529411764706 L370 660.7058823529412 L371 660.7058823529412 L372 677.6470588235294 L373 708.7058823529412 L374 638.1176470588235 L375 598.5882352941177 L376 607.0588235294117 L377 638.1176470588235 L378 657.8823529411765 L379 680.4705882352941 L380 652.2352941176471 L381 646.5882352941177 L382 677.6470588235294 L383 657.8823529411765 L384 669.1764705882352 L385 677.6470588235294 L386 700.2352941176471 L387 649.4117647058823 L388 626.8235294117646 L389 632.4705882352941 L390 657.8823529411765 L391 708.7058823529412 L392 686.1176470588235 L393 694.5882352941177 L394 683.2941176470588 L395 683.2941176470588 L396 683.2941176470588 L397 700.2352941176471 L398 708.7058823529412 L399 669.1764705882352 L400 646.5882352941177 L401 672 L402 677.6470588235294 L403 694.5882352941177 L404 663.5294117647059 L405 652.2352941176471 L406 674.8235294117648 L407 703.0588235294117 L408 705.8823529411765 L409 714.3529411764706 L410 680.4705882352941 L411 669.1764705882352 L412 714.3529411764706 L413 720 L414 711.5294117647059 L415 691.7647058823529 L416 680.4705882352941 L417 686.1176470588235 L418 720 L419 720 L420 720 L421 720 L422 720 L423 717.1764705882352 L424 720 L425 720 L426 720 L427 720 L428 705.8823529411765 L429 691.7647058823529 L430 720 L431 720 L432 700.2352941176471 L433 717.1764705882352 L434 708.7058823529412 L435 680.4705882352941 L436 688.9411764705883 L437 677.6470588235294 L438 666.3529411764706 L439 703.0588235294117 L440 720 L441 697.4117647058823 L442 680.4705882352941 L443 683.2941176470588 L444 720 L445 720 L446 720 L447 720 L448 720 L449 720 L450 720 L451 720 L452 720 L453 720 L454 720 L455 720 L456 720 L457 720 L458 720 L459 720 L460 720 L461 720 L462 720 L463 720 L464 720 L465 720 L466 720 L467 720 L468 720 L469 720 L470 720 L471 720 L472 720 L473 720 L474 720 L475 720 L476 720 L477 720 L478 720 L479 720 L480 720 L481 720 L482 720 L483 720 L484 720 L485 720 L486 720 L487 720 L488 720 L489 720 L490 720 L491 720 L492 720 L493 711.5294117647059 L494 688.9411764705883 L495 691.7647058823529 L496 708.7058823529412 L497 720 L498 720 L499 720 L500 720 L501 720 L502 720 L503 720 L504 720 L505 720 L506 720 L507 708.7058823529412 L508 669.1764705882352 L509 657.8823529411765 L510 677.6470588235294 L511 683.2941176470588 L512 697.4117647058823 L513 711.5294117647059 L514 694.5882352941177 L515 714.3529411764706 L516 700.2352941176471 L517 686.1176470588235 L518 680.4705882352941 L519 683.2941176470588 L520 677.6470588235294 L521 694.5882352941177 L522 674.8235294117648 L523 657.8823529411765 L524 652.2352941176471 L525 674.8235294117648 L526 697.4117647058823 L527 720 L528 720 L529 720 L530 720 L531 720 L532 720 L533 720 L534 720 L535 720 L536 720 L537 720 L538 720 L539 720 L540 720 L541 720 L542 720 L543 720 L544 720 L545 720 L546 700.2352941176471 L547 717.1764705882352 L548 720 L549 720 L550 720 L551 720 L552 720 L553 720 L554 720 L555 720 L556 720 L557 720 L558 720 L559 720 L560 720 L561 720 L562 720 L563 720 L564 720 L565 720 L566 720 L567 720 L568 720 L569 720 L570 720 L571 720 L572 720 L573 720 L574 720 L575 720 L576 720 L577 720 L578 720 L579 720 L580 720 L581 720 L582 720 L583 720 L584 720 L585 720 L586 720 L587 720 L588 720 L589 720 L590 720 L591 720 L592 720 L593 720 L594 720 L595 720 L596 720 L597 720 L598 720 L599 720 L600 720 L601 720 L602 720 L603 720 L604 720 L605 720 L606 720 L607 720 L608 720 L609 720 L610 720 L611 720 L612 720 L613 720 L614 720 L615 720 L616 720 L617 720 L618 720 L619 720 L620 720 L621 720 L622 720 L623 714.3529411764706 L624 708.7058823529412 L625 720 L626 720 L627 720 L628 720 L629 720 L630 720 L631 720 L632 720 L633 720 L634 720 L635 720 L636 720 L637 720 L638 720 L639 720 L640 720 L641 720 L642 720 L643 720 L644 720 L645 720 L646 720 L647 720 L648 720 L649 720 L650 720 L651 720 L652 720 L653 720 L654 720 L655 720 L656 720 L657 720 L658 720 L659 720 L660 720 L661 720 L662 720 L663 720 L664 720 L665 720 L666 720 L667 720 L668 720 L669 720 L670 720 L671 720 L672 720 L673 720 L674 720 L675 720 L676 720 L677 720 L678 720 L679 720 L680 720 L681 720 L682 720 L683 720 L684 720 L685 720 L686 720 L687 720 L688 720 L689 720 L690 720 L691 720 L692 720 L693 720 L694 720 L695 720 L696 720 L697 720 L698 720 L699 720 L700 800  Z" stroke = "#000000" stroke-width = "1" fill = "#9f876780" />
</svg>