<svg width="800" height="800" viewbox = "0 0 800 800"  xmlns="http://www.w3.org/2000/svg">
 <path d = "M0 800 L1 482.8235294117647 L2 511.0588235294117 L3 567.5294117647059 L4 440.4705882352941 L5 316.2352941176471 L6 282.3529411764706 L7 296.4705882352941 L8 282.3529411764706 L9 285.1764705882353 L10 338.8235294117647 L11 364.2352941176471 L12 319.05882352941177 L13 299.2941176470588 L14 304.9411764705883 L15 279.52941176470586 L16 251.29411764705878 L17 245.6470588235294 L18 259.764705882353 L19 256.9411764705882 L20 265.4117647058824 L21 304.9411764705883 L22 352.9411764705883 L23 327.5294117647059 L24 296.4705882352941 L25 285.1764705882353 L26 302.1176470588235 L27 341.6470588235294 L28 364.2352941176471 L29 381.1764705882353 L30 409.4117647058823 L31 429.1764705882353 L32 440.4705882352941 L33 423.5294117647059 L34 409.4117647058823 L35 417.88235294117646 L36 454.5882352941176 L37 519.5294117647059 L38 499.7647058823529 L39 482.8235294117647 L40 460.2352941176471 L41 454.5882352941176 L42 457.4117647058824 L43 437.6470588235294 L44 415.05882352941177 L45 417.88235294117646 L46 409.4117647058823 L47 420.70588235294116 L48 437.6470588235294 L49 409.4117647058823 L50 451.7647058823529 L51 530.8235294117646 L52 536.4705882352941 L53 522.3529411764706 L54 508.2352941176471 L55 499.7647058823529 L56 454.5882352941176 L57 415.05882352941177 L58 398.11764705882354 L59 392.47058823529414 L60 375.52941176470586 L61 364.2352941176471 L62 398.11764705882354 L63 420.70588235294116 L64 460.2352941176471 L65 409.4117647058823 L66 375.52941176470586 L67 355.7647058823529 L68 364.2352941176471 L69 403.7647058823529 L70 403.7647058823529 L71 474.3529411764706 L72 477.17647058823525 L73 494.11764705882354 L74 511.0588235294117 L75 553.4117647058823 L76 584.4705882352941 L77 635.2941176470588 L78 683.2941176470588 L79 666.3529411764706 L80 652.2352941176471 L81 635.2941176470588 L82 640.9411764705883 L83 652.2352941176471 L84 626.8235294117646 L85 632.4705882352941 L86 649.4117647058823 L87 674.8235294117648 L88 669.1764705882352 L89 669.1764705882352 L90 666.3529411764706 L91 652.2352941176471 L92 649.4117647058823 L93 646.5882352941177 L94 683.2941176470588 L95 720 L96 717.1764705882352 L97 720 L98 720 L99 720 L100 708.7058823529412 L101 720 L102 717.1764705882352 L103 720 L104 717.1764705882352 L105 683.2941176470588 L106 655.0588235294117 L107 677.6470588235294 L108 720 L109 720 L110 720 L111 720 L112 720 L113 720 L114 720 L115 720 L116 720 L117 720 L118 717.1764705882352 L119 680.4705882352941 L120 686.1176470588235 L121 643.7647058823529 L122 609.8823529411765 L123 578.8235294117646 L124 559.0588235294117 L125 576 L126 621.1764705882352 L127 624 L128 635.2941176470588 L129 666.3529411764706 L130 646.5882352941177 L131 649.4117647058823 L132 686.1176470588235 L133 714.3529411764706 L134 714.3529411764706 L135 720 L136 720 L137 720 L138 720 L139 720 L140 720 L141 720 L142 720 L143 720 L144 720 L145 720 L146 720 L147 720 L148 720 L149 720 L150 720 L151 720 L152 720 L153 720 L154 720 L155 720 L156 720 L157 720 L158 720 L159 720 L160 720 L161 720 L162 720 L163 720 L164 720 L165 720 L166 720 L167 720 L168 720 L169 720 L170 720 L171 703.0588235294117 L172 677.6470588235294 L173 694.5882352941177 L174 720 L175 705.8823529411765 L176 683.2941176470588 L177 686.1176470588235 L178 686.1176470588235 L179 672 L180 655.0588235294117 L181 640.9411764705883 L182 660.7058823529412 L183 711.5294117647059 L184 720 L185 720 L186 694.5882352941177 L187 649.4117647058823 L188 635.2941176470588 L189 640.9411764705883 L190 669.1764705882352 L191 720 L192 705.8823529411765 L193 688.9411764705883 L194 652.2352941176471 L195 655.0588235294117 L196 705.8823529411765 L197 680.4705882352941 L198 655.0588235294117 L199 649.4117647058823 L200 672 L201 669.1764705882352 L202 677.6470588235294 L203 714.3529411764706 L204 674.8235294117648 L205 677.6470588235294 L206 657.8823529411765 L207 649.4117647058823 L208 677.6470588235294 L209 717.1764705882352 L210 720 L211 720 L212 720 L213 720 L214 720 L215 720 L216 720 L217 720 L218 720 L219 720 L220 691.7647058823529 L221 691.7647058823529 L222 720 L223 720 L224 720 L225 720 L226 720 L227 720 L228 720 L229 720 L230 720 L231 720 L232 720 L233 708.7058823529412 L234 720 L235 720 L236 720 L237 720 L238 720 L239 720 L240 720 L241 720 L242 720 L243 720 L244 720 L245 720 L246 720 L247 720 L248 714.3529411764706 L249 720 L250 720 L251 720 L252 720 L253 694.5882352941177 L254 672 L255 677.6470588235294 L256 703.0588235294117 L257 711.5294117647059 L258 720 L259 720 L260 720 L261 720 L262 720 L263 720 L264 720 L265 720 L266 720 L267 720 L268 720 L269 720 L270 717.1764705882352 L271 691.7647058823529 L272 691.7647058823529 L273 669.1764705882352 L274 660.7058823529412 L275 697.4117647058823 L276 694.5882352941177 L277 680.4705882352941 L278 672 L279 703.0588235294117 L280 720 L281 720 L282 720 L283 720 L284 720 L285 720 L286 720 L287 720 L288 720 L289 680.4705882352941 L290 683.2941176470588 L291 720 L292 720 L293 720 L294 720 L295 720 L296 720 L297 720 L298 720 L299 720 L300 720 L301 720 L302 720 L303 720 L304 720 L305 711.5294117647059 L306 705.8823529411765 L307 720 L308 720 L309 703.0588235294117 L310 714.3529411764706 L311 720 L312 711.5294117647059 L313 717.1764705882352 L314 720 L315 720 L316 720 L317 720 L318 720 L319 720 L320 720 L321 680.4705882352941 L322 686.1176470588235 L323 720 L324 720 L325 720 L326 717.1764705882352 L327 720 L328 720 L329 720 L330 720 L331 720 L332 720 L333 700.2352941176471 L334 677.6470588235294 L335 674.8235294117648 L336 694.5882352941177 L337 720 L338 720 L339 720 L340 720 L341 720 L342 720 L343 720 L344 720 L345 720 L346 697.4117647058823 L347 674.8235294117648 L348 646.5882352941177 L349 640.9411764705883 L350 666.3529411764706 L351 708.7058823529412 L352 720 L353 720 L354 720 L355 720 L356 711.5294117647059 L357 711.5294117647059 L358 720 L359 683.2941176470588 L360 688.9411764705883 L361 720 L362 720 L363 720 L364 694.5882352941177 L365 694.5882352941177 L366 720 L367 714.3529411764706 L368 688.9411764705883 L369 683.2941176470588 L370 677.6470588235294 L371 677.6470588235294 L372 697.4117647058823 L373 720 L374 655.0588235294117 L375 615.5294117647059 L376 624 L377 657.8823529411765 L378 674.8235294117648 L379 697.4117647058823 L380 669.1764705882352 L381 657.8823529411765 L382 677.6470588235294 L383 657.8823529411765 L384 672 L385 683.2941176470588 L386 691.7647058823529 L387 649.4117647058823 L388 632.4705882352941 L389 640.9411764705883 L390 672 L391 720 L392 691.7647058823529 L393 700.2352941176471 L394 697.4117647058823 L395 688.9411764705883 L396 688.9411764705883 L397 703.0588235294117 L398 717.1764705882352 L399 677.6470588235294 L400 652.2352941176471 L401 677.6470588235294 L402 688.9411764705883 L403 703.0588235294117 L404 672 L405 660.7058823529412 L406 686.1176470588235 L407 720 L408 720 L409 720 L410 697.4117647058823 L411 688.9411764705883 L412 720 L413 720 L414 711.5294117647059 L415 691.7647058823529 L416 680.4705882352941 L417 691.7647058823529 L418 720 L419 720 L420 720 L421 717.1764705882352 L422 714.3529411764706 L423 714.3529411764706 L424 720 L425 720 L426 720 L427 720 L428 711.5294117647059 L429 694.5882352941177 L430 720 L431 720 L432 700.2352941176471 L433 720 L434 705.8823529411765 L435 680.4705882352941 L436 705.8823529411765 L437 694.5882352941177 L438 674.8235294117648 L439 686.1176470588235 L440 720 L441 672 L442 652.2352941176471 L443 674.8235294117648 L444 720 L445 717.1764705882352 L446 720 L447 720 L448 720 L449 720 L450 720 L451 720 L452 720 L453 720 L454 720 L455 720 L456 720 L457 720 L458 720 L459 720 L460 720 L461 720 L462 720 L463 720 L464 720 L465 720 L466 720 L467 720 L468 720 L469 720 L470 720 L471 720 L472 720 L473 720 L474 708.7058823529412 L475 720 L476 720 L477 720 L478 720 L479 720 L480 720 L481 720 L482 720 L483 720 L484 720 L485 720 L486 720 L487 720 L488 720 L489 720 L490 720 L491 720 L492 720 L493 720 L494 708.7058823529412 L495 708.7058823529412 L496 720 L497 720 L498 720 L499 720 L500 720 L501 720 L502 720 L503 720 L504 720 L505 720 L506 720 L507 720 L508 683.2941176470588 L509 674.8235294117648 L510 688.9411764705883 L511 694.5882352941177 L512 708.7058823529412 L513 708.7058823529412 L514 686.1176470588235 L515 720 L516 694.5882352941177 L517 677.6470588235294 L518 691.7647058823529 L519 694.5882352941177 L520 680.4705882352941 L521 683.2941176470588 L522 666.3529411764706 L523 666.3529411764706 L524 666.3529411764706 L525 688.9411764705883 L526 703.0588235294117 L527 720 L528 720 L529 720 L530 720 L531 720 L532 720 L533 720 L534 720 L535 720 L536 720 L537 720 L538 720 L539 720 L540 720 L541 720 L542 720 L543 720 L544 720 L545 697.4117647058823 L546 674.8235294117648 L547 694.5882352941177 L548 720 L549 720 L550 720 L551 720 L552 720 L553 720 L554 720 L555 720 L556 720 L557 720 L558 720 L559 720 L560 720 L561 720 L562 720 L563 720 L564 720 L565 720 L566 720 L567 720 L568 720 L569 720 L570 720 L571 720 L572 720 L573 720 L574 720 L575 720 L576 720 L577 720 L578 720 L579 720 L580 720 L581 720 L582 720 L583 720 L584 720 L585 720 L586 720 L587 720 L588 720 L589 720 L590 720 L591 720 L592 720 L593 720 L594 720 L595 720 L596 720 L597 720 L598 720 L599 720 L600 720 L601 720 L602 717.1764705882352 L603 720 L604 705.8823529411765 L605 700.2352941176471 L606 708.7058823529412 L607 711.5294117647059 L608 720 L609 720 L610 720 L611 720 L612 720 L613 720 L614 720 L615 720 L616 720 L617 720 L618 720 L619 720 L620 720 L621 720 L622 700.2352941176471 L623 691.7647058823529 L624 694.5882352941177 L625 720 L626 720 L627 720 L628 720 L629 711.5294117647059 L630 720 L631 720 L632 720 L633 720 L634 720 L635 720 L636 720 L637 720 L638 720 L639 720 L640 720 L641 720 L642 720 L643 720 L644 720 L645 720 L646 720 L647 720 L648 720 L649 720 L650 720 L651 720 L652 720 L653 720 L654 720 L655 720 L656 720 L657 720 L658 720 L659 720 L660 720 L661 720 L662 720 L663 720 L664 720 L665 720 L666 720 L667 720 L668 720 L669 720 L670 720 L671 720 L672 720 L673 720 L674 720 L675 720 L676 720 L677 720 L678 720 L679 720 L680 720 L681 720 L682 720 L683 720 L684 720 L685 720 L686 720 L687 720 L688 720 L689 720 L690 720 L691 720 L692 720 L693 720 L694 720 L695 720 L696 720 L697 720 L698 720 L699 720 L700 800  Z" stroke = "#000000" stroke-width = "1" fill = "#9f876780" />
</svg>