<svg width="800" height="800" viewbox = "0 0 800 800"  xmlns="http://www.w3.org/2000/svg">
 <path d = "M0 800 L1 528 L2 553.4117647058823 L3 604.2352941176471 L4 522.3529411764706 L5 454.5882352941176 L6 443.2941176470588 L7 465.88235294117646 L8 440.4705882352941 L9 395.29411764705884 L10 417.88235294117646 L11 530.8235294117646 L12 556.2352941176471 L13 567.5294117647059 L14 601.4117647058823 L15 570.3529411764706 L16 544.9411764705883 L17 564.7058823529412 L18 530.8235294117646 L19 539.2941176470588 L20 553.4117647058823 L21 539.2941176470588 L22 542.1176470588235 L23 587.2941176470588 L24 559.0588235294117 L25 525.1764705882354 L26 443.2941176470588 L27 417.88235294117646 L28 417.88235294117646 L29 463.05882352941177 L30 496.94117647058823 L31 482.8235294117647 L32 477.17647058823525 L33 505.4117647058823 L34 564.7058823529412 L35 542.1176470588235 L36 536.4705882352941 L37 544.9411764705883 L38 547.7647058823529 L39 576 L40 578.8235294117646 L41 576 L42 559.0588235294117 L43 544.9411764705883 L44 530.8235294117646 L45 482.8235294117647 L46 471.52941176470586 L47 528 L48 561.8823529411765 L49 590.1176470588235 L50 578.8235294117646 L51 618.3529411764706 L52 621.1764705882352 L53 559.0588235294117 L54 519.5294117647059 L55 494.11764705882354 L56 488.4705882352941 L57 496.94117647058823 L58 525.1764705882354 L59 536.4705882352941 L60 533.6470588235294 L61 513.8823529411765 L62 516.7058823529412 L63 542.1176470588235 L64 525.1764705882354 L65 508.2352941176471 L66 542.1176470588235 L67 598.5882352941177 L68 578.8235294117646 L69 584.4705882352941 L70 595.7647058823529 L71 581.6470588235294 L72 561.8823529411765 L73 604.2352941176471 L74 590.1176470588235 L75 598.5882352941177 L76 629.6470588235294 L77 629.6470588235294 L78 604.2352941176471 L79 607.0588235294117 L80 592.9411764705883 L81 590.1176470588235 L82 618.3529411764706 L83 621.1764705882352 L84 624 L85 595.7647058823529 L86 604.2352941176471 L87 618.3529411764706 L88 587.2941176470588 L89 556.2352941176471 L90 536.4705882352941 L91 528 L92 539.2941176470588 L93 525.1764705882354 L94 576 L95 601.4117647058823 L96 601.4117647058823 L97 649.4117647058823 L98 672 L99 660.7058823529412 L100 612.7058823529412 L101 587.2941176470588 L102 570.3529411764706 L103 590.1176470588235 L104 615.5294117647059 L105 669.1764705882352 L106 657.8823529411765 L107 643.7647058823529 L108 646.5882352941177 L109 680.4705882352941 L110 657.8823529411765 L111 632.4705882352941 L112 618.3529411764706 L113 640.9411764705883 L114 705.8823529411765 L115 691.7647058823529 L116 717.1764705882352 L117 720 L118 720 L119 714.3529411764706 L120 697.4117647058823 L121 703.0588235294117 L122 680.4705882352941 L123 717.1764705882352 L124 688.9411764705883 L125 663.5294117647059 L126 663.5294117647059 L127 643.7647058823529 L128 607.0588235294117 L129 581.6470588235294 L130 567.5294117647059 L131 570.3529411764706 L132 587.2941176470588 L133 609.8823529411765 L134 618.3529411764706 L135 624 L136 674.8235294117648 L137 720 L138 720 L139 720 L140 717.1764705882352 L141 720 L142 720 L143 720 L144 720 L145 714.3529411764706 L146 703.0588235294117 L147 697.4117647058823 L148 680.4705882352941 L149 638.1176470588235 L150 635.2941176470588 L151 652.2352941176471 L152 657.8823529411765 L153 666.3529411764706 L154 705.8823529411765 L155 720 L156 672 L157 643.7647058823529 L158 621.1764705882352 L159 624 L160 632.4705882352941 L161 646.5882352941177 L162 677.6470588235294 L163 652.2352941176471 L164 638.1176470588235 L165 587.2941176470588 L166 561.8823529411765 L167 570.3529411764706 L168 601.4117647058823 L169 672 L170 590.1176470588235 L171 519.5294117647059 L172 496.94117647058823 L173 511.0588235294117 L174 550.5882352941177 L175 528 L176 505.4117647058823 L177 502.5882352941177 L178 494.11764705882354 L179 482.8235294117647 L180 465.88235294117646 L181 451.7647058823529 L182 468.7058823529412 L183 525.1764705882354 L184 592.9411764705883 L185 573.1764705882354 L186 525.1764705882354 L187 465.88235294117646 L188 446.11764705882354 L189 457.4117647058824 L190 488.4705882352941 L191 564.7058823529412 L192 522.3529411764706 L193 505.4117647058823 L194 465.88235294117646 L195 471.52941176470586 L196 533.6470588235294 L197 499.7647058823529 L198 468.7058823529412 L199 460.2352941176471 L200 491.29411764705884 L201 488.4705882352941 L202 488.4705882352941 L203 530.8235294117646 L204 488.4705882352941 L205 494.11764705882354 L206 474.3529411764706 L207 468.7058823529412 L208 496.94117647058823 L209 530.8235294117646 L210 553.4117647058823 L211 547.7647058823529 L212 570.3529411764706 L213 607.0588235294117 L214 559.0588235294117 L215 536.4705882352941 L216 559.0588235294117 L217 561.8823529411765 L218 573.1764705882354 L219 542.1176470588235 L220 502.5882352941177 L221 502.5882352941177 L222 536.4705882352941 L223 578.8235294117646 L224 573.1764705882354 L225 584.4705882352941 L226 609.8823529411765 L227 660.7058823529412 L228 640.9411764705883 L229 640.9411764705883 L230 581.6470588235294 L231 570.3529411764706 L232 561.8823529411765 L233 528 L234 556.2352941176471 L235 621.1764705882352 L236 578.8235294117646 L237 553.4117647058823 L238 573.1764705882354 L239 578.8235294117646 L240 550.5882352941177 L241 576 L242 598.5882352941177 L243 646.5882352941177 L244 624 L245 598.5882352941177 L246 609.8823529411765 L247 598.5882352941177 L248 559.0588235294117 L249 561.8823529411765 L250 601.4117647058823 L251 609.8823529411765 L252 564.7058823529412 L253 513.8823529411765 L254 496.94117647058823 L255 505.4117647058823 L256 530.8235294117646 L257 536.4705882352941 L258 550.5882352941177 L259 581.6470588235294 L260 567.5294117647059 L261 561.8823529411765 L262 584.4705882352941 L263 559.0588235294117 L264 556.2352941176471 L265 592.9411764705883 L266 609.8823529411765 L267 626.8235294117646 L268 592.9411764705883 L269 581.6470588235294 L270 539.2941176470588 L271 511.0588235294117 L272 508.2352941176471 L273 482.8235294117647 L274 474.3529411764706 L275 525.1764705882354 L276 528 L277 505.4117647058823 L278 488.4705882352941 L279 516.7058823529412 L280 556.2352941176471 L281 553.4117647058823 L282 598.5882352941177 L283 550.5882352941177 L284 544.9411764705883 L285 581.6470588235294 L286 539.2941176470588 L287 539.2941176470588 L288 542.1176470588235 L289 485.6470588235294 L290 488.4705882352941 L291 539.2941176470588 L292 587.2941176470588 L293 542.1176470588235 L294 544.9411764705883 L295 590.1176470588235 L296 621.1764705882352 L297 621.1764705882352 L298 573.1764705882354 L299 553.4117647058823 L300 564.7058823529412 L301 615.5294117647059 L302 629.6470588235294 L303 584.4705882352941 L304 578.8235294117646 L305 528 L306 522.3529411764706 L307 550.5882352941177 L308 553.4117647058823 L309 519.5294117647059 L310 536.4705882352941 L311 547.7647058823529 L312 530.8235294117646 L313 536.4705882352941 L314 553.4117647058823 L315 559.0588235294117 L316 561.8823529411765 L317 547.7647058823529 L318 556.2352941176471 L319 576 L320 547.7647058823529 L321 496.94117647058823 L322 502.5882352941177 L323 542.1176470588235 L324 547.7647058823529 L325 567.5294117647059 L326 542.1176470588235 L327 553.4117647058823 L328 595.7647058823529 L329 573.1764705882354 L330 592.9411764705883 L331 604.2352941176471 L332 561.8823529411765 L333 525.1764705882354 L334 502.5882352941177 L335 502.5882352941177 L336 525.1764705882354 L337 573.1764705882354 L338 640.9411764705883 L339 635.2941176470588 L340 598.5882352941177 L341 584.4705882352941 L342 626.8235294117646 L343 590.1176470588235 L344 564.7058823529412 L345 559.0588235294117 L346 525.1764705882354 L347 496.94117647058823 L348 465.88235294117646 L349 460.2352941176471 L350 482.8235294117647 L351 525.1764705882354 L352 578.8235294117646 L353 629.6470588235294 L354 657.8823529411765 L355 601.4117647058823 L356 547.7647058823529 L357 556.2352941176471 L358 609.8823529411765 L359 544.9411764705883 L360 542.1176470588235 L361 592.9411764705883 L362 638.1176470588235 L363 598.5882352941177 L364 544.9411764705883 L365 559.0588235294117 L366 632.4705882352941 L367 595.7647058823529 L368 528 L369 505.4117647058823 L370 499.7647058823529 L371 505.4117647058823 L372 530.8235294117646 L373 570.3529411764706 L374 485.6470588235294 L375 440.4705882352941 L376 446.11764705882354 L377 482.8235294117647 L378 513.8823529411765 L379 573.1764705882354 L380 528 L381 533.6470588235294 L382 587.2941176470588 L383 584.4705882352941 L384 590.1176470588235 L385 573.1764705882354 L386 598.5882352941177 L387 502.5882352941177 L388 465.88235294117646 L389 465.88235294117646 L390 496.94117647058823 L391 573.1764705882354 L392 561.8823529411765 L393 595.7647058823529 L394 564.7058823529412 L395 559.0588235294117 L396 544.9411764705883 L397 564.7058823529412 L398 567.5294117647059 L399 525.1764705882354 L400 496.94117647058823 L401 516.7058823529412 L402 525.1764705882354 L403 559.0588235294117 L404 525.1764705882354 L405 530.8235294117646 L406 581.6470588235294 L407 604.2352941176471 L408 584.4705882352941 L409 595.7647058823529 L410 544.9411764705883 L411 533.6470588235294 L412 592.9411764705883 L413 609.8823529411765 L414 570.3529411764706 L415 553.4117647058823 L416 530.8235294117646 L417 542.1176470588235 L418 612.7058823529412 L419 618.3529411764706 L420 570.3529411764706 L421 592.9411764705883 L422 595.7647058823529 L423 570.3529411764706 L424 598.5882352941177 L425 612.7058823529412 L426 624 L427 643.7647058823529 L428 559.0588235294117 L429 530.8235294117646 L430 561.8823529411765 L431 581.6470588235294 L432 550.5882352941177 L433 576 L434 576 L435 550.5882352941177 L436 567.5294117647059 L437 556.2352941176471 L438 547.7647058823529 L439 587.2941176470588 L440 646.5882352941177 L441 604.2352941176471 L442 587.2941176470588 L443 590.1176470588235 L444 615.5294117647059 L445 666.3529411764706 L446 674.8235294117648 L447 635.2941176470588 L448 629.6470588235294 L449 663.5294117647059 L450 626.8235294117646 L451 632.4705882352941 L452 643.7647058823529 L453 592.9411764705883 L454 587.2941176470588 L455 635.2941176470588 L456 601.4117647058823 L457 638.1176470588235 L458 652.2352941176471 L459 655.0588235294117 L460 624 L461 618.3529411764706 L462 640.9411764705883 L463 643.7647058823529 L464 615.5294117647059 L465 624 L466 672 L467 635.2941176470588 L468 626.8235294117646 L469 666.3529411764706 L470 638.1176470588235 L471 652.2352941176471 L472 584.4705882352941 L473 556.2352941176471 L474 564.7058823529412 L475 612.7058823529412 L476 626.8235294117646 L477 618.3529411764706 L478 666.3529411764706 L479 714.3529411764706 L480 643.7647058823529 L481 632.4705882352941 L482 657.8823529411765 L483 649.4117647058823 L484 666.3529411764706 L485 626.8235294117646 L486 624 L487 601.4117647058823 L488 592.9411764705883 L489 609.8823529411765 L490 592.9411764705883 L491 559.0588235294117 L492 553.4117647058823 L493 542.1176470588235 L494 525.1764705882354 L495 528 L496 547.7647058823529 L497 573.1764705882354 L498 598.5882352941177 L499 629.6470588235294 L500 621.1764705882352 L501 612.7058823529412 L502 612.7058823529412 L503 629.6470588235294 L504 601.4117647058823 L505 584.4705882352941 L506 595.7647058823529 L507 559.0588235294117 L508 511.0588235294117 L509 499.7647058823529 L510 516.7058823529412 L511 522.3529411764706 L512 544.9411764705883 L513 581.6470588235294 L514 578.8235294117646 L515 590.1176470588235 L516 553.4117647058823 L517 547.7647058823529 L518 567.5294117647059 L519 590.1176470588235 L520 604.2352941176471 L521 607.0588235294117 L522 547.7647058823529 L523 511.0588235294117 L524 505.4117647058823 L525 530.8235294117646 L526 567.5294117647059 L527 618.3529411764706 L528 643.7647058823529 L529 646.5882352941177 L530 666.3529411764706 L531 694.5882352941177 L532 677.6470588235294 L533 640.9411764705883 L534 646.5882352941177 L535 694.5882352941177 L536 720 L537 720 L538 686.1176470588235 L539 677.6470588235294 L540 655.0588235294117 L541 657.8823529411765 L542 720 L543 711.5294117647059 L544 686.1176470588235 L545 638.1176470588235 L546 624 L547 635.2941176470588 L548 640.9411764705883 L549 697.4117647058823 L550 720 L551 703.0588235294117 L552 683.2941176470588 L553 711.5294117647059 L554 720 L555 720 L556 720 L557 720 L558 720 L559 720 L560 720 L561 720 L562 720 L563 720 L564 720 L565 720 L566 720 L567 720 L568 720 L569 720 L570 720 L571 720 L572 703.0588235294117 L573 688.9411764705883 L574 711.5294117647059 L575 714.3529411764706 L576 700.2352941176471 L577 688.9411764705883 L578 717.1764705882352 L579 700.2352941176471 L580 666.3529411764706 L581 694.5882352941177 L582 697.4117647058823 L583 646.5882352941177 L584 635.2941176470588 L585 649.4117647058823 L586 669.1764705882352 L587 708.7058823529412 L588 697.4117647058823 L589 646.5882352941177 L590 643.7647058823529 L591 691.7647058823529 L592 697.4117647058823 L593 717.1764705882352 L594 714.3529411764706 L595 683.2941176470588 L596 688.9411764705883 L597 655.0588235294117 L598 640.9411764705883 L599 660.7058823529412 L600 703.0588235294117 L601 646.5882352941177 L602 663.5294117647059 L603 703.0588235294117 L604 657.8823529411765 L605 688.9411764705883 L606 720 L607 720 L608 720 L609 694.5882352941177 L610 711.5294117647059 L611 720 L612 720 L613 720 L614 683.2941176470588 L615 666.3529411764706 L616 640.9411764705883 L617 635.2941176470588 L618 640.9411764705883 L619 674.8235294117648 L620 697.4117647058823 L621 703.0588235294117 L622 703.0588235294117 L623 683.2941176470588 L624 646.5882352941177 L625 646.5882352941177 L626 705.8823529411765 L627 720 L628 720 L629 720 L630 703.0588235294117 L631 697.4117647058823 L632 720 L633 720 L634 720 L635 720 L636 694.5882352941177 L637 720 L638 720 L639 720 L640 720 L641 720 L642 720 L643 720 L644 720 L645 720 L646 720 L647 720 L648 720 L649 720 L650 720 L651 720 L652 720 L653 720 L654 720 L655 720 L656 720 L657 720 L658 720 L659 720 L660 720 L661 720 L662 720 L663 720 L664 720 L665 720 L666 720 L667 720 L668 720 L669 720 L670 720 L671 720 L672 720 L673 720 L674 720 L675 720 L676 720 L677 720 L678 720 L679 720 L680 720 L681 720 L682 720 L683 720 L684 720 L685 720 L686 720 L687 720 L688 720 L689 720 L690 720 L691 720 L692 720 L693 720 L694 720 L695 720 L696 720 L697 720 L698 720 L699 720 L700 800  Z" stroke = "#000000" stroke-width = "1" fill = "#9f876780" />
</svg>