<svg width="800" height="800" viewbox = "0 0 800 800"  xmlns="http://www.w3.org/2000/svg">
 <path d = "M0 800 L1 477.17647058823525 L2 513.8823529411765 L3 576 L4 451.7647058823529 L5 327.5294117647059 L6 296.4705882352941 L7 307.764705882353 L8 268.2352941176471 L9 231.52941176470586 L10 248.4705882352941 L11 302.1176470588235 L12 321.88235294117646 L13 310.5882352941177 L14 310.5882352941177 L15 285.1764705882353 L16 251.29411764705878 L17 240 L18 242.8235294117647 L19 240 L20 268.2352941176471 L21 313.4117647058824 L22 361.4117647058823 L23 338.8235294117647 L24 313.4117647058824 L25 285.1764705882353 L26 282.3529411764706 L27 299.2941176470588 L28 321.88235294117646 L29 352.9411764705883 L30 400.94117647058823 L31 437.6470588235294 L32 457.4117647058824 L33 437.6470588235294 L34 420.70588235294116 L35 415.05882352941177 L36 446.11764705882354 L37 508.2352941176471 L38 494.11764705882354 L39 480 L40 463.05882352941177 L41 465.88235294117646 L42 468.7058823529412 L43 440.4705882352941 L44 420.70588235294116 L45 420.70588235294116 L46 412.2352941176471 L47 429.1764705882353 L48 440.4705882352941 L49 415.05882352941177 L50 460.2352941176471 L51 488.4705882352941 L52 480 L53 477.17647058823525 L54 477.17647058823525 L55 482.8235294117647 L56 448.94117647058823 L57 412.2352941176471 L58 409.4117647058823 L59 409.4117647058823 L60 375.52941176470586 L61 333.1764705882353 L62 327.5294117647059 L63 355.7647058823529 L64 389.64705882352945 L65 361.4117647058823 L66 341.6470588235294 L67 341.6470588235294 L68 361.4117647058823 L69 369.88235294117646 L70 378.3529411764706 L71 468.7058823529412 L72 437.6470588235294 L73 451.7647058823529 L74 463.05882352941177 L75 499.7647058823529 L76 544.9411764705883 L77 598.5882352941177 L78 638.1176470588235 L79 624 L80 615.5294117647059 L81 607.0588235294117 L82 640.9411764705883 L83 652.2352941176471 L84 626.8235294117646 L85 632.4705882352941 L86 652.2352941176471 L87 674.8235294117648 L88 680.4705882352941 L89 677.6470588235294 L90 660.7058823529412 L91 652.2352941176471 L92 657.8823529411765 L93 657.8823529411765 L94 691.7647058823529 L95 720 L96 714.3529411764706 L97 720 L98 720 L99 720 L100 714.3529411764706 L101 720 L102 720 L103 720 L104 720 L105 688.9411764705883 L106 660.7058823529412 L107 686.1176470588235 L108 720 L109 720 L110 720 L111 720 L112 720 L113 720 L114 720 L115 720 L116 720 L117 720 L118 720 L119 683.2941176470588 L120 688.9411764705883 L121 655.0588235294117 L122 618.3529411764706 L123 587.2941176470588 L124 564.7058823529412 L125 578.8235294117646 L126 618.3529411764706 L127 624 L128 632.4705882352941 L129 640.9411764705883 L130 629.6470588235294 L131 655.0588235294117 L132 703.0588235294117 L133 705.8823529411765 L134 700.2352941176471 L135 720 L136 720 L137 720 L138 720 L139 717.1764705882352 L140 714.3529411764706 L141 720 L142 720 L143 720 L144 720 L145 720 L146 720 L147 720 L148 720 L149 720 L150 720 L151 720 L152 720 L153 720 L154 720 L155 720 L156 720 L157 720 L158 720 L159 720 L160 720 L161 720 L162 720 L163 720 L164 720 L165 720 L166 720 L167 720 L168 720 L169 720 L170 720 L171 720 L172 697.4117647058823 L173 714.3529411764706 L174 720 L175 720 L176 703.0588235294117 L177 705.8823529411765 L178 703.0588235294117 L179 691.7647058823529 L180 674.8235294117648 L181 660.7058823529412 L182 677.6470588235294 L183 720 L184 720 L185 720 L186 714.3529411764706 L187 669.1764705882352 L188 655.0588235294117 L189 663.5294117647059 L190 688.9411764705883 L191 720 L192 720 L193 708.7058823529412 L194 672 L195 672 L196 720 L197 700.2352941176471 L198 674.8235294117648 L199 669.1764705882352 L200 691.7647058823529 L201 688.9411764705883 L202 694.5882352941177 L203 720 L204 694.5882352941177 L205 697.4117647058823 L206 677.6470588235294 L207 669.1764705882352 L208 697.4117647058823 L209 720 L210 720 L211 720 L212 720 L213 720 L214 720 L215 720 L216 720 L217 720 L218 720 L219 720 L220 711.5294117647059 L221 711.5294117647059 L222 720 L223 720 L224 720 L225 720 L226 720 L227 720 L228 720 L229 720 L230 720 L231 720 L232 720 L233 720 L234 720 L235 720 L236 720 L237 720 L238 720 L239 720 L240 720 L241 720 L242 720 L243 720 L244 720 L245 720 L246 720 L247 720 L248 720 L249 720 L250 720 L251 720 L252 720 L253 714.3529411764706 L254 691.7647058823529 L255 697.4117647058823 L256 720 L257 720 L258 720 L259 720 L260 720 L261 720 L262 720 L263 720 L264 720 L265 720 L266 720 L267 720 L268 720 L269 720 L270 720 L271 711.5294117647059 L272 711.5294117647059 L273 688.9411764705883 L274 680.4705882352941 L275 717.1764705882352 L276 714.3529411764706 L277 700.2352941176471 L278 688.9411764705883 L279 720 L280 720 L281 720 L282 720 L283 720 L284 720 L285 720 L286 720 L287 720 L288 720 L289 700.2352941176471 L290 703.0588235294117 L291 720 L292 720 L293 720 L294 720 L295 720 L296 720 L297 720 L298 720 L299 720 L300 720 L301 720 L302 720 L303 720 L304 720 L305 720 L306 720 L307 720 L308 720 L309 720 L310 720 L311 720 L312 720 L313 720 L314 720 L315 720 L316 720 L317 720 L318 720 L319 720 L320 720 L321 700.2352941176471 L322 705.8823529411765 L323 720 L324 720 L325 720 L326 720 L327 720 L328 720 L329 720 L330 720 L331 720 L332 720 L333 717.1764705882352 L334 694.5882352941177 L335 688.9411764705883 L336 705.8823529411765 L337 720 L338 720 L339 720 L340 720 L341 720 L342 720 L343 720 L344 720 L345 720 L346 717.1764705882352 L347 694.5882352941177 L348 666.3529411764706 L349 660.7058823529412 L350 686.1176470588235 L351 720 L352 720 L353 720 L354 720 L355 720 L356 720 L357 720 L358 720 L359 691.7647058823529 L360 700.2352941176471 L361 720 L362 720 L363 720 L364 708.7058823529412 L365 705.8823529411765 L366 720 L367 720 L368 705.8823529411765 L369 697.4117647058823 L370 691.7647058823529 L371 694.5882352941177 L372 717.1764705882352 L373 720 L374 672 L375 635.2941176470588 L376 643.7647058823529 L377 677.6470588235294 L378 688.9411764705883 L379 714.3529411764706 L380 686.1176470588235 L381 674.8235294117648 L382 691.7647058823529 L383 672 L384 686.1176470588235 L385 694.5882352941177 L386 697.4117647058823 L387 660.7058823529412 L388 646.5882352941177 L389 660.7058823529412 L390 688.9411764705883 L391 720 L392 705.8823529411765 L393 708.7058823529412 L394 708.7058823529412 L395 700.2352941176471 L396 700.2352941176471 L397 711.5294117647059 L398 720 L399 688.9411764705883 L400 655.0588235294117 L401 669.1764705882352 L402 694.5882352941177 L403 697.4117647058823 L404 674.8235294117648 L405 674.8235294117648 L406 691.7647058823529 L407 720 L408 720 L409 720 L410 711.5294117647059 L411 705.8823529411765 L412 720 L413 720 L414 720 L415 705.8823529411765 L416 697.4117647058823 L417 705.8823529411765 L418 720 L419 720 L420 720 L421 720 L422 720 L423 720 L424 720 L425 720 L426 720 L427 720 L428 714.3529411764706 L429 700.2352941176471 L430 720 L431 720 L432 714.3529411764706 L433 720 L434 720 L435 691.7647058823529 L436 705.8823529411765 L437 708.7058823529412 L438 677.6470588235294 L439 677.6470588235294 L440 705.8823529411765 L441 672 L442 657.8823529411765 L443 677.6470588235294 L444 720 L445 717.1764705882352 L446 714.3529411764706 L447 720 L448 720 L449 720 L450 720 L451 720 L452 720 L453 720 L454 720 L455 720 L456 720 L457 720 L458 720 L459 720 L460 720 L461 720 L462 720 L463 720 L464 720 L465 720 L466 720 L467 720 L468 720 L469 720 L470 720 L471 720 L472 720 L473 720 L474 720 L475 720 L476 720 L477 720 L478 720 L479 720 L480 720 L481 720 L482 720 L483 720 L484 720 L485 720 L486 720 L487 720 L488 720 L489 720 L490 720 L491 720 L492 720 L493 720 L494 720 L495 720 L496 720 L497 720 L498 720 L499 720 L500 720 L501 720 L502 720 L503 720 L504 720 L505 720 L506 720 L507 720 L508 700.2352941176471 L509 688.9411764705883 L510 697.4117647058823 L511 686.1176470588235 L512 686.1176470588235 L513 691.7647058823529 L514 686.1176470588235 L515 720 L516 705.8823529411765 L517 686.1176470588235 L518 705.8823529411765 L519 686.1176470588235 L520 666.3529411764706 L521 655.0588235294117 L522 638.1176470588235 L523 643.7647058823529 L524 660.7058823529412 L525 688.9411764705883 L526 711.5294117647059 L527 720 L528 720 L529 720 L530 720 L531 720 L532 720 L533 720 L534 720 L535 720 L536 720 L537 720 L538 720 L539 720 L540 720 L541 720 L542 720 L543 720 L544 720 L545 697.4117647058823 L546 686.1176470588235 L547 700.2352941176471 L548 717.1764705882352 L549 720 L550 720 L551 703.0588235294117 L552 720 L553 720 L554 720 L555 720 L556 720 L557 720 L558 720 L559 720 L560 720 L561 720 L562 720 L563 720 L564 720 L565 720 L566 720 L567 720 L568 720 L569 720 L570 720 L571 720 L572 720 L573 720 L574 720 L575 720 L576 720 L577 720 L578 720 L579 720 L580 720 L581 720 L582 720 L583 720 L584 720 L585 720 L586 720 L587 720 L588 720 L589 720 L590 720 L591 720 L592 720 L593 720 L594 720 L595 720 L596 720 L597 720 L598 720 L599 720 L600 720 L601 720 L602 720 L603 720 L604 720 L605 714.3529411764706 L606 700.2352941176471 L607 694.5882352941177 L608 720 L609 720 L610 720 L611 720 L612 720 L613 720 L614 720 L615 720 L616 720 L617 708.7058823529412 L618 720 L619 720 L620 720 L621 717.1764705882352 L622 691.7647058823529 L623 677.6470588235294 L624 686.1176470588235 L625 720 L626 720 L627 720 L628 703.0588235294117 L629 705.8823529411765 L630 717.1764705882352 L631 720 L632 720 L633 720 L634 720 L635 720 L636 720 L637 720 L638 720 L639 720 L640 720 L641 720 L642 720 L643 720 L644 720 L645 720 L646 720 L647 720 L648 720 L649 720 L650 720 L651 720 L652 720 L653 720 L654 720 L655 720 L656 720 L657 720 L658 720 L659 720 L660 720 L661 720 L662 720 L663 720 L664 720 L665 720 L666 720 L667 720 L668 720 L669 720 L670 720 L671 720 L672 720 L673 720 L674 720 L675 720 L676 720 L677 720 L678 720 L679 720 L680 720 L681 720 L682 720 L683 720 L684 720 L685 720 L686 720 L687 720 L688 720 L689 720 L690 720 L691 720 L692 720 L693 720 L694 720 L695 720 L696 720 L697 720 L698 720 L699 720 L700 800  Z" stroke = "#000000" stroke-width = "1" fill = "#9f876780" />
</svg>