<svg width="800" height="800" viewbox = "0 0 800 800"  xmlns="http://www.w3.org/2000/svg">
 <path d = "M0 800 L1 556.2352941176471 L2 578.8235294117646 L3 652.2352941176471 L4 578.8235294117646 L5 505.4117647058823 L6 491.29411764705884 L7 513.8823529411765 L8 482.8235294117647 L9 423.5294117647059 L10 437.6470588235294 L11 522.3529411764706 L12 550.5882352941177 L13 553.4117647058823 L14 595.7647058823529 L15 584.4705882352941 L16 559.0588235294117 L17 561.8823529411765 L18 544.9411764705883 L19 542.1176470588235 L20 547.7647058823529 L21 556.2352941176471 L22 559.0588235294117 L23 609.8823529411765 L24 570.3529411764706 L25 511.0588235294117 L26 474.3529411764706 L27 465.88235294117646 L28 437.6470588235294 L29 454.5882352941176 L30 494.11764705882354 L31 499.7647058823529 L32 499.7647058823529 L33 522.3529411764706 L34 573.1764705882354 L35 556.2352941176471 L36 556.2352941176471 L37 573.1764705882354 L38 581.6470588235294 L39 604.2352941176471 L40 587.2941176470588 L41 564.7058823529412 L42 544.9411764705883 L43 533.6470588235294 L44 539.2941176470588 L45 496.94117647058823 L46 488.4705882352941 L47 553.4117647058823 L48 573.1764705882354 L49 573.1764705882354 L50 576 L51 615.5294117647059 L52 612.7058823529412 L53 544.9411764705883 L54 508.2352941176471 L55 482.8235294117647 L56 482.8235294117647 L57 496.94117647058823 L58 516.7058823529412 L59 525.1764705882354 L60 522.3529411764706 L61 513.8823529411765 L62 522.3529411764706 L63 542.1176470588235 L64 525.1764705882354 L65 513.8823529411765 L66 544.9411764705883 L67 592.9411764705883 L68 601.4117647058823 L69 621.1764705882352 L70 621.1764705882352 L71 604.2352941176471 L72 590.1176470588235 L73 643.7647058823529 L74 587.2941176470588 L75 587.2941176470588 L76 629.6470588235294 L77 621.1764705882352 L78 601.4117647058823 L79 604.2352941176471 L80 595.7647058823529 L81 604.2352941176471 L82 632.4705882352941 L83 612.7058823529412 L84 618.3529411764706 L85 609.8823529411765 L86 609.8823529411765 L87 612.7058823529412 L88 581.6470588235294 L89 550.5882352941177 L90 533.6470588235294 L91 533.6470588235294 L92 547.7647058823529 L93 530.8235294117646 L94 587.2941176470588 L95 609.8823529411765 L96 604.2352941176471 L97 635.2941176470588 L98 686.1176470588235 L99 683.2941176470588 L100 626.8235294117646 L101 604.2352941176471 L102 578.8235294117646 L103 598.5882352941177 L104 626.8235294117646 L105 677.6470588235294 L106 663.5294117647059 L107 649.4117647058823 L108 640.9411764705883 L109 666.3529411764706 L110 655.0588235294117 L111 640.9411764705883 L112 640.9411764705883 L113 663.5294117647059 L114 720 L115 708.7058823529412 L116 720 L117 720 L118 720 L119 720 L120 720 L121 720 L122 720 L123 720 L124 708.7058823529412 L125 697.4117647058823 L126 694.5882352941177 L127 683.2941176470588 L128 674.8235294117648 L129 666.3529411764706 L130 666.3529411764706 L131 674.8235294117648 L132 694.5882352941177 L133 714.3529411764706 L134 700.2352941176471 L135 691.7647058823529 L136 720 L137 720 L138 720 L139 720 L140 720 L141 720 L142 720 L143 720 L144 720 L145 720 L146 720 L147 708.7058823529412 L148 705.8823529411765 L149 674.8235294117648 L150 674.8235294117648 L151 703.0588235294117 L152 714.3529411764706 L153 714.3529411764706 L154 720 L155 714.3529411764706 L156 697.4117647058823 L157 680.4705882352941 L158 677.6470588235294 L159 703.0588235294117 L160 703.0588235294117 L161 691.7647058823529 L162 720 L163 714.3529411764706 L164 720 L165 652.2352941176471 L166 629.6470588235294 L167 635.2941176470588 L168 657.8823529411765 L169 720 L170 638.1176470588235 L171 576 L172 556.2352941176471 L173 564.7058823529412 L174 576 L175 567.5294117647059 L176 547.7647058823529 L177 528 L178 522.3529411764706 L179 522.3529411764706 L180 516.7058823529412 L181 494.11764705882354 L182 499.7647058823529 L183 547.7647058823529 L184 626.8235294117646 L185 615.5294117647059 L186 578.8235294117646 L187 511.0588235294117 L188 477.17647058823525 L189 477.17647058823525 L190 516.7058823529412 L191 672 L192 536.4705882352941 L193 508.2352941176471 L194 491.29411764705884 L195 494.11764705882354 L196 522.3529411764706 L197 525.1764705882354 L198 496.94117647058823 L199 480 L200 494.11764705882354 L201 505.4117647058823 L202 530.8235294117646 L203 615.5294117647059 L204 513.8823529411765 L205 502.5882352941177 L206 482.8235294117647 L207 494.11764705882354 L208 536.4705882352941 L209 553.4117647058823 L210 556.2352941176471 L211 564.7058823529412 L212 598.5882352941177 L213 609.8823529411765 L214 567.5294117647059 L215 553.4117647058823 L216 561.8823529411765 L217 573.1764705882354 L218 609.8823529411765 L219 581.6470588235294 L220 522.3529411764706 L221 513.8823529411765 L222 553.4117647058823 L223 598.5882352941177 L224 578.8235294117646 L225 607.0588235294117 L226 626.8235294117646 L227 657.8823529411765 L228 646.5882352941177 L229 626.8235294117646 L230 592.9411764705883 L231 581.6470588235294 L232 576 L233 544.9411764705883 L234 576 L235 674.8235294117648 L236 598.5882352941177 L237 578.8235294117646 L238 590.1176470588235 L239 581.6470588235294 L240 564.7058823529412 L241 576 L242 618.3529411764706 L243 660.7058823529412 L244 649.4117647058823 L245 640.9411764705883 L246 646.5882352941177 L247 638.1176470588235 L248 601.4117647058823 L249 601.4117647058823 L250 646.5882352941177 L251 640.9411764705883 L252 584.4705882352941 L253 542.1176470588235 L254 522.3529411764706 L255 525.1764705882354 L256 547.7647058823529 L257 550.5882352941177 L258 567.5294117647059 L259 598.5882352941177 L260 581.6470588235294 L261 576 L262 584.4705882352941 L263 584.4705882352941 L264 570.3529411764706 L265 587.2941176470588 L266 615.5294117647059 L267 652.2352941176471 L268 612.7058823529412 L269 601.4117647058823 L270 561.8823529411765 L271 528 L272 522.3529411764706 L273 516.7058823529412 L274 502.5882352941177 L275 528 L276 533.6470588235294 L277 513.8823529411765 L278 502.5882352941177 L279 536.4705882352941 L280 559.0588235294117 L281 561.8823529411765 L282 595.7647058823529 L283 559.0588235294117 L284 559.0588235294117 L285 649.4117647058823 L286 573.1764705882354 L287 567.5294117647059 L288 570.3529411764706 L289 513.8823529411765 L290 516.7058823529412 L291 570.3529411764706 L292 646.5882352941177 L293 581.6470588235294 L294 573.1764705882354 L295 601.4117647058823 L296 618.3529411764706 L297 629.6470588235294 L298 590.1176470588235 L299 576 L300 587.2941176470588 L301 629.6470588235294 L302 621.1764705882352 L303 584.4705882352941 L304 570.3529411764706 L305 553.4117647058823 L306 553.4117647058823 L307 564.7058823529412 L308 544.9411764705883 L309 528 L310 539.2941176470588 L311 547.7647058823529 L312 539.2941176470588 L313 553.4117647058823 L314 595.7647058823529 L315 604.2352941176471 L316 581.6470588235294 L317 559.0588235294117 L318 590.1176470588235 L319 607.0588235294117 L320 561.8823529411765 L321 528 L322 528 L323 556.2352941176471 L324 570.3529411764706 L325 573.1764705882354 L326 570.3529411764706 L327 598.5882352941177 L328 663.5294117647059 L329 595.7647058823529 L330 607.0588235294117 L331 607.0588235294117 L332 581.6470588235294 L333 550.5882352941177 L334 533.6470588235294 L335 536.4705882352941 L336 550.5882352941177 L337 584.4705882352941 L338 626.8235294117646 L339 621.1764705882352 L340 598.5882352941177 L341 604.2352941176471 L342 672 L343 640.9411764705883 L344 609.8823529411765 L345 592.9411764705883 L346 553.4117647058823 L347 513.8823529411765 L348 496.94117647058823 L349 496.94117647058823 L350 513.8823529411765 L351 547.7647058823529 L352 595.7647058823529 L353 643.7647058823529 L354 680.4705882352941 L355 635.2941176470588 L356 592.9411764705883 L357 592.9411764705883 L358 601.4117647058823 L359 581.6470588235294 L360 581.6470588235294 L361 618.3529411764706 L362 657.8823529411765 L363 643.7647058823529 L364 581.6470588235294 L365 590.1176470588235 L366 666.3529411764706 L367 626.8235294117646 L368 553.4117647058823 L369 533.6470588235294 L370 539.2941176470588 L371 553.4117647058823 L372 584.4705882352941 L373 669.1764705882352 L374 542.1176470588235 L375 496.94117647058823 L376 502.5882352941177 L377 553.4117647058823 L378 570.3529411764706 L379 578.8235294117646 L380 561.8823529411765 L381 576 L382 612.7058823529412 L383 601.4117647058823 L384 587.2941176470588 L385 592.9411764705883 L386 640.9411764705883 L387 530.8235294117646 L388 499.7647058823529 L389 508.2352941176471 L390 525.1764705882354 L391 564.7058823529412 L392 590.1176470588235 L393 660.7058823529412 L394 612.7058823529412 L395 621.1764705882352 L396 590.1176470588235 L397 609.8823529411765 L398 584.4705882352941 L399 559.0588235294117 L400 553.4117647058823 L401 598.5882352941177 L402 567.5294117647059 L403 595.7647058823529 L404 570.3529411764706 L405 584.4705882352941 L406 649.4117647058823 L407 621.1764705882352 L408 607.0588235294117 L409 595.7647058823529 L410 559.0588235294117 L411 547.7647058823529 L412 598.5882352941177 L413 612.7058823529412 L414 581.6470588235294 L415 573.1764705882354 L416 561.8823529411765 L417 570.3529411764706 L418 626.8235294117646 L419 643.7647058823529 L420 604.2352941176471 L421 609.8823529411765 L422 609.8823529411765 L423 587.2941176470588 L424 615.5294117647059 L425 632.4705882352941 L426 640.9411764705883 L427 629.6470588235294 L428 581.6470588235294 L429 559.0588235294117 L430 578.8235294117646 L431 590.1176470588235 L432 578.8235294117646 L433 612.7058823529412 L434 595.7647058823529 L435 576 L436 624 L437 601.4117647058823 L438 578.8235294117646 L439 604.2352941176471 L440 649.4117647058823 L441 612.7058823529412 L442 592.9411764705883 L443 595.7647058823529 L444 652.2352941176471 L445 714.3529411764706 L446 720 L447 672 L448 649.4117647058823 L449 700.2352941176471 L450 652.2352941176471 L451 646.5882352941177 L452 635.2941176470588 L453 612.7058823529412 L454 609.8823529411765 L455 624 L456 629.6470588235294 L457 652.2352941176471 L458 649.4117647058823 L459 638.1176470588235 L460 643.7647058823529 L461 643.7647058823529 L462 657.8823529411765 L463 680.4705882352941 L464 655.0588235294117 L465 652.2352941176471 L466 663.5294117647059 L467 655.0588235294117 L468 646.5882352941177 L469 660.7058823529412 L470 669.1764705882352 L471 720 L472 624 L473 587.2941176470588 L474 595.7647058823529 L475 626.8235294117646 L476 643.7647058823529 L477 652.2352941176471 L478 703.0588235294117 L479 714.3529411764706 L480 674.8235294117648 L481 652.2352941176471 L482 655.0588235294117 L483 657.8823529411765 L484 666.3529411764706 L485 674.8235294117648 L486 700.2352941176471 L487 649.4117647058823 L488 618.3529411764706 L489 629.6470588235294 L490 612.7058823529412 L491 584.4705882352941 L492 578.8235294117646 L493 559.0588235294117 L494 547.7647058823529 L495 550.5882352941177 L496 564.7058823529412 L497 592.9411764705883 L498 632.4705882352941 L499 640.9411764705883 L500 626.8235294117646 L501 655.0588235294117 L502 666.3529411764706 L503 672 L504 635.2941176470588 L505 612.7058823529412 L506 609.8823529411765 L507 573.1764705882354 L508 528 L509 516.7058823529412 L510 533.6470588235294 L511 550.5882352941177 L512 561.8823529411765 L513 581.6470588235294 L514 592.9411764705883 L515 587.2941176470588 L516 581.6470588235294 L517 590.1176470588235 L518 607.0588235294117 L519 592.9411764705883 L520 604.2352941176471 L521 612.7058823529412 L522 570.3529411764706 L523 542.1176470588235 L524 542.1176470588235 L525 561.8823529411765 L526 598.5882352941177 L527 626.8235294117646 L528 652.2352941176471 L529 657.8823529411765 L530 680.4705882352941 L531 694.5882352941177 L532 688.9411764705883 L533 674.8235294117648 L534 688.9411764705883 L535 720 L536 720 L537 720 L538 720 L539 686.1176470588235 L540 677.6470588235294 L541 683.2941176470588 L542 720 L543 714.3529411764706 L544 683.2941176470588 L545 652.2352941176471 L546 646.5882352941177 L547 666.3529411764706 L548 672 L549 720 L550 720 L551 708.7058823529412 L552 705.8823529411765 L553 720 L554 720 L555 720 L556 720 L557 720 L558 720 L559 720 L560 720 L561 720 L562 720 L563 720 L564 720 L565 720 L566 720 L567 720 L568 720 L569 720 L570 720 L571 720 L572 720 L573 717.1764705882352 L574 720 L575 720 L576 720 L577 711.5294117647059 L578 720 L579 720 L580 703.0588235294117 L581 720 L582 720 L583 683.2941176470588 L584 680.4705882352941 L585 705.8823529411765 L586 714.3529411764706 L587 720 L588 720 L589 680.4705882352941 L590 669.1764705882352 L591 700.2352941176471 L592 711.5294117647059 L593 720 L594 720 L595 691.7647058823529 L596 694.5882352941177 L597 677.6470588235294 L598 655.0588235294117 L599 674.8235294117648 L600 694.5882352941177 L601 677.6470588235294 L602 703.0588235294117 L603 720 L604 688.9411764705883 L605 708.7058823529412 L606 720 L607 720 L608 720 L609 720 L610 720 L611 720 L612 720 L613 720 L614 694.5882352941177 L615 663.5294117647059 L616 652.2352941176471 L617 652.2352941176471 L618 686.1176470588235 L619 720 L620 720 L621 717.1764705882352 L622 720 L623 720 L624 686.1176470588235 L625 688.9411764705883 L626 720 L627 720 L628 720 L629 720 L630 720 L631 720 L632 720 L633 720 L634 720 L635 720 L636 720 L637 720 L638 720 L639 720 L640 720 L641 720 L642 720 L643 720 L644 720 L645 720 L646 720 L647 720 L648 720 L649 720 L650 720 L651 720 L652 720 L653 720 L654 720 L655 720 L656 720 L657 720 L658 720 L659 720 L660 720 L661 720 L662 720 L663 720 L664 720 L665 720 L666 720 L667 720 L668 720 L669 720 L670 720 L671 720 L672 720 L673 720 L674 720 L675 720 L676 720 L677 720 L678 720 L679 720 L680 720 L681 720 L682 720 L683 720 L684 720 L685 720 L686 720 L687 720 L688 720 L689 720 L690 720 L691 720 L692 720 L693 720 L694 720 L695 720 L696 720 L697 720 L698 720 L699 720 L700 800  Z" stroke = "#000000" stroke-width = "1" fill = "#9f876780" />
</svg>