<svg width="800" height="800" viewbox = "0 0 800 800"  xmlns="http://www.w3.org/2000/svg">
 <path d = "M0 800 L1 482.8235294117647 L2 494.11764705882354 L3 522.3529411764706 L4 389.64705882352945 L5 279.52941176470586 L6 251.29411764705878 L7 293.6470588235294 L8 279.52941176470586 L9 194.82352941176475 L10 166.58823529411757 L11 186.3529411764706 L12 234.35294117647055 L13 319.05882352941177 L14 369.88235294117646 L15 372.70588235294116 L16 327.5294117647059 L17 304.9411764705883 L18 316.2352941176471 L19 310.5882352941177 L20 316.2352941176471 L21 355.7647058823529 L22 367.05882352941177 L23 367.05882352941177 L24 361.4117647058823 L25 341.6470588235294 L26 341.6470588235294 L27 338.8235294117647 L28 341.6470588235294 L29 384 L30 429.1764705882353 L31 477.17647058823525 L32 539.2941176470588 L33 533.6470588235294 L34 525.1764705882354 L35 533.6470588235294 L36 564.7058823529412 L37 550.5882352941177 L38 511.0588235294117 L39 480 L40 471.52941176470586 L41 482.8235294117647 L42 502.5882352941177 L43 499.7647058823529 L44 499.7647058823529 L45 519.5294117647059 L46 525.1764705882354 L47 547.7647058823529 L48 576 L49 547.7647058823529 L50 578.8235294117646 L51 601.4117647058823 L52 595.7647058823529 L53 587.2941176470588 L54 587.2941176470588 L55 584.4705882352941 L56 553.4117647058823 L57 533.6470588235294 L58 542.1176470588235 L59 530.8235294117646 L60 491.29411764705884 L61 471.52941176470586 L62 468.7058823529412 L63 491.29411764705884 L64 494.11764705882354 L65 474.3529411764706 L66 480 L67 491.29411764705884 L68 516.7058823529412 L69 491.29411764705884 L70 491.29411764705884 L71 528 L72 533.6470588235294 L73 559.0588235294117 L74 556.2352941176471 L75 573.1764705882354 L76 615.5294117647059 L77 646.5882352941177 L78 666.3529411764706 L79 626.8235294117646 L80 561.8823529411765 L81 519.5294117647059 L82 474.3529411764706 L83 465.88235294117646 L84 463.05882352941177 L85 468.7058823529412 L86 477.17647058823525 L87 480 L88 448.94117647058823 L89 400.94117647058823 L90 369.88235294117646 L91 406.5882352941176 L92 412.2352941176471 L93 423.5294117647059 L94 423.5294117647059 L95 403.7647058823529 L96 403.7647058823529 L97 420.70588235294116 L98 432 L99 451.7647058823529 L100 429.1764705882353 L101 400.94117647058823 L102 415.05882352941177 L103 446.11764705882354 L104 465.88235294117646 L105 502.5882352941177 L106 474.3529411764706 L107 465.88235294117646 L108 420.70588235294116 L109 398.11764705882354 L110 448.94117647058823 L111 491.29411764705884 L112 465.88235294117646 L113 480 L114 448.94117647058823 L115 423.5294117647059 L116 454.5882352941176 L117 511.0588235294117 L118 528 L119 522.3529411764706 L120 488.4705882352941 L121 468.7058823529412 L122 496.94117647058823 L123 542.1176470588235 L124 516.7058823529412 L125 522.3529411764706 L126 496.94117647058823 L127 491.29411764705884 L128 519.5294117647059 L129 536.4705882352941 L130 528 L131 528 L132 511.0588235294117 L133 502.5882352941177 L134 491.29411764705884 L135 519.5294117647059 L136 542.1176470588235 L137 544.9411764705883 L138 522.3529411764706 L139 488.4705882352941 L140 482.8235294117647 L141 525.1764705882354 L142 542.1176470588235 L143 522.3529411764706 L144 556.2352941176471 L145 550.5882352941177 L146 570.3529411764706 L147 576 L148 519.5294117647059 L149 513.8823529411765 L150 539.2941176470588 L151 485.6470588235294 L152 471.52941176470586 L153 502.5882352941177 L154 508.2352941176471 L155 536.4705882352941 L156 621.1764705882352 L157 694.5882352941177 L158 714.3529411764706 L159 720 L160 720 L161 720 L162 720 L163 720 L164 720 L165 717.1764705882352 L166 700.2352941176471 L167 711.5294117647059 L168 720 L169 700.2352941176471 L170 683.2941176470588 L171 672 L172 688.9411764705883 L173 720 L174 717.1764705882352 L175 669.1764705882352 L176 657.8823529411765 L177 660.7058823529412 L178 652.2352941176471 L179 649.4117647058823 L180 643.7647058823529 L181 646.5882352941177 L182 683.2941176470588 L183 697.4117647058823 L184 694.5882352941177 L185 697.4117647058823 L186 674.8235294117648 L187 672 L188 677.6470588235294 L189 711.5294117647059 L190 720 L191 720 L192 720 L193 720 L194 720 L195 720 L196 720 L197 720 L198 720 L199 720 L200 720 L201 720 L202 720 L203 720 L204 720 L205 720 L206 720 L207 720 L208 720 L209 720 L210 720 L211 720 L212 720 L213 720 L214 720 L215 720 L216 720 L217 720 L218 720 L219 720 L220 720 L221 720 L222 720 L223 720 L224 720 L225 720 L226 720 L227 720 L228 720 L229 720 L230 720 L231 720 L232 720 L233 720 L234 720 L235 720 L236 720 L237 720 L238 720 L239 720 L240 720 L241 720 L242 703.0588235294117 L243 677.6470588235294 L244 672 L245 694.5882352941177 L246 720 L247 720 L248 720 L249 720 L250 720 L251 720 L252 720 L253 720 L254 717.1764705882352 L255 720 L256 720 L257 720 L258 720 L259 720 L260 720 L261 720 L262 720 L263 720 L264 720 L265 720 L266 720 L267 720 L268 720 L269 720 L270 720 L271 720 L272 720 L273 720 L274 720 L275 720 L276 720 L277 720 L278 720 L279 720 L280 720 L281 720 L282 720 L283 720 L284 720 L285 720 L286 720 L287 720 L288 720 L289 720 L290 720 L291 720 L292 720 L293 700.2352941176471 L294 700.2352941176471 L295 694.5882352941177 L296 660.7058823529412 L297 660.7058823529412 L298 669.1764705882352 L299 669.1764705882352 L300 677.6470588235294 L301 703.0588235294117 L302 720 L303 720 L304 720 L305 720 L306 720 L307 720 L308 720 L309 720 L310 720 L311 720 L312 720 L313 720 L314 720 L315 720 L316 720 L317 720 L318 720 L319 720 L320 720 L321 720 L322 720 L323 720 L324 720 L325 720 L326 720 L327 720 L328 720 L329 677.6470588235294 L330 677.6470588235294 L331 694.5882352941177 L332 705.8823529411765 L333 705.8823529411765 L334 720 L335 720 L336 720 L337 697.4117647058823 L338 700.2352941176471 L339 700.2352941176471 L340 720 L341 720 L342 720 L343 717.1764705882352 L344 691.7647058823529 L345 694.5882352941177 L346 717.1764705882352 L347 683.2941176470588 L348 660.7058823529412 L349 674.8235294117648 L350 677.6470588235294 L351 672 L352 688.9411764705883 L353 683.2941176470588 L354 680.4705882352941 L355 672 L356 649.4117647058823 L357 640.9411764705883 L358 640.9411764705883 L359 669.1764705882352 L360 683.2941176470588 L361 646.5882352941177 L362 601.4117647058823 L363 607.0588235294117 L364 612.7058823529412 L365 624 L366 672 L367 708.7058823529412 L368 683.2941176470588 L369 691.7647058823529 L370 711.5294117647059 L371 672 L372 660.7058823529412 L373 657.8823529411765 L374 646.5882352941177 L375 652.2352941176471 L376 666.3529411764706 L377 649.4117647058823 L378 640.9411764705883 L379 640.9411764705883 L380 649.4117647058823 L381 657.8823529411765 L382 646.5882352941177 L383 649.4117647058823 L384 669.1764705882352 L385 674.8235294117648 L386 688.9411764705883 L387 720 L388 720 L389 720 L390 720 L391 720 L392 720 L393 700.2352941176471 L394 674.8235294117648 L395 672 L396 683.2941176470588 L397 680.4705882352941 L398 705.8823529411765 L399 697.4117647058823 L400 688.9411764705883 L401 655.0588235294117 L402 618.3529411764706 L403 618.3529411764706 L404 655.0588235294117 L405 672 L406 677.6470588235294 L407 666.3529411764706 L408 672 L409 652.2352941176471 L410 657.8823529411765 L411 672 L412 677.6470588235294 L413 683.2941176470588 L414 703.0588235294117 L415 686.1176470588235 L416 657.8823529411765 L417 655.0588235294117 L418 646.5882352941177 L419 649.4117647058823 L420 652.2352941176471 L421 649.4117647058823 L422 626.8235294117646 L423 640.9411764705883 L424 669.1764705882352 L425 649.4117647058823 L426 657.8823529411765 L427 672 L428 663.5294117647059 L429 663.5294117647059 L430 663.5294117647059 L431 646.5882352941177 L432 646.5882352941177 L433 680.4705882352941 L434 655.0588235294117 L435 621.1764705882352 L436 638.1176470588235 L437 646.5882352941177 L438 635.2941176470588 L439 643.7647058823529 L440 649.4117647058823 L441 646.5882352941177 L442 652.2352941176471 L443 683.2941176470588 L444 669.1764705882352 L445 694.5882352941177 L446 705.8823529411765 L447 720 L448 720 L449 720 L450 720 L451 720 L452 720 L453 720 L454 720 L455 720 L456 720 L457 720 L458 720 L459 720 L460 720 L461 720 L462 720 L463 720 L464 720 L465 720 L466 720 L467 720 L468 720 L469 720 L470 720 L471 720 L472 720 L473 720 L474 720 L475 720 L476 720 L477 720 L478 720 L479 720 L480 720 L481 720 L482 720 L483 720 L484 720 L485 720 L486 720 L487 720 L488 720 L489 720 L490 720 L491 720 L492 720 L493 720 L494 720 L495 720 L496 720 L497 720 L498 720 L499 720 L500 720 L501 720 L502 720 L503 720 L504 720 L505 720 L506 720 L507 720 L508 720 L509 720 L510 720 L511 720 L512 720 L513 720 L514 720 L515 720 L516 714.3529411764706 L517 708.7058823529412 L518 720 L519 708.7058823529412 L520 714.3529411764706 L521 708.7058823529412 L522 697.4117647058823 L523 720 L524 720 L525 720 L526 720 L527 720 L528 714.3529411764706 L529 720 L530 720 L531 720 L532 720 L533 720 L534 720 L535 720 L536 720 L537 720 L538 720 L539 720 L540 720 L541 717.1764705882352 L542 720 L543 720 L544 711.5294117647059 L545 720 L546 720 L547 720 L548 720 L549 720 L550 720 L551 720 L552 720 L553 720 L554 720 L555 703.0588235294117 L556 720 L557 720 L558 720 L559 720 L560 720 L561 720 L562 720 L563 720 L564 720 L565 720 L566 720 L567 720 L568 720 L569 720 L570 720 L571 720 L572 720 L573 720 L574 720 L575 720 L576 720 L577 720 L578 720 L579 720 L580 720 L581 720 L582 720 L583 720 L584 720 L585 720 L586 720 L587 720 L588 720 L589 720 L590 720 L591 720 L592 720 L593 720 L594 720 L595 720 L596 720 L597 720 L598 720 L599 720 L600 720 L601 720 L602 720 L603 720 L604 720 L605 720 L606 720 L607 720 L608 720 L609 720 L610 720 L611 720 L612 720 L613 720 L614 720 L615 720 L616 720 L617 720 L618 720 L619 720 L620 720 L621 720 L622 720 L623 720 L624 720 L625 720 L626 720 L627 720 L628 720 L629 720 L630 720 L631 720 L632 720 L633 720 L634 720 L635 720 L636 720 L637 720 L638 720 L639 720 L640 720 L641 720 L642 720 L643 720 L644 720 L645 720 L646 720 L647 720 L648 720 L649 720 L650 720 L651 720 L652 720 L653 720 L654 720 L655 720 L656 720 L657 720 L658 720 L659 720 L660 720 L661 720 L662 720 L663 720 L664 720 L665 720 L666 720 L667 720 L668 720 L669 720 L670 720 L671 720 L672 720 L673 720 L674 720 L675 720 L676 720 L677 720 L678 720 L679 720 L680 720 L681 720 L682 720 L683 720 L684 720 L685 720 L686 720 L687 720 L688 720 L689 720 L690 720 L691 720 L692 720 L693 720 L694 720 L695 720 L696 720 L697 720 L698 720 L699 720 L700 800  Z" stroke = "#000000" stroke-width = "1" fill = "#9f876780" />
</svg>