<svg width="800" height="800" viewbox = "0 0 800 800"  xmlns="http://www.w3.org/2000/svg">
 <path d = "M0 800 L1 468.7058823529412 L2 491.29411764705884 L3 522.3529411764706 L4 330.3529411764706 L5 234.35294117647055 L6 223.05882352941177 L7 285.1764705882353 L8 310.5882352941177 L9 217.41176470588238 L10 163.76470588235293 L11 169.41176470588243 L12 225.88235294117646 L13 333.1764705882353 L14 398.11764705882354 L15 375.52941176470586 L16 333.1764705882353 L17 330.3529411764706 L18 352.9411764705883 L19 341.6470588235294 L20 330.3529411764706 L21 347.2941176470588 L22 369.88235294117646 L23 395.29411764705884 L24 389.64705882352945 L25 367.05882352941177 L26 344.4705882352941 L27 341.6470588235294 L28 367.05882352941177 L29 415.05882352941177 L30 457.4117647058824 L31 496.94117647058823 L32 547.7647058823529 L33 547.7647058823529 L34 553.4117647058823 L35 550.5882352941177 L36 559.0588235294117 L37 533.6470588235294 L38 505.4117647058823 L39 499.7647058823529 L40 474.3529411764706 L41 477.17647058823525 L42 505.4117647058823 L43 508.2352941176471 L44 511.0588235294117 L45 536.4705882352941 L46 550.5882352941177 L47 570.3529411764706 L48 592.9411764705883 L49 570.3529411764706 L50 601.4117647058823 L51 618.3529411764706 L52 621.1764705882352 L53 615.5294117647059 L54 607.0588235294117 L55 595.7647058823529 L56 573.1764705882354 L57 556.2352941176471 L58 564.7058823529412 L59 553.4117647058823 L60 528 L61 502.5882352941177 L62 496.94117647058823 L63 516.7058823529412 L64 513.8823529411765 L65 499.7647058823529 L66 499.7647058823529 L67 505.4117647058823 L68 528 L69 513.8823529411765 L70 522.3529411764706 L71 559.0588235294117 L72 553.4117647058823 L73 570.3529411764706 L74 576 L75 592.9411764705883 L76 632.4705882352941 L77 660.7058823529412 L78 669.1764705882352 L79 643.7647058823529 L80 573.1764705882354 L81 533.6470588235294 L82 502.5882352941177 L83 496.94117647058823 L84 485.6470588235294 L85 488.4705882352941 L86 496.94117647058823 L87 494.11764705882354 L88 460.2352941176471 L89 415.05882352941177 L90 392.47058823529414 L91 434.8235294117647 L92 446.11764705882354 L93 454.5882352941176 L94 451.7647058823529 L95 432 L96 432 L97 451.7647058823529 L98 451.7647058823529 L99 468.7058823529412 L100 460.2352941176471 L101 434.8235294117647 L102 454.5882352941176 L103 465.88235294117646 L104 477.17647058823525 L105 511.0588235294117 L106 499.7647058823529 L107 499.7647058823529 L108 457.4117647058824 L109 432 L110 482.8235294117647 L111 522.3529411764706 L112 499.7647058823529 L113 516.7058823529412 L114 482.8235294117647 L115 457.4117647058824 L116 488.4705882352941 L117 539.2941176470588 L118 559.0588235294117 L119 556.2352941176471 L120 525.1764705882354 L121 508.2352941176471 L122 533.6470588235294 L123 573.1764705882354 L124 550.5882352941177 L125 559.0588235294117 L126 536.4705882352941 L127 528 L128 550.5882352941177 L129 567.5294117647059 L130 564.7058823529412 L131 561.8823529411765 L132 544.9411764705883 L133 533.6470588235294 L134 522.3529411764706 L135 553.4117647058823 L136 578.8235294117646 L137 578.8235294117646 L138 556.2352941176471 L139 522.3529411764706 L140 513.8823529411765 L141 550.5882352941177 L142 561.8823529411765 L143 550.5882352941177 L144 570.3529411764706 L145 553.4117647058823 L146 567.5294117647059 L147 587.2941176470588 L148 544.9411764705883 L149 525.1764705882354 L150 533.6470588235294 L151 494.11764705882354 L152 480 L153 511.0588235294117 L154 530.8235294117646 L155 539.2941176470588 L156 615.5294117647059 L157 646.5882352941177 L158 655.0588235294117 L159 683.2941176470588 L160 720 L161 720 L162 720 L163 720 L164 720 L165 720 L166 720 L167 720 L168 720 L169 720 L170 717.1764705882352 L171 705.8823529411765 L172 720 L173 720 L174 720 L175 703.0588235294117 L176 691.7647058823529 L177 694.5882352941177 L178 688.9411764705883 L179 688.9411764705883 L180 683.2941176470588 L181 686.1176470588235 L182 720 L183 720 L184 720 L185 720 L186 714.3529411764706 L187 708.7058823529412 L188 717.1764705882352 L189 720 L190 720 L191 720 L192 720 L193 720 L194 720 L195 720 L196 720 L197 720 L198 720 L199 720 L200 720 L201 720 L202 720 L203 720 L204 720 L205 720 L206 720 L207 720 L208 720 L209 720 L210 720 L211 720 L212 720 L213 720 L214 720 L215 720 L216 720 L217 720 L218 720 L219 720 L220 720 L221 720 L222 720 L223 720 L224 720 L225 720 L226 720 L227 720 L228 720 L229 720 L230 720 L231 720 L232 720 L233 720 L234 720 L235 720 L236 720 L237 720 L238 720 L239 720 L240 720 L241 720 L242 720 L243 714.3529411764706 L244 705.8823529411765 L245 720 L246 720 L247 720 L248 720 L249 720 L250 720 L251 720 L252 720 L253 720 L254 720 L255 720 L256 720 L257 720 L258 720 L259 720 L260 720 L261 720 L262 720 L263 720 L264 720 L265 720 L266 720 L267 720 L268 720 L269 720 L270 720 L271 720 L272 720 L273 720 L274 720 L275 720 L276 720 L277 720 L278 720 L279 720 L280 720 L281 720 L282 720 L283 720 L284 720 L285 720 L286 720 L287 720 L288 720 L289 720 L290 720 L291 720 L292 720 L293 720 L294 720 L295 720 L296 697.4117647058823 L297 697.4117647058823 L298 705.8823529411765 L299 708.7058823529412 L300 717.1764705882352 L301 720 L302 720 L303 720 L304 720 L305 720 L306 720 L307 720 L308 720 L309 720 L310 720 L311 720 L312 720 L313 720 L314 720 L315 720 L316 720 L317 720 L318 720 L319 720 L320 720 L321 720 L322 720 L323 720 L324 720 L325 720 L326 720 L327 720 L328 720 L329 714.3529411764706 L330 714.3529411764706 L331 720 L332 720 L333 720 L334 720 L335 720 L336 720 L337 720 L338 720 L339 720 L340 720 L341 720 L342 720 L343 720 L344 720 L345 720 L346 720 L347 720 L348 697.4117647058823 L349 711.5294117647059 L350 714.3529411764706 L351 708.7058823529412 L352 720 L353 717.1764705882352 L354 717.1764705882352 L355 708.7058823529412 L356 688.9411764705883 L357 680.4705882352941 L358 680.4705882352941 L359 703.0588235294117 L360 717.1764705882352 L361 683.2941176470588 L362 632.4705882352941 L363 640.9411764705883 L364 649.4117647058823 L365 657.8823529411765 L366 708.7058823529412 L367 720 L368 717.1764705882352 L369 720 L370 720 L371 705.8823529411765 L372 694.5882352941177 L373 691.7647058823529 L374 677.6470588235294 L375 686.1176470588235 L376 703.0588235294117 L377 688.9411764705883 L378 680.4705882352941 L379 677.6470588235294 L380 686.1176470588235 L381 697.4117647058823 L382 683.2941176470588 L383 686.1176470588235 L384 703.0588235294117 L385 708.7058823529412 L386 720 L387 720 L388 720 L389 720 L390 720 L391 720 L392 720 L393 720 L394 711.5294117647059 L395 705.8823529411765 L396 717.1764705882352 L397 714.3529411764706 L398 720 L399 720 L400 720 L401 694.5882352941177 L402 657.8823529411765 L403 655.0588235294117 L404 691.7647058823529 L405 708.7058823529412 L406 714.3529411764706 L407 703.0588235294117 L408 708.7058823529412 L409 688.9411764705883 L410 697.4117647058823 L411 708.7058823529412 L412 714.3529411764706 L413 720 L414 720 L415 720 L416 694.5882352941177 L417 694.5882352941177 L418 683.2941176470588 L419 686.1176470588235 L420 691.7647058823529 L421 688.9411764705883 L422 663.5294117647059 L423 677.6470588235294 L424 705.8823529411765 L425 686.1176470588235 L426 697.4117647058823 L427 708.7058823529412 L428 700.2352941176471 L429 703.0588235294117 L430 700.2352941176471 L431 686.1176470588235 L432 683.2941176470588 L433 717.1764705882352 L434 694.5882352941177 L435 657.8823529411765 L436 677.6470588235294 L437 683.2941176470588 L438 672 L439 677.6470588235294 L440 686.1176470588235 L441 683.2941176470588 L442 691.7647058823529 L443 720 L444 708.7058823529412 L445 720 L446 720 L447 720 L448 720 L449 720 L450 720 L451 720 L452 720 L453 720 L454 720 L455 720 L456 720 L457 720 L458 720 L459 720 L460 720 L461 720 L462 720 L463 720 L464 720 L465 720 L466 720 L467 720 L468 720 L469 720 L470 720 L471 720 L472 720 L473 720 L474 720 L475 720 L476 720 L477 720 L478 720 L479 720 L480 720 L481 720 L482 720 L483 720 L484 720 L485 720 L486 720 L487 720 L488 720 L489 720 L490 720 L491 720 L492 720 L493 720 L494 720 L495 720 L496 720 L497 720 L498 720 L499 720 L500 720 L501 720 L502 720 L503 720 L504 720 L505 720 L506 720 L507 720 L508 720 L509 720 L510 720 L511 720 L512 720 L513 720 L514 720 L515 720 L516 720 L517 720 L518 720 L519 720 L520 720 L521 720 L522 720 L523 720 L524 720 L525 720 L526 720 L527 720 L528 720 L529 720 L530 720 L531 720 L532 720 L533 720 L534 720 L535 720 L536 720 L537 720 L538 720 L539 720 L540 720 L541 720 L542 720 L543 720 L544 720 L545 720 L546 720 L547 720 L548 720 L549 720 L550 720 L551 720 L552 720 L553 720 L554 720 L555 720 L556 720 L557 720 L558 720 L559 720 L560 720 L561 720 L562 720 L563 720 L564 720 L565 720 L566 720 L567 720 L568 720 L569 720 L570 720 L571 720 L572 720 L573 720 L574 720 L575 720 L576 720 L577 720 L578 720 L579 720 L580 720 L581 720 L582 720 L583 720 L584 720 L585 720 L586 720 L587 720 L588 720 L589 720 L590 720 L591 720 L592 720 L593 720 L594 720 L595 720 L596 720 L597 720 L598 720 L599 720 L600 720 L601 720 L602 720 L603 720 L604 720 L605 720 L606 720 L607 720 L608 720 L609 720 L610 720 L611 720 L612 720 L613 720 L614 720 L615 720 L616 720 L617 720 L618 720 L619 720 L620 720 L621 720 L622 720 L623 720 L624 720 L625 720 L626 720 L627 720 L628 720 L629 720 L630 720 L631 720 L632 720 L633 720 L634 720 L635 720 L636 720 L637 720 L638 720 L639 720 L640 720 L641 720 L642 720 L643 720 L644 720 L645 720 L646 720 L647 720 L648 720 L649 720 L650 720 L651 720 L652 720 L653 720 L654 720 L655 720 L656 720 L657 720 L658 720 L659 720 L660 720 L661 720 L662 720 L663 720 L664 720 L665 720 L666 720 L667 720 L668 720 L669 720 L670 720 L671 720 L672 720 L673 720 L674 720 L675 720 L676 720 L677 720 L678 720 L679 720 L680 720 L681 720 L682 720 L683 720 L684 720 L685 720 L686 720 L687 720 L688 720 L689 720 L690 720 L691 720 L692 720 L693 720 L694 720 L695 720 L696 720 L697 720 L698 720 L699 720 L700 800  Z" stroke = "#000000" stroke-width = "1" fill = "#9f876780" />
</svg>