<svg width="800" height="800" viewbox = "0 0 800 800"  xmlns="http://www.w3.org/2000/svg">
 <path d = "M0 800 L1 465.88235294117646 L2 516.7058823529412 L3 578.8235294117646 L4 468.7058823529412 L5 338.8235294117647 L6 307.764705882353 L7 310.5882352941177 L8 251.29411764705878 L9 200.47058823529414 L10 203.29411764705878 L11 254.11764705882348 L12 313.4117647058824 L13 324.70588235294116 L14 330.3529411764706 L15 293.6470588235294 L16 256.9411764705882 L17 251.29411764705878 L18 248.4705882352941 L19 228.70588235294116 L20 254.11764705882348 L21 310.5882352941177 L22 369.88235294117646 L23 344.4705882352941 L24 327.5294117647059 L25 299.2941176470588 L26 290.8235294117647 L27 307.764705882353 L28 327.5294117647059 L29 344.4705882352941 L30 389.64705882352945 L31 443.2941176470588 L32 468.7058823529412 L33 448.94117647058823 L34 429.1764705882353 L35 423.5294117647059 L36 454.5882352941176 L37 519.5294117647059 L38 496.94117647058823 L39 482.8235294117647 L40 474.3529411764706 L41 474.3529411764706 L42 477.17647058823525 L43 457.4117647058824 L44 434.8235294117647 L45 432 L46 417.88235294117646 L47 437.6470588235294 L48 454.5882352941176 L49 423.5294117647059 L50 460.2352941176471 L51 474.3529411764706 L52 463.05882352941177 L53 463.05882352941177 L54 471.52941176470586 L55 491.29411764705884 L56 460.2352941176471 L57 420.70588235294116 L58 420.70588235294116 L59 426.3529411764706 L60 384 L61 333.1764705882353 L62 319.05882352941177 L63 352.9411764705883 L64 392.47058823529414 L65 358.5882352941177 L66 341.6470588235294 L67 341.6470588235294 L68 369.88235294117646 L69 355.7647058823529 L70 355.7647058823529 L71 423.5294117647059 L72 429.1764705882353 L73 454.5882352941176 L74 443.2941176470588 L75 485.6470588235294 L76 553.4117647058823 L77 587.2941176470588 L78 632.4705882352941 L79 581.6470588235294 L80 564.7058823529412 L81 573.1764705882354 L82 624 L83 655.0588235294117 L84 643.7647058823529 L85 638.1176470588235 L86 652.2352941176471 L87 677.6470588235294 L88 697.4117647058823 L89 680.4705882352941 L90 660.7058823529412 L91 660.7058823529412 L92 674.8235294117648 L93 677.6470588235294 L94 705.8823529411765 L95 720 L96 720 L97 720 L98 720 L99 720 L100 720 L101 720 L102 720 L103 720 L104 720 L105 708.7058823529412 L106 674.8235294117648 L107 697.4117647058823 L108 720 L109 720 L110 720 L111 720 L112 720 L113 720 L114 720 L115 720 L116 720 L117 720 L118 720 L119 697.4117647058823 L120 700.2352941176471 L121 669.1764705882352 L122 635.2941176470588 L123 604.2352941176471 L124 581.6470588235294 L125 595.7647058823529 L126 638.1176470588235 L127 640.9411764705883 L128 643.7647058823529 L129 643.7647058823529 L130 624 L131 646.5882352941177 L132 694.5882352941177 L133 694.5882352941177 L134 694.5882352941177 L135 720 L136 720 L137 720 L138 720 L139 688.9411764705883 L140 674.8235294117648 L141 708.7058823529412 L142 720 L143 720 L144 720 L145 720 L146 720 L147 720 L148 720 L149 720 L150 720 L151 720 L152 720 L153 720 L154 720 L155 720 L156 720 L157 720 L158 720 L159 720 L160 720 L161 720 L162 720 L163 720 L164 720 L165 720 L166 720 L167 720 L168 720 L169 720 L170 720 L171 720 L172 714.3529411764706 L173 720 L174 720 L175 720 L176 720 L177 720 L178 720 L179 708.7058823529412 L180 691.7647058823529 L181 677.6470588235294 L182 697.4117647058823 L183 720 L184 720 L185 720 L186 720 L187 688.9411764705883 L188 674.8235294117648 L189 680.4705882352941 L190 708.7058823529412 L191 720 L192 720 L193 720 L194 691.7647058823529 L195 691.7647058823529 L196 720 L197 720 L198 694.5882352941177 L199 688.9411764705883 L200 711.5294117647059 L201 708.7058823529412 L202 714.3529411764706 L203 720 L204 714.3529411764706 L205 717.1764705882352 L206 697.4117647058823 L207 688.9411764705883 L208 714.3529411764706 L209 720 L210 720 L211 720 L212 720 L213 720 L214 720 L215 720 L216 720 L217 720 L218 720 L219 720 L220 720 L221 720 L222 720 L223 720 L224 720 L225 720 L226 720 L227 720 L228 720 L229 720 L230 720 L231 720 L232 720 L233 720 L234 720 L235 720 L236 720 L237 720 L238 720 L239 720 L240 720 L241 720 L242 720 L243 720 L244 720 L245 720 L246 720 L247 720 L248 720 L249 720 L250 720 L251 720 L252 720 L253 720 L254 711.5294117647059 L255 717.1764705882352 L256 720 L257 720 L258 720 L259 720 L260 720 L261 720 L262 720 L263 720 L264 720 L265 720 L266 720 L267 720 L268 720 L269 720 L270 720 L271 720 L272 720 L273 708.7058823529412 L274 700.2352941176471 L275 720 L276 720 L277 720 L278 708.7058823529412 L279 720 L280 720 L281 720 L282 720 L283 720 L284 720 L285 720 L286 720 L287 720 L288 720 L289 720 L290 720 L291 720 L292 720 L293 720 L294 720 L295 720 L296 720 L297 720 L298 720 L299 720 L300 720 L301 720 L302 720 L303 720 L304 720 L305 720 L306 720 L307 720 L308 720 L309 720 L310 720 L311 720 L312 720 L313 720 L314 720 L315 720 L316 720 L317 720 L318 720 L319 720 L320 720 L321 717.1764705882352 L322 720 L323 720 L324 720 L325 720 L326 720 L327 720 L328 720 L329 720 L330 720 L331 720 L332 720 L333 720 L334 708.7058823529412 L335 700.2352941176471 L336 717.1764705882352 L337 720 L338 720 L339 720 L340 720 L341 720 L342 720 L343 720 L344 720 L345 720 L346 720 L347 714.3529411764706 L348 683.2941176470588 L349 680.4705882352941 L350 703.0588235294117 L351 720 L352 720 L353 720 L354 720 L355 720 L356 720 L357 720 L358 720 L359 700.2352941176471 L360 705.8823529411765 L361 720 L362 720 L363 720 L364 720 L365 717.1764705882352 L366 720 L367 720 L368 717.1764705882352 L369 705.8823529411765 L370 705.8823529411765 L371 711.5294117647059 L372 720 L373 720 L374 688.9411764705883 L375 655.0588235294117 L376 660.7058823529412 L377 691.7647058823529 L378 700.2352941176471 L379 720 L380 697.4117647058823 L381 686.1176470588235 L382 703.0588235294117 L383 688.9411764705883 L384 703.0588235294117 L385 711.5294117647059 L386 711.5294117647059 L387 672 L388 660.7058823529412 L389 674.8235294117648 L390 703.0588235294117 L391 720 L392 720 L393 720 L394 720 L395 711.5294117647059 L396 708.7058823529412 L397 720 L398 720 L399 688.9411764705883 L400 655.0588235294117 L401 666.3529411764706 L402 694.5882352941177 L403 688.9411764705883 L404 663.5294117647059 L405 669.1764705882352 L406 688.9411764705883 L407 720 L408 720 L409 720 L410 720 L411 717.1764705882352 L412 720 L413 720 L414 720 L415 717.1764705882352 L416 711.5294117647059 L417 720 L418 720 L419 720 L420 720 L421 720 L422 720 L423 720 L424 720 L425 720 L426 720 L427 720 L428 720 L429 708.7058823529412 L430 720 L431 720 L432 720 L433 720 L434 720 L435 703.0588235294117 L436 714.3529411764706 L437 717.1764705882352 L438 683.2941176470588 L439 677.6470588235294 L440 700.2352941176471 L441 680.4705882352941 L442 674.8235294117648 L443 691.7647058823529 L444 720 L445 720 L446 711.5294117647059 L447 720 L448 720 L449 720 L450 720 L451 720 L452 720 L453 720 L454 720 L455 720 L456 720 L457 720 L458 720 L459 720 L460 720 L461 720 L462 720 L463 720 L464 720 L465 720 L466 720 L467 720 L468 720 L469 720 L470 720 L471 720 L472 720 L473 720 L474 720 L475 720 L476 720 L477 720 L478 720 L479 720 L480 720 L481 720 L482 720 L483 720 L484 720 L485 720 L486 720 L487 720 L488 720 L489 720 L490 720 L491 720 L492 720 L493 720 L494 720 L495 720 L496 720 L497 720 L498 720 L499 720 L500 720 L501 720 L502 720 L503 720 L504 720 L505 720 L506 720 L507 720 L508 717.1764705882352 L509 703.0588235294117 L510 711.5294117647059 L511 686.1176470588235 L512 683.2941176470588 L513 703.0588235294117 L514 697.4117647058823 L515 720 L516 720 L517 694.5882352941177 L518 705.8823529411765 L519 688.9411764705883 L520 686.1176470588235 L521 655.0588235294117 L522 629.6470588235294 L523 643.7647058823529 L524 672 L525 697.4117647058823 L526 720 L527 720 L528 720 L529 720 L530 720 L531 720 L532 720 L533 720 L534 720 L535 720 L536 720 L537 720 L538 720 L539 720 L540 720 L541 720 L542 720 L543 720 L544 720 L545 697.4117647058823 L546 694.5882352941177 L547 714.3529411764706 L548 714.3529411764706 L549 717.1764705882352 L550 711.5294117647059 L551 686.1176470588235 L552 717.1764705882352 L553 720 L554 720 L555 720 L556 720 L557 720 L558 720 L559 720 L560 720 L561 720 L562 720 L563 720 L564 720 L565 720 L566 720 L567 720 L568 720 L569 720 L570 720 L571 720 L572 720 L573 720 L574 720 L575 720 L576 720 L577 720 L578 720 L579 720 L580 720 L581 720 L582 720 L583 720 L584 720 L585 720 L586 720 L587 720 L588 720 L589 720 L590 720 L591 720 L592 720 L593 720 L594 720 L595 720 L596 720 L597 720 L598 720 L599 720 L600 720 L601 720 L602 720 L603 720 L604 720 L605 720 L606 697.4117647058823 L607 691.7647058823529 L608 720 L609 720 L610 720 L611 720 L612 720 L613 720 L614 720 L615 720 L616 697.4117647058823 L617 686.1176470588235 L618 705.8823529411765 L619 703.0588235294117 L620 708.7058823529412 L621 720 L622 700.2352941176471 L623 677.6470588235294 L624 686.1176470588235 L625 720 L626 720 L627 703.0588235294117 L628 703.0588235294117 L629 720 L630 720 L631 720 L632 720 L633 720 L634 720 L635 720 L636 720 L637 720 L638 720 L639 720 L640 720 L641 720 L642 720 L643 720 L644 720 L645 720 L646 720 L647 720 L648 720 L649 720 L650 720 L651 720 L652 720 L653 720 L654 720 L655 720 L656 720 L657 720 L658 720 L659 720 L660 720 L661 720 L662 720 L663 720 L664 720 L665 720 L666 720 L667 720 L668 720 L669 720 L670 720 L671 720 L672 720 L673 720 L674 720 L675 720 L676 720 L677 720 L678 720 L679 720 L680 720 L681 720 L682 720 L683 720 L684 720 L685 720 L686 720 L687 720 L688 720 L689 720 L690 720 L691 720 L692 720 L693 720 L694 720 L695 720 L696 720 L697 720 L698 720 L699 720 L700 800  Z" stroke = "#000000" stroke-width = "1" fill = "#9f876780" />
</svg>