<svg width="800" height="800" viewbox = "0 0 800 800"  xmlns="http://www.w3.org/2000/svg">
 <path d = "M0 800 L1 683.2941176470588 L2 652.2352941176471 L3 652.2352941176471 L4 666.3529411764706 L5 640.9411764705883 L6 629.6470588235294 L7 666.3529411764706 L8 556.2352941176471 L9 511.0588235294117 L10 505.4117647058823 L11 536.4705882352941 L12 607.0588235294117 L13 635.2941176470588 L14 672 L15 652.2352941176471 L16 638.1176470588235 L17 694.5882352941177 L18 652.2352941176471 L19 643.7647058823529 L20 705.8823529411765 L21 720 L22 669.1764705882352 L23 660.7058823529412 L24 643.7647058823529 L25 612.7058823529412 L26 612.7058823529412 L27 629.6470588235294 L28 621.1764705882352 L29 592.9411764705883 L30 578.8235294117646 L31 584.4705882352941 L32 595.7647058823529 L33 618.3529411764706 L34 635.2941176470588 L35 612.7058823529412 L36 595.7647058823529 L37 612.7058823529412 L38 655.0588235294117 L39 672 L40 643.7647058823529 L41 626.8235294117646 L42 598.5882352941177 L43 581.6470588235294 L44 626.8235294117646 L45 626.8235294117646 L46 601.4117647058823 L47 626.8235294117646 L48 652.2352941176471 L49 632.4705882352941 L50 632.4705882352941 L51 655.0588235294117 L52 609.8823529411765 L53 553.4117647058823 L54 505.4117647058823 L55 496.94117647058823 L56 525.1764705882354 L57 542.1176470588235 L58 570.3529411764706 L59 612.7058823529412 L60 638.1176470588235 L61 601.4117647058823 L62 553.4117647058823 L63 547.7647058823529 L64 536.4705882352941 L65 536.4705882352941 L66 564.7058823529412 L67 609.8823529411765 L68 638.1176470588235 L69 624 L70 621.1764705882352 L71 638.1176470588235 L72 686.1176470588235 L73 703.0588235294117 L74 705.8823529411765 L75 618.3529411764706 L76 607.0588235294117 L77 621.1764705882352 L78 635.2941176470588 L79 657.8823529411765 L80 677.6470588235294 L81 694.5882352941177 L82 720 L83 720 L84 680.4705882352941 L85 632.4705882352941 L86 621.1764705882352 L87 652.2352941176471 L88 604.2352941176471 L89 561.8823529411765 L90 576 L91 567.5294117647059 L92 556.2352941176471 L93 590.1176470588235 L94 635.2941176470588 L95 626.8235294117646 L96 621.1764705882352 L97 652.2352941176471 L98 720 L99 683.2941176470588 L100 672 L101 669.1764705882352 L102 660.7058823529412 L103 626.8235294117646 L104 646.5882352941177 L105 708.7058823529412 L106 720 L107 720 L108 720 L109 720 L110 720 L111 720 L112 720 L113 720 L114 720 L115 720 L116 720 L117 720 L118 720 L119 720 L120 720 L121 720 L122 720 L123 720 L124 720 L125 720 L126 720 L127 720 L128 720 L129 720 L130 720 L131 720 L132 720 L133 720 L134 720 L135 720 L136 720 L137 720 L138 720 L139 720 L140 720 L141 720 L142 720 L143 720 L144 720 L145 720 L146 720 L147 720 L148 720 L149 720 L150 720 L151 720 L152 720 L153 720 L154 720 L155 720 L156 720 L157 720 L158 720 L159 720 L160 720 L161 720 L162 720 L163 720 L164 720 L165 720 L166 720 L167 720 L168 720 L169 720 L170 720 L171 720 L172 720 L173 720 L174 720 L175 720 L176 720 L177 720 L178 720 L179 720 L180 720 L181 720 L182 720 L183 720 L184 720 L185 720 L186 720 L187 720 L188 720 L189 720 L190 720 L191 720 L192 720 L193 720 L194 720 L195 720 L196 720 L197 720 L198 720 L199 720 L200 720 L201 720 L202 720 L203 720 L204 720 L205 720 L206 720 L207 720 L208 720 L209 720 L210 720 L211 720 L212 720 L213 720 L214 720 L215 720 L216 720 L217 720 L218 720 L219 720 L220 720 L221 720 L222 720 L223 720 L224 720 L225 720 L226 720 L227 720 L228 720 L229 720 L230 720 L231 720 L232 720 L233 720 L234 720 L235 720 L236 720 L237 720 L238 720 L239 720 L240 720 L241 720 L242 720 L243 720 L244 720 L245 720 L246 720 L247 720 L248 720 L249 720 L250 720 L251 720 L252 720 L253 720 L254 720 L255 720 L256 720 L257 720 L258 720 L259 720 L260 720 L261 720 L262 720 L263 720 L264 720 L265 720 L266 720 L267 720 L268 720 L269 720 L270 720 L271 720 L272 720 L273 720 L274 720 L275 720 L276 720 L277 720 L278 720 L279 720 L280 720 L281 700.2352941176471 L282 691.7647058823529 L283 711.5294117647059 L284 720 L285 720 L286 720 L287 720 L288 720 L289 720 L290 720 L291 720 L292 720 L293 720 L294 720 L295 720 L296 720 L297 720 L298 720 L299 720 L300 720 L301 720 L302 720 L303 720 L304 720 L305 720 L306 720 L307 720 L308 720 L309 720 L310 720 L311 720 L312 720 L313 720 L314 720 L315 720 L316 697.4117647058823 L317 694.5882352941177 L318 705.8823529411765 L319 720 L320 720 L321 720 L322 720 L323 720 L324 720 L325 720 L326 720 L327 720 L328 720 L329 720 L330 720 L331 720 L332 720 L333 720 L334 720 L335 720 L336 720 L337 720 L338 720 L339 720 L340 720 L341 720 L342 720 L343 720 L344 720 L345 720 L346 720 L347 720 L348 720 L349 720 L350 720 L351 720 L352 720 L353 720 L354 720 L355 720 L356 720 L357 720 L358 720 L359 720 L360 720 L361 720 L362 720 L363 720 L364 720 L365 720 L366 720 L367 720 L368 720 L369 720 L370 720 L371 720 L372 720 L373 720 L374 720 L375 720 L376 720 L377 720 L378 720 L379 720 L380 720 L381 720 L382 720 L383 720 L384 720 L385 720 L386 720 L387 720 L388 720 L389 720 L390 720 L391 720 L392 720 L393 720 L394 720 L395 720 L396 720 L397 720 L398 720 L399 720 L400 720 L401 720 L402 720 L403 720 L404 720 L405 720 L406 720 L407 720 L408 720 L409 720 L410 720 L411 720 L412 720 L413 720 L414 720 L415 720 L416 720 L417 720 L418 720 L419 720 L420 720 L421 720 L422 720 L423 720 L424 720 L425 720 L426 720 L427 720 L428 720 L429 720 L430 720 L431 720 L432 720 L433 720 L434 720 L435 720 L436 720 L437 720 L438 720 L439 720 L440 720 L441 720 L442 720 L443 720 L444 720 L445 720 L446 720 L447 720 L448 720 L449 720 L450 720 L451 720 L452 720 L453 720 L454 720 L455 720 L456 720 L457 720 L458 720 L459 720 L460 720 L461 720 L462 720 L463 720 L464 720 L465 720 L466 720 L467 720 L468 720 L469 720 L470 720 L471 720 L472 720 L473 720 L474 720 L475 720 L476 720 L477 720 L478 720 L479 720 L480 720 L481 720 L482 720 L483 720 L484 720 L485 720 L486 720 L487 720 L488 720 L489 720 L490 720 L491 720 L492 720 L493 720 L494 720 L495 720 L496 720 L497 720 L498 720 L499 720 L500 720 L501 720 L502 720 L503 720 L504 720 L505 720 L506 720 L507 720 L508 720 L509 720 L510 720 L511 720 L512 720 L513 720 L514 720 L515 720 L516 720 L517 720 L518 720 L519 720 L520 720 L521 720 L522 720 L523 720 L524 720 L525 720 L526 720 L527 720 L528 720 L529 720 L530 720 L531 720 L532 720 L533 720 L534 720 L535 720 L536 720 L537 720 L538 720 L539 720 L540 720 L541 720 L542 720 L543 720 L544 720 L545 720 L546 720 L547 720 L548 720 L549 720 L550 720 L551 720 L552 720 L553 720 L554 720 L555 720 L556 720 L557 720 L558 720 L559 720 L560 720 L561 720 L562 720 L563 720 L564 720 L565 720 L566 720 L567 720 L568 720 L569 720 L570 720 L571 720 L572 720 L573 720 L574 720 L575 720 L576 720 L577 720 L578 720 L579 720 L580 720 L581 720 L582 720 L583 720 L584 720 L585 720 L586 720 L587 720 L588 720 L589 720 L590 720 L591 720 L592 720 L593 720 L594 720 L595 720 L596 720 L597 720 L598 720 L599 720 L600 720 L601 720 L602 720 L603 720 L604 720 L605 720 L606 720 L607 720 L608 720 L609 720 L610 720 L611 720 L612 720 L613 720 L614 720 L615 720 L616 720 L617 720 L618 720 L619 720 L620 720 L621 720 L622 720 L623 720 L624 720 L625 720 L626 720 L627 720 L628 720 L629 720 L630 720 L631 720 L632 720 L633 720 L634 720 L635 720 L636 720 L637 720 L638 720 L639 720 L640 720 L641 720 L642 720 L643 720 L644 720 L645 720 L646 720 L647 720 L648 720 L649 720 L650 720 L651 720 L652 720 L653 720 L654 720 L655 720 L656 720 L657 720 L658 720 L659 720 L660 720 L661 720 L662 720 L663 720 L664 720 L665 720 L666 720 L667 720 L668 720 L669 720 L670 720 L671 720 L672 720 L673 720 L674 720 L675 720 L676 720 L677 720 L678 720 L679 720 L680 720 L681 720 L682 720 L683 720 L684 720 L685 720 L686 720 L687 720 L688 720 L689 720 L690 720 L691 720 L692 720 L693 720 L694 720 L695 720 L696 720 L697 720 L698 720 L699 720 L700 800  Z" stroke = "#000000" stroke-width = "1" fill = "#9f876780" />
</svg>