<svg width="824" height="824" viewbox = "0 0 824 824"  xmlns="http://www.w3.org/2000/svg">
 <path d = "M0 56 L1 64 L2 57 L3 47 L4 57 L5 84 L6 91 L7 74 L8 61 L9 68 L10 67 L11 71 L12 84 L13 98 L14 93 L15 75 L16 55 L17 52 L18 59 L19 71 L20 74 L21 70 L22 58 L23 43 L24 46 L25 50 L26 59 L27 64 L28 74 L29 75 L30 76 L31 77 L32 59 L33 39 L34 22 L35 18 L36 28 L37 28 L38 22 L39 6 L40 5 L41 8 L42 22 L43 22 L44 20 L45 28 L46 42 L47 41 L48 32 L49 37 L50 30 L51 41 L52 40 L53 29 L54 28 L55 17 L56 27 L57 31 L58 39 L59 35 L60 51 L61 51 L62 48 L63 46 L64 47 L65 48 L66 43 L67 28 L68 17 L69 28 L70 40 L71 29 L72 7 L73 16 L74 19 L75 16 L76 3 L77 14 L78 18 L79 18 L80 20 L81 9 L82 4 L83 9 L84 20 L85 22 L86 19 L87 16 L88 28 L89 35 L90 35 L91 28 L92 23 L93 14 L94 11 L95 14 L96 17 L97 13 L98 7 L99 11 L100 12 L101 13 L102 17 L103 7 L104 17 L105 27 L106 29 L107 24 L108 19 L109 8 L110 11 L111 18 L112 24 L113 23 L114 21 L115 18 L116 15 L117 16 L118 21 L119 16 L120 10 L121 6 L122 5 L123 12 L124 8 L125 4 L126 0 L127 0 L128 14 L129 8 L130 3 L131 1 L132 4 L133 6 L134 10 L135 14 L136 1 L137 0 L138 6 L139 5 L140 0 L141 0 L142 0 L143 8 L144 19 L145 16 L146 8 L147 3 L148 1 L149 0 L150 0 L151 0 L152 0 L153 0 L154 0 L155 0 L156 0 L157 0 L158 0 L159 0 L160 0 L161 0 L162 0 L163 4 L164 2 L165 1 L166 6 L167 12 L168 20 L169 10 L170 8 L171 7 L172 3 L173 0 L174 3 L175 8 L176 0 L177 0 L178 0 L179 0 L180 1 L181 10 L182 11 L183 14 L184 12 L185 2 L186 6 L187 10 L188 8 L189 8 L190 8 L191 10 L192 19 L193 24 L194 25 L195 26 L196 24 L197 18 L198 23 L199 22 L200 18 L201 21 L202 27 L203 22 L204 12 L205 12 L206 19 L207 24 L208 20 L209 14 L210 12 L211 13 L212 4 L213 0 L214 0 L215 2 L216 4 L217 3 L218 8 L219 12 L220 3 L221 0 L222 0 L223 0 L224 0 L225 0 L226 0 L227 6 L228 2 L229 0 L230 2 L231 6 L232 1 L233 0 L234 0 L235 0 L236 0 L237 0 L238 0 L239 0 L240 0 L241 0 L242 0 L243 0 L244 0 L245 8 L246 12 L247 0 L248 0 L249 0 L250 0 L251 0 L252 0 L253 0 L254 0 L255 0 L256 0 L257 0 L258 0 L259 0 L260 0 L261 0 L262 0 L263 0 L264 0 L265 0 L266 0 L267 0 L268 0 L269 0 L270 0 L271 0 L272 0 L273 0 L274 0 L275 0 L276 0 L277 0 L278 0 L279 0 L280 0 L281 0 L282 0 L283 0 L284 0 L285 0 L286 0 L287 0 L288 0 L289 0 L290 0 L291 0 L292 0 L293 0 L294 0 L295 0 L296 0 L297 0 L298 0 L299 0 L300 0 L301 0 L302 0 L303 0 L304 0 L305 0 L306 0 L307 0 L308 0 L309 0 L310 0 L311 0 L312 0 L313 0 L314 0 L315 0 L316 0 L317 0 L318 0 L319 0 L320 0 L321 0 L322 0 L323 0 L324 0 L325 0 L326 0 L327 0 L328 0 L329 0 L330 0 L331 0 L332 0 L333 0 L334 0 L335 0 L336 0 L337 0 L338 0 L339 0 L340 0 L341 0 L342 0 L343 0 L344 0 L345 0 L346 0 L347 0 L348 0 L349 0 L350 0 L351 0 L352 0 L353 0 L354 0 L355 0 L356 0 L357 0 L358 0 L359 0 L360 0 L361 0 L362 0 L363 0 L364 0 L365 0 L366 0 L367 0 L368 0 L369 0 L370 0 L371 0 L372 0 L373 0 L374 0 L375 0 L376 0 L377 0 L378 0 L379 0 L380 0 L381 0 L382 0 L383 0 L384 0 L385 0 L386 0 L387 0 L388 0 L389 0 L390 0 L391 0 L392 0 L393 0 L394 0 L395 0 L396 0 L397 0 L398 0 L399 0 L400 0 L401 0 L402 0 L403 0 L404 0 L405 0 L406 0 L407 0 L408 0 L409 0 L410 0 L411 0 L412 0 L413 0 L414 0 L415 0 L416 0 L417 0 L418 0 L419 0 L420 0 L421 0 L422 0 L423 0 L424 0 L425 0 L426 0 L427 0 L428 0 L429 0 L430 0 L431 0 L432 0 L433 0 L434 0 L435 0 L436 0 L437 0 L438 0 L439 0 L440 0 L441 0 L442 0 L443 0 L444 0 L445 0 L446 0 L447 0 L448 0 L449 0 L450 0 L451 0 L452 0 L453 0 L454 0 L455 0 L456 0 L457 0 L458 0 L459 0 L460 0 L461 0 L462 0 L463 0 L464 0 L465 0 L466 0 L467 0 L468 0 L469 0 L470 0 L471 0 L472 0 L473 0 L474 0 L475 0 L476 0 L477 0 L478 0 L479 0 L480 0 L481 0 L482 0 L483 0 L484 0 L485 0 L486 0 L487 0 L488 0 L489 0 L490 0 L491 0 L492 0 L493 0 L494 0 L495 0 L496 0 L497 0 L498 0 L499 0 L500 0 L501 0 L502 0 L503 0 L504 0 L505 0 L506 0 L507 0 L508 0 L509 0 L510 0 L511 0 L512 0 L513 0 L514 0 L515 0 L516 0 L517 0 L518 0 L519 0 L520 0 L521 0 L522 0 L523 0 L524 0 L525 0 L526 0 L527 0 L528 0 L529 0 L530 0 L531 0 L532 0 L533 0 L534 0 L535 0 L536 0 L537 0 L538 0 L539 0 L540 0 L541 0 L542 0 L543 0 L544 0 L545 0 L546 0 L547 0 L548 0 L549 0 L550 0 L551 0 L552 0 L553 0 L554 0 L555 0 L556 0 L557 0 L558 0 L559 0 L560 0 L561 0 L562 0 L563 0 L564 0 L565 0 L566 0 L567 0 L568 0 L569 0 L570 0 L571 0 L572 0 L573 0 L574 0 L575 0 L576 0 L577 0 L578 0 L579 0 L580 0 L581 0 L582 0 L583 0 L584 0 L585 0 L586 0 L587 0 L588 0 L589 0 L590 0 L591 0 L592 0 L593 0 L594 0 L595 0 L596 0 L597 0 L598 0 L599 0 L600 0 L601 0 L602 0 L603 0 L604 0 L605 0 L606 0 L607 0 L608 0 L609 0 L610 0 L611 0 L612 0 L613 0 L614 0 L615 0 L616 0 L617 0 L618 0 L619 0 L620 0 L621 0 L622 0 L623 0 L624 0 L625 0 L626 0 L627 0 L628 0 L629 0 L630 0 L631 0 L632 0 L633 0 L634 0 L635 0 L636 0 L637 0 L638 0 L639 0 L640 0 L641 0 L642 0 L643 0 L644 0 L645 0 L646 0 L647 0 L648 0 L649 0 L650 0 L651 0 L652 0 L653 0 L654 0 L655 0 L656 0 L657 0 L658 0 L659 0 L660 0 L661 0 L662 0 L663 0 L664 0 L665 0 L666 0 L667 0 L668 0 L669 0 L670 0 L671 0 L672 0 L673 0 L674 0 L675 0 L676 0 L677 0 L678 0 L679 0 L680 0 L681 0 L682 0 L683 0 L684 0 L685 0 L686 0 L687 0 L688 0 L689 0 L690 0 L691 0 L692 0 L693 0 L694 0 L695 0 L696 0 L697 0 L698 0 L699 0 L700 0 L701 0 L702 0 L703 0 L704 0 L705 0 L706 0 L707 0 L708 0 L709 0 L710 0 L711 0 L712 0 L713 0 L714 0 L715 0 L716 0 L717 0 L718 0 L719 0 L720 0 L721 0 L722 0 L723 0 L724 0 L725 0 L726 0 L727 0 L728 0 L729 0 L730 0 L731 0 L732 0 L733 0 L734 0 L735 0 L736 0 L737 0 L738 0 L739 0 L740 0 L741 0 L742 0 L743 0 L744 0 L745 0 L746 0 L747 0 L748 0 L749 0 L750 0 L751 0 L752 0 L753 0 L754 0 L755 0 L756 0 L757 0 L758 0 L759 0 L760 0 L761 0 L762 0 L763 0 L764 0 L765 0 L766 0 L767 0 L768 0 L769 0 L770 0 L771 0 L772 0 L773 0 L774 0 L775 0 L776 0 L777 0 L778 0 L779 0 L780 0 L781 0 L782 0 L783 0 L784 0 L785 0 L786 0 L787 0 L788 0 L789 0 L790 0 L791 0 L792 0 L793 0 L794 0 L795 0 L796 0 L797 0 L798 0 L799 0 L800 0 L801 0 L802 0 L803 0 L804 0 L805 0 L806 0 L807 0 L808 0 L809 0 L810 0 L811 0 L812 0 L813 0 L814 0 L815 0 L816 0 L817 0 L818 0 L819 0 L820 0 L821 0 L822 0 L823 0 L824 0 L825 0 L826 0 L827 0 L828 0 L829 0 L830 0 L831 0 L832 0 L833 0 L834 0 L835 0 L836 0 L837 0 L838 0 L839 0 L840 0 L841 0 L842 0 L843 0 L844 0 L845 0 L846 0 L847 0 L848 0 L849 0 L850 0 L851 0 L852 0 L853 0 L854 0 L855 0 L856 0 L857 0 L858 0 L859 0 L860 0 L861 0 L862 0 L863 0 L864 0 L865 0 L866 0 L867 0 L868 0 L869 0 L870 0 L871 0 L872 0 L873 0 L874 0 L875 0 L876 0 L877 0 L878 0 L879 0 L880 0 L881 0 L882 0 L883 0 L884 0 L885 0 L886 0 L887 0 L888 0 L889 0 L890 0 L891 0 L892 0 L893 0 L894 0 L895 0 L896 0 L897 0 L898 0 L899 0 L900 0 L901 0 L902 0 L903 0 L904 0 L905 0 L906 0 L907 0 L908 0 L909 0 L910 0 L911 0 L912 0 L913 0 L914 0 L915 0 L916 0 L917 0 L918 0 L919 0 L920 0 L921 0 L922 0 L923 0 L924 0 L925 0 L926 0 L927 0 L928 0 L929 0 L930 0 L931 0 L932 0 L933 0 L934 0 L935 0 L936 0 L937 0 L938 0 L939 0 L940 0 L941 0 L942 0 L943 0 L944 0 L945 0 L946 0 L947 0 L948 0 L949 0 L950 0 L951 0 L952 0 L953 0 L954 0 L955 0 L956 0 L957 0 L958 0 L959 0 L960 0 L961 0 L962 0 L963 0 L964 0 L965 0 L966 0 L967 0 L968 0 L969 0 L970 0 L971 0 L972 0 L973 0 L974 0 L975 0 L976 0 L977 0 L978 0 L979 0 L980 0 L981 0 L982 0 L983 0 L984 0 L985 0 L986 0 L987 0 L988 0 L989 0 L990 0 L991 0 L992 0 L993 0 L994 0 L995 0 L996 0 L997 0 L998 0 L999 0 L1000 0 L1001 0 L1002 0 L1003 0 L1004 0 L1005 0 L1006 0 L1007 0 L1008 0 L1009 0 L1010 0 L1011 0 L1012 0 L1013 0 L1014 0 L1015 0 L1016 0 L1017 0 L1018 0 L1019 0 L1020 0 L1021 0 L1022 0 L1023 0 L824 824  Z" stroke = "#000000" stroke-width = "1" fill = "#000000" />
</svg>