<svg width="800" height="800" viewbox = "0 0 800 800"  xmlns="http://www.w3.org/2000/svg">
 <path d = "M0 800 L1 496.94117647058823 L2 539.2941176470588 L3 590.1176470588235 L4 482.8235294117647 L5 372.70588235294116 L6 347.2941176470588 L7 364.2352941176471 L8 310.5882352941177 L9 237.1764705882353 L10 234.35294117647055 L11 302.1176470588235 L12 341.6470588235294 L13 344.4705882352941 L14 367.05882352941177 L15 344.4705882352941 L16 307.764705882353 L17 302.1176470588235 L18 304.9411764705883 L19 282.3529411764706 L20 307.764705882353 L21 355.7647058823529 L22 395.29411764705884 L23 398.11764705882354 L24 398.11764705882354 L25 358.5882352941177 L26 347.2941176470588 L27 375.52941176470586 L28 395.29411764705884 L29 412.2352941176471 L30 448.94117647058823 L31 502.5882352941177 L32 536.4705882352941 L33 516.7058823529412 L34 494.11764705882354 L35 488.4705882352941 L36 516.7058823529412 L37 553.4117647058823 L38 550.5882352941177 L39 530.8235294117646 L40 522.3529411764706 L41 522.3529411764706 L42 528 L43 516.7058823529412 L44 491.29411764705884 L45 488.4705882352941 L46 468.7058823529412 L47 491.29411764705884 L48 508.2352941176471 L49 474.3529411764706 L50 505.4117647058823 L51 519.5294117647059 L52 513.8823529411765 L53 511.0588235294117 L54 511.0588235294117 L55 522.3529411764706 L56 505.4117647058823 L57 485.6470588235294 L58 480 L59 463.05882352941177 L60 417.88235294117646 L61 389.64705882352945 L62 386.8235294117647 L63 412.2352941176471 L64 420.70588235294116 L65 398.11764705882354 L66 398.11764705882354 L67 409.4117647058823 L68 434.8235294117647 L69 406.5882352941176 L70 412.2352941176471 L71 465.88235294117646 L72 474.3529411764706 L73 499.7647058823529 L74 491.29411764705884 L75 525.1764705882354 L76 595.7647058823529 L77 640.9411764705883 L78 672 L79 618.3529411764706 L80 592.9411764705883 L81 598.5882352941177 L82 590.1176470588235 L83 609.8823529411765 L84 640.9411764705883 L85 632.4705882352941 L86 666.3529411764706 L87 720 L88 717.1764705882352 L89 708.7058823529412 L90 677.6470588235294 L91 643.7647058823529 L92 612.7058823529412 L93 621.1764705882352 L94 655.0588235294117 L95 660.7058823529412 L96 660.7058823529412 L97 649.4117647058823 L98 688.9411764705883 L99 714.3529411764706 L100 669.1764705882352 L101 691.7647058823529 L102 720 L103 720 L104 705.8823529411765 L105 697.4117647058823 L106 705.8823529411765 L107 720 L108 720 L109 720 L110 720 L111 720 L112 720 L113 720 L114 720 L115 720 L116 720 L117 694.5882352941177 L118 660.7058823529412 L119 655.0588235294117 L120 657.8823529411765 L121 705.8823529411765 L122 632.4705882352941 L123 629.6470588235294 L124 609.8823529411765 L125 576 L126 584.4705882352941 L127 590.1176470588235 L128 590.1176470588235 L129 604.2352941176471 L130 573.1764705882354 L131 581.6470588235294 L132 638.1176470588235 L133 697.4117647058823 L134 700.2352941176471 L135 674.8235294117648 L136 683.2941176470588 L137 720 L138 708.7058823529412 L139 666.3529411764706 L140 672 L141 714.3529411764706 L142 714.3529411764706 L143 703.0588235294117 L144 720 L145 720 L146 720 L147 720 L148 720 L149 720 L150 720 L151 720 L152 720 L153 703.0588235294117 L154 717.1764705882352 L155 720 L156 720 L157 720 L158 720 L159 720 L160 720 L161 720 L162 720 L163 720 L164 720 L165 720 L166 720 L167 720 L168 705.8823529411765 L169 688.9411764705883 L170 720 L171 688.9411764705883 L172 683.2941176470588 L173 720 L174 720 L175 657.8823529411765 L176 621.1764705882352 L177 587.2941176470588 L178 576 L179 584.4705882352941 L180 581.6470588235294 L181 590.1176470588235 L182 629.6470588235294 L183 640.9411764705883 L184 643.7647058823529 L185 643.7647058823529 L186 643.7647058823529 L187 657.8823529411765 L188 674.8235294117648 L189 666.3529411764706 L190 691.7647058823529 L191 720 L192 720 L193 720 L194 703.0588235294117 L195 694.5882352941177 L196 720 L197 720 L198 720 L199 720 L200 720 L201 720 L202 714.3529411764706 L203 720 L204 720 L205 720 L206 720 L207 700.2352941176471 L208 703.0588235294117 L209 720 L210 720 L211 720 L212 720 L213 720 L214 720 L215 720 L216 720 L217 720 L218 720 L219 711.5294117647059 L220 711.5294117647059 L221 720 L222 720 L223 720 L224 720 L225 720 L226 720 L227 720 L228 720 L229 720 L230 720 L231 720 L232 720 L233 720 L234 720 L235 720 L236 720 L237 720 L238 720 L239 720 L240 720 L241 720 L242 666.3529411764706 L243 618.3529411764706 L244 609.8823529411765 L245 632.4705882352941 L246 669.1764705882352 L247 705.8823529411765 L248 720 L249 720 L250 720 L251 720 L252 720 L253 720 L254 691.7647058823529 L255 705.8823529411765 L256 720 L257 720 L258 720 L259 720 L260 720 L261 720 L262 720 L263 720 L264 720 L265 720 L266 720 L267 720 L268 720 L269 720 L270 720 L271 720 L272 720 L273 720 L274 720 L275 720 L276 720 L277 703.0588235294117 L278 669.1764705882352 L279 703.0588235294117 L280 720 L281 720 L282 720 L283 720 L284 711.5294117647059 L285 720 L286 720 L287 720 L288 720 L289 720 L290 720 L291 720 L292 686.1176470588235 L293 629.6470588235294 L294 629.6470588235294 L295 626.8235294117646 L296 576 L297 573.1764705882354 L298 584.4705882352941 L299 584.4705882352941 L300 592.9411764705883 L301 626.8235294117646 L302 680.4705882352941 L303 720 L304 720 L305 700.2352941176471 L306 683.2941176470588 L307 720 L308 720 L309 720 L310 720 L311 720 L312 720 L313 720 L314 720 L315 720 L316 705.8823529411765 L317 703.0588235294117 L318 720 L319 720 L320 720 L321 720 L322 720 L323 711.5294117647059 L324 720 L325 720 L326 720 L327 720 L328 680.4705882352941 L329 629.6470588235294 L330 626.8235294117646 L331 638.1176470588235 L332 649.4117647058823 L333 652.2352941176471 L334 669.1764705882352 L335 708.7058823529412 L336 720 L337 674.8235294117648 L338 652.2352941176471 L339 672 L340 720 L341 720 L342 720 L343 720 L344 717.1764705882352 L345 686.1176470588235 L346 683.2941176470588 L347 635.2941176470588 L348 609.8823529411765 L349 643.7647058823529 L350 672 L351 638.1176470588235 L352 646.5882352941177 L353 660.7058823529412 L354 688.9411764705883 L355 720 L356 720 L357 720 L358 703.0588235294117 L359 708.7058823529412 L360 720 L361 720 L362 720 L363 720 L364 672 L365 666.3529411764706 L366 720 L367 720 L368 720 L369 705.8823529411765 L370 705.8823529411765 L371 708.7058823529412 L372 720 L373 720 L374 680.4705882352941 L375 660.7058823529412 L376 691.7647058823529 L377 666.3529411764706 L378 655.0588235294117 L379 691.7647058823529 L380 660.7058823529412 L381 649.4117647058823 L382 643.7647058823529 L383 626.8235294117646 L384 657.8823529411765 L385 714.3529411764706 L386 680.4705882352941 L387 694.5882352941177 L388 717.1764705882352 L389 720 L390 720 L391 720 L392 720 L393 700.2352941176471 L394 663.5294117647059 L395 683.2941176470588 L396 720 L397 720 L398 720 L399 691.7647058823529 L400 657.8823529411765 L401 655.0588235294117 L402 660.7058823529412 L403 683.2941176470588 L404 705.8823529411765 L405 694.5882352941177 L406 686.1176470588235 L407 697.4117647058823 L408 663.5294117647059 L409 632.4705882352941 L410 638.1176470588235 L411 643.7647058823529 L412 660.7058823529412 L413 686.1176470588235 L414 720 L415 708.7058823529412 L416 663.5294117647059 L417 643.7647058823529 L418 669.1764705882352 L419 720 L420 697.4117647058823 L421 635.2941176470588 L422 618.3529411764706 L423 646.5882352941177 L424 720 L425 720 L426 720 L427 720 L428 714.3529411764706 L429 674.8235294117648 L430 666.3529411764706 L431 672 L432 677.6470588235294 L433 697.4117647058823 L434 720 L435 720 L436 711.5294117647059 L437 683.2941176470588 L438 669.1764705882352 L439 672 L440 686.1176470588235 L441 717.1764705882352 L442 714.3529411764706 L443 720 L444 720 L445 720 L446 720 L447 720 L448 717.1764705882352 L449 694.5882352941177 L450 686.1176470588235 L451 720 L452 680.4705882352941 L453 674.8235294117648 L454 720 L455 669.1764705882352 L456 655.0588235294117 L457 694.5882352941177 L458 720 L459 720 L460 720 L461 720 L462 714.3529411764706 L463 708.7058823529412 L464 720 L465 720 L466 720 L467 720 L468 720 L469 720 L470 703.0588235294117 L471 720 L472 720 L473 720 L474 720 L475 720 L476 720 L477 720 L478 720 L479 720 L480 720 L481 720 L482 720 L483 720 L484 720 L485 720 L486 720 L487 720 L488 720 L489 720 L490 720 L491 720 L492 720 L493 720 L494 720 L495 720 L496 720 L497 720 L498 720 L499 720 L500 720 L501 720 L502 720 L503 720 L504 720 L505 720 L506 720 L507 720 L508 720 L509 720 L510 720 L511 720 L512 720 L513 720 L514 720 L515 720 L516 720 L517 697.4117647058823 L518 714.3529411764706 L519 694.5882352941177 L520 683.2941176470588 L521 674.8235294117648 L522 677.6470588235294 L523 703.0588235294117 L524 700.2352941176471 L525 720 L526 720 L527 720 L528 720 L529 720 L530 720 L531 720 L532 720 L533 720 L534 720 L535 720 L536 720 L537 720 L538 720 L539 720 L540 720 L541 720 L542 720 L543 720 L544 720 L545 717.1764705882352 L546 720 L547 720 L548 720 L549 720 L550 720 L551 720 L552 720 L553 720 L554 720 L555 720 L556 708.7058823529412 L557 720 L558 720 L559 720 L560 720 L561 720 L562 720 L563 720 L564 720 L565 720 L566 720 L567 720 L568 720 L569 720 L570 720 L571 720 L572 720 L573 720 L574 720 L575 720 L576 720 L577 720 L578 720 L579 720 L580 720 L581 720 L582 720 L583 720 L584 720 L585 720 L586 720 L587 720 L588 720 L589 720 L590 720 L591 720 L592 720 L593 720 L594 720 L595 720 L596 720 L597 720 L598 720 L599 720 L600 720 L601 720 L602 720 L603 703.0588235294117 L604 691.7647058823529 L605 688.9411764705883 L606 686.1176470588235 L607 700.2352941176471 L608 720 L609 720 L610 720 L611 720 L612 717.1764705882352 L613 720 L614 720 L615 720 L616 720 L617 720 L618 720 L619 720 L620 720 L621 720 L622 720 L623 720 L624 720 L625 720 L626 720 L627 720 L628 720 L629 720 L630 720 L631 720 L632 720 L633 720 L634 720 L635 720 L636 720 L637 720 L638 720 L639 720 L640 720 L641 720 L642 720 L643 720 L644 720 L645 720 L646 720 L647 720 L648 720 L649 720 L650 720 L651 720 L652 720 L653 720 L654 720 L655 720 L656 720 L657 720 L658 720 L659 720 L660 720 L661 720 L662 720 L663 720 L664 720 L665 720 L666 720 L667 720 L668 720 L669 720 L670 720 L671 720 L672 720 L673 720 L674 720 L675 720 L676 720 L677 720 L678 720 L679 720 L680 720 L681 720 L682 720 L683 720 L684 720 L685 720 L686 720 L687 720 L688 720 L689 720 L690 720 L691 720 L692 720 L693 720 L694 720 L695 720 L696 720 L697 720 L698 720 L699 720 L700 800  Z" stroke = "#000000" stroke-width = "1" fill = "#9f876780" />
</svg>