<svg width="800" height="800" viewbox = "0 0 800 800"  xmlns="http://www.w3.org/2000/svg">
 <path d = "M0 800 L1 499.7647058823529 L2 519.5294117647059 L3 561.8823529411765 L4 443.2941176470588 L5 321.88235294117646 L6 288 L7 316.2352941176471 L8 347.2941176470588 L9 333.1764705882353 L10 350.11764705882354 L11 341.6470588235294 L12 288 L13 290.8235294117647 L14 336 L15 384 L16 372.70588235294116 L17 316.2352941176471 L18 259.764705882353 L19 251.29411764705878 L20 273.88235294117646 L21 330.3529411764706 L22 400.94117647058823 L23 434.8235294117647 L24 423.5294117647059 L25 400.94117647058823 L26 378.3529411764706 L27 372.70588235294116 L28 372.70588235294116 L29 406.5882352941176 L30 460.2352941176471 L31 488.4705882352941 L32 502.5882352941177 L33 488.4705882352941 L34 448.94117647058823 L35 420.70588235294116 L36 446.11764705882354 L37 508.2352941176471 L38 477.17647058823525 L39 465.88235294117646 L40 460.2352941176471 L41 457.4117647058824 L42 457.4117647058824 L43 477.17647058823525 L44 454.5882352941176 L45 443.2941176470588 L46 451.7647058823529 L47 480 L48 511.0588235294117 L49 547.7647058823529 L50 581.6470588235294 L51 615.5294117647059 L52 663.5294117647059 L53 626.8235294117646 L54 592.9411764705883 L55 573.1764705882354 L56 576 L57 564.7058823529412 L58 587.2941176470588 L59 584.4705882352941 L60 528 L61 505.4117647058823 L62 505.4117647058823 L63 499.7647058823529 L64 488.4705882352941 L65 505.4117647058823 L66 511.0588235294117 L67 494.11764705882354 L68 496.94117647058823 L69 530.8235294117646 L70 525.1764705882354 L71 505.4117647058823 L72 533.6470588235294 L73 595.7647058823529 L74 635.2941176470588 L75 666.3529411764706 L76 697.4117647058823 L77 720 L78 717.1764705882352 L79 688.9411764705883 L80 674.8235294117648 L81 680.4705882352941 L82 686.1176470588235 L83 674.8235294117648 L84 646.5882352941177 L85 638.1176470588235 L86 660.7058823529412 L87 666.3529411764706 L88 652.2352941176471 L89 652.2352941176471 L90 646.5882352941177 L91 638.1176470588235 L92 632.4705882352941 L93 626.8235294117646 L94 672 L95 700.2352941176471 L96 697.4117647058823 L97 714.3529411764706 L98 720 L99 717.1764705882352 L100 700.2352941176471 L101 703.0588235294117 L102 694.5882352941177 L103 700.2352941176471 L104 703.0588235294117 L105 677.6470588235294 L106 638.1176470588235 L107 660.7058823529412 L108 720 L109 720 L110 720 L111 720 L112 720 L113 720 L114 720 L115 720 L116 720 L117 720 L118 720 L119 720 L120 720 L121 720 L122 720 L123 686.1176470588235 L124 640.9411764705883 L125 663.5294117647059 L126 700.2352941176471 L127 680.4705882352941 L128 660.7058823529412 L129 649.4117647058823 L130 646.5882352941177 L131 666.3529411764706 L132 683.2941176470588 L133 683.2941176470588 L134 700.2352941176471 L135 714.3529411764706 L136 720 L137 720 L138 720 L139 720 L140 720 L141 720 L142 720 L143 720 L144 720 L145 720 L146 720 L147 720 L148 720 L149 720 L150 720 L151 720 L152 720 L153 720 L154 720 L155 720 L156 720 L157 720 L158 720 L159 720 L160 720 L161 720 L162 720 L163 720 L164 720 L165 720 L166 700.2352941176471 L167 705.8823529411765 L168 720 L169 720 L170 720 L171 666.3529411764706 L172 638.1176470588235 L173 657.8823529411765 L174 697.4117647058823 L175 672 L176 649.4117647058823 L177 649.4117647058823 L178 646.5882352941177 L179 632.4705882352941 L180 615.5294117647059 L181 601.4117647058823 L182 621.1764705882352 L183 672 L184 720 L185 705.8823529411765 L186 657.8823529411765 L187 609.8823529411765 L188 595.7647058823529 L189 601.4117647058823 L190 632.4705882352941 L191 703.0588235294117 L192 666.3529411764706 L193 649.4117647058823 L194 612.7058823529412 L195 615.5294117647059 L196 669.1764705882352 L197 643.7647058823529 L198 615.5294117647059 L199 609.8823529411765 L200 632.4705882352941 L201 629.6470588235294 L202 638.1176470588235 L203 674.8235294117648 L204 635.2941176470588 L205 638.1176470588235 L206 618.3529411764706 L207 612.7058823529412 L208 638.1176470588235 L209 677.6470588235294 L210 700.2352941176471 L211 694.5882352941177 L212 703.0588235294117 L213 720 L214 697.4117647058823 L215 680.4705882352941 L216 700.2352941176471 L217 703.0588235294117 L218 714.3529411764706 L219 694.5882352941177 L220 652.2352941176471 L221 652.2352941176471 L222 683.2941176470588 L223 720 L224 714.3529411764706 L225 720 L226 720 L227 720 L228 720 L229 720 L230 708.7058823529412 L231 700.2352941176471 L232 697.4117647058823 L233 669.1764705882352 L234 691.7647058823529 L235 720 L236 714.3529411764706 L237 697.4117647058823 L238 705.8823529411765 L239 708.7058823529412 L240 683.2941176470588 L241 700.2352941176471 L242 720 L243 720 L244 720 L245 714.3529411764706 L246 720 L247 714.3529411764706 L248 674.8235294117648 L249 691.7647058823529 L250 720 L251 720 L252 705.8823529411765 L253 655.0588235294117 L254 632.4705882352941 L255 640.9411764705883 L256 666.3529411764706 L257 674.8235294117648 L258 688.9411764705883 L259 717.1764705882352 L260 705.8823529411765 L261 705.8823529411765 L262 714.3529411764706 L263 694.5882352941177 L264 691.7647058823529 L265 720 L266 720 L267 720 L268 720 L269 720 L270 677.6470588235294 L271 652.2352941176471 L272 652.2352941176471 L273 629.6470588235294 L274 621.1764705882352 L275 657.8823529411765 L276 655.0588235294117 L277 640.9411764705883 L278 632.4705882352941 L279 663.5294117647059 L280 697.4117647058823 L281 691.7647058823529 L282 720 L283 683.2941176470588 L284 683.2941176470588 L285 720 L286 688.9411764705883 L287 691.7647058823529 L288 691.7647058823529 L289 640.9411764705883 L290 643.7647058823529 L291 688.9411764705883 L292 720 L293 688.9411764705883 L294 691.7647058823529 L295 720 L296 720 L297 720 L298 708.7058823529412 L299 691.7647058823529 L300 705.8823529411765 L301 720 L302 720 L303 711.5294117647059 L304 714.3529411764706 L305 672 L306 666.3529411764706 L307 688.9411764705883 L308 688.9411764705883 L309 663.5294117647059 L310 677.6470588235294 L311 686.1176470588235 L312 672 L313 680.4705882352941 L314 697.4117647058823 L315 705.8823529411765 L316 705.8823529411765 L317 691.7647058823529 L318 703.0588235294117 L319 717.1764705882352 L320 688.9411764705883 L321 640.9411764705883 L322 649.4117647058823 L323 691.7647058823529 L324 688.9411764705883 L325 705.8823529411765 L326 680.4705882352941 L327 688.9411764705883 L328 720 L329 711.5294117647059 L330 720 L331 720 L332 700.2352941176471 L333 663.5294117647059 L334 640.9411764705883 L335 640.9411764705883 L336 660.7058823529412 L337 703.0588235294117 L338 720 L339 720 L340 720 L341 720 L342 720 L343 720 L344 700.2352941176471 L345 691.7647058823529 L346 660.7058823529412 L347 638.1176470588235 L348 607.0588235294117 L349 604.2352941176471 L350 629.6470588235294 L351 672 L352 720 L353 720 L354 720 L355 720 L356 683.2941176470588 L357 688.9411764705883 L358 720 L359 674.8235294117648 L360 674.8235294117648 L361 717.1764705882352 L362 720 L363 711.5294117647059 L364 663.5294117647059 L365 672 L366 720 L367 694.5882352941177 L368 657.8823529411765 L369 649.4117647058823 L370 643.7647058823529 L371 643.7647058823529 L372 660.7058823529412 L373 691.7647058823529 L374 621.1764705882352 L375 578.8235294117646 L376 587.2941176470588 L377 621.1764705882352 L378 640.9411764705883 L379 674.8235294117648 L380 649.4117647058823 L381 652.2352941176471 L382 686.1176470588235 L383 652.2352941176471 L384 666.3529411764706 L385 683.2941176470588 L386 697.4117647058823 L387 638.1176470588235 L388 609.8823529411765 L389 615.5294117647059 L390 640.9411764705883 L391 694.5882352941177 L392 674.8235294117648 L393 686.1176470588235 L394 680.4705882352941 L395 680.4705882352941 L396 677.6470588235294 L397 688.9411764705883 L398 694.5882352941177 L399 655.0588235294117 L400 629.6470588235294 L401 652.2352941176471 L402 666.3529411764706 L403 688.9411764705883 L404 655.0588235294117 L405 638.1176470588235 L406 657.8823529411765 L407 683.2941176470588 L408 697.4117647058823 L409 711.5294117647059 L410 677.6470588235294 L411 669.1764705882352 L412 717.1764705882352 L413 720 L414 705.8823529411765 L415 688.9411764705883 L416 669.1764705882352 L417 677.6470588235294 L418 720 L419 720 L420 711.5294117647059 L421 717.1764705882352 L422 720 L423 714.3529411764706 L424 720 L425 720 L426 720 L427 720 L428 694.5882352941177 L429 674.8235294117648 L430 705.8823529411765 L431 714.3529411764706 L432 691.7647058823529 L433 717.1764705882352 L434 705.8823529411765 L435 680.4705882352941 L436 691.7647058823529 L437 683.2941176470588 L438 677.6470588235294 L439 714.3529411764706 L440 720 L441 697.4117647058823 L442 683.2941176470588 L443 700.2352941176471 L444 720 L445 720 L446 720 L447 720 L448 720 L449 720 L450 720 L451 720 L452 720 L453 720 L454 720 L455 720 L456 720 L457 720 L458 720 L459 720 L460 720 L461 720 L462 720 L463 720 L464 720 L465 720 L466 720 L467 720 L468 720 L469 720 L470 720 L471 720 L472 720 L473 705.8823529411765 L474 714.3529411764706 L475 720 L476 720 L477 720 L478 720 L479 720 L480 720 L481 720 L482 720 L483 720 L484 720 L485 720 L486 720 L487 720 L488 720 L489 720 L490 720 L491 705.8823529411765 L492 703.0588235294117 L493 691.7647058823529 L494 672 L495 672 L496 688.9411764705883 L497 714.3529411764706 L498 720 L499 720 L500 720 L501 720 L502 720 L503 720 L504 720 L505 720 L506 720 L507 691.7647058823529 L508 649.4117647058823 L509 640.9411764705883 L510 660.7058823529412 L511 666.3529411764706 L512 677.6470588235294 L513 697.4117647058823 L514 694.5882352941177 L515 711.5294117647059 L516 688.9411764705883 L517 672 L518 674.8235294117648 L519 686.1176470588235 L520 677.6470588235294 L521 683.2941176470588 L522 672 L523 649.4117647058823 L524 638.1176470588235 L525 657.8823529411765 L526 688.9411764705883 L527 720 L528 720 L529 720 L530 720 L531 720 L532 720 L533 720 L534 720 L535 720 L536 720 L537 720 L538 720 L539 720 L540 720 L541 720 L542 720 L543 720 L544 720 L545 720 L546 720 L547 720 L548 720 L549 720 L550 720 L551 720 L552 720 L553 720 L554 720 L555 720 L556 720 L557 720 L558 720 L559 720 L560 720 L561 720 L562 720 L563 720 L564 720 L565 720 L566 720 L567 720 L568 720 L569 720 L570 720 L571 720 L572 720 L573 720 L574 720 L575 720 L576 720 L577 720 L578 720 L579 720 L580 720 L581 720 L582 720 L583 720 L584 720 L585 720 L586 720 L587 720 L588 720 L589 720 L590 720 L591 720 L592 720 L593 720 L594 720 L595 720 L596 720 L597 720 L598 720 L599 720 L600 720 L601 720 L602 720 L603 720 L604 720 L605 720 L606 720 L607 720 L608 720 L609 720 L610 720 L611 720 L612 720 L613 720 L614 720 L615 720 L616 720 L617 720 L618 720 L619 720 L620 720 L621 720 L622 720 L623 720 L624 720 L625 720 L626 720 L627 720 L628 720 L629 720 L630 720 L631 720 L632 720 L633 720 L634 720 L635 720 L636 720 L637 720 L638 720 L639 720 L640 720 L641 720 L642 720 L643 720 L644 720 L645 720 L646 720 L647 720 L648 720 L649 720 L650 720 L651 720 L652 720 L653 720 L654 720 L655 720 L656 720 L657 720 L658 720 L659 720 L660 720 L661 720 L662 720 L663 720 L664 720 L665 720 L666 720 L667 720 L668 720 L669 720 L670 720 L671 720 L672 720 L673 720 L674 720 L675 720 L676 720 L677 720 L678 720 L679 720 L680 720 L681 720 L682 720 L683 720 L684 720 L685 720 L686 720 L687 720 L688 720 L689 720 L690 720 L691 720 L692 720 L693 720 L694 720 L695 720 L696 720 L697 720 L698 720 L699 720 L700 800  Z" stroke = "#000000" stroke-width = "1" fill = "#9f876780" />
</svg>